<svg xmlns="http://www.w3.org/2000/svg" width="173" height="173" viewBox="0 0 173 173">
    <defs>
        <clipPath id="eqg6gkl5sa">
            <path data-name="Rectangle 8511" transform="translate(991 6390)" style="fill:#fff;stroke:#707070" d="M0 0h173v173H0z"/>
        </clipPath>
    </defs>
    <g data-name="Mask Group 157" transform="translate(-991 -6390)" style="clip-path:url(#eqg6gkl5sa)">
        <g data-name="bosch-logo-simple (1)">
            <path data-name="Path 46350" d="M1011.938 6459a17.938 17.938 0 1 0 17.938 17.938 17.95 17.95 0 0 0-17.938-17.938zm0 34.078a16.14 16.14 0 1 1 16.14-16.14 16.158 16.158 0 0 1-16.14 16.14z"/>
            <path data-name="Path 46351" d="M1018.338 6465.44a.4.4 0 0 0-.217-.059.405.405 0 0 0-.415.415v5.611a.354.354 0 0 1-.356.356h-10.865a.367.367 0 0 1-.356-.356v-5.611a.45.45 0 0 0-.059-.217.416.416 0 0 0-.573-.138 13.462 13.462 0 0 0 .04 23 .4.4 0 0 0 .217.059.405.405 0 0 0 .415-.415v-5.616a.367.367 0 0 1 .356-.356h10.865a.354.354 0 0 1 .356.356v5.611a.45.45 0 0 0 .059.217.416.416 0 0 0 .573.138 13.419 13.419 0 0 0-.04-23zm-14.263 18.531.059.672-.435-.533a11.549 11.549 0 0 1 0-14.362l.375-.474.059-.059-.059.691a16.049 16.049 0 0 0-.079 1.7v10.646c.001.573.04 1.146.08 1.719zm13.631-4.346a.354.354 0 0 1-.356.356h-10.865a.367.367 0 0 1-.356-.356v-5.374a.354.354 0 0 1 .356-.356h10.866a.354.354 0 0 1 .356.356zm2.45 4.484-.435.533.059-.672a16.049 16.049 0 0 0 .079-1.7v-10.666a16.05 16.05 0 0 0-.079-1.7l-.02-.3-.02-.316v-.079l.415.533a11.531 11.531 0 0 1 0 14.362z"/>
            <g data-name="Group 10382">
                <path data-name="Path 46352" d="M249.509 34.313c-.1-.04-.217-.079-.217-.2a.19.19 0 0 1 .119-.178 5.6 5.6 0 0 0 3.556-5.314c0-4.484-3.023-7.151-8.119-7.151H232.5v26.355h13.473c3.931 0 8.159-2.786 8.159-7.27a6.341 6.341 0 0 0-4.623-6.242zm-10.786-7.448a.177.177 0 0 1 .178-.178h4.9a2.577 2.577 0 0 1 2.726 2.706 2.679 2.679 0 0 1-2.845 2.627H238.9a.177.177 0 0 1-.178-.178zM243.8 42.63h-4.9a.177.177 0 0 1-.178-.178V37.2a.177.177 0 0 1 .178-.178h4.781c2.351 0 3.694 1.008 3.694 2.786 0 1.837-1.245 2.825-3.576 2.825zm52.036-10.668-.948-.2c-2.134-.454-4.208-1.027-4.208-2.865s1.719-2.667 3.418-2.667a7.727 7.727 0 0 1 5.472 2.43l3.912-3.872A12.315 12.315 0 0 0 294 20.8c-5.808 0-9.72 3.3-9.72 8.218 0 5.2 4.089 7.151 7.527 7.882l.928.2c3.339.711 4.919 1.245 4.919 3.141 0 1.7-1.521 2.825-3.773 2.825a8.548 8.548 0 0 1-6.776-3.358l-4.01 3.931c2.134 2.529 4.959 4.82 10.865 4.82 5.038 0 10.154-2.924 10.154-8.534-.02-5.749-3.931-7.053-8.278-7.961zm52.056-10.49v9.641a.177.177 0 0 1-.178.178h-8.1a.177.177 0 0 1-.178-.178v-9.641H332.8v26.353h6.638V37.474a.177.177 0 0 1 .178-.178h8.1a.177.177 0 0 1 .178.178v10.351h6.677V21.472zm-28.448 20.96c-2.983 0-6.2-2.489-6.2-7.961 0-5 3.023-7.606 6.006-7.606a5.288 5.288 0 0 1 4.9 2.924l5.1-3.378c-2.608-3.833-5.709-5.571-10.036-5.571-8.475 0-12.268 6.855-12.268 13.631 0 8.238 5.018 13.987 12.189 13.987 5.334 0 7.764-1.956 10.312-5.571l-5.147-3.458c-1.146 1.857-2.39 3-4.86 3zM269.047 20.8c-7.25 0-12.11 5.551-12.11 13.829s4.86 13.829 12.11 13.829 12.11-5.551 12.11-13.829S276.3 20.8 269.047 20.8zm0 21.632c-3.556 0-5.848-3.062-5.848-7.8 0-4.722 2.292-7.764 5.848-7.764 3.576 0 5.887 3.042 5.887 7.764.001 4.738-2.311 7.8-5.887 7.8z" transform="translate(807.431 6442.309)" style="fill:#f80000"/>
            </g>
        </g>
    </g>
</svg>
