<svg xmlns="http://www.w3.org/2000/svg" width="173" height="173" viewBox="0 0 173 173">
    <defs>
        <linearGradient id="v342qp9gqa" x1=".289" y1=".496" x2=".763" y2=".516" gradientUnits="objectBoundingBox">
            <stop offset="0" stop-color="#0070bc"/>
            <stop offset=".083" stop-color="#0068b0"/>
            <stop offset=".348" stop-color="#005390"/>
            <stop offset=".572" stop-color="#00467d"/>
            <stop offset=".725" stop-color="#004276"/>
        </linearGradient>
    </defs>
    <g data-name="Group 9046">
        <path data-name="Rectangle 8510" style="fill:#fff" d="M0 0h173v173H0z"/>
        <g data-name="Group 9045">
            <g data-name="Group 9043">
                <path data-name="Path 45677" d="M260.338 177.084a.4.4 0 0 0-.093-.463c-49.986-34.719-118.957-35.68-171.39-4.659a.514.514 0 0 0 .072.68c1.009-.04 1.864.141 2.906-.771a2.32 2.32 0 0 1 2.808-1.085.85.85 0 0 1-.1.83c-.559.217-1.057-.283-1.616.088-.441.746-1.5.869-2.223 1.271L89.334 174a1.2 1.2 0 0 0-.985-.051 1.547 1.547 0 0 0-.973 1.144c.469.13.845-.54 1.192-.161-.049.381-1.075.4-1.03.875.115.315.71-.127.922.082.164.164-.271.668 0 .828a.676.676 0 0 0 .685-.025c.452-.073.562-.638 1.062-.78a5.288 5.288 0 0 0 1.316-.1c-.163-.408.16-.492.212-.739 1.848-.016.882-1.062 2.947-1.727.73-.356 1.837.426 2.134-1.011 1.975.736 2.217-.966 3.542-1.365 1.041 1.044 1.435-.4 1.935.212-.006.495-.32.828-1.3.918a8.17 8.17 0 0 0-3.832 2.24c-1.337-.022-1.932.118-1.718.827 1.079 1.178 1.833-.455 2.752-.683 1.108-.093 1.619-1.32 2.509-1.573.6-.106.713.927 1.311.659.768-.187.426-.722.789-1.048.262-.233.912-.076 1.2-.477a1.31 1.31 0 0 1 1.428-.5c.315.6-.955.571-1.534 1.793-.556.791-1.8 1.25-1.655 1.624.121.233.362.166.689.043a5.093 5.093 0 0 0 1.842-1.349c.674-.931 1.64-1.054 2.154-1.5.54-.472.561-1.015.728-1.038.15-.018.356-.094.456.462.051.278.62-.03.858.154.166.127.1.7-.251 1.126-.254.306-1.3-.257-1.767.1-.875.677-1 1.737-2.394 2.365-.272.12-1.674 1.027-.517 1.057.084 0 .148-.362.432-.475s.724.178 1.1-.272a1.544 1.544 0 0 1 1.423-.561c.269-.129-.03-1 .438-1.142.541-.169 1.411-1 1.518-.257.021.152-.511.858-.114.851.816-.009 1.405-.477 2.084-.422.405.033-.061-.774.357-.872.456-.1.948.341 1.465.25.61-.1.61-1.148 1.283-1.283.6-.118.392.57 1.075.528.707-.045 1.381-.813 2.27-.707 1.271.15 1.337-.333 2.125-.911.579-.419.707.292 1.5-.187 1.168-.7.794.315 1.64.148.251-.049-.139-.673.286-.773.4-.094.487.628 1.9-.839.981-.827.667.507 1.556.478.4-.01.194-.972.7-1.156.774-.278.8.718 1.4.647s.709-.677 1.259-.438c.647.281.455-1 1.512-.676 1.2.4 1.211-.576 2.044-.8.55-.15.411.57.861.6.591.033.309-.647 1.215-.686.393-.018.072-.341.446-.5.341-.149.827.23 1.423.129.351-.058.52-.5.876-.667.383-.184.891.081 1.189-.034.534-.2.13.607.579.579.532-.036.833-1.109 1.25-1.192.611-.118.054.966.629.972.438 0 1.15-1.008 1.537-1.2.188-.091.561.118.8.112s.4-.194.579-.1c.239.123.248.327.5.327.513 0 .523-.8.963-.8.423 0 .07 1 .792 1.027.8.033 1-.552 1.7-.7.284-.061 1.051-.594 1.326-.434.244.138.182.876.419.83.453-.087.417-1.157.812-1.2.154-.019.646-.2.894.025s-.329.843.4.84c.939-.007.659-1.015 2.609-1.392a9.157 9.157 0 0 1 1.6-.215c.38 0 .728.124.9.109.8-.052 2.02-.84 2.072-.362.057.5-2.319.861-2 1.477.372.721 1.944-.891 2.73-.976 1.628-.414 1.235.6 2.666.462 1.84-.175 1.588-1.766 2.682-1.942 1.266-.182-.052.8.906 1.036 1.8.646 2.732-.767 4.52-.683a7.577 7.577 0 0 1 2.054-.61c.4.369-.4 1.023.7 1.1a5.45 5.45 0 0 0 2-.359 1.738 1.738 0 0 1 1.489-1.295c1.216-.326 1.166.468.765.833-.333.307-.449.555.037.879.384.009.623-.629.915-.58.263 0 .275.434.733.591.628-.067.531-1.187 1.549-.3.308.268.622-.377 1.014-.295.312.066.855-.048 1.084.215s-.372.87.377.955c.41.019.357-.585.667-.884.19-.185.353-.172.471-.45.084-.33-1.269-1.006.483-1.525 1.568-.06.275.8 1.147 1.307.724.117 1.655-.724 1.68.356.01.438-1.225.3-1.041.891.474.469 1.341-.613 2.772-.776.441-.052.785-.142.894.091.037.51-.537.423-.487.834.161.3.641.058.991.067.311-.036.324-.229.359-.541-.156-.387 1.431.185 3.261.024.44-.037.73.275 1.035.295 1.015.112 2.262-.742 2.933.1.238.386 4.289-.1 4.276.51.292.653-1.55.459-2.268.7-.508.1-1.017.269-.631.783.148.247.478.22.854.193.6-.815 1.888-.254 2.739-.655.33-.333.567-.946 1.538-.866a.872.872 0 0 1 .878.531c.845.117 2.241-.463 2.688.948.452-.12 1.2-1.033 1.809.242a2.66 2.66 0 0 1 3.149.588c1.229.185 2.259-.027 3.439.858a15.712 15.712 0 0 1 3.493.127c1.027-.109 1.1.329.909.833.28.15.444.22.625.845 1.586.135 2.788-.426 4.174.057.682.333 1.8.546 2.051 1-.036.265-2.039-.387-1.887.114.061.23 1.263.4 1.8.931.632.311.389-.064 1.051-.121.153-.012.438.229.694.239.351.01.688-.182.809-.088.2.158-.145.477.323.764.326.2.828 0 1.174.263.212.16.468-.051.638.1s.215.514.408.576c.481.281 1.015.13 1.592.26a5.639 5.639 0 0 1 2.8 1.465c.882.2 1.266-.371 2.017-.1.423.151.574.794 1.422 1.323.457.286 1.081-.118 1.781.039 1.039.232 1.933.212 1.963.066.126-.637-1.365-.867-2.207-.655-1.425.611-.917-.674-1.422-.77-1.367-.262-2.129-.754-1.776-1.974.2-.269.709-.2.984.583.075.2.659-.018.834.115.314.244.368.731.725.912s.685-.253.984-.067c.511.315 1.056.336 1.217.173.235-.471-.459-1.253-1.839-1.256-.589 0-.688-1-1.136-1.1a15.386 15.386 0 0 0-2.015-.218l-1.935-.988c-.3-.2-.613-.275-.818.061.043.585-.475.561-.97.492a3.994 3.994 0 0 1-1.766-.783c-.193-.215.407-.863-.416-.955a4.1 4.1 0 0 1-2.163-.377c-.7-.919 1.021.138.925-.625.36-.526-6.2-.964-5.46-1.96.655.1 1.266.156 1.921.254.383-.193.248-.629-.269-.779a16.573 16.573 0 0 0-2.633-.516c-1.009-.057-1.57.739-2.691.661-.591-.1-1.884-.559-.955-.858.516-.166.4-.646-.2-.815-.206-.028-.724.161-.96.006-.269-.172-.173-.6-.559-.617-.335-.013-.71.589-1.008.481s-.211-.588-.477-.743c-.191-.108-.475.012-.724-.009a2.534 2.534 0 0 0-1.115-.012c-1.393.6-2.519 0-3.937-.185-.475-.149-.656-.432-.142-.649.293.03 1.118.152 1.272-.157.094-.187-.528-.833-.323-.906.127-.043.819.577.949.52a3.982 3.982 0 0 1 .713-.38c.191-.037.564.529.755.487.312-.064.58-.452.848-.447 1.07.024 1.556 1.093 2.616 1.221a10.336 10.336 0 0 0 1.407-.253c.982-.048.007.685.8.939.9.289 2.056-.287 2.908-.142.463.081 0 1.088.616 1.126.519.172.782-.516 1.259-.564.326-.033.605.523.843.564.419.073.721-.546 1.069-.41.163.067.327.287.54.351s.478-.03.664.127c.423.36-.314.878.617.99.354.042.768-.483 1.1-.519.535-.052.336.462.492.561s.507-.561.746-.233-.7 1.008-.067 1.313c.25.118.728-.455 1.118-.537.269-.06.486.338.609.441s.855.115 1.127.2c.368.124.976.23.858.564-.073.212-1.534-.048-2 .046s.079.547.141.573c.973 0 1.881.68 2.966.057.656-.3.414.4.982.431.389.109 1.068-.163 1.232.305.141.371-.821.538-.525 1.356.432.3.579-.36.852-.356s.567.5.842.508c.224.152.511.03.71.173s.3.586.531.739c.292.006.564-.214.854-.211s.564.35.9.242c.028-.036.146-.628-.129-.765s-.9.2-1.263.018c-.96-.49-1.993-1.1-1.6-1.519a.926.926 0 0 1 .813-.206 1.031 1.031 0 0 1 .437.339 1.73 1.73 0 0 0 .492.411c.312.148.791-.061 1.079.067.558.245.843.771.884.715.46.211.423-.748 1.244.091.166.3.619.366.83.638.239.308.227.985.706.967.335-.009-.184-1.144.152-1.154.262-.009 1.085 1.038 1.637 1.1.426.289 1.124-.141 1.55.15.33.224.393 1.168.727 1.392.428.126.632-.4 1.062-.271s1.082.9 1.512 1.029c.463.235 1.5.093 1.981.3.736.327.214.921.812 1.112.426.1.745-.239 1.169-.138.585.142.918 1.175 1.855.872M176.6 160.318c.809.06 1.2-.884 1.823-.478.484.254-.046.48-.2.786-.135.274-.528.329-.722.46-.64.264-1.471-.379-.901-.768zm14.223 1.053c.972.221 1.568-1 2.434-.438a.617.617 0 0 1 .332.908c-.135.275-1.177.29-1.374.42-.444.1-.434-.17-.751-.184-.776-.032-.995-.464-.639-.706zm22.585.2c-.178.486-.33.909-1.018 1-.247.033-.664-.084-1.032-.061-.655.045-1.21.212-1.368.073-.2-.555.368-.625.733-.757.336-.326.027-.583.407-.788a2.278 2.278 0 0 1 1.627-.082c.486.076.685.344.653.612zm-20.858-4.415c.158-.463.731-.619 1.546-.549.582.121 1.114.495.964.842a.5.5 0 0 1-.641.408c-.3-.07-.4-.366-.7-.408-.262.012-.269.356-.7.233a.454.454 0 0 1-.467-.529zm8.585.441c.051.3-.38.155-.5.375-.271.48-.658.568-1.266.516-.583-.12-.933-.477-.845-.733a.515.515 0 0 1 .643-.423c.607.037.523.4.824.438.26-.01.345-.722.777-.6.354 0 .399.197.369.424zm-3.647 1.861c.161-.462.765-.027 1.988-.1.555-.033 1.115-.194 1.51-.179.511.019.782.16.625.631a1.719 1.719 0 0 1-1.277.405c-.513-.075-.71-.135-1.011-.175a6.428 6.428 0 0 1-1.619.055c-.351-.002-.304-.467-.214-.639zm15.719.2c.161-.463.691-.6 1.541 0 .848.007 1.381.478 1.295.734-.069.377-.3.377-.531.312-.6-.042-.447-.435-.934-.44-.263.009-.495.271-.928.148-.35-.012-.47-.529-.44-.759zm-5.041.193c-.387-.018-.229-.389-.393-.561-.2-.212-.51-.081-.51-.477.248-.608 2.2-.329 2.237.221a.467.467 0 0 1-.487.564c-.32.002-.468.309-.845.248zm-2.657.6c-.348-.057-.3-.2-.459-.368-.208-.214.093-.529.39-.7.6-.175 1.106-.049 1.156.295a.508.508 0 0 1-.365.573c-.308.063-.343.256-.719.195z" transform="translate(-87.375 -73.249)" style="fill:url(#v342qp9gqa);fill-rule:evenodd"/>
            </g>
            <path data-name="Path 45678" d="M150.006 127.091a14.505 14.505 0 1 1-14.517 14.5 14.539 14.539 0 0 1 14.517-14.5" transform="translate(-63.554 -84.39)" style="fill:#ffaa1a;fill-rule:evenodd"/>
            <g data-name="Group 9044">
                <path data-name="Path 45679" d="M159.182 168.959c1.5 0 2.715.9 2.715 2s-1.22 2-2.715 2-2.714-.9-2.714-2 1.218-2 2.714-2" transform="translate(-53.168 -63.661)" style="fill:#001760;fill-rule:evenodd"/>
                <path data-name="Path 45680" d="M114.321 171.348c3.513-.194 8.109.292 8.132 4.5-.022 4.725-4.66 4.958-8.132 4.874v-9.377m-5.493 20.791v-22c.158-.806.314-.872 1.1-1.054 3.229 0 6.511-.055 9.738-.055 6.236.413 8.724 3.869 8.376 7.734-.315 3.481-3.5 6.1-8.718 6.408-1.836 0-3.158.114-4.991.114v8.989a.937.937 0 0 1-.922.664h-3.854c-.303-.036-.602-.189-.729-.797z" transform="translate(-76.754 -63.627)" style="fill:#001760;fill-rule:evenodd"/>
                <path data-name="Path 45681" d="M124.207 173.334h3.8a.674.674 0 0 1 .673.671v16.172a.675.675 0 0 1-.673.674h-3.8a.674.674 0 0 1-.673-.674v-16.172a.673.673 0 0 1 .673-.671" transform="translate(-69.473 -61.495)" style="fill:#001760;fill-rule:evenodd"/>
                <path data-name="Path 45682" d="M126.154 168.959c1.5 0 2.715.9 2.715 2s-1.218 2-2.715 2-2.714-.9-2.714-2 1.218-2 2.714-2" transform="translate(-69.52 -63.661)" style="fill:#001760;fill-rule:evenodd"/>
                <path data-name="Path 45683" d="M144.7 173.334h3.8a.675.675 0 0 1 .674.671v16.172a.675.675 0 0 1-.674.674h-3.8a.674.674 0 0 1-.673-.674v-16.172a.673.673 0 0 1 .673-.671" transform="translate(-59.326 -61.495)" style="fill:#001760;fill-rule:evenodd"/>
                <path data-name="Path 45684" d="M146.65 168.959c1.5 0 2.714.9 2.714 2s-1.218 2-2.714 2-2.715-.9-2.715-2 1.219-2 2.715-2" transform="translate(-59.373 -63.661)" style="fill:#001760;fill-rule:evenodd"/>
                <path data-name="Path 45685" d="M157.235 173.334h3.8a.673.673 0 0 1 .671.671v16.172a.674.674 0 0 1-.671.674h-3.8a.674.674 0 0 1-.673-.674v-16.172a.673.673 0 0 1 .673-.671" transform="translate(-53.121 -61.495)" style="fill:#001760;fill-rule:evenodd"/>
                <path data-name="Path 45686" d="M150.865 168.975h3.8a.674.674 0 0 1 .673.671v22.69a.675.675 0 0 1-.673.674h-3.8a.675.675 0 0 1-.674-.674v-22.69a.676.676 0 0 1 .674-.671" transform="translate(-56.275 -63.653)" style="fill:#001760;fill-rule:evenodd"/>
                <path data-name="Path 45687" d="M141.933 179.149c-3.014-2.008-7.707.169-7.73 5.134.022 7.094 6.054 7.727 7.73 5.562v-10.7m.671-10.174h3.8a.675.675 0 0 1 .673.671v21.248c0 .369-.248.517-.547.734a12.192 12.192 0 0 1-4.3 1.633c-.3.069-13.212 2.311-12.916-8.265.65-10.8 11.766-9.346 12.619-7.253v-8.1a.676.676 0 0 1 .667-.664z" transform="translate(-66.615 -63.653)" style="fill:#001760;fill-rule:evenodd"/>
                <path data-name="Path 45688" d="m164.531 170.839 3.769-1.939c.422-.215.7.2.7.555v6.094h3.461a.22.22 0 0 1 .211.223v1.235a.2.2 0 0 1-.211.221l-3.461.009v11.642c.1 2.415 2.268 2.3 3.651 2.4 1.16.058 1.087 1.216-.347 1.778a7.879 7.879 0 0 1-6.8-.754 4.2 4.2 0 0 1-1.645-3.639v-11.425q-1.166 0-2.329-.006a.208.208 0 0 1-.209-.2q.007-.653.012-1.308a.206.206 0 0 1 .212-.194l2.314.025v-4.044c0-.368.341-.5.671-.668" transform="translate(-50.765 -63.719)" style="fill:#001760;fill-rule:evenodd"/>
                <path data-name="Path 45689" d="M181.9 179.409c.375-1.66-1.307-3.7-3.928-3.4a3.958 3.958 0 0 0-3.636 4.231c2.32-.224 5.242-.606 7.564-.828m-7.44 2.758c3.817-.39 7.676-.854 11.493-1.25a1.244 1.244 0 0 0 1.171-1.658c-.35-3.2-3.745-5.992-7.925-5.807-7.1.363-9.294 5-9.1 9.385.293 5.586 3.732 8.2 9.181 8.462 3.633.126 7.268-2.513 7.884-4.9.641-1.646-1.106-2.669-1.972-1.174-3.369 4.046-10.508 2.944-10.732-3.06z" transform="translate(-46.424 -61.441)" style="fill:#001760;fill-rule:evenodd"/>
            </g>
        </g>
    </g>
</svg>
