<svg xmlns="http://www.w3.org/2000/svg" width="173" height="173" viewBox="0 0 173 173">
    <defs>
        <clipPath id="fbzlvzgcea">
            <path data-name="Rectangle 8510" transform="translate(754 6390)" style="fill:#fff" d="M0 0h173v173H0z"/>
        </clipPath>
    </defs>
    <g data-name="Mask Group 165" transform="translate(-754 -6390)" style="clip-path:url(#fbzlvzgcea)">
        <path d="M3048.927-366.908h7.31v7.832h6.912v-7.832h7.312v23.143h-7.312v-8.956h-6.912v8.956h-7.31zm31.9 0h7.4l7.958 23.143h-7.249l-.893-3.08h-7.22l-.864 3.08h-7.1l7.959-23.143zm1.358 15.246h4.6l-2.345-8.28zm12.647-15.246h7.374l3.918 15.375 4.04-15.375h7.342l-7.713 23.143h-7.341zm25.667 0h18.138v5.392h-10.828v3.339h9.131v5.391h-9.131v3.628h11.261v5.392h-18.57zm22.3 0h7.312v17.751h9.994v5.392H3142.8v-23.143zm20.606 0h7.311v17.751h10v5.392h-17.308zm31.995 6.708q-.278-1.988-2.994-1.988c-1.44 0-2.188.416-2.251 1.252a1.435 1.435 0 0 0 .725 1.284 6.7 6.7 0 0 0 2.02.851q1.264.338 2.438.626a13.659 13.659 0 0 1 5.768 2.6 5.649 5.649 0 0 1 1.82 4.527 7.072 7.072 0 0 1-1.45 4.607 8 8 0 0 1-3.809 2.551 16.252 16.252 0 0 1-5.077.77 10.989 10.989 0 0 1-6.894-2.167 7.3 7.3 0 0 1-3.008-5.632h7a2.525 2.525 0 0 0 1.281 1.925 4.533 4.533 0 0 0 2.144.546q2.683-.127 2.838-1.574a1.431 1.431 0 0 0-.972-1.523 18.982 18.982 0 0 0-3.379-1.108 28.8 28.8 0 0 1-4.564-1.509 6.89 6.89 0 0 1-2.792-2.3 6.6 6.6 0 0 1-1.064-4.029 6.253 6.253 0 0 1 2.638-5.071 11.384 11.384 0 0 1 7.049-1.958 13.3 13.3 0 0 1 4.365.689 7.615 7.615 0 0 1 3.38 2.344 8.114 8.114 0 0 1 1.726 4.284h-6.94z" transform="translate(-2284.927 6870.943)" style="fill:#ed1c24"/>
        <path d="M3155.631-494.588a4.1 4.1 0 0 1-.592-.04 3.279 3.279 0 0 1-2.649-2.07 4.556 4.556 0 0 1-.324-1.734 9.115 9.115 0 0 1 .4-2.419c1.018-3.625 2.182-6.169 3.56-7.784a6.228 6.228 0 0 1 .8-.79l.083-.059c.031-.027.066-.052.1-.075a2.519 2.519 0 0 1 1.474-.55c1.133 0 2.336 1.035 3.394 2.917a29.616 29.616 0 0 1 2.765 8.231 59.07 59.07 0 0 1 .623 3.6c-.494.033-.989.065-1.483.1-1.658.115-3.193.235-4.691.369-.737.067-1.473.136-2.207.211l-.172.017a10.552 10.552 0 0 1-1.078.073" transform="translate(-2334.356 6939.28)" style="fill:#f25746"/>
        <path d="M3156.9-418.722h-.014a2.475 2.475 0 0 1-1.5-.586l-.014-.016-.038-.027-.032-.026-.036-.03a.651.651 0 0 0-.055-.04 6.066 6.066 0 0 1-.778-.821c-1.374-1.723-2.482-4.438-3.386-8.3a11.65 11.65 0 0 1-.394-2.636 5.493 5.493 0 0 1 .317-1.865 3.71 3.71 0 0 1 2.574-2.459 4.187 4.187 0 0 1 1.06-.126c.233 0 .469.014.754.042.737.075 1.514.145 2.308.215 1.586.138 3.244.266 4.933.379.6.04 1.195.077 1.792.116a64.144 64.144 0 0 1-.84 4.461 32.281 32.281 0 0 1-3.031 8.571c-1.143 2-2.463 3.144-3.626 3.144" transform="translate(-2333.679 6903.596)" style="fill:#ba151b"/>
        <path d="M3199.368-485.15a34.671 34.671 0 0 0-6.567-20.1 31.976 31.976 0 0 0-12.9-10.486 7.213 7.213 0 0 0-2.057-.449 3.4 3.4 0 0 0-2.428 2.965 5.657 5.657 0 0 0-.083 1.18c-.049.775-.093 1.589-.136 2.477-.014.148-.016.373-.026.642-.039 1-.1 2.512-.2 3.1-.889 5.111-6.04 8.347-10.5 8.524a302.51 302.51 0 0 0-8.888.474c-1.582.112-3.151.235-4.665.369-.729.066-1.462.134-2.193.208l-.17.017a11.748 11.748 0 0 1-1.216.082 5.222 5.222 0 0 1-.787-.055 4.624 4.624 0 0 1-3.7-2.9 5.872 5.872 0 0 1-.423-2.244 10.5 10.5 0 0 1 .451-2.784 33.911 33.911 0 0 1 1.686-4.778 33.838 33.838 0 0 0-6.35 9.01 34.931 34.931 0 0 0-3.44 14.429v.66a34.058 34.058 0 0 0 8.98 23.209 34 34 0 0 1-1.619-5.25 12.8 12.8 0 0 1-.43-2.946 6.848 6.848 0 0 1 .392-2.316 5.015 5.015 0 0 1 3.51-3.315 5.345 5.345 0 0 1 1.4-.172 8.8 8.8 0 0 1 .89.049 236.675 236.675 0 0 0 7.189.59c2.969.2 6.1.362 9.295.481a11.981 11.981 0 0 1 7.049 2.768 10.467 10.467 0 0 1 3.809 6.591c.071.521.139 2.014.191 3.1.017.357.029.653.038.823.072 1.252.145 2.353.224 3.365v.006c.033.442.067.847.1 1.225a3.3 3.3 0 0 0 2.284 2.778 2.539 2.539 0 0 0 1.206-.02c.324-.139.647-.278.967-.426a32.3 32.3 0 0 0 12.708-10.608 34.852 34.852 0 0 0 6.41-20.1v-.171z" transform="translate(-2326.069 6942.198)" style="fill:#ed1c24"/>
    </g>
</svg>
