<svg xmlns="http://www.w3.org/2000/svg" width="173" height="173" viewBox="0 0 173 173">
    <defs>
        <clipPath id="8u72f56a6a">
            <path data-name="Rectangle 8514" transform="translate(991 6390)" style="fill:#fff;stroke:#707070" d="M0 0h173v173H0z"/>
        </clipPath>
    </defs>
    <g data-name="Mask Group 160" transform="translate(-991 -6390)" style="clip-path:url(#8u72f56a6a)">
        <path d="M73.741 270.817a1.535 1.535 0 0 0-.216.473c-.054.189-.164.563-.245.833s-.179.61-.216.754a2.1 2.1 0 0 1-.132.387 2.274 2.274 0 0 0-.132.4c-.037.154-.1.375-.14.49s-.174.541-.3.945c-.318 1.06-.49 1.611-.6 1.891a4.065 4.065 0 0 0-.137.49 1.007 1.007 0 0 1-.1.313 1.179 1.179 0 0 0-.105.316c-.027.135-.14.529-.245.874s-.272.852-.353 1.122-.193.593-.245.72a1.2 1.2 0 0 0-.1.326 7.507 7.507 0 0 1-.245.838 7.444 7.444 0 0 0-.245.842 1.225 1.225 0 0 1-.1.333c-.051.127-.167.465-.245.754s-.193.651-.245.806-.144.47-.211.7-.154.49-.191.6a5.346 5.346 0 0 0-.159.524c-.049.193-.122.446-.162.561s-.157.49-.262.84-.262.862-.355 1.146a4.082 4.082 0 0 0-.164.634.524.524 0 0 1-.1.245.563.563 0 0 0-.105.287 2.465 2.465 0 0 1-.135.524c-.073.206-.189.563-.245.793s-.169.544-.223.693c-.152.421-.206.411 2.694.433 3.34.022 3.167.051 3.328-.531.069-.245.171-.6.23-.786.233-.754.323-1.048.416-1.364.054-.184.13-.429.167-.544.1-.282.544-1.727.683-2.2.061-.211.169-.558.245-.769a45.47 45.47 0 0 0 .6-1.991 2.006 2.006 0 0 1 .144-.384.879.879 0 0 0 .093-.336 1.264 1.264 0 0 1 .1-.384 16.216 16.216 0 0 0 .49-1.594 6.28 6.28 0 0 1 .186-.561 2.746 2.746 0 0 0 .13-.419c.032-.135.108-.4.169-.6s.164-.524.223-.735.154-.49.206-.615a1.225 1.225 0 0 0 .1-.372.914.914 0 0 1 .1-.333 2.021 2.021 0 0 0 .149-.468 1.379 1.379 0 0 1 .147-.416.573.573 0 0 0 .1-.26 8.139 8.139 0 0 1 .35-1.212c.032-.076.122-.377.206-.666s.184-.62.225-.735.11-.35.154-.524a2.3 2.3 0 0 1 .169-.468.886.886 0 0 0 .086-.362.387.387 0 0 1 .064-.245.529.529 0 0 0 .11-.267 9.216 9.216 0 0 1 .392-1.256 1.021 1.021 0 0 0 .064-.367v-.245H76.71c-2.694 0-2.868 0-2.978.13m101.767.245a2 2 0 0 0-.171.49 1.185 1.185 0 0 1-.1.35 6.87 6.87 0 0 0-.394 1.283.343.343 0 0 1-.066.211 1.092 1.092 0 0 0-.137.348 10.551 10.551 0 0 1-.35 1.188 3.484 3.484 0 0 0-.135.421c-.037.154-.1.375-.14.49s-.105.321-.149.456c-.105.313-.267.865-.362 1.224a4.283 4.283 0 0 1-.171.5 1.131 1.131 0 0 0-.1.348.943.943 0 0 1-.1.331.881.881 0 0 0-.105.3 2.125 2.125 0 0 1-.1.394c-.051.164-.167.536-.245.823s-.2.637-.245.771c-.091.245-.3.916-.49 1.609-.061.213-.152.512-.2.666s-.157.517-.245.806-.2.634-.245.769a34.25 34.25 0 0 0-.49 1.609 14.1 14.1 0 0 1-.184.6 4.08 4.08 0 0 0-.13.473 1.115 1.115 0 0 1-.125.35 1.2 1.2 0 0 0-.122.4 1.413 1.413 0 0 1-.149.453.762.762 0 0 0-.1.348.649.649 0 0 1-.105.348.539.539 0 0 0-.1.262 7.207 7.207 0 0 1-.392 1.293 1.16 1.16 0 0 0-.1.316 6.367 6.367 0 0 1-.318 1.06c-.13.377-.142.375 2.63.38 3.184 0 3.269 0 3.323-.287a4.015 4.015 0 0 1 .135-.465c.051-.135.147-.433.213-.664s.176-.578.245-.769a4.974 4.974 0 0 0 .164-.527c.022-.1.088-.34.152-.541s.157-.531.211-.735a5.2 5.2 0 0 1 .167-.509 2.935 2.935 0 0 0 .135-.419c.039-.154.1-.375.145-.49.159-.458.568-1.824.568-1.9a.9.9 0 0 1 .105-.279.941.941 0 0 0 .105-.323 1.556 1.556 0 0 1 .1-.384 9.81 9.81 0 0 0 .245-.789c.4-1.367 1.611-2.939 2.263-2.939a.262.262 0 0 0 .159-.071 3.434 3.434 0 0 1 1.494-.313c1.469.22 1.714.98.98 3.149-.039.115-.186.588-.328 1.048l-.348 1.122c-.048.155-.2.656-.345 1.119s-.289.936-.328 1.051-.105.35-.145.524a1.443 1.443 0 0 1-.132.392 1.441 1.441 0 0 0-.127.387 7.231 7.231 0 0 1-.245.8 3.279 3.279 0 0 0-.181.632.955.955 0 0 1-.105.333 1.987 1.987 0 0 0-.147.456 1.81 1.81 0 0 1-.118.4 1.939 1.939 0 0 0-.179.921c.108.069 5.111.113 5.518.051.367-.059.385-.071.429-.3a3.717 3.717 0 0 1 .125-.473c.159-.47.23-.693.333-1.033l.208-.681c.056-.184.147-.49.2-.7a4.631 4.631 0 0 1 .164-.507 3.05 3.05 0 0 0 .137-.421c.073-.284.517-1.734.588-1.925.022-.056.11-.34.193-.629s.2-.637.245-.771.154-.49.245-.769c.164-.571.527-1.756.671-2.2.051-.154.157-.5.245-.771l.272-.909a6.638 6.638 0 0 0 0-2.66 2.48 2.48 0 0 0-.678-1.009c-1.739-1.763-6.3-1.413-8.8.671a2.67 2.67 0 0 1-.4.3c-.069 0-.047-.316.024-.387a1.105 1.105 0 0 0 .135-.348c.037-.154.135-.49.215-.769s.181-.615.22-.769a1.264 1.264 0 0 1 .13-.348 1.057 1.057 0 0 0 .108-.318c.027-.135.137-.514.245-.84s.218-.705.245-.84a1.113 1.113 0 0 1 .1-.316 1.594 1.594 0 0 0 .125-.384c.039-.174.108-.419.149-.544.127-.377.223-.671.282-.857a.615.615 0 0 0 0-.333l-.059-.157h-5.682l-.171.367m-123.762.176a3.906 3.906 0 0 1-.135.331 2.448 2.448 0 0 0-.137.47 1.875 1.875 0 0 1-.144.455.953.953 0 0 0-.1.358.778.778 0 0 1-.073.3 6.3 6.3 0 0 0-.245.784c-.1.355-.223.749-.277.874a1.224 1.224 0 0 0-.1.387.833.833 0 0 1-.1.328.877.877 0 0 0-.1.316.95.95 0 0 1-.1.328 1.96 1.96 0 0 0-.147.419c-.027.127-.137.49-.245.828a8.681 8.681 0 0 0-.245.86.708.708 0 0 1-.1.3.747.747 0 0 0-.105.333 2.112 2.112 0 0 1-.147.49.894.894 0 0 0-.1.316.9.9 0 0 1-.13.309.957.957 0 0 0-.1.294 11.185 11.185 0 0 1-.392 1.3 4.08 4.08 0 0 0-.14.49 1.067 1.067 0 0 1-.1.316 1.022 1.022 0 0 0-.1.279c-.049.213-.4 1.379-.566 1.891-1.526 4.653-.735 7.2 2.52 8.177a22.921 22.921 0 0 0 8.295.26l1.051-.228a5.605 5.605 0 0 0 .852-.245.931.931 0 0 1 .353-.1.629.629 0 0 0 .3-.093 3.516 3.516 0 0 1 .534-.245 5.948 5.948 0 0 0 .84-.419l.607-.37a2.691 2.691 0 0 0 .245-.169l.563-.453a10.775 10.775 0 0 0 2.709-3.818c.142-.345.287-.676.316-.735s.142-.389.245-.735.218-.693.245-.769a8.044 8.044 0 0 0 .355-1.171 1.2 1.2 0 0 1 .1-.35 7.7 7.7 0 0 0 .245-.754c.078-.289.2-.651.245-.806s.14-.453.2-.666c.193-.654.6-1.984.681-2.2.093-.272.262-.833.353-1.19a3.723 3.723 0 0 1 .169-.49 1.163 1.163 0 0 0 .1-.35.859.859 0 0 1 .093-.311 1.868 1.868 0 0 0 .144-.446 2 2 0 0 1 .11-.38 2.093 2.093 0 0 0 .13-.394c.037-.154.1-.382.144-.507l.152-.455c.044-.125.11-.37.149-.541a1.625 1.625 0 0 1 .125-.387 1.007 1.007 0 0 0 .1-.314 3.688 3.688 0 0 1 .142-.49 4.712 4.712 0 0 0 .318-1.151v-.179h-6.463l-.157.507c-.088.279-.2.634-.245.786s-.157.517-.245.806a7.9 7.9 0 0 1-.245.754 1.2 1.2 0 0 0-.1.365 1.225 1.225 0 0 1-.1.367c-.054.125-.144.4-.206.615s-.159.541-.223.735-.137.46-.167.6a1.66 1.66 0 0 1-.132.385 2.364 2.364 0 0 0-.147.419c-.1.372-.294 1.033-.568 1.891-.122.384-.267.842-.318 1.016s-.125.409-.162.524-.135.431-.216.7c-.245.85-.571 1.878-.664 2.17-.049.154-.162.517-.245.806s-.2.627-.245.754a1.225 1.225 0 0 0-.1.372 5.073 5.073 0 0 1-1.293 2.128c-1.428 1.374-4.354 1.469-5.162.167a3.574 3.574 0 0 1-.015-2.449 2.188 2.188 0 0 0 .14-.456 1.136 1.136 0 0 1 .108-.35 1.512 1.512 0 0 0 .127-.35c.088-.345.245-.911.348-1.188.042-.115.142-.446.225-.735s.189-.634.245-.769.159-.49.245-.771.181-.588.216-.664a2.645 2.645 0 0 0 .108-.385 1.851 1.851 0 0 1 .135-.421 2.106 2.106 0 0 0 .137-.456 1.2 1.2 0 0 1 .105-.35 1.429 1.429 0 0 0 .127-.384c.039-.174.105-.416.149-.541.184-.549.233-.7.326-1.016.056-.181.149-.49.211-.7s.162-.539.218-.752a2.509 2.509 0 0 1 .159-.456 1.254 1.254 0 0 0 .071-.353 1.152 1.152 0 0 1 .105-.35 1.134 1.134 0 0 0 .1-.328 1.99 1.99 0 0 1 .149-.456.884.884 0 0 0 .1-.316 1.714 1.714 0 0 1 .1-.384 4.606 4.606 0 0 0 .37-1.376 40.371 40.371 0 0 0-6.529 0m69.779-.076a.149.149 0 0 0-.088.13 2.187 2.187 0 0 1-.1.4c-.054.167-.167.536-.245.825a32.41 32.41 0 0 1-.5 1.575c-.032.078-.1.3-.157.49s-.149.534-.213.757c-.181.644-.377.6 2.927.624l2.88.017.022.2a.948.948 0 0 1-.086.431 1.137 1.137 0 0 0-.113.362.84.84 0 0 1-.1.3.83.83 0 0 0-.1.35 1 1 0 0 1-.1.362 1.834 1.834 0 0 0-.144.419 3.357 3.357 0 0 1-.137.478c-.051.135-.147.436-.213.666s-.181.588-.245.793a2.364 2.364 0 0 0-.132.49.9.9 0 0 1-.105.326.98.98 0 0 0-.105.34.882.882 0 0 1-.1.323 2.051 2.051 0 0 0-.162.465 1.181 1.181 0 0 1-.105.345 1.43 1.43 0 0 0-.127.384c-.039.174-.105.416-.149.541s-.11.331-.152.456-.108.355-.147.507a3.891 3.891 0 0 1-.169.5 1.157 1.157 0 0 0-.1.3 6.181 6.181 0 0 1-.2.688c-.11.336-.269.845-.355 1.134s-.186.62-.223.735c-.113.343-.49 1.582-.593 1.959a5.54 5.54 0 0 1-.159.49 4.243 4.243 0 0 0-.142.456c-.1.367-.218.769-.414 1.386l-.142.441.159.059c.086.034 1.545.056 3.245.049 3.409-.012 3.3 0 3.3-.453a.767.767 0 0 1 .083-.313 1.994 1.994 0 0 0 .135-.4 8.207 8.207 0 0 1 .382-1.176 1.207 1.207 0 0 0 .1-.4 1.271 1.271 0 0 1 .1-.4 6.059 6.059 0 0 0 .218-.651c.127-.456.353-1.183.49-1.575.047-.135.157-.49.245-.769s.2-.644.245-.791a1.527 1.527 0 0 0 .1-.384.894.894 0 0 1 .105-.321.98.98 0 0 0 .105-.34 1.106 1.106 0 0 1 .1-.36 2.719 2.719 0 0 0 .169-.49c.037-.154.1-.382.144-.507.2-.588.233-.7.323-1 .054-.174.132-.458.176-.632a3.268 3.268 0 0 1 .179-.49.913.913 0 0 0 .1-.35.914.914 0 0 1 .1-.35 1.973 1.973 0 0 0 .147-.49 1.433 1.433 0 0 1 .147-.443.669.669 0 0 0 .1-.313.862.862 0 0 1 .1-.353.872.872 0 0 0 .105-.35 1.017 1.017 0 0 1 .1-.37 1.887 1.887 0 0 0 .149-.448 1.978 1.978 0 0 1 .142-.436.855.855 0 0 0 .1-.336 1.3 1.3 0 0 1 .1-.384c.054-.127.125-.326.159-.441l.061-.211 3.032-.034c3.331-.039 3.23-.024 3.23-.46a.98.98 0 0 1 .105-.355.891.891 0 0 0 .105-.316 2.3 2.3 0 0 1 .135-.49c.073-.206.233-.705.353-1.109s.245-.83.294-.945a3.365 3.365 0 0 0 .245-1.058c-.037-.1-18.478-.145-18.713-.049m-38.192.331a4.571 4.571 0 0 0-.22.612c-.056.2-.149.522-.208.715s-.14.475-.181.629a4.087 4.087 0 0 1-.164.49 3.1 3.1 0 0 0-.142.456 1.112 1.112 0 0 1-.1.316 1.17 1.17 0 0 0-.1.34 1.666 1.666 0 0 1-.11.384 2.907 2.907 0 0 0-.152.429l-.093.316-1.3.034-1.293.037-.125.245a4.166 4.166 0 0 0-.22.6 38.426 38.426 0 0 1-.529 1.714 10.775 10.775 0 0 0-.331 1.242l-.037.228h1.224c1.371 0 1.445.027 1.207.438a.884.884 0 0 0-.118.331 2.339 2.339 0 0 1-.132.49c-.073.206-.186.563-.245.793s-.164.531-.216.666a3.674 3.674 0 0 0-.137.49 1.046 1.046 0 0 1-.11.323 1.323 1.323 0 0 0-.125.384 5.224 5.224 0 0 1-.149.551c-.049.135-.125.355-.174.49s-.122.387-.169.561-.12.458-.167.629a2.727 2.727 0 0 1-.171.47.7.7 0 0 0-.086.279 7.26 7.26 0 0 1-.4 1.256 1.207 1.207 0 0 0-.093.365 1.119 1.119 0 0 1-.078.338c-.394 1.011-.245 2.807.279 3.152a3.351 3.351 0 0 0 .931.438 3.79 3.79 0 0 1 .553.115 12.656 12.656 0 0 0 2.821.076c2.789-.037 3.382-.105 3.443-.389a3.631 3.631 0 0 1 .135-.429c.051-.135.211-.624.353-1.085s.289-.936.326-1.051c.35-1.06.375-1.031-.85-1.019-1.714.017-1.947-.3-1.416-1.851.042-.115.189-.588.331-1.051s.3-.958.355-1.1a1.681 1.681 0 0 0 .1-.384.933.933 0 0 1 .1-.321.9.9 0 0 0 .105-.3 2.94 2.94 0 0 1 .132-.49c.071-.223.186-.593.245-.823s.167-.531.218-.666a3.222 3.222 0 0 0 .137-.507.7.7 0 0 1 .105-.3.84.84 0 0 0 .105-.353c.078-.522.069-.519 1.663-.519 1.729 0 1.526.13 1.873-1.224a1.378 1.378 0 0 1 .13-.35 1.47 1.47 0 0 0 .13-.387c.039-.174.108-.426.154-.561l.154-.456c.367-1.078.36-1.082-1.3-1.082h-1.32l.034-.228a5.237 5.237 0 0 1 .142-.576c.269-.867.411-1.352.478-1.609a1.345 1.345 0 0 1 .127-.35 1.19 1.19 0 0 0 .108-.37.786.786 0 0 1 .108-.333.808.808 0 0 0 .108-.333 1.916 1.916 0 0 1 .149-.49.923.923 0 0 0 .078-.421l-.022-.223-2.868-.032h-2.88l-.118.245m19.526 4.345a8.633 8.633 0 0 0-1.976.58 9.7 9.7 0 0 0-2.486 1.844c-.693.691-.838.691-.588 0a9.81 9.81 0 0 0 .245-.789 7.252 7.252 0 0 1 .262-.786c.208-.49.3-.49-2.9-.458l-2.831.02-.127.159a1.171 1.171 0 0 0-.179.473c-.025.171-.071.311-.1.311a.721.721 0 0 0-.13.333 17.331 17.331 0 0 1-.509 1.714c-.042.125-.12.385-.169.576s-.13.46-.179.6c-.13.377-.245.757-.414 1.33-.083.289-.2.644-.245.789a1.6 1.6 0 0 0-.1.387.9.9 0 0 1-.1.316 2.091 2.091 0 0 0-.149.448 1.7 1.7 0 0 1-.142.434.95.95 0 0 0-.1.358.872.872 0 0 1-.105.35.908.908 0 0 0-.1.35.98.98 0 0 1-.1.37 1.854 1.854 0 0 0-.149.448 1.978 1.978 0 0 1-.142.436.837.837 0 0 0-.1.321 1.022 1.022 0 0 1-.105.34.882.882 0 0 0-.105.3 2.128 2.128 0 0 1-.1.394c-.051.164-.167.536-.245.823s-.2.637-.245.771c-.105.3-.448 1.416-.7 2.275-.066.23-.167.539-.218.683-.14.382-.1.389 2.5.37 3.456-.027 3.429-.027 3.429-.132a10.088 10.088 0 0 1 .38-1.305c.051-.135.162-.49.245-.771s.2-.627.245-.754a1.286 1.286 0 0 0 .1-.4 1.225 1.225 0 0 1 .1-.4 7.252 7.252 0 0 0 .245-.754c.083-.289.2-.644.245-.789a1.59 1.59 0 0 0 .1-.384.85.85 0 0 1 .1-.309 1.96 1.96 0 0 0 .144-.473.735.735 0 0 1 .105-.321.705.705 0 0 0 .108-.321 1.958 1.958 0 0 1 .144-.473.86.86 0 0 0 .1-.311 5.625 5.625 0 0 1 1.256-2 6.253 6.253 0 0 1 5.552-1.406c.629.115.894.064.891-.171a11 11 0 0 1 .392-1.308 3.668 3.668 0 0 0 .14-.49 1.053 1.053 0 0 1 .1-.316 1.063 1.063 0 0 0 .1-.313c.029-.135.14-.514.245-.84s.218-.7.245-.828a2.03 2.03 0 0 1 .144-.421c.113-.213.135-.752.034-.815a14.418 14.418 0 0 0-2.069-.064m8.924.032-.945.13a13.846 13.846 0 0 0-2.535.642 10.866 10.866 0 0 0-1.4.757 10.361 10.361 0 0 0-1.6 1.562 2.294 2.294 0 0 1-.2.245.671.671 0 0 0-.132.228c-.022.078-.069.14-.1.14a7.423 7.423 0 0 0-.83 1.714c.027.127.162.13 2.745.147 2.767.02 2.912 0 2.912-.245a3.48 3.48 0 0 1 .8-1.058c1.259-1.1 4.2-1.173 4.675-.108.274.622-.509 2.123-1.109 2.123a1.228 1.228 0 0 0-.318.1 9.176 9.176 0 0 1-2.087.318 70.81 70.81 0 0 0-3.534.392c-.384.059-.8.1-.921.1a2.448 2.448 0 0 0-.558.1c-1.107.328-1.614.49-1.714.536l-.458.218a7.1 7.1 0 0 0-2.811 2.54 5.554 5.554 0 0 0-.441.98.509.509 0 0 1-.1.218 1.335 1.335 0 0 0-.144.419 1.128 1.128 0 0 1-.12.362 8.841 8.841 0 0 0-.211 1.528 2.88 2.88 0 0 0 1.528 2.613l.448.218c.994.529 4.391.546 6.1.032a2.7 2.7 0 0 1 .407-.1 8.41 8.41 0 0 0 2.123-1.058c.786-.553.83-.553.774 0-.047.468.157 1.024.4 1.1.179.056 5.28-.039 5.522-.105s.306-.945.1-1.153a1.474 1.474 0 0 1-.027-1.308c.086-.284.2-.673.26-.864s.149-.47.2-.615a1.563 1.563 0 0 0 .1-.375 1.112 1.112 0 0 1 .1-.331 3.873 3.873 0 0 0 .171-.5c.135-.507.287-1 .507-1.66a8.55 8.55 0 0 0 .147-.509 3.841 3.841 0 0 1 .169-.49 1.134 1.134 0 0 0 .1-.331 1.562 1.562 0 0 1 .1-.375c.054-.145.213-.642.35-1.1s.287-.936.326-1.051a5.626 5.626 0 0 0 .223-4.2 3.454 3.454 0 0 0-2.327-1.607 14.317 14.317 0 0 0-1.714-.321c-.49-.076-4.381-.073-4.935 0m30.416-.024a11.035 11.035 0 0 0-8.953 6.46 4.186 4.186 0 0 1-.26.522.274.274 0 0 0-.061.164 1.123 1.123 0 0 1-.1.318 13.714 13.714 0 0 0-.615 2.006c-.039.174-.11.473-.162.666a8.2 8.2 0 0 0-.039 3.36c.622 2.863 3.561 4.188 8.473 3.818a13.784 13.784 0 0 0 3.265-.6 1.14 1.14 0 0 1 .36-.1.343.343 0 0 0 .225-.105.287.287 0 0 1 .189-.105c.6 0 2.826-1.538 3.71-2.559.659-.764 1.44-2.14 1.3-2.285-.056-.054-4.869-.105-5.833-.061-.066 0-.2.174-.316.406a4.317 4.317 0 0 1-1.425 1.469 2.929 2.929 0 0 1-1.869.438c-1.224 0-1.741-.233-2.1-.933a3.887 3.887 0 0 1 .142-2.829 59.3 59.3 0 0 1 6.029-.088c6.725 0 6.108.056 6.264-.561.044-.171.127-.473.184-.664s.132-.524.169-.735.1-.544.135-.735c.287-1.455.257-3.656-.059-4.058a.848.848 0 0 1-.1-.245 4.074 4.074 0 0 0-2.084-2.17 6.888 6.888 0 0 0-2.694-.767c-.4-.061-3.343-.076-3.779-.017m19.636 0-.84.132a10.613 10.613 0 0 0-1.856.451 10.743 10.743 0 0 0-4.095 2.417c-.174.179-.372.38-.443.443a13.989 13.989 0 0 0-2.39 3.965 7.32 7.32 0 0 1-.184.49 15.47 15.47 0 0 0-.629 2.275c-.032.211-.091.526-.13.7a8.263 8.263 0 0 0 .071 2.633c.59 2.476 2.611 3.715 6.274 3.845a16.112 16.112 0 0 0 5.456-.639 1.2 1.2 0 0 1 .3-.1.894.894 0 0 0 .269-.1c.1-.054.453-.218.781-.367a9.345 9.345 0 0 0 3.869-3.382 14.18 14.18 0 0 0 1.225-2.4c.122-.34.108-.34-2.939-.34h-2.841l-.245.507c-1.033 2.042-2.167 2.831-3.992 2.77-1.21-.039-1.832-.49-2-1.469a6.475 6.475 0 0 1 .189-2.258 1.469 1.469 0 0 0 .108-.446.63.63 0 0 1 .105-.331.6.6 0 0 0 .1-.3 11.1 11.1 0 0 1 1.224-2.821 3.871 3.871 0 0 1 3.793-1.8c1.521.088 2.094.884 1.785 2.481-.088.456-.186.441 2.971.421l2.858-.017.047-.211c.027-.115.088-.384.14-.6a11.085 11.085 0 0 0 0-2.709 1.959 1.959 0 0 1-.115-.421.792.792 0 0 0-.147-.375.284.284 0 0 1-.1-.169 4.169 4.169 0 0 0-1.891-1.646.289.289 0 0 1-.184-.076c-.416-.414-5.013-.823-6.534-.578m-17.971 3.46a1.881 1.881 0 0 1 1.528 1.048 3.05 3.05 0 0 1 0 1.947l-.14.186-2.983.02-2.983.017-.042-.162c-.042-.164.059-.389.49-1.127a4.156 4.156 0 0 1 .367-.524 2.948 2.948 0 0 0 .211-.245c.475-.774 2.219-1.34 3.539-1.149m-30.037 5.682a4.412 4.412 0 0 1-.306 1.117c-.039.115-.1.306-.127.426-.443 1.778-2.089 2.863-4.342 2.863-1.626 0-2.113-.443-1.793-1.626.4-1.484 1.288-2.055 3.673-2.371a19.517 19.517 0 0 0 2.2-.365 1.188 1.188 0 0 1 .681-.044M49.11 296.1a1.981 1.981 0 0 0-.3.681c-.105.338-.245.718-.289.845a1.173 1.173 0 0 0-.1.338 1.08 1.08 0 0 1-.1.331 3.227 3.227 0 0 0-.169.49c-.037.154-.1.375-.142.49-.211.58-.446 1.291-.509 1.54a3.883 3.883 0 0 1-.169.49 1.127 1.127 0 0 0-.1.35.84.84 0 0 1-.1.3.754.754 0 0 0-.1.3 1.225 1.225 0 0 1-.1.35 7.02 7.02 0 0 0-.245.747c-.078.289-.2.634-.245.769a4.015 4.015 0 0 0-.135.419c-.024.1-.086.287-.137.421s-.135.384-.186.556A3.9 3.9 0 0 1 44.5 307.4a5.878 5.878 0 0 1-.857.524c-.105.049-.171.113-.144.14.125.125 143.51.051 143.611-.076a1.378 1.378 0 0 0 .2-.436 2.13 2.13 0 0 1 .14-.387 1.148 1.148 0 0 0 .1-.3 2.2 2.2 0 0 1 .149-.421.869.869 0 0 0 .1-.313.688.688 0 0 1 .078-.274 2.965 2.965 0 0 0 .169-.5 9 9 0 0 1 .353-1.09c.049-.135.142-.433.206-.664a5.16 5.16 0 0 1 .213-.632 3.032 3.032 0 0 0 .164-.514 1.088 1.088 0 0 1 .142-.382.336.336 0 0 0 .076-.208c0-.132.637-2.138.806-2.535a6.205 6.205 0 0 1 1.854-2.64 3.8 3.8 0 0 1 1.014-.546c.061 0 .1-.029.071-.069-.059-.093-143.665-.093-143.824 0M61.3 298c1.624.287 2.41 1.369 2 2.75l-.108.362h-1.6c-1.82 0-1.753.022-1.577-.563.225-.735-.169-1.068-1.06-.891-.622.122-1.092.786-1.533 2.155-.069.211-.169.507-.223.659-.336.94-.176 1.749.36 1.829.644.1 1.109-.23 1.55-1.09.267-.517.154-.49 1.871-.49s1.734 0 1.447.551c-1.09 2.109-2.554 2.836-5.557 2.762-2.8-.071-3.632-1.178-2.88-3.84.272-.96 1.43-2.973 1.714-2.976a1.134 1.134 0 0 0 .245-.2 4.757 4.757 0 0 1 1.239-.71.882.882 0 0 0 .272-.1 3.675 3.675 0 0 1 .806-.181 4.37 4.37 0 0 0 .647-.113 12.054 12.054 0 0 1 2.38.078m25.469.135a2.854 2.854 0 0 1-.245.923 1.139 1.139 0 0 0-.1.34.862.862 0 0 1-.12.321l-.12.2h-1.263c-.7 0-1.624.029-2.064.051l-.8.044-.125.35a2.184 2.184 0 0 0-.125.473c0 .142-.125.135 2.008.122 1.842-.012 1.932.037 1.516.835a.918.918 0 0 0-.1.318 1.242 1.242 0 0 1-.122.387l-.12.245-1.91.017-1.913.02-.1.26a3.557 3.557 0 0 1-.171.385.735.735 0 0 0-.066.3v.176h1.888c2.14 0 2.189 0 2.084.4a9.34 9.34 0 0 1-.451 1.293l-.1.2-3.585-.017c-4.038-.02-3.673.034-3.478-.544.049-.135.127-.355.174-.49s.316-.953.6-1.82.546-1.67.6-1.785.159-.446.245-.735a6.22 6.22 0 0 1 .215-.642 8.963 8.963 0 0 0 .375-1.144c.113-.519-.1-.49 3.35-.524a30.154 30.154 0 0 1 4.026.032m19.81 0c.1.059.073.389-.093 1.371-.1.561-.186 1.144-.318 2.03-.059.38-.027.7.066.7a3.713 3.713 0 0 0 .4-.669c.191-.367.573-1.1.85-1.626s.6-1.153.715-1.389c.2-.4.233-.433.478-.463.436-.054 3.992-.022 4.051.037a4.791 4.791 0 0 1-.394 1.555c-.032.076-.127.36-.211.629s-.189.6-.245.735a8.717 8.717 0 0 0-.328 1.014 1.283 1.283 0 0 1-.127.348 1.119 1.119 0 0 0-.11.318 3.1 3.1 0 0 1-.14.456 8.807 8.807 0 0 0-.35 1.016 11.007 11.007 0 0 1-.407 1.166l-.137.36-.463.039c-.245.02-.855.029-1.337.022l-.874-.012-.022-.184a4.318 4.318 0 0 1 .328-1.224c.032-.076.13-.377.218-.666s.186-.578.218-.644a2.4 2.4 0 0 0 .127-.385 10.112 10.112 0 0 1 .4-1.185 1.262 1.262 0 0 0 .093-.4.3.3 0 0 1 .071-.22.316.316 0 0 0 .061-.233c0-.181 0-.181-.078.039-.042.125-.11.228-.154.228s-.118.088-.162.193c-.105.245-.617 1.18-.774 1.418-.061.1-.164.269-.225.384-.735 1.379-1.5 2.694-1.589 2.777a6.315 6.315 0 0 1-2.077.061c-.191-.073-.2-.093-.157-.4.024-.176.076-.688.115-1.134s.1-.98.142-1.2a8.25 8.25 0 0 0 .122-1.981c-.069-.14-.176-.1-.228.179a2.161 2.161 0 0 1-.108.367c-.071.159-.534 1.56-.771 2.344a4.718 4.718 0 0 1-.211.6 1.04 1.04 0 0 0-.1.282c-.142.612-.333.928-.6.98a14.059 14.059 0 0 1-2.488-.022 5.1 5.1 0 0 1 .384-1.418 2.123 2.123 0 0 0 .13-.387c.034-.145.1-.375.149-.509.2-.558.269-.767.49-1.4.125-.365.245-.759.284-.874.083-.287.287-.864.4-1.129a1.26 1.26 0 0 0 .091-.331 1.225 1.225 0 0 1 .1-.34 9.274 9.274 0 0 0 .338-.98l.071-.26.429-.02c.857-.042 3.872 0 3.953.042m29.143.025a2.3 2.3 0 0 1-.208.9l-.262.855-2.091.037c-1.151.022-2.1.044-2.1.054a2.072 2.072 0 0 0-.056.223.541.541 0 0 1-.11.245.355.355 0 0 0-.066.245v.2l1.837.02 1.839.017.022.189a.877.877 0 0 1-.088.4.96.96 0 0 0-.11.323 1.575 1.575 0 0 1-.13.407 6.82 6.82 0 0 0-.171.416c-.042.113-.2.122-1.935.122-2.133 0-1.974-.042-2.17.575-.179.561-.245.544 1.918.544 2.26 0 2.123-.059 1.864.806-.245.781-.316.933-.539 1.019s-6.612.093-6.869.022-.189-.456.159-1.32c.047-.118.157-.431.245-.7s.2-.59.245-.71a1.3 1.3 0 0 0 .1-.3 8.163 8.163 0 0 1 .345-1.09c.069-.157.26-.735.353-1.048.032-.118.093-.306.135-.421.3-.857.519-1.513.578-1.763l.069-.3.431-.02c1.063-.051 6.718 0 6.779.066m19.065.042a2.332 2.332 0 0 1 .14.735 7.421 7.421 0 0 0 .108.852c.034.135.1.588.142 1.007.122 1.171.336 1.714.448 1.149a2.433 2.433 0 0 1 .14-.441c.051-.115.323-.918.6-1.785s.519-1.587.531-1.6a21.2 21.2 0 0 1 2.814.032 5.865 5.865 0 0 1-.414 1.538c-.1.245-.284.83-.353 1.1a2.494 2.494 0 0 1-.132.384 9.619 9.619 0 0 0-.355 1.031 29.727 29.727 0 0 1-.6 1.771 1.311 1.311 0 0 0-.1.35.855.855 0 0 1-.1.306 2 2 0 0 0-.147.411c-.157.715-.326.774-2.133.762-1.4 0-1.57-.044-1.594-.311a4.909 4.909 0 0 0-.115-.664c-.054-.25-.118-.629-.142-.84s-.086-.654-.142-.98-.122-.747-.144-.933c-.059-.463-.294-.451-.426.022s-.923 2.829-1.095 3.265-.191.443-1.7.446c-1.318 0-1.393-.059-1.095-.828.071-.179.2-.549.287-.818s.184-.553.216-.629.13-.36.216-.629.2-.593.245-.72a1.412 1.412 0 0 0 .1-.35 1.385 1.385 0 0 1 .137-.4 1.5 1.5 0 0 0 .14-.421.886.886 0 0 1 .105-.316.808.808 0 0 0 .1-.313.941.941 0 0 1 .1-.323 1.916 1.916 0 0 0 .142-.434 1.958 1.958 0 0 1 .149-.448.9.9 0 0 0 .1-.309c0-.355.282-.754.544-.779a14.481 14.481 0 0 1 3.272.11m27.781-.017c.044.047.029.144-.044.284a.979.979 0 0 0-.11.331 1.133 1.133 0 0 1-.1.335 4.4 4.4 0 0 0-.181.49c-.115.372-.218.4-1.352.4s-1.078-.044-1.332.7c-.1.289-.216.62-.245.735s-.2.6-.358 1.075-.309.933-.34 1.014-.127.387-.213.676a6.229 6.229 0 0 1-.228.656 4.1 4.1 0 0 0-.169.475c-.137.463-.228.49-1.668.473-1.484-.02-1.658-.076-1.438-.468a6.9 6.9 0 0 0 .245-.718c.1-.328.206-.659.245-.735.066-.145.245-.681.358-1.051.147-.49.49-1.548.553-1.646a1.714 1.714 0 0 0 .108-.35 1.4 1.4 0 0 1 .145-.392c.245-.384.108-.446-.98-.446-1.254 0-1.224.029-.94-.882.3-.98.311-1 .534-1.026.451-.059 7.46 0 7.526.071" transform="translate(959.442 6186.681)" style="fill:#070704"/>
        <path d="M7 270.465v25.8h168V244.67H7v25.8m45.01-19.178a1.021 1.021 0 0 1-.064.367 9.219 9.219 0 0 0-.392 1.256.529.529 0 0 1-.11.267.387.387 0 0 0-.064.245.887.887 0 0 1-.086.362 2.3 2.3 0 0 0-.169.468c-.044.174-.115.409-.154.524s-.142.448-.225.735-.174.59-.206.666a8.138 8.138 0 0 0-.35 1.212.573.573 0 0 1-.1.26 1.378 1.378 0 0 0-.147.416 2.02 2.02 0 0 1-.149.468.914.914 0 0 0-.1.333 1.224 1.224 0 0 1-.1.372c-.051.125-.144.4-.206.615s-.159.541-.223.735-.137.46-.169.6a2.745 2.745 0 0 1-.13.419 6.51 6.51 0 0 0-.186.561 16.221 16.221 0 0 1-.49 1.594 1.264 1.264 0 0 0-.1.384.879.879 0 0 1-.093.336 2.006 2.006 0 0 0-.144.384c-.054.245-.411 1.415-.6 1.991-.069.211-.176.558-.245.769-.14.49-.588 1.925-.683 2.2-.037.115-.113.36-.167.544-.093.316-.184.61-.416 1.364-.059.181-.162.536-.23.786-.162.583.012.553-3.328.531-2.895-.022-2.841-.012-2.694-.433.054-.149.154-.46.223-.693s.181-.588.245-.793a2.465 2.465 0 0 0 .135-.524.564.564 0 0 1 .105-.287.524.524 0 0 0 .1-.245 4.085 4.085 0 0 1 .164-.634c.093-.284.245-.8.355-1.146s.223-.735.262-.84.113-.367.162-.561a5.356 5.356 0 0 1 .159-.524c.037-.1.125-.365.191-.6s.162-.546.211-.7.162-.517.245-.806.2-.627.245-.754a1.224 1.224 0 0 0 .1-.333 7.449 7.449 0 0 1 .245-.842 7.508 7.508 0 0 0 .245-.838 1.2 1.2 0 0 1 .1-.326c.051-.127.162-.451.245-.72s.245-.774.353-1.122.223-.735.245-.874a1.178 1.178 0 0 1 .105-.316 1.006 1.006 0 0 0 .1-.313 4.069 4.069 0 0 1 .137-.49c.1-.279.279-.83.6-1.891.122-.4.245-.83.3-.945a3.474 3.474 0 0 0 .14-.49 2.272 2.272 0 0 1 .132-.4 2.1 2.1 0 0 0 .132-.387c.037-.145.135-.49.216-.754s.193-.644.245-.833c.186-.647-.051-.6 3.184-.6h2.858v.245m101.843-.091a.614.614 0 0 1 0 .333c-.059.186-.154.49-.282.857-.042.125-.11.37-.149.544a1.594 1.594 0 0 1-.125.384 1.112 1.112 0 0 0-.1.316c-.029.135-.14.512-.245.84s-.218.705-.245.84a1.058 1.058 0 0 1-.108.318 1.263 1.263 0 0 0-.13.348c-.039.154-.137.49-.22.769s-.179.615-.216.769a1.1 1.1 0 0 1-.135.348c-.071.071-.093.387-.024.387a2.672 2.672 0 0 0 .4-.3c2.493-2.084 7.058-2.434 8.8-.671a2.481 2.481 0 0 1 .678 1.009 6.55 6.55 0 0 1 0 2.66l-.272.909c-.078.269-.184.617-.245.771a106.44 106.44 0 0 0-.671 2.2c-.083.289-.191.634-.245.769s-.159.49-.245.771-.171.573-.193.629a55.519 55.519 0 0 0-.588 1.925 3.043 3.043 0 0 1-.137.421 4.638 4.638 0 0 0-.164.507c-.056.2-.147.517-.2.7l-.208.681c-.1.34-.174.563-.333 1.033a3.716 3.716 0 0 0-.125.473c-.044.233-.061.245-.429.3-.407.061-5.41.017-5.518-.051a1.909 1.909 0 0 1 .179-.921 1.809 1.809 0 0 0 .118-.4 1.989 1.989 0 0 1 .147-.456.955.955 0 0 0 .105-.333 3.277 3.277 0 0 1 .181-.632 7.227 7.227 0 0 0 .245-.8 1.441 1.441 0 0 1 .127-.387 1.442 1.442 0 0 0 .132-.392c.039-.174.105-.409.145-.524s.186-.588.328-1.051.3-.965.345-1.119.206-.659.348-1.122.289-.933.328-1.048c.735-2.162.49-2.939-.98-3.149a3.436 3.436 0 0 0-1.494.313.262.262 0 0 1-.159.071c-.651 0-1.861 1.572-2.263 2.939-.086.289-.2.644-.245.789a1.558 1.558 0 0 0-.1.384.94.94 0 0 1-.105.323.9.9 0 0 0-.105.279c0 .076-.409 1.442-.568 1.9a6.686 6.686 0 0 0-.145.49 2.937 2.937 0 0 1-.135.419 5.206 5.206 0 0 0-.167.509c-.054.2-.149.534-.211.735s-.13.446-.152.541a4.974 4.974 0 0 1-.164.526c-.071.191-.181.539-.245.769s-.162.529-.213.664a4.024 4.024 0 0 0-.135.465c-.054.284-.149.294-3.323.287-2.772 0-2.76 0-2.63-.38a6.367 6.367 0 0 0 .318-1.06 1.162 1.162 0 0 1 .1-.316 7.208 7.208 0 0 0 .392-1.293.539.539 0 0 1 .1-.262.649.649 0 0 0 .105-.348.762.762 0 0 1 .1-.348 1.413 1.413 0 0 0 .149-.453 1.2 1.2 0 0 1 .122-.4 1.114 1.114 0 0 0 .125-.35 4.084 4.084 0 0 1 .13-.473c.039-.115.122-.382.184-.6.213-.735.4-1.366.49-1.609.049-.135.159-.49.245-.769s.193-.651.245-.806.14-.453.2-.666c.2-.693.409-1.359.49-1.609.049-.135.162-.49.245-.771s.2-.659.245-.823a2.128 2.128 0 0 0 .1-.394.882.882 0 0 1 .105-.3.943.943 0 0 0 .1-.331 1.131 1.131 0 0 1 .1-.348 4.283 4.283 0 0 0 .171-.5c.1-.36.245-.911.362-1.224.044-.135.113-.34.149-.456s.1-.336.14-.49a3.482 3.482 0 0 1 .135-.421 10.558 10.558 0 0 0 .35-1.188 1.092 1.092 0 0 1 .137-.348.343.343 0 0 0 .066-.211 6.869 6.869 0 0 1 .394-1.283 1.185 1.185 0 0 0 .1-.35 2 2 0 0 1 .171-.49l.171-.367h5.682l.059.157m-123.145.377a4.737 4.737 0 0 1-.37 1.376 1.714 1.714 0 0 0-.1.384.884.884 0 0 1-.1.316 1.989 1.989 0 0 0-.149.456 1.135 1.135 0 0 1-.1.328 1.151 1.151 0 0 0-.066.362 1.254 1.254 0 0 1-.105.35 2.508 2.508 0 0 0-.159.455c-.056.213-.154.551-.218.752s-.154.519-.211.7c-.093.313-.142.468-.326 1.016-.044.125-.11.367-.149.541a1.43 1.43 0 0 1-.127.384 1.2 1.2 0 0 0-.105.35 2.106 2.106 0 0 1-.137.456 1.852 1.852 0 0 0-.135.421 2.645 2.645 0 0 1-.107.402c-.034.076-.13.375-.216.664s-.193.637-.245.771-.157.49-.245.769-.184.62-.225.735c-.093.277-.26.842-.348 1.188a1.511 1.511 0 0 1-.127.35 1.137 1.137 0 0 0-.108.35 2.186 2.186 0 0 1-.14.456 3.576 3.576 0 0 0 .015 2.449c.808 1.3 3.735 1.207 5.162-.167a5.074 5.074 0 0 0 1.293-2.128 1.225 1.225 0 0 1 .1-.372c.051-.127.167-.465.245-.754s.2-.651.245-.806c.093-.291.409-1.32.664-2.17.081-.269.179-.585.216-.7s.11-.353.162-.524.2-.632.318-1.016a38.82 38.82 0 0 0 .568-1.891 2.364 2.364 0 0 1 .147-.419 1.661 1.661 0 0 0 .132-.384c.029-.135.1-.4.167-.6s.164-.524.223-.735a6.156 6.156 0 0 1 .206-.615 1.225 1.225 0 0 0 .1-.367 1.2 1.2 0 0 1 .1-.365 7.9 7.9 0 0 0 .245-.754c.081-.289.189-.651.245-.806s.162-.507.245-.786l.157-.507h6.495v.179a4.712 4.712 0 0 1-.318 1.151 3.691 3.691 0 0 0-.142.49 1.007 1.007 0 0 1-.1.313 1.626 1.626 0 0 0-.125.387 6.144 6.144 0 0 1-.149.541l-.152.456a6.754 6.754 0 0 0-.144.507 2.094 2.094 0 0 1-.13.394 2 2 0 0 0-.11.38 1.867 1.867 0 0 1-.144.446.86.86 0 0 0-.093.311 1.163 1.163 0 0 1-.1.35 3.725 3.725 0 0 0-.169.49c-.091.358-.26.918-.353 1.19-.078.22-.49 1.55-.681 2.2l-.2.666c-.046.154-.159.517-.245.806s-.2.627-.245.754a1.2 1.2 0 0 0-.1.35 8.044 8.044 0 0 1-.355 1.171c-.029.076-.142.421-.245.769s-.218.676-.245.735-.174.389-.316.735a10.776 10.776 0 0 1-2.709 3.818l-.563.453a2.7 2.7 0 0 1-.245.169l-.617.375a5.945 5.945 0 0 1-.84.419 3.522 3.522 0 0 0-.534.245.63.63 0 0 1-.3.093.931.931 0 0 0-.353.1 5.594 5.594 0 0 1-.852.245l-1.051.228a26.621 26.621 0 0 1-5.388.211 9.086 9.086 0 0 1-4.607-1.273q-2.623-1.859-.808-7.389c.169-.512.517-1.678.566-1.891a1.021 1.021 0 0 1 .1-.279 1.068 1.068 0 0 0 .1-.316 4.081 4.081 0 0 1 .14-.49 11.183 11.183 0 0 0 .392-1.291.958.958 0 0 1 .1-.294.9.9 0 0 0 .105-.326.894.894 0 0 1 .1-.316 2.111 2.111 0 0 0 .147-.49.747.747 0 0 1 .105-.333.708.708 0 0 0 .1-.3 8.677 8.677 0 0 1 .245-.86c.108-.328.218-.7.245-.828a1.96 1.96 0 0 1 .147-.419.95.95 0 0 0 .1-.328.876.876 0 0 1 .1-.316.833.833 0 0 0 .1-.328 1.224 1.224 0 0 1 .1-.387 9.81 9.81 0 0 0 .277-.874 6.3 6.3 0 0 1 .245-.784.779.779 0 0 0 .073-.3.953.953 0 0 1 .1-.358 1.876 1.876 0 0 0 .144-.456 2.449 2.449 0 0 1 .137-.47c.054-.115.113-.264.135-.331a38.237 38.237 0 0 1 6.529 0m81.962-.017a3.365 3.365 0 0 1-.245 1.058c-.042.115-.174.541-.294.945s-.279.9-.353 1.109a2.3 2.3 0 0 0-.135.49.891.891 0 0 1-.105.316.98.98 0 0 0-.105.355c0 .436.1.421-3.23.46l-3.032.034-.061.211a5.083 5.083 0 0 1-.159.441 1.3 1.3 0 0 0-.1.385.855.855 0 0 1-.1.335 1.979 1.979 0 0 0-.142.436 1.888 1.888 0 0 1-.149.448 1.016 1.016 0 0 0-.1.37.872.872 0 0 1-.105.35.862.862 0 0 0-.1.353.668.668 0 0 1-.1.313 1.433 1.433 0 0 0-.147.443 1.974 1.974 0 0 1-.147.49.913.913 0 0 0-.1.35.913.913 0 0 1-.1.35 3.27 3.27 0 0 0-.179.49c-.044.174-.122.458-.176.632-.091.294-.127.409-.323 1a7.244 7.244 0 0 0-.145.507 2.717 2.717 0 0 1-.169.49 1.107 1.107 0 0 0-.1.36.98.98 0 0 1-.105.34.894.894 0 0 0-.105.321 1.528 1.528 0 0 1-.1.384c-.051.147-.167.5-.245.791s-.2.634-.245.769c-.135.392-.36 1.119-.49 1.575a6.058 6.058 0 0 1-.218.651 1.271 1.271 0 0 0-.1.4 1.207 1.207 0 0 1-.1.4 8.209 8.209 0 0 0-.382 1.176 2 2 0 0 1-.135.4.766.766 0 0 0-.083.313c0 .458.105.441-3.3.453-1.7 0-3.159-.015-3.245-.049l-.159-.059.142-.441c.2-.617.316-1.019.414-1.386a4.249 4.249 0 0 1 .142-.456c.034-.078.105-.3.159-.49.105-.38.49-1.619.593-1.959.037-.115.137-.446.223-.735s.245-.8.355-1.134a6.187 6.187 0 0 0 .2-.688 1.158 1.158 0 0 1 .1-.3 3.885 3.885 0 0 0 .169-.5c.039-.152.105-.382.147-.507l.152-.456c.042-.128.11-.367.149-.541a1.431 1.431 0 0 1 .127-.384 1.181 1.181 0 0 0 .11-.336 2.05 2.05 0 0 1 .147-.453.882.882 0 0 0 .1-.323.979.979 0 0 1 .105-.34.9.9 0 0 0 .105-.326 2.365 2.365 0 0 1 .132-.49c.073-.206.186-.563.245-.793s.162-.531.213-.666a3.357 3.357 0 0 0 .137-.478 1.835 1.835 0 0 1 .144-.419 1 1 0 0 0 .1-.362.83.83 0 0 1 .1-.35.84.84 0 0 0 .1-.3 1.136 1.136 0 0 1 .113-.362.948.948 0 0 0 .086-.431l-.022-.2-2.88-.017c-3.3-.022-3.108.02-2.927-.624.064-.223.159-.566.213-.757s.125-.414.157-.49c.069-.159.277-.813.5-1.575.086-.289.2-.659.245-.825a2.186 2.186 0 0 0 .1-.4.149.149 0 0 1 .088-.13c.245-.1 18.676-.047 18.713.049m-50.993.287a.923.923 0 0 1-.078.421 1.916 1.916 0 0 0-.149.49.808.808 0 0 1-.108.333.786.786 0 0 0-.108.333 1.19 1.19 0 0 1-.108.37 1.344 1.344 0 0 0-.127.35c-.066.245-.208.735-.478 1.609a5.231 5.231 0 0 0-.142.576l-.034.228h1.32c1.66 0 1.668 0 1.3 1.082l-.154.455a6.495 6.495 0 0 0-.154.561 1.47 1.47 0 0 1-.13.387 1.379 1.379 0 0 0-.13.35c-.348 1.352-.144 1.224-1.873 1.224-1.594 0-1.584 0-1.663.519a.84.84 0 0 1-.105.353.7.7 0 0 0-.105.3 3.224 3.224 0 0 1-.137.507c-.051.135-.149.433-.218.666s-.181.6-.245.823a2.94 2.94 0 0 0-.132.49.9.9 0 0 1-.105.3.933.933 0 0 0-.1.321 1.679 1.679 0 0 1-.1.384c-.054.147-.213.644-.355 1.1s-.289.936-.331 1.051c-.531 1.555-.291 1.869 1.416 1.851 1.224 0 1.2-.042.85 1.019-.037.115-.186.588-.326 1.051s-.3.95-.353 1.085a3.627 3.627 0 0 0-.135.429c-.061.284-.654.353-3.443.389a12.673 12.673 0 0 1-2.821-.076 3.8 3.8 0 0 0-.553-.115 3.352 3.352 0 0 1-.931-.438c-.514-.345-.673-2.14-.279-3.152a1.119 1.119 0 0 0 .078-.338 1.207 1.207 0 0 1 .093-.365 7.26 7.26 0 0 0 .4-1.256.7.7 0 0 1 .086-.279 2.729 2.729 0 0 0 .171-.47c.047-.171.12-.456.167-.629s.122-.426.169-.561.125-.355.174-.49a5.224 5.224 0 0 0 .149-.551 1.322 1.322 0 0 1 .125-.384 1.046 1.046 0 0 0 .11-.323 3.674 3.674 0 0 1 .137-.49c.051-.135.147-.433.216-.666s.179-.588.245-.793a2.339 2.339 0 0 0 .132-.49.884.884 0 0 1 .118-.331c.245-.411.164-.438-1.207-.438h-1.227l.037-.228a10.78 10.78 0 0 1 .331-1.242c.22-.659.345-1.063.529-1.714a4.163 4.163 0 0 1 .22-.6l.125-.245 1.294-.025 1.3-.034.093-.316a2.91 2.91 0 0 1 .152-.429 1.666 1.666 0 0 0 .11-.384 1.171 1.171 0 0 1 .1-.34 1.111 1.111 0 0 0 .1-.316 3.1 3.1 0 0 1 .145-.456 4.086 4.086 0 0 0 .164-.49c.042-.154.122-.438.181-.629s.152-.514.208-.715a4.571 4.571 0 0 1 .22-.612l.118-.245 2.88.02 2.878.017.022.223m15.7 4.408c.1.064.078.6-.034.816a2.029 2.029 0 0 0-.144.421c-.027.127-.137.49-.245.828s-.218.705-.245.84a1.063 1.063 0 0 1-.1.313 1.054 1.054 0 0 0-.1.316 3.672 3.672 0 0 1-.14.49 10.994 10.994 0 0 0-.392 1.308c0 .245-.262.287-.891.171a6.253 6.253 0 0 0-5.552 1.406 5.7 5.7 0 0 0-1.256 2 .859.859 0 0 1-.1.311 1.959 1.959 0 0 0-.144.473.7.7 0 0 1-.108.321.735.735 0 0 0-.105.321 1.958 1.958 0 0 1-.144.473.85.85 0 0 0-.1.309 1.589 1.589 0 0 1-.1.384 9.81 9.81 0 0 0-.245.789 7.256 7.256 0 0 1-.245.754 1.225 1.225 0 0 0-.1.4 1.286 1.286 0 0 1-.1.4 6.554 6.554 0 0 0-.245.754c-.076.289-.2.637-.245.771a10.091 10.091 0 0 0-.38 1.305c0 .105.027.105-3.429.132-2.6.02-2.635.012-2.5-.37.051-.144.152-.453.218-.683.245-.86.6-1.979.7-2.275.049-.135.159-.49.245-.771s.2-.659.245-.823a2.127 2.127 0 0 0 .1-.394.882.882 0 0 1 .105-.3 1.021 1.021 0 0 0 .105-.34.837.837 0 0 1 .1-.321 1.979 1.979 0 0 0 .142-.436 1.853 1.853 0 0 1 .149-.448.979.979 0 0 0 .1-.37.908.908 0 0 1 .1-.35.872.872 0 0 0 .105-.35.95.95 0 0 1 .1-.358 1.7 1.7 0 0 0 .142-.434 2.091 2.091 0 0 1 .149-.448.9.9 0 0 0 .1-.316 1.6 1.6 0 0 1 .1-.387c.054-.145.169-.49.245-.789a24.8 24.8 0 0 1 .414-1.33c.049-.135.127-.4.179-.6s.127-.451.169-.576a17.336 17.336 0 0 0 .509-1.714c.042-.181.1-.333.13-.333s.073-.14.1-.311a1.171 1.171 0 0 1 .179-.473l.127-.159 2.831-.02c3.2-.024 3.11-.037 2.9.458-.059.142-.179.49-.262.786s-.2.644-.245.789c-.245.688-.105.688.588 0a9.7 9.7 0 0 1 2.486-1.844 8.633 8.633 0 0 1 1.976-.58 14.422 14.422 0 0 1 2.069.064m11.789-.039a7.673 7.673 0 0 1 2.927.808c1.506.722 1.837 2.679.894 5.319-.039.115-.186.588-.326 1.051s-.3.96-.35 1.1a1.563 1.563 0 0 0-.1.375 1.133 1.133 0 0 1-.1.331 3.843 3.843 0 0 0-.169.49 8.55 8.55 0 0 1-.147.509 27.08 27.08 0 0 0-.507 1.66 3.874 3.874 0 0 1-.171.5 1.112 1.112 0 0 0-.1.331 1.563 1.563 0 0 1-.1.375c-.054.144-.144.421-.2.615s-.174.58-.26.864a1.524 1.524 0 0 0 .027 1.308c.191.194.135 1.092-.1 1.153s-5.344.162-5.522.105c-.245-.078-.446-.634-.4-1.1.056-.546.012-.546-.774 0a8.408 8.408 0 0 1-2.123 1.058 2.691 2.691 0 0 0-.407.1c-1.714.514-5.1.49-6.1-.032l-.478-.216a2.867 2.867 0 0 1-1.528-2.613 8.84 8.84 0 0 1 .211-1.528 1.129 1.129 0 0 0 .12-.362 1.335 1.335 0 0 1 .144-.419.51.51 0 0 0 .1-.218 5.554 5.554 0 0 1 .441-.98 7.1 7.1 0 0 1 2.811-2.54l.458-.218c.093-.047.6-.208 1.714-.536a2.45 2.45 0 0 1 .558-.1 10 10 0 0 0 .921-.1c.833-.122 2.417-.3 3.534-.392a9.021 9.021 0 0 0 2.087-.318 1.226 1.226 0 0 1 .318-.1c.6 0 1.384-1.5 1.109-2.123-.473-1.065-3.416-1-4.675.108a3.481 3.481 0 0 0-.8 1.058c0 .245-.144.26-2.912.245-2.584-.017-2.723-.025-2.745-.147a7.624 7.624 0 0 1 .83-1.714c.032 0 .078-.061.1-.14a.671.671 0 0 1 .132-.228 2.294 2.294 0 0 0 .2-.245 10.365 10.365 0 0 1 1.6-1.562 10.86 10.86 0 0 1 1.4-.769 13.843 13.843 0 0 1 2.554-.642l.945-.13c.553-.081 4.435-.083 4.935 0m29.26 0a7.025 7.025 0 0 1 2.694.767 4.16 4.16 0 0 1 2.084 2.17.847.847 0 0 0 .1.245c.316.4.345 2.6.059 4.058-.037.191-.1.522-.135.735s-.113.541-.169.735-.14.49-.184.664c-.157.617.46.561-6.264.561a59.315 59.315 0 0 0-6.029.088 3.937 3.937 0 0 0-.142 2.829c.7 1.364 3.333 1.3 4.739-.115a4.164 4.164 0 0 0 .656-.86c.118-.245.245-.4.316-.407.965-.044 5.777 0 5.833.061.144.145-.637 1.521-1.3 2.285-.884 1.021-3.115 2.559-3.71 2.559a.287.287 0 0 0-.189.105.342.342 0 0 1-.225.105 1.142 1.142 0 0 0-.36.1 13.707 13.707 0 0 1-3.264.6c-4.913.37-7.851-.955-8.473-3.818a8.2 8.2 0 0 1 .039-3.36c.051-.193.122-.49.162-.666a13.714 13.714 0 0 1 .615-2.006 1.125 1.125 0 0 0 .1-.318.274.274 0 0 1 .061-.164 4.189 4.189 0 0 0 .26-.522 11.035 11.035 0 0 1 8.953-6.46c.436-.059 3.377-.044 3.779.017m20.571.108a6.754 6.754 0 0 1 1.81.451.289.289 0 0 0 .184.076 4.169 4.169 0 0 1 1.891 1.646.284.284 0 0 0 .1.169.791.791 0 0 1 .147.375 1.96 1.96 0 0 0 .115.421 12.157 12.157 0 0 1 0 2.709c-.051.211-.113.49-.14.6l-.047.211-2.858.017c-3.157.02-3.059.034-2.971-.421.309-1.6-.265-2.393-1.785-2.481a3.873 3.873 0 0 0-3.793 1.8 11.278 11.278 0 0 0-1.224 2.821.6.6 0 0 1-.1.3.629.629 0 0 0-.105.331 1.469 1.469 0 0 1-.108.446 6.475 6.475 0 0 0-.189 2.258c.171.98.793 1.425 2 1.469 1.824.061 2.958-.735 3.992-2.77l.245-.507H139c3.051 0 3.066 0 2.939.34a14.182 14.182 0 0 1-1.224 2.4 9.345 9.345 0 0 1-3.874 3.372c-.328.149-.678.313-.781.367a.9.9 0 0 1-.269.1 1.194 1.194 0 0 0-.3.1 16.158 16.158 0 0 1-5.456.639c-3.673-.13-5.684-1.369-6.274-3.845a8.263 8.263 0 0 1-.071-2.633c.039-.174.1-.49.13-.7a15.468 15.468 0 0 1 .639-2.275c.034-.076.118-.3.184-.49a13.988 13.988 0 0 1 2.39-3.965c.071-.064.269-.264.443-.443a11.356 11.356 0 0 1 5.951-2.868l.84-.132a27.287 27.287 0 0 1 4.724.127m-24.061 3.333a4.162 4.162 0 0 0-2.165 1.144 2.946 2.946 0 0 1-.211.245 4.166 4.166 0 0 0-.367.524c-.441.735-.541.962-.49 1.127l.042.162 2.983-.017 2.983-.02.14-.186a3.084 3.084 0 0 0 0-1.947c-.419-.9-1.376-1.239-2.9-1.043M85.576 265.4a19.524 19.524 0 0 1-2.2.365c-2.393.316-3.279.887-3.673 2.371-.321 1.183.167 1.626 1.793 1.626 2.253 0 3.9-1.085 4.342-2.863.029-.12.088-.311.127-.426a4.413 4.413 0 0 0 .306-1.117 1.188 1.188 0 0 0-.681.044m79.79 11.047c.024.039 0 .069-.071.069a3.8 3.8 0 0 0-1.014.546 6.142 6.142 0 0 0-1.854 2.64c-.169.4-.806 2.4-.806 2.535a.336.336 0 0 1-.076.208 1.087 1.087 0 0 0-.142.382 3.033 3.033 0 0 1-.164.514 5.16 5.16 0 0 0-.213.632c-.064.23-.157.529-.206.664a9.01 9.01 0 0 0-.353 1.09 2.965 2.965 0 0 1-.169.5.689.689 0 0 0-.078.274.869.869 0 0 1-.1.313 2.2 2.2 0 0 0-.149.421 1.147 1.147 0 0 1-.1.3 2.127 2.127 0 0 0-.14.387 1.379 1.379 0 0 1-.2.436c-.113.127-143.486.2-143.611.076-.027-.027.039-.091.144-.14a5.878 5.878 0 0 0 .857-.524 3.9 3.9 0 0 0 1.469-1.883c.051-.171.135-.421.186-.556s.113-.323.137-.421a4.014 4.014 0 0 1 .135-.419c.051-.135.164-.49.245-.769s.2-.624.245-.747a1.225 1.225 0 0 0 .1-.35.754.754 0 0 1 .1-.3.84.84 0 0 0 .1-.3 1.126 1.126 0 0 1 .1-.35 3.885 3.885 0 0 0 .169-.49c.064-.245.3-.96.509-1.54.042-.115.105-.336.142-.49a3.224 3.224 0 0 1 .169-.49 1.08 1.08 0 0 0 .1-.331 1.173 1.173 0 0 1 .1-.338c.054-.127.184-.507.289-.845a1.982 1.982 0 0 1 .3-.681c.159-.093 143.755-.093 143.824 0M31.353 278.3a4.366 4.366 0 0 1-.647.113 3.673 3.673 0 0 0-.806.181.882.882 0 0 1-.272.1 4.758 4.758 0 0 0-1.239.71 1.133 1.133 0 0 1-.245.2 7.8 7.8 0 0 0-1.5 2.346c-1.224 2.777-.272 4.4 2.667 4.469 3 .073 4.467-.654 5.557-2.762.287-.556.3-.553-1.447-.551s-1.6-.029-1.871.49c-.441.86-.906 1.185-1.55 1.09-.536-.081-.7-.889-.36-1.829.054-.152.154-.448.223-.659.441-1.369.911-2.033 1.533-2.155.891-.176 1.286.154 1.06.891-.176.585-.245.563 1.577.563h1.6l.108-.362c.411-1.381-.375-2.464-2-2.75a12.052 12.052 0 0 0-2.38-.078m23.829.181c-3.451.039-3.238 0-3.35.524a8.962 8.962 0 0 1-.375 1.144 6.22 6.22 0 0 0-.216.642c-.086.289-.193.62-.245.735s-.318.918-.6 1.785-.546 1.685-.6 1.82-.125.355-.174.49c-.206.578-.561.524 3.478.544l3.585.017.1-.2a9.342 9.342 0 0 0 .451-1.293c.105-.392.056-.4-2.084-.4h-1.877v-.176a.735.735 0 0 1 .066-.3 3.564 3.564 0 0 0 .171-.384l.1-.26 1.913-.02 1.91-.017.12-.245a1.241 1.241 0 0 0 .122-.387.918.918 0 0 1 .1-.318c.416-.8.326-.847-1.516-.835-2.133.012-2.008.02-2.008-.122a2.185 2.185 0 0 1 .125-.473l.125-.35.8-.044a58.057 58.057 0 0 1 2.064-.051h1.261l.12-.2a.862.862 0 0 0 .12-.321 1.139 1.139 0 0 1 .1-.34 2.853 2.853 0 0 0 .245-.923 30.159 30.159 0 0 0-4.021-.03m19.883-.015-.429.02-.071.26a9.272 9.272 0 0 1-.338.98 1.224 1.224 0 0 0-.1.34 1.262 1.262 0 0 1-.091.331c-.113.264-.316.842-.4 1.129-.032.115-.159.509-.284.874a39.59 39.59 0 0 1-.49 1.4 6.251 6.251 0 0 0-.149.509 2.122 2.122 0 0 1-.13.387 4.367 4.367 0 0 0-.384 1.418 12.42 12.42 0 0 0 2.488.022c.262-.042.453-.358.6-.98a1.04 1.04 0 0 1 .1-.282 4.713 4.713 0 0 0 .211-.6c.245-.784.7-2.185.771-2.344a2.157 2.157 0 0 0 .108-.367c.051-.274.144-.345.228-.179a7.189 7.189 0 0 1-.122 1.981c-.039.211-.105.752-.142 1.2s-.091.958-.115 1.134c-.042.306-.034.326.157.4a6.313 6.313 0 0 0 2.077-.061c.093-.078.85-1.4 1.589-2.777.061-.115.164-.289.225-.384.157-.245.669-1.18.774-1.418.044-.105.118-.194.162-.194s.113-.1.154-.228c.071-.22.071-.22.078-.039a.316.316 0 0 1-.061.233.3.3 0 0 0-.071.22 1.261 1.261 0 0 1-.093.4 10.117 10.117 0 0 0-.4 1.185 2.407 2.407 0 0 1-.127.385c-.032.066-.132.358-.218.644s-.186.59-.218.666a4.317 4.317 0 0 0-.328 1.224l.022.184.874.012c.49 0 1.082 0 1.337-.022l.463-.039.137-.36c.2-.526.3-.811.407-1.166s.245-.735.35-1.016a3.1 3.1 0 0 0 .14-.456 1.12 1.12 0 0 1 .11-.318 1.283 1.283 0 0 0 .127-.348 8.717 8.717 0 0 1 .328-1.014c.049-.135.154-.465.245-.735s.179-.553.211-.629a4.189 4.189 0 0 0 .394-1.555 38.165 38.165 0 0 0-4.051-.037c-.245.029-.282.066-.478.463-.115.245-.438.86-.715 1.389l-.85 1.626a3.712 3.712 0 0 1-.4.669c-.093 0-.125-.321-.066-.7.132-.887.223-1.469.318-2.03.167-.98.189-1.313.093-1.371s-3.1-.083-3.953-.042m26.317 0-.431.02-.069.3c-.059.245-.274.906-.578 1.763-.042.115-.1.3-.135.421-.093.318-.284.891-.353 1.048a8.156 8.156 0 0 0-.345 1.09 1.3 1.3 0 0 1-.1.3 6.1 6.1 0 0 0-.245.71 7.265 7.265 0 0 1-.245.7c-.348.864-.394 1.256-.159 1.32s6.678.049 6.869-.022.3-.245.539-1.019c.26-.865.4-.806-1.864-.806-2.158 0-2.1.017-1.918-.544.2-.617.037-.576 2.17-.576 1.739 0 1.893 0 1.935-.122.022-.069.1-.245.171-.416a1.575 1.575 0 0 0 .13-.407.96.96 0 0 1 .11-.323.876.876 0 0 0 .088-.4l-.022-.189-1.839-.017-1.837-.02v-.2a.355.355 0 0 1 .066-.245.541.541 0 0 0 .11-.245 2.076 2.076 0 0 1 .056-.223s.953-.032 2.1-.054l2.091-.037.274-.833a2.415 2.415 0 0 0 .208-.9c-.037-.044-5.716-.118-6.779-.066m22.572 0c-.262.024-.544.424-.544.779a.9.9 0 0 1-.1.309 1.96 1.96 0 0 0-.149.448 1.915 1.915 0 0 1-.142.434.941.941 0 0 0-.1.323.808.808 0 0 1-.1.313.886.886 0 0 0-.105.316 1.5 1.5 0 0 1-.14.421 1.386 1.386 0 0 0-.137.4 1.411 1.411 0 0 1-.1.35c-.051.127-.164.451-.245.72s-.184.553-.215.629-.13.36-.216.629-.216.639-.287.818c-.3.769-.223.828 1.095.828 1.509 0 1.528 0 1.7-.446s.98-2.826 1.095-3.264.367-.49.426-.022c.022.186.088.6.144.933s.12.767.142.98.086.59.142.84a6.465 6.465 0 0 1 .115.664c.024.267.2.3 1.594.311 1.807.012 1.976-.047 2.133-.762a2 2 0 0 1 .147-.411.855.855 0 0 0 .1-.306 1.311 1.311 0 0 1 .1-.35c.093-.218.465-1.308.6-1.771a9.624 9.624 0 0 1 .355-1.031 2.494 2.494 0 0 0 .132-.384c.069-.274.257-.862.353-1.1a5.772 5.772 0 0 0 .414-1.538 21.2 21.2 0 0 0-2.814-.032c-.012.017-.245.735-.531 1.6s-.553 1.67-.6 1.785a2.432 2.432 0 0 0-.14.441c-.113.566-.326.022-.448-1.149a11.09 11.09 0 0 0-.142-1.007 7.427 7.427 0 0 1-.108-.852c-.069-.911.027-.862-1.69-.864-.8 0-1.577 0-1.714.02m23.51 0c-.223.029-.23.047-.534 1.026-.282.911-.313.882.94.882 1.09 0 1.224.061.98.446a1.4 1.4 0 0 0-.145.392 1.714 1.714 0 0 1-.108.35c-.054.1-.407 1.149-.553 1.646-.11.37-.291.906-.358 1.051-.034.076-.142.407-.245.735a6.894 6.894 0 0 1-.245.718c-.22.392-.047.448 1.438.468 1.44.017 1.531 0 1.668-.473a4.089 4.089 0 0 1 .169-.475 6.228 6.228 0 0 0 .228-.656c.086-.289.184-.593.213-.676s.184-.539.34-1.014.318-.96.358-1.075c.556-1.609.362-1.435 1.587-1.435 1.134 0 1.237-.032 1.352-.4a4.407 4.407 0 0 1 .181-.49 1.134 1.134 0 0 0 .1-.336.979.979 0 0 1 .11-.331c.073-.14.088-.245.044-.284s-7.075-.13-7.526-.071" transform="translate(987 6206.329)" style="fill:#fbf31c"/>
    </g>
</svg>
