<svg xmlns="http://www.w3.org/2000/svg" width="173" height="173" viewBox="0 0 173 173">
    <defs>
        <clipPath id="0vsyccanva">
            <path data-name="Rectangle 8518" transform="translate(280 6390)" style="fill:#fff;stroke:#707070" d="M0 0h173v173H0z"/>
        </clipPath>
    </defs>
    <g data-name="Mask Group 164" transform="translate(-280 -6390)" style="clip-path:url(#0vsyccanva)">
        <path data-name="Path 46309" d="M332.696 6471.618a2.63 2.63 0 0 1-.765 1.218 1.241 1.241 0 0 1-1.019.057c-.227-.113-.481-.312-.425-.623a1.774 1.774 0 0 1 .595-1.048c.368-.368.963-.793 1.359-.368a.52.52 0 0 1 .255.765m-24.3 1.161a3.9 3.9 0 0 1-1.076-.991 1.064 1.064 0 0 1-.113-1.473c.481-.623 1.671-.17 2.152.113a5.34 5.34 0 0 1 1.359 1.274 10.142 10.142 0 0 1 1.076 2.067 6.589 6.589 0 0 1-3.4-.991m3.172 3.851a6.856 6.856 0 0 1-.651 1.473 4.3 4.3 0 0 1-1.189 1.416.9.9 0 0 1-.963.113.755.755 0 0 1-.17-.736 3.058 3.058 0 0 1 .538-1.048 7.388 7.388 0 0 1 1.019-1.161 4.956 4.956 0 0 0 .906-.991c-.113-.255-.227-.481-.312-.736.17 0 .368.057.538.057.227.057.425.17.425.368a2.739 2.739 0 0 1-.142 1.246m-6.853-.283c-.311.17-.595.311-.906.481-.368.255-.538.481-.538.793a1.974 1.974 0 0 0 .17.538 2.613 2.613 0 0 1-.821 1.274 4.286 4.286 0 0 1-1.019.85.451.451 0 0 1-.538-.057.791.791 0 0 1 0-.793 9.15 9.15 0 0 1 .708-1.161 8.86 8.86 0 0 1 2.492-2.435.3.3 0 0 1 .425.057.279.279 0 0 1 .028.453m-16.878 11.922a16.86 16.86 0 0 1-1.727 2.1c-.368.311-.765.481-1.076.311-.538-.255.17-1.218.368-1.473a15.912 15.912 0 0 1 2.209-2.152 5.115 5.115 0 0 1 1.359-.85 7.055 7.055 0 0 1-1.133 2.067m35.822-12.375c.17-.113 1.019-1.048 1.189-.793s-.113.68-.481 1.048c-.481.538-.821.991-1.614.991a3.294 3.294 0 0 1 .906-1.246m7.306-2.265a.9.9 0 0 0-.765 0 2.278 2.278 0 0 0-.651.312 2.735 2.735 0 0 0-.765.623l-.906.906c-.312.368-.651.85-1.019 1.218-.538.538-1.019 1.161-1.557 1.642a8.148 8.148 0 0 1-2.265 1.642 1.393 1.393 0 0 1-.963.057.717.717 0 0 1-.481-.538 1.15 1.15 0 0 1 .057-.736 1.986 1.986 0 0 0 .17-.255 9.352 9.352 0 0 0 2.747-1.529 5.986 5.986 0 0 0 1.841-2.265c.227-.538.17-.906 0-1.1-.481-.425-1.359-.057-1.841.17-.481.312-1.019.538-1.5.85a11.115 11.115 0 0 0-1.614 1.416c-.368.368-.708.793-1.076 1.161-.311-.057-.425-.113-.538-.312a1.647 1.647 0 0 1-.113-.906l.17-1.1c.057-.312.312-.538.425-.85a.42.42 0 0 0-.227-.481.921.921 0 0 0-.765.057 2.844 2.844 0 0 0-1.019.793 3.275 3.275 0 0 0-.538.793c-.113.057-.17 0-.17 0a2.165 2.165 0 0 0-.311-.906 1.364 1.364 0 0 0-1.076-.623c-1.133-.057-2.1.057-3.228.057a11.787 11.787 0 0 0-.708-1.473 8.22 8.22 0 0 0-1.3-1.841 5.836 5.836 0 0 0-2.265-1.529 4.605 4.605 0 0 0-1.841-.425 2.45 2.45 0 0 0-1.614.623 1.783 1.783 0 0 0-.425 1.841 3.746 3.746 0 0 0 .595 1.161 5.3 5.3 0 0 0 1.416 1.218c.481.311 1.019.425 1.5.68a2.313 2.313 0 0 0 .651.311l-1.444 1.473c-.057.057-.906.906-1.133.85-.227 0-.538.057-.481-.113.113-.623.227-1.161.312-1.784a1.088 1.088 0 0 0-.227-.68c-1.246-1.473-3.568.368-4.7 1.274a12.8 12.8 0 0 0-2.379 2.577 5.979 5.979 0 0 0-1.133.736 1.207 1.207 0 0 1-.708.255 6.237 6.237 0 0 1 .595-.906c.227-.368.538-.68.765-.991.311-.425.595-.85.963-1.274.283-.425.595-.793.906-1.218a.631.631 0 0 0 .113-.68c-.057-.113-.227-.255-.595-.17a2.161 2.161 0 0 0-.963.368 4.191 4.191 0 0 0-.821.623c-.312.311-.651.623-.963.991-.311.311-.538.68-.821.991-.368.425-.708.736-1.019 1.048a16.272 16.272 0 0 1-2.152 1.9 7.61 7.61 0 0 1-1.133.793 2.247 2.247 0 0 1-1.246.255.686.686 0 0 1-.651-.906 3.853 3.853 0 0 1 .425-1.161c.17-.425.425-.906.651-1.359.312-.481.651-.906 1.019-1.416.368-.425.651-.85 1.076-1.274.481-.481.963-.85 1.416-1.359a14.734 14.734 0 0 1 1.954-1.416 6.976 6.976 0 0 1 2.322-.906 8.012 8.012 0 0 1 1.841-.255 14.318 14.318 0 0 1 1.557.057c.283-.425.538-.85.821-1.274.227-.368.425-.736.651-1.048a.577.577 0 0 0-.481-.255 3.69 3.69 0 0 0-1.359.057 19.493 19.493 0 0 0-3.625 1.218 24.168 24.168 0 0 0-2.747 1.274 24.188 24.188 0 0 0-2.322 1.416 16.175 16.175 0 0 0-2.322 1.841l-1.954 1.841a20.186 20.186 0 0 0-1.557 2.011 6.188 6.188 0 0 0-.906 1.841 3.234 3.234 0 0 0-.057 1.642 1.626 1.626 0 0 0 1.3 1.359 4.319 4.319 0 0 0 1.9-.057 21.703 21.703 0 0 0 1.557-.425 3.522 3.522 0 0 0 1.019-.538c.057-.057.17-.113.17 0 0 .312-.227.481-.425.793a1.873 1.873 0 0 1-.425.538c-.963.623-1.9 1.218-2.8 1.9a26.289 26.289 0 0 0-5.494 4.333 5.585 5.585 0 0 0-1.246 2.265c-.283 1.529 1.189 1.586 2.265 1.274a10.29 10.29 0 0 0 3.4-1.784 19.613 19.613 0 0 0 3.993-3.965l.765-1.048c.227-.368.538-.736.765-1.1.227-.311.425-.623.651-.991.283-.481.538-.991.821-1.473a6.576 6.576 0 0 1 1.133-.85c.425-.311.821-.538 1.246-.85a3.911 3.911 0 0 1 .821-.481 3.853 3.853 0 0 0-.113.85 2.141 2.141 0 0 0 .113.906 1.146 1.146 0 0 0 .963.68 2.7 2.7 0 0 0 1.359-.113c.425-.17.821-.425 1.3-.623a10.629 10.629 0 0 1 1.019-.68l.821-.736.708-.991.595-.793.425-.425.481-.113.481.057c-.113.311-.312.538-.425.85a3.8 3.8 0 0 0-.311 1.359 2.761 2.761 0 0 0 .17 1.161 1.583 1.583 0 0 0 .906.906 2.931 2.931 0 0 0 1.416.113 5.24 5.24 0 0 0 1.359-.538 6.065 6.065 0 0 0 1.416-1.161 8.078 8.078 0 0 0 1.076-1.416c.368-.538.595-1.218.906-1.784a8.486 8.486 0 0 0 .481-1.359 4.927 4.927 0 0 0 .17-1.274 5.468 5.468 0 0 1 .963 0 1.014 1.014 0 0 1 .708.312.823.823 0 0 1 .227.85 1.712 1.712 0 0 1-.312.85c-.368.736-.765 1.416-1.133 2.067-.651 1.161-1.416 2.379-2.1 3.54h2.379a37.453 37.453 0 0 0 2.747-4.333c.113-.113.17-.113.227-.057.17.425.425.85.765.906a1.851 1.851 0 0 0 1.416-.255 4.839 4.839 0 0 0-.538 1.784 1.774 1.774 0 0 0 .595 1.642 2.061 2.061 0 0 0 2.322-.17 14.553 14.553 0 0 0 1.557-.991 15.845 15.845 0 0 0 1.727-1.359c.113-.113.312-.255.425-.368.227-.312.17 0 .113.2-.17.312-.368.68-.538.991-.311.425-.595.906-.906 1.359-.425.623-.821 1.161-1.246 1.784l-.623 1.331c-.425.623-.906 1.161-1.3 1.784-.368.425-.651.906-1.019 1.359-.368.481-.765.906-1.133 1.416-.368.425-.708.793-1.019 1.218a4.308 4.308 0 0 0-.368.991 1.138 1.138 0 0 0 .227.736.962.962 0 0 0 .906.311 2.528 2.528 0 0 0 1.076-.425c.368-.255.595-.538.906-.793.368-.368.651-.736 1.019-1.161l1.076-1.473c.425-.623.821-1.274 1.246-1.9.368-.538.651-1.1.963-1.642l1.076-2.011c.283-.538.595-1.161.906-1.784s.595-1.218.906-1.784c.368-.623.651-1.218 1.076-1.841a8.554 8.554 0 0 1 .821-1.161c.368-.481.708-.906 1.076-1.359a6.589 6.589 0 0 0 .765-.991.678.678 0 0 0-.227-.878"/>
        <path data-name="Path 46310" d="M201.8 254.3h5.975v5.975H201.8z" transform="translate(174.676 6216.641)" style="fill:#026dc6"/>
        <path data-name="Path 46311" d="M364.469 6473.206a8.28 8.28 0 0 1 2.067 5.947v12.658h-5.55v-11.95a4.084 4.084 0 0 0-1.048-2.86 3.714 3.714 0 0 0-2.747-1.1 3.754 3.754 0 0 0-2.8 1.1 3.885 3.885 0 0 0-1.1 2.86v11.95h-5.615v-20.445h5.126v1.869a8.178 8.178 0 0 1 6.06-2.294 7.069 7.069 0 0 1 5.607 2.265"/>
        <path data-name="Path 46312" d="M390.635 6476.463a5.56 5.56 0 0 0-1.784 2.973h9.175a3.935 3.935 0 0 0-1.3-2.973 4.506 4.506 0 0 0-3.03-1.076 4.742 4.742 0 0 0-3.058 1.076m12.318 6.768h-14.1a5.075 5.075 0 0 0 2.011 2.917 6.193 6.193 0 0 0 3.681 1.019 9.01 9.01 0 0 0 5.579-2.011l2.265 3.738a12.1 12.1 0 0 1-8.042 2.973 10.833 10.833 0 0 1-7.844-3.03 9.857 9.857 0 0 1-3.087-7.419 10.347 10.347 0 0 1 10.473-10.449 9.022 9.022 0 0 1 6.8 2.662 9.12 9.12 0 0 1 2.605 6.626 12.138 12.138 0 0 1-.34 2.973"/>
        <path data-name="Path 46313" d="M419.208 6471.195v4.956h-1.388a5.143 5.143 0 0 0-3.823 1.359 5.4 5.4 0 0 0-1.388 4.049v10.251h-5.323v-20.615h4.871v2.52a6.251 6.251 0 0 1 5.324-2.747 4.487 4.487 0 0 1 1.727.227m1.982.765h5.975v19.851h-5.979z"/>
        <path data-name="Path 46314" d="M437.274 6477.482a5.557 5.557 0 0 0-1.444 3.908 5.416 5.416 0 0 0 1.444 3.908 5.013 5.013 0 0 0 3.823 1.529 5.168 5.168 0 0 0 3.766-1.529 5.229 5.229 0 0 0 1.5-3.851 5.452 5.452 0 0 0-1.5-3.908 4.9 4.9 0 0 0-3.766-1.586 4.8 4.8 0 0 0-3.823 1.529m11.525-3.511a9.771 9.771 0 0 1 3.2 7.419 9.9 9.9 0 0 1-3.2 7.419 10.952 10.952 0 0 1-7.816 3.03 10.593 10.593 0 0 1-7.7-3.03 10.328 10.328 0 0 1 0-14.839 11.45 11.45 0 0 1 15.518 0"/>
        <path data-name="Path 46315" d="M337.737 6471.96h5.947v19.851h-5.947zm6.966-7.476a3.483 3.483 0 1 1-3.483-3.483 3.517 3.517 0 0 1 3.483 3.483m83.453 0a3.483 3.483 0 1 1-3.483-3.483 3.517 3.517 0 0 1 3.483 3.483m-48.31 23.277c-2.435 0-3.313-.85-3.313-3.257v-18.52h-5.324v5.465h-2.662v5.975h2.662v7.334c0 5.409 2.435 8.071 7.419 8.071a9.184 9.184 0 0 0 2.832-.425v-4.729a15.631 15.631 0 0 1-1.614.085"/>
    </g>
</svg>
