<svg xmlns="http://www.w3.org/2000/svg" width="173" height="173" viewBox="0 0 173 173">
    <defs>
        <clipPath id="z74peawc6a">
            <path data-name="Rectangle 8512" transform="translate(1228 6390)" style="fill:#fff;stroke:#707070" d="M0 0h173v173H0z"/>
        </clipPath>
    </defs>
    <g data-name="Mask Group 158" transform="translate(-1228 -6390)" style="clip-path:url(#z74peawc6a)">
        <g data-name="Group 10380">
            <path data-name="Path 46316" d="M41.88 7.773 28.437 19.481l9.5 19.33H27.573l-5.847-13.44-6.772 5.814-1.588 7.625H3.689l6.628-31.037h9.674l-2.52 11.607.086.1 11.7-11.708zm.4 14.736a7.773 7.773 0 0 1 3.561-4.929q2.787-1.744 8.63-1.742 6.621 0 8.943 1.663a5.591 5.591 0 0 1 2.322 4.842 34.786 34.786 0 0 1-1.163 6.963 33.07 33.07 0 0 0-1.084 6.39 9.627 9.627 0 0 0 .547 3.114h-8.4a12.009 12.009 0 0 1-.3-2.567 10.921 10.921 0 0 1-7.56 3.093q-4.25 0-6.113-1.987a6.549 6.549 0 0 1-1.861-4.615 5.954 5.954 0 0 1 1.66-4.554 8.72 8.72 0 0 1 4.1-2.124 56.286 56.286 0 0 1 6.65-.983 32.8 32.8 0 0 0 4.99-.785 6.771 6.771 0 0 0 .256-1.526 1.519 1.519 0 0 0-.853-1.35 4.482 4.482 0 0 0-2.275-.515 5.219 5.219 0 0 0-2.409.479 4.022 4.022 0 0 0-1.616 2zm13.965 6.243q-5.946 1-6.984 1.764a2.2 2.2 0 0 0-1.033 1.8 2.1 2.1 0 0 0 .738 1.7 2.865 2.865 0 0 0 1.9.63 5.092 5.092 0 0 0 3.233-1.325 7.349 7.349 0 0 0 2.142-4.565m27.1-20.978L82.119 13.7H73.5l1.21-5.926zm-1.779 8.579L76.744 38.81a26.349 26.349 0 0 1-1.5 4.986 6.659 6.659 0 0 1-2.614 2.981 9.262 9.262 0 0 1-4.986 1.138 25.146 25.146 0 0 1-6.012-.824l1.206-6.077a12.1 12.1 0 0 0 2.2.23 3.044 3.044 0 0 0 2.146-.662c.479-.45.932-1.714 1.364-3.8l4.345-20.428zm4.068 6.156a7.766 7.766 0 0 1 3.57-4.933q2.787-1.744 8.626-1.742 6.621 0 8.947 1.663a5.6 5.6 0 0 1 2.319 4.842 34.52 34.52 0 0 1-1.163 6.963 33.07 33.07 0 0 0-1.084 6.39 9.538 9.538 0 0 0 .551 3.114H98.99a12.009 12.009 0 0 1-.3-2.567 10.913 10.913 0 0 1-7.557 3.093q-4.25 0-6.113-1.987a6.538 6.538 0 0 1-1.865-4.615 5.943 5.943 0 0 1 1.663-4.554 8.724 8.724 0 0 1 4.093-2.124 56.286 56.286 0 0 1 6.65-.983 32.956 32.956 0 0 0 4.993-.785 6.933 6.933 0 0 0 .252-1.526 1.519 1.519 0 0 0-.853-1.35 4.463 4.463 0 0 0-2.275-.515 5.193 5.193 0 0 0-2.4.479 4.026 4.026 0 0 0-1.62 2zm13.969 6.243q-5.951 1-6.988 1.764a2.2 2.2 0 0 0-1.033 1.8 2.1 2.1 0 0 0 .738 1.7 2.868 2.868 0 0 0 1.908.63 5.076 5.076 0 0 0 3.229-1.325 7.351 7.351 0 0 0 2.146-4.565m33.381-12.234-3.172 6.65a7.531 7.531 0 0 0-1.779-.234 5.094 5.094 0 0 0-4.025 1.778 13.006 13.006 0 0 0-2.391 5.7l-1.775 8.4h-8.637l4.785-22.458h8.064l-1 4.421.086.086a14.9 14.9 0 0 1 3.532-4 5.9 5.9 0 0 1 3.345-1.022 7.653 7.653 0 0 1 2.963.68m12.957-8.745-1.217 5.918H136.1l1.21-5.926zm-1.779 8.579-4.813 22.449h-8.658l4.806-22.458zm4.072 6.156a7.748 7.748 0 0 1 3.574-4.937q2.787-1.744 8.626-1.742 6.621 0 8.946 1.663a5.588 5.588 0 0 1 2.319 4.842 34.521 34.521 0 0 1-1.163 6.963 33.069 33.069 0 0 0-1.084 6.39 9.626 9.626 0 0 0 .547 3.114h-8.4a12.009 12.009 0 0 1-.3-2.567 10.913 10.913 0 0 1-7.557 3.093q-4.25 0-6.113-1.987a6.553 6.553 0 0 1-1.865-4.615 5.968 5.968 0 0 1 1.66-4.554 8.732 8.732 0 0 1 4.1-2.124 56.087 56.087 0 0 1 6.646-.983 32.956 32.956 0 0 0 4.993-.785 6.933 6.933 0 0 0 .252-1.526 1.519 1.519 0 0 0-.853-1.35 4.464 4.464 0 0 0-2.275-.515 5.193 5.193 0 0 0-2.4.479 4.026 4.026 0 0 0-1.62 2zm13.974 6.234q-5.951 1-6.988 1.764a2.2 2.2 0 0 0-1.033 1.8 2.1 2.1 0 0 0 .738 1.7 2.868 2.868 0 0 0 1.908.63 5.076 5.076 0 0 0 3.229-1.325 7.332 7.332 0 0 0 2.146-4.565" transform="translate(1227.311 6447.226)" style="fill:#005796"/>
            <path data-name="Path 46317" d="M24.508 18.241h4.3v.659H27.01v4.493h-.738V18.9h-1.764zm5.011 5.148v-5.141h1.289a1.874 1.874 0 0 1 1.238.385 1.431 1.431 0 0 1 .23 1.822 1.325 1.325 0 0 1-.641.49 2.255 2.255 0 0 1 .479.443 7.919 7.919 0 0 1 .662.976c.18.288.324.511.432.655l.274.371H32.6l-.223-.342-.043-.061-.144-.2-.227-.374-.248-.4a4.243 4.243 0 0 0-.418-.5 1.562 1.562 0 0 0-.342-.27 1.164 1.164 0 0 0-.511-.083h-.194v2.239zm.958-4.518h-.223v1.624h.281a2.064 2.064 0 0 0 .765-.095.72.72 0 0 0 .324-.288.83.83 0 0 0 .115-.443.821.821 0 0 0-.126-.439.7.7 0 0 0-.364-.277 2.592 2.592 0 0 0-.774-.083m5.213-.652h.518l2.3 5.17h-.756l-.684-1.526h-2.182l-.648 1.526h-.752zm1.076 2.992-.828-1.861-.767 1.861zm6.39-2.963h.7v5.141h-.634l-3.438-3.957v3.957H39.1v-5.14h.6l3.463 3.989zm3.075 2.985-.558-.338a2.459 2.459 0 0 1-.749-.634 1.167 1.167 0 0 1-.223-.713 1.261 1.261 0 0 1 .421-.986 1.56 1.56 0 0 1 1.094-.382 2.077 2.077 0 0 1 1.181.364v.835a1.7 1.7 0 0 0-1.2-.533.986.986 0 0 0-.59.166.516.516 0 0 0-.23.428.678.678 0 0 0 .169.436 2.185 2.185 0 0 0 .547.421l.565.331a1.645 1.645 0 0 1 .94 1.429 1.312 1.312 0 0 1-.414 1 1.522 1.522 0 0 1-1.076.385 2.252 2.252 0 0 1-1.386-.468v-.932a1.734 1.734 0 0 0 1.38.759.858.858 0 0 0 .576-.194.6.6 0 0 0 .23-.482c0-.313-.227-.608-.677-.889m2.185-2.985h2.746v.65h-2.005v1.433h2.005v.655h-2.005v2.4h-.738zm6.052-.072a2.751 2.751 0 0 1 1.984.752 2.5 2.5 0 0 1 .8 1.89 2.465 2.465 0 0 1-.8 1.883 2.843 2.843 0 0 1-2.016.745 2.682 2.682 0 0 1-1.937-.745 2.475 2.475 0 0 1-.774-1.865 2.545 2.545 0 0 1 .778-1.908 2.719 2.719 0 0 1 1.973-.752m.029.695a2 2 0 0 0-1.451.554 1.885 1.885 0 0 0-.569 1.411 1.836 1.836 0 0 0 .572 1.379 1.952 1.952 0 0 0 1.426.554 1.974 1.974 0 0 0 1.436-.562 1.882 1.882 0 0 0 .576-1.4 1.827 1.827 0 0 0-.576-1.372 1.941 1.941 0 0 0-1.415-.562m3.672 4.518v-5.145h1.289a1.874 1.874 0 0 1 1.238.385 1.3 1.3 0 0 1 .457 1.044 1.283 1.283 0 0 1-.868 1.267 2.356 2.356 0 0 1 .482.443 8.445 8.445 0 0 1 .659.976c.18.288.324.511.432.655l.274.371h-.875l-.227-.342-.043-.061-.144-.2-.227-.374-.248-.4a4.245 4.245 0 0 0-.418-.5 1.562 1.562 0 0 0-.342-.27 1.164 1.164 0 0 0-.511-.083h-.191v2.239zm.958-4.518h-.22v1.624h.277a2.051 2.051 0 0 0 .767-.094.72.72 0 0 0 .324-.288.83.83 0 0 0 .115-.443.82.82 0 0 0-.126-.439.72.72 0 0 0-.364-.277 2.592 2.592 0 0 0-.774-.083m7.661-.623h.688v5.141h-.742v-4l-1.58 1.987h-.137l-1.6-1.987v4h-.734v-5.145h.691l1.714 2.113zm5.854 0h.889l-1.9 2.419v2.722h-.756v-2.726l-1.9-2.419h.889l1.379 1.771zm3.377-.072a2.765 2.765 0 0 1 1.987.752 2.514 2.514 0 0 1 .792 1.89A2.475 2.475 0 0 1 78 22.7a2.858 2.858 0 0 1-2.02.745 2.682 2.682 0 0 1-1.937-.745 2.488 2.488 0 0 1-.774-1.865 2.545 2.545 0 0 1 .778-1.908 2.719 2.719 0 0 1 1.973-.752m.029.695a2 2 0 0 0-1.451.554 1.885 1.885 0 0 0-.569 1.411 1.846 1.846 0 0 0 .569 1.379 2.119 2.119 0 0 0 2.866-.007 1.882 1.882 0 0 0 .576-1.4 1.827 1.827 0 0 0-.576-1.372 1.941 1.941 0 0 0-1.415-.562m7.226-.623h.742v2.916a3.436 3.436 0 0 1-.086.893 1.946 1.946 0 0 1-.212.5 1.576 1.576 0 0 1-.313.36 2.717 2.717 0 0 1-3.208 0 1.675 1.675 0 0 1-.313-.364 2.064 2.064 0 0 1-.209-.49 3.7 3.7 0 0 1-.083-.914v-2.903h.742v2.916a2.135 2.135 0 0 0 .166 1.008 1.16 1.16 0 0 0 .5.457 1.791 1.791 0 0 0 .8.169 1.618 1.618 0 0 0 1.066-.342 1.077 1.077 0 0 0 .313-.432 2.789 2.789 0 0 0 .094-.86zm1.782 5.141v-5.143h1.289a1.874 1.874 0 0 1 1.238.385 1.31 1.31 0 0 1 .457 1.044 1.28 1.28 0 0 1-.871 1.267 2.278 2.278 0 0 1 .486.443 8.943 8.943 0 0 1 .659.976c.18.288.324.511.432.655l.274.371h-.875l-.227-.342-.043-.061-.144-.2-.232-.376-.248-.4a4.245 4.245 0 0 0-.418-.5 1.562 1.562 0 0 0-.342-.27 1.164 1.164 0 0 0-.511-.083h-.194v2.239zm.958-4.518h-.223v1.624h.281a2.051 2.051 0 0 0 .767-.094.7.7 0 0 0 .324-.288.83.83 0 0 0 .115-.443.82.82 0 0 0-.126-.439.7.7 0 0 0-.364-.277 2.592 2.592 0 0 0-.774-.083m11.269-.623h.734l-2.081 5.163h-.158L94.1 19.231l-1.7 4.18h-.158l-2.07-5.163h.738l1.418 3.546 1.422-3.546h.7l1.433 3.546zm3.528-.072a2.765 2.765 0 0 1 1.987.752 2.514 2.514 0 0 1 .792 1.89 2.462 2.462 0 0 1-.8 1.883 2.858 2.858 0 0 1-2.02.745 2.682 2.682 0 0 1-1.937-.745 2.475 2.475 0 0 1-.774-1.865 2.535 2.535 0 0 1 .781-1.908 2.705 2.705 0 0 1 1.969-.752m.029.695a2 2 0 0 0-1.451.554 1.885 1.885 0 0 0-.569 1.411 1.836 1.836 0 0 0 .572 1.379 2.114 2.114 0 0 0 2.862-.007 1.882 1.882 0 0 0 .576-1.4 1.827 1.827 0 0 0-.576-1.372 1.941 1.941 0 0 0-1.415-.562m3.672 4.518v-5.146h1.29a1.874 1.874 0 0 1 1.238.385 1.3 1.3 0 0 1 .457 1.044 1.283 1.283 0 0 1-.868 1.267 2.356 2.356 0 0 1 .482.443 8.844 8.844 0 0 1 .662.976c.18.288.32.511.428.655l.274.371h-.873l-.227-.342-.043-.061-.14-.2-.23-.374-.245-.4a4.605 4.605 0 0 0-.421-.5 1.482 1.482 0 0 0-.342-.27 1.165 1.165 0 0 0-.511-.083h-.191v2.239zm.958-4.518h-.22V20.5h.277a2.051 2.051 0 0 0 .767-.094.7.7 0 0 0 .324-.288.83.83 0 0 0 .115-.443.79.79 0 0 0-.126-.439.7.7 0 0 0-.364-.277 2.592 2.592 0 0 0-.774-.083m3.571-.623h.738v4.471h2.315v.67h-3.053zm3.7 5.134v-5.139h1.735a3.646 3.646 0 0 1 1.656.313 2.411 2.411 0 0 1 .976.925 2.614 2.614 0 0 1 .36 1.332 2.545 2.545 0 0 1-.767 1.815 2.526 2.526 0 0 1-.871.558 2.6 2.6 0 0 1-.536.151 7.143 7.143 0 0 1-.925.04zM114.4 18.9h-.918v3.823h.94a3.781 3.781 0 0 0 .86-.076 2.111 2.111 0 0 0 .508-.191 1.79 1.79 0 0 0 .374-.288 1.9 1.9 0 0 0 .544-1.393 1.773 1.773 0 0 0-.558-1.35 1.751 1.751 0 0 0-.475-.32 1.915 1.915 0 0 0-.5-.166 4.979 4.979 0 0 0-.77-.04" transform="translate(1281.445 6474.276)" style="fill:#005796"/>
        </g>
    </g>
</svg>
