<svg xmlns="http://www.w3.org/2000/svg" width="56" height="56" viewBox="0 0 56 56">
    <g data-name="Group 9888" transform="translate(-280 -5195)">
        <rect data-name="Rectangle 8520" width="56" height="56" rx="28" transform="translate(280 5195)" style="fill:#90d5c2"/>
        <path data-name="phone (4)" d="M18.08 13.979v2.409a1.606 1.606 0 0 1-1.75 1.606 15.889 15.889 0 0 1-6.93-2.465 15.656 15.656 0 0 1-4.817-4.817A15.889 15.889 0 0 1 2.118 3.75 1.606 1.606 0 0 1 3.716 2h2.409a1.606 1.606 0 0 1 1.606 1.381 10.309 10.309 0 0 0 .562 2.256 1.606 1.606 0 0 1-.361 1.694l-1.02 1.02a12.846 12.846 0 0 0 4.817 4.817l1.02-1.02a1.606 1.606 0 0 1 1.694-.361 10.309 10.309 0 0 0 2.256.562 1.606 1.606 0 0 1 1.381 1.63z" transform="translate(297.943 5213.535)" style="fill:none;stroke:#fff;stroke-linecap:round;stroke-linejoin:round;stroke-width:2px"/>
    </g>
</svg>
