<svg xmlns="http://www.w3.org/2000/svg" width="336" height="95.998" viewBox="0 0 336 95.998">
    <g data-name="Group 10429" transform="translate(-1380 -814)">
        <rect data-name="Rectangle 8704" width="336" height="80" rx="16" transform="translate(1380 814)" style="fill:#fff"/>
        <text data-name="42 items selected" transform="translate(1396 850)" style="font-family:Inter-SemiBold,Inter;font-weight:600;fill:#0a243f;font-size:12px"><tspan x="0" y="0">42 items</tspan><tspan x="0" y="18">selected</tspan></text>
        <g data-name="Group 9358" transform="translate(-16 165)">
            <rect data-name="Rectangle 8705" width="156" height="32" rx="4" transform="translate(1560 673)" style="fill:#015fe5"/>
            <text data-name="ADD TO YOUR CATALOGUE" transform="translate(1572 693)" style="font-size:10px;font-family:Inter-SemiBold,Inter;font-weight:600;fill:#fff"><tspan x="0" y="0">ADD TO YOUR CATALOGUE</tspan></text>
        </g>
        <path d="m90.193 17.936 28.389 9.764a1.792 1.792 0 0 1 1.122 2.287 1.735 1.735 0 0 1-1.034 1.077l-12.535 5.1-5.1 12.535a1.81 1.81 0 0 1-2.335 1.013 1.881 1.881 0 0 1-1.034-1.1l-9.76-28.389a1.793 1.793 0 0 1 1.122-2.287 1.763 1.763 0 0 1 1.165 0z" transform="translate(1580.195 860.165)" style="fill:#2973f0"/>
    </g>
</svg>
