<svg data-name="Group 16476" xmlns="http://www.w3.org/2000/svg" width="70.645" height="10.097" viewBox="0 0 70.645 10.097">
    <defs>
        <linearGradient id="v2sfg9dk3a" x1=".254" x2=".644" y2="1" gradientUnits="objectBoundingBox">
            <stop offset="0" stop-color="#d6f09a"/>
            <stop offset="1" stop-color="#adebf5"/>
        </linearGradient>
    </defs>
    <g style="opacity:.999">
        <path d="M282.886 57.662a3.677 3.677 0 0 0-.767-1.182 3.39 3.39 0 0 0-1.143-.773 3.461 3.461 0 0 0-1.4-.279 2.726 2.726 0 0 0-.5.052 3.349 3.349 0 0 0-.5.136 2.454 2.454 0 0 0-.448.234 1.653 1.653 0 0 0-.344.325V52.9H276v6.243a3.872 3.872 0 0 0 .279 1.494 3.689 3.689 0 0 0 .766 1.169 3.538 3.538 0 0 0 1.143.767 3.593 3.593 0 0 0 1.4.273 3.687 3.687 0 0 0 1.4-.266 3.5 3.5 0 0 0 1.143-.754 3.576 3.576 0 0 0 .767-1.176 3.892 3.892 0 0 0 .279-1.507 3.786 3.786 0 0 0-.291-1.481zm-1.663 2.238a1.81 1.81 0 0 1-.383.6 1.913 1.913 0 0 1-.572.409 1.635 1.635 0 0 1-.689.143 1.686 1.686 0 0 1-.7-.143 1.751 1.751 0 0 1-.565-.409 1.921 1.921 0 0 1-.383-.6 2.044 2.044 0 0 1-.136-.754 1.881 1.881 0 0 1 .136-.708 1.99 1.99 0 0 1 .948-1.039 1.518 1.518 0 0 1 .7-.162 1.635 1.635 0 0 1 .689.143 1.691 1.691 0 0 1 .572.4 1.95 1.95 0 0 1 .383.611 2.058 2.058 0 0 1 0 1.507z" transform="translate(-258.11 -52.9)" style="fill:#fff"/>
        <path d="M158.626 92.82a3.341 3.341 0 0 0-1.143-.754 3.566 3.566 0 0 0-1.4-.266 3.483 3.483 0 0 0-1.4.279 3.646 3.646 0 0 0-1.143.78 3.579 3.579 0 0 0-.767 1.176 3.83 3.83 0 0 0-.279 1.481 3.788 3.788 0 0 0 .279 1.468 3.719 3.719 0 0 0 .767 1.176 3.8 3.8 0 0 0 1.143.78 3.631 3.631 0 0 0 2.793 0 3.8 3.8 0 0 0 1.143-.78 3.648 3.648 0 0 0 .767-1.176 3.788 3.788 0 0 0 .279-1.468 3.936 3.936 0 0 0-.279-1.52 3.513 3.513 0 0 0-.76-1.176zm-.9 3.475a1.81 1.81 0 0 1-.383.6 1.742 1.742 0 0 1-1.26.526 1.686 1.686 0 0 1-.7-.143 1.752 1.752 0 0 1-.565-.409 1.964 1.964 0 0 1-.513-1.358 2.135 2.135 0 0 1 .136-.78 1.8 1.8 0 0 1 .377-.6 1.7 1.7 0 0 1 .565-.39 1.792 1.792 0 0 1 .7-.136 1.737 1.737 0 0 1 .689.136 1.5 1.5 0 0 1 .572.39 1.919 1.919 0 0 1 .383.6 2.2 2.2 0 0 1 0 1.559z" transform="translate(-142.632 -89.273)" style="fill:#fff"/>
        <path d="M2.38 101.146v-4.457a.856.856 0 0 1 .065-.344.876.876 0 0 1 .188-.286.787.787 0 0 1 .279-.188.908.908 0 0 1 .344-.071.859.859 0 0 1 .344.071.784.784 0 0 1 .286.188.811.811 0 0 1 .188.286.908.908 0 0 1 .071.344v4.456H5.94v-4.456a.856.856 0 0 1 .06-.344.876.876 0 0 1 .188-.286.787.787 0 0 1 .279-.188.908.908 0 0 1 .344-.071.859.859 0 0 1 .344.071.784.784 0 0 1 .286.188.811.811 0 0 1 .188.286.908.908 0 0 1 .071.344v4.456h1.826v-4.4a2.987 2.987 0 0 0-1.41-2.43 2.453 2.453 0 0 0-.227-.11A2.54 2.54 0 0 0 6.849 94a2.586 2.586 0 0 0-.494.045 2.18 2.18 0 0 0-.487.136 2.154 2.154 0 0 0-.442.253 1.76 1.76 0 0 0-.377.383 1.974 1.974 0 0 0-.825-.637 2.59 2.59 0 0 0-1.89-.007 2.867 2.867 0 0 0-.689.383A3 3 0 0 0 .6 96.423v4.723z" transform="translate(-.6 -91.33)" style="fill:#fff"/>
    </g>
    <path data-name="Path 56979" d="M4.22-24.907q0 2.878 2.416 2.878a3.981 3.981 0 0 0 .821-.081 8.317 8.317 0 0 0 .944-.272A7.318 7.318 0 0 1 9-20.373q-.394.149-.733.244a5.479 5.479 0 0 1-.652.143q-.312.048-.618.068t-.631.02a5.14 5.14 0 0 1-2.03-.373 4.055 4.055 0 0 1-1.467-1.039 4.4 4.4 0 0 1-.889-1.59 6.494 6.494 0 0 1-.3-2.009 6.3 6.3 0 0 1 .312-2.016 4.7 4.7 0 0 1 .9-1.609 4.062 4.062 0 0 1 1.459-1.059 4.865 4.865 0 0 1 1.968-.38 7.687 7.687 0 0 1 1.235.1 6.368 6.368 0 0 1 1.3.38 3.96 3.96 0 0 1-.2 1.079 8.031 8.031 0 0 1-.367.916q-.272-.1-.5-.163t-.428-.109q-.2-.041-.407-.061t-.434-.02a2.075 2.075 0 0 0-1.7.74 3.43 3.43 0 0 0-.598 2.204zm5.987-4.874q.665-.068 1.229-.129a11.029 11.029 0 0 1 1.188-.061 7.946 7.946 0 0 1 1.493.143 4 4 0 0 1 1.33.5 2.77 2.77 0 0 1 .95.964 2.968 2.968 0 0 1 .367 1.548 3.26 3.26 0 0 1-.115.9 3.1 3.1 0 0 1-.3.713 2.836 2.836 0 0 1-.407.543 3.789 3.789 0 0 1-.441.394l2.118 4.181q-.326.054-.713.081t-.7.027q-.272 0-.631-.027a5.282 5.282 0 0 1-.631-.081l-1.928-4.439.122-.068a1.526 1.526 0 0 0 .36-.272 2.514 2.514 0 0 0 .367-.455 2.857 2.857 0 0 0 .285-.591 2.018 2.018 0 0 0 .115-.679 1.21 1.21 0 0 0-.38-.991 1.427 1.427 0 0 0-.937-.312 1.665 1.665 0 0 0-.231.014.5.5 0 0 0-.122.027v7.765a7.338 7.338 0 0 1-1.181.122 7.251 7.251 0 0 1-1.208-.122zm13.508 4.643a5.212 5.212 0 0 1-.122 1.059h-2.62v1.928h3.407a4.968 4.968 0 0 1 .12 1.031 5.13 5.13 0 0 1-.122 1.072h-5.81v-9.761H24.3q.054.3.081.557a4.678 4.678 0 0 1 .027.489 6.4 6.4 0 0 1-.108 1.073h-3.328v1.49h2.62a5.356 5.356 0 0 1 .122 1.062zm4.711-4.833a5.4 5.4 0 0 1 3.9 1.283 5.075 5.075 0 0 1 1.33 3.822 4.8 4.8 0 0 1-1.358 3.781 5.9 5.9 0 0 1-4.018 1.2q-.679 0-1.31-.061t-1.242-.143v-9.693q.2-.027.516-.061t.679-.061q.367-.027.753-.048t.749-.019zm-.3 7.955a1.551 1.551 0 0 0 .217.014h.257a3.744 3.744 0 0 0 1-.129 1.859 1.859 0 0 0 .808-.455 2.229 2.229 0 0 0 .536-.882 4.344 4.344 0 0 0 .2-1.425 4.283 4.283 0 0 0-.2-1.425 2.393 2.393 0 0 0-.536-.9 1.906 1.906 0 0 0-.781-.475 3.071 3.071 0 0 0-.937-.143q-.272 0-.394.007t-.163.007zm8.1 2.05a7.251 7.251 0 0 1-1.208-.122v-9.693q.367-.054.665-.081t.529-.027q.244 0 .55.027t.658.081v9.693a7.385 7.385 0 0 1-1.189.122zm4.6-7.725h-2.26a5.266 5.266 0 0 1-.122-1.072 5.306 5.306 0 0 1 .122-1.045H45.5q.054.3.081.557a4.678 4.678 0 0 1 .027.489 6.4 6.4 0 0 1-.108 1.072h-2.264v7.6a7.386 7.386 0 0 1-1.195.122 7.251 7.251 0 0 1-1.208-.122z" transform="translate(25.033 29.98)" style="fill:url(#v2sfg9dk3a)"/>
</svg>
