<svg xmlns="http://www.w3.org/2000/svg" width="72" height="72" viewBox="0 0 72 72">
    <g data-name="Group 18770" transform="translate(-480 -448)">
        <circle data-name="Ellipse 1126" cx="36" cy="36" r="36" transform="translate(480 448)" style="fill:#84ffdb"/>
        <g transform="translate(497 464.43)">
            <path data-name="Path 59579" d="M13.515 18.286a6.858 6.858 0 1 0-6.858-6.858 6.858 6.858 0 0 0 6.858 6.858z"/>
            <path data-name="Path 59580" d="M22.486 23.951A12.521 12.521 0 0 0 1 32.686a1.2 1.2 0 0 0 1.2 1.2h22.632a1.2 1.2 0 0 0 1.2-1.2 12.08 12.08 0 0 0-.582-3.749 12.432 12.432 0 0 0-2.964-4.986z"/>
            <circle data-name="Ellipse 1168" cx="5.1" cy="5.1" r="5.1" transform="translate(22.9 8.686)"/>
            <path data-name="Path 59581" d="M28 20.29a8.978 8.978 0 0 0-4.567 1.268c.26.233.523.462.769.714a14.866 14.866 0 0 1 3.542 5.959 13.786 13.786 0 0 1 .524 2.258h7.531a1.2 1.2 0 0 0 1.2-1.2 9.01 9.01 0 0 0-9-9z"/>
        </g>
    </g>
</svg>
