<svg xmlns="http://www.w3.org/2000/svg" width="160" height="74.82" viewBox="0 0 160 74.82">
    <g data-name="mob logo full grey">
        <g style="opacity:.5">
            <path data-name="Path 1" d="M412.043 111.5a6.042 6.042 0 0 1 6.043 6.043 6.042 6.042 0 0 1-6.043 6.043 6.042 6.042 0 0 1-6.043-6.043 6.042 6.042 0 0 1 6.043-6.043z" transform="translate(-289.741 -79.845)" style="fill:#133b62"/>
            <path data-name="Path 2" d="M412.043 56.5a6.042 6.042 0 0 1 6.043 6.043 6.042 6.042 0 0 1-6.043 6.043A6.042 6.042 0 0 1 406 62.543a6.042 6.042 0 0 1 6.043-6.043z" transform="translate(-289.741 -40.673)" style="fill:#133b62"/>
            <path data-name="Path 3" d="M412.043 1.5a6.042 6.042 0 0 1 6.043 6.043 6.042 6.042 0 0 1-6.043 6.043A6.042 6.042 0 0 1 406 7.543a6.042 6.042 0 0 1 6.043-6.043z" transform="translate(-289.741 -1.5)" style="fill:#133b62"/>
            <path data-name="Path 4" d="M467.043 111.5a6.042 6.042 0 0 1 6.043 6.043 6.042 6.042 0 0 1-6.043 6.043 6.042 6.042 0 0 1-6.043-6.043 6.042 6.042 0 0 1 6.043-6.043z" transform="translate(-328.914 -79.845)" style="fill:#133b62"/>
            <path data-name="Path 5" d="M467.043 56.5a6.042 6.042 0 0 1 6.043 6.043 6.042 6.042 0 0 1-6.043 6.043A6.042 6.042 0 0 1 461 62.543a6.042 6.042 0 0 1 6.043-6.043z" transform="translate(-328.914 -40.673)" style="fill:#133b62"/>
            <path data-name="Path 6" d="M467.043 1.5a6.042 6.042 0 0 1 6.043 6.043 6.042 6.042 0 0 1-6.043 6.043A6.042 6.042 0 0 1 461 7.543a6.042 6.042 0 0 1 6.043-6.043z" transform="translate(-328.914 -1.5)" style="fill:#133b62"/>
            <path data-name="Path 7" d="M522.043 56.5a6.042 6.042 0 0 1 6.043 6.043 6.042 6.042 0 0 1-6.043 6.043A6.042 6.042 0 0 1 516 62.543a6.042 6.042 0 0 1 6.043-6.043z" transform="translate(-368.086 -40.673)" style="fill:#133b62"/>
        </g>
        <path d="M302.36 22.45a16.4 16.4 0 0 0-3.367-5.209 14.668 14.668 0 0 0-5.065-3.4 15.194 15.194 0 0 0-6.158-1.237 11.532 11.532 0 0 0-2.187.23 13.612 13.612 0 0 0-2.187.6 9.783 9.783 0 0 0-1.957 1.036 7.322 7.322 0 0 0-1.525 1.439V1.5H272v27.453a16.865 16.865 0 0 0 1.237 6.561 16.139 16.139 0 0 0 3.367 5.151 15.3 15.3 0 0 0 5.065 3.367 15.774 15.774 0 0 0 6.158 1.209 16.185 16.185 0 0 0 6.158-1.18 16.582 16.582 0 0 0 5.065-3.309 15.658 15.658 0 0 0 3.367-5.18 17.628 17.628 0 0 0-.058-13.122zm-7.338 9.813a7.618 7.618 0 0 1-1.7 2.647 8.721 8.721 0 0 1-2.5 1.813 7.112 7.112 0 0 1-3.022.633 7.285 7.285 0 0 1-5.525-2.446 8.7 8.7 0 0 1-1.7-2.647 8.9 8.9 0 0 1-.6-3.309 8.189 8.189 0 0 1 .6-3.108 8.021 8.021 0 0 1 1.7-2.676 8.749 8.749 0 0 1 2.475-1.9 6.609 6.609 0 0 1 3.05-.719 7.112 7.112 0 0 1 3.022.633 7.381 7.381 0 0 1 2.5 1.784 8.842 8.842 0 0 1 1.7 2.676 8.374 8.374 0 0 1 .633 3.309 8.276 8.276 0 0 1-.633 3.31z" transform="translate(-194.302 -1.5)" style="fill:#133b62"/>
        <path d="M176.95 44.589a14.459 14.459 0 0 0-5.065-3.309 15.655 15.655 0 0 0-6.158-1.18 15.292 15.292 0 0 0-6.158 1.237 17.292 17.292 0 0 0-5.065 3.424 15.657 15.657 0 0 0-3.367 5.18 16.678 16.678 0 0 0-1.237 6.5 16.493 16.493 0 0 0 1.237 6.446 15.472 15.472 0 0 0 8.432 8.6 15.943 15.943 0 0 0 12.317 0 17.474 17.474 0 0 0 5.065-3.424 15.958 15.958 0 0 0 3.367-5.18 16.6 16.6 0 0 0 1.237-6.446 17.142 17.142 0 0 0-1.237-6.676 14.947 14.947 0 0 0-3.368-5.172zM172.979 59.9a7.29 7.29 0 0 1-1.727 2.647 8.233 8.233 0 0 1-2.532 1.727 7.077 7.077 0 0 1-3.022.576 6.935 6.935 0 0 1-3.05-.662 7.349 7.349 0 0 1-2.475-1.813 9.2 9.2 0 0 1-1.669-2.647 8.351 8.351 0 0 1-.576-3.309 8.748 8.748 0 0 1 .633-3.424 7.228 7.228 0 0 1 1.7-2.647 7.507 7.507 0 0 1 2.5-1.727 7.292 7.292 0 0 1 3.05-.576 7.113 7.113 0 0 1 3.022.633 6.53 6.53 0 0 1 2.5 1.727 8.7 8.7 0 0 1 1.7 2.647 8.169 8.169 0 0 1 .6 3.424 8.265 8.265 0 0 1-.654 3.424z" transform="translate(-107.339 -28.992)" style="fill:#133b62"/>
        <path d="M9.683 73.724v-19.6a3.791 3.791 0 0 1 .288-1.524 3.882 3.882 0 0 1 .835-1.266 3.488 3.488 0 0 1 1.237-.835 4.02 4.02 0 0 1 1.525-.317 3.8 3.8 0 0 1 1.525.317 3.473 3.473 0 0 1 1.266.835 3.593 3.593 0 0 1 .835 1.266 4.02 4.02 0 0 1 .317 1.525v19.6h7.856v-19.6a3.791 3.791 0 0 1 .288-1.525 3.882 3.882 0 0 1 .835-1.266 3.488 3.488 0 0 1 1.237-.835 4.02 4.02 0 0 1 1.525-.317 3.8 3.8 0 0 1 1.525.317 3.473 3.473 0 0 1 1.266.835 3.593 3.593 0 0 1 .835 1.266 4.02 4.02 0 0 1 .317 1.525v19.6h7.942V54.386a13.139 13.139 0 0 0-6.159-10.676 10.873 10.873 0 0 0-1.007-.489A11.118 11.118 0 0 0 29.4 42.3a10.959 10.959 0 0 0-2.158.2 9.017 9.017 0 0 0-2.129.6 9.54 9.54 0 0 0-1.957 1.122 7.794 7.794 0 0 0-1.669 1.7 8.593 8.593 0 0 0-3.626-2.791 11.238 11.238 0 0 0-4.2-.806 11.122 11.122 0 0 0-4.115.777 12.521 12.521 0 0 0-3.022 1.7A13.553 13.553 0 0 0 2 53.005v20.719z" transform="translate(-2 -30.559)" style="fill:#133b62"/>
        <g data-name="Group 1">
            <path data-name="Path 8" d="M14.288 216.036v-10.158l-4.432 10.158H8.187l-4.4-10.158v10.158H2V203h2.446l4.6 10.619L13.683 203H16.1v13.036z" transform="translate(-2 -145.014)" style="fill:#133b62"/>
            <path data-name="Path 9" d="m62.205 220.658 2.417-.345c.547-.086.691-.345.691-.662 0-.863-.576-1.583-1.928-1.583a1.907 1.907 0 0 0-2.014 1.784l-1.669-.4a3.4 3.4 0 0 1 3.626-2.849c2.647 0 3.683 1.5 3.683 3.223v4.432a8.509 8.509 0 0 0 .115 1.439H65.4a7.881 7.881 0 0 1-.086-1.18 3.225 3.225 0 0 1-2.849 1.468 2.744 2.744 0 0 1-2.964-2.647c.028-1.587 1.179-2.45 2.704-2.68zm3.05 1.266v-.4l-2.705.4a1.3 1.3 0 1 0 .144 2.59 2.3 2.3 0 0 0 2.561-2.59z" transform="translate(-42.953 -154.7)" style="fill:#133b62"/>
            <path data-name="Path 10" d="M99.306 213.971a2.979 2.979 0 0 1-2.734 1.583c-2.59 0-4.173-2.072-4.173-4.691a4.362 4.362 0 0 1 4.173-4.633 2.725 2.725 0 0 1 2.705 1.5V202h1.7v11.683c0 .835.086 1.5.086 1.64h-1.67a8.664 8.664 0 0 1-.086-1.18zm-2.59.058c1.583 0 2.532-1.381 2.532-3.194s-.95-3.079-2.532-3.079-2.59 1.266-2.59 3.108.95 3.165 2.591 3.165z" transform="translate(-66.386 -144.302)" style="fill:#133b62"/>
            <path data-name="Path 11" d="M152.832 202a6.811 6.811 0 1 1-6.532 6.791 6.5 6.5 0 0 1 6.532-6.791zm0 11.942c2.446 0 4.691-1.755 4.691-5.151s-2.3-5.122-4.691-5.122c-2.446 0-4.691 1.727-4.691 5.122s2.245 5.151 4.691 5.151z" transform="translate(-104.774 -144.302)" style="fill:#133b62"/>
            <path data-name="Path 12" d="M200.453 226.363H198.7l-3.6-8.863h1.957l2.5 6.82 2.532-6.82h1.87z" transform="translate(-139.532 -155.341)" style="fill:#133b62"/>
            <path data-name="Path 13" d="M236.7 223.19a4.05 4.05 0 0 1-3.971 2.791 4.707 4.707 0 0 1-.2-9.381c2.705 0 4.23 1.87 4.23 4.633 0 .23-.029.46-.029.576h-6.647a2.611 2.611 0 0 0 2.647 2.676 2.4 2.4 0 0 0 2.475-1.784zm-1.755-2.82a2.24 2.24 0 0 0-2.445-2.27 2.388 2.388 0 0 0-2.417 2.273z" transform="translate(-163.178 -154.7)" style="fill:#133b62"/>
            <path data-name="Path 14" d="M270.25 218.828a7.056 7.056 0 0 0-.777-.058c-1.439 0-2.446.777-2.446 2.705v4.432H265.3v-8.863h1.7v1.556a2.812 2.812 0 0 1 2.648-1.7 2.52 2.52 0 0 1 .576.058l.029 1.871z" transform="translate(-189.53 -154.914)" style="fill:#133b62"/>
            <path data-name="Path 15" d="M309.73 202.929c2.475 0 3.943 1.468 3.943 3.54a2.83 2.83 0 0 1-1.957 2.791 3.141 3.141 0 0 1 2.36 3.137c0 2.072-1.64 3.54-4.029 3.54H305.5V202.9l4.23.029zm-.2 5.7a2.087 2.087 0 0 0 2.331-2.072c0-1.237-.892-2.043-2.417-2.043h-2.187v4.115zm.259 5.755c1.439 0 2.446-.806 2.446-2.072a2.089 2.089 0 0 0-2.388-2.129h-2.561v4.2z" transform="translate(-218.162 -144.943)" style="fill:#133b62"/>
            <path data-name="Path 16" d="M344.909 226.722a3.266 3.266 0 0 1-3.309-3.54V217.6h1.727v5.324c0 1.209.576 2.3 2.014 2.3a2 2 0 0 0 2.1-2.273V217.6h1.727v7.223c0 .719.058 1.324.086 1.64h-1.669a9.343 9.343 0 0 1-.086-1.065 2.835 2.835 0 0 1-2.59 1.324z" transform="translate(-243.873 -155.413)" style="fill:#133b62"/>
            <path data-name="Path 17" d="M377.937 201.6a1.228 1.228 0 0 1 1.237 1.237 1.237 1.237 0 1 1-2.475 0 1.266 1.266 0 0 1 1.238-1.237zm-.835 13.439v-8.863h1.7v8.863z" transform="translate(-268.873 -144.017)" style="fill:#133b62"/>
            <path data-name="Path 18" d="M394.3 215.324V202h1.727v13.324z" transform="translate(-281.408 -144.302)" style="fill:#133b62"/>
            <path data-name="Path 19" d="M414.906 213.971a2.979 2.979 0 0 1-2.734 1.583c-2.59 0-4.173-2.072-4.173-4.691a4.362 4.362 0 0 1 4.173-4.633 2.725 2.725 0 0 1 2.705 1.5V202h1.7v11.683c0 .835.086 1.5.086 1.64h-1.669a8.654 8.654 0 0 1-.086-1.18zm-2.561.058c1.583 0 2.532-1.381 2.532-3.194s-.95-3.079-2.532-3.079-2.59 1.266-2.59 3.108c-.028 1.841.921 3.165 2.59 3.165z" transform="translate(-291.165 -144.302)" style="fill:#133b62"/>
            <path data-name="Path 20" d="M447.937 201.6a1.228 1.228 0 0 1 1.237 1.237 1.237 1.237 0 1 1-2.475 0 1.228 1.228 0 0 1 1.238-1.237zm-.863 13.439v-8.863h1.7v8.863z" transform="translate(-318.729 -144.017)" style="fill:#133b62"/>
            <path data-name="Path 21" d="M465.927 225.722H464.2v-8.863h1.7v1.266a3.067 3.067 0 0 1 2.7-1.525c2.129 0 3.165 1.525 3.165 3.482v5.64h-1.727V220.4c0-1.237-.518-2.245-2.072-2.245-1.353 0-2.072 1.065-2.072 2.446l.029 5.122z" transform="translate(-331.193 -154.7)" style="fill:#133b62"/>
            <path data-name="Path 22" d="M499.5 226.236a2.373 2.373 0 0 0 2.417 2.187c1.871 0 2.705-.95 2.705-2.849v-1.266a2.956 2.956 0 0 1-2.705 1.439 4.278 4.278 0 0 1 0-8.547 2.759 2.759 0 0 1 2.705 1.381v-1.237h1.7v8.173c0 2.245-1.094 4.432-4.432 4.432a3.845 3.845 0 0 1-4.086-3.281zm5.18-4.777a2.534 2.534 0 1 0-2.5 2.82 2.527 2.527 0 0 0 2.498-2.82z" transform="translate(-355.124 -155.128)" style="fill:#133b62"/>
            <path data-name="Path 23" d="M535.825 222.773a1.9 1.9 0 0 0 2.072 1.64c.95 0 1.5-.547 1.5-1.18 0-.547-.4-.95-1.122-1.122l-1.5-.345a2.52 2.52 0 0 1-2.216-2.475 3.013 3.013 0 0 1 3.141-2.791 3.134 3.134 0 0 1 3.367 2.388l-1.525.576A1.739 1.739 0 0 0 537.7 218a1.346 1.346 0 0 0-1.468 1.18c0 .547.345.892 1.007 1.065l1.439.317a2.674 2.674 0 0 1 2.446 2.619 2.925 2.925 0 0 1-3.223 2.734c-2.446 0-3.453-1.554-3.6-2.561z" transform="translate(-381.12 -154.629)" style="fill:#133b62"/>
        </g>
    </g>
</svg>
