<svg xmlns="http://www.w3.org/2000/svg" width="25.944" height="18.246" viewBox="0 0 25.944 18.246">
    <defs>
        <clipPath id="d5cqye8zaa">
            <path data-name="Rectangle 19741" style="fill:none" d="M0 0h25.944v7.241H0z"/>
        </clipPath>
        <clipPath id="hh678vlqab">
            <path data-name="Rectangle 19741" style="fill:none" d="M0 0h23.337v7.241H0z"/>
        </clipPath>
    </defs>
    <g data-name="Group 18494">
        <g data-name="Group 18478">
            <g data-name="Group 18477" style="clip-path:url(#d5cqye8zaa)">
                <path data-name="Path 59522" d="M9.883 3.285c.014.06.1.018.157.011.058-.029.188.057.191-.042 0-.064-.113-.049-.177-.051-.088-.007-.184.024-.171.082" transform="translate(4.2 3.87)" style="fill:#f7931d"/>
                <path data-name="Path 59523" d="m18.281 1.292-.249.031a.23.23 0 0 0 .249-.031" transform="translate(7.663 1.562)" style="fill:#f7931d"/>
                <path data-name="Path 59524" d="M17.523 1.876c.048.042.115 0 .192-.04a1 1 0 0 0-.113-.009c-.041 0-.148-.011-.08.049" transform="translate(7.437 2.208)" style="fill:#f7931d"/>
                <path data-name="Path 59525" d="m17.608 2.27.342-.07c-.147-.011-.245-.035-.342.071" transform="translate(7.483 2.646)" style="fill:#f7931d"/>
                <path data-name="Path 59526" d="M10.2 3.237c-.011.024.019.026.056.038.021-.007.07-.009.081-.022s-.01-.042-.053-.044-.071 0-.084.029" transform="translate(4.333 3.877)" style="fill:#f7931d"/>
                <path data-name="Path 59527" d="M10.5 3.227c-.017.018.014.026.043.029.046 0 .091-.009.1-.044 0-.007-.043-.022-.058-.02a.167.167 0 0 0-.083.035" transform="translate(4.46 3.857)" style="fill:#f7931d"/>
                <path data-name="Path 59528" d="M25.575 4.981h-.3a1.739 1.739 0 0 0-.557.033.56.56 0 0 0-.278.029l-.057-.077a1.751 1.751 0 0 0 .557-.066 1.938 1.938 0 0 0-.611.042h-.006l-.162-.04.051-.071a1.885 1.885 0 0 1 .385-.115.265.265 0 0 0 .2-.051c-.076-.033-.128 0-.185.018 0-.022-.1-.046.013-.066.162-.029.053-.051-.011-.071a14.913 14.913 0 0 0-.341-.108c-.053-.013-.121.007-.161-.033.224-.049.369-.132.348-.3.158-.013.115-.19.326-.161-.057-.018-.114-.033-.171-.049.053-.015.107-.031.161-.049.091 0 .188.011.249-.055a.822.822 0 0 0-.42-.007c-.046-.011-.114.009-.138-.038a1.623 1.623 0 0 0 .4-.106c.03 0 .06-.007.09-.011.127-.051.345 0 .39-.141v-.032l.077-.071.05-.038c.177-.024.093-.088.054-.146-.12-.137-.336-.084-.514-.108-.016.007 0 .015 0 .024v-.024l-.064-.073a.07.07 0 0 0-.037-.086c.074-.062.048-.093-.07-.1v-.062c.028-.009.123-.011.043-.042a.319.319 0 0 0-.235.029l.033.007c-.011 0-.017-.013-.033-.007-.034 0-.068.007-.1.011l-.11-.011.114-.066a.937.937 0 0 0 .319-.066c.038-.011.1 0 .107-.044.007-.068.021-.066.091-.1s.207-.029.251-.091c-.013-.084-.215.022-.188-.091.064-.024.108-.06.111-.11.061-.022.061-.049.014-.077.007-.071.02-.139.021-.208s.013-.148-.154-.15a.071.071 0 0 0-.048-.007.848.848 0 0 0-.641 0c-.081-.071-.083-.073.031-.1s.231-.013.261-.106a1.675 1.675 0 0 0 .456-.11l.393-.093a1.472 1.472 0 0 0-.383-.168c-.006-.046-.027-.086-.123-.075-.137-.033-.2-.075-.161-.185.051-.148-.164-.311-.416-.356a.666.666 0 0 0-.296.033 1.706 1.706 0 0 0-.452.04h-.1c-.011-.1-.19-.038-.268-.1A7.548 7.548 0 0 0 24.575.3h-.549a1.54 1.54 0 0 1-.674-.029h-.339a.105.105 0 0 0-.046 0 2.309 2.309 0 0 0-.583-.068A2.6 2.6 0 0 0 21.7.121a6.908 6.908 0 0 0-1.466-.077 1.489 1.489 0 0 0-.432 0h-.137A.582.582 0 0 0 19.4.011h-1.629q-.785-.024-1.571.006a2.71 2.71 0 0 0-.7.031l-.051.031a1.169 1.169 0 0 0-.7-.038l.02.013h-.01l.041.032a.091.091 0 0 0-.051-.031l-.01-.013-.108.008a1.367 1.367 0 0 0-.51-.007h-.269c-.089 0-.187-.018-.279-.018-.825 0-1.649-.009-2.474-.007a6.584 6.584 0 0 0-.933.024c-.469 0-.936.015-1.4.046a2.369 2.369 0 0 0-.536.029h.522a1.876 1.876 0 0 0-.522 0L7.9.125a1.481 1.481 0 0 0-.42.026l-.313.01a2.347 2.347 0 0 0-.529.026c-.09 0-.18 0-.269.009a2.552 2.552 0 0 0-.581.029l-.1.007a1.75 1.75 0 0 0-.469.031.068.068 0 0 0-.047 0A1.992 1.992 0 0 0 4.644.3h-.157a.517.517 0 0 1-.058 0 .9.9 0 0 0-.289.024h-.014a1.565 1.565 0 0 0-.509.04 3.071 3.071 0 0 0-.742.068L2.72.45l-.3.064.02.013.009.015-.04.007c0-.013.016-.02.011-.035a6.734 6.734 0 0 0-.9.148.072.072 0 0 0-.048 0 .15.15 0 0 0-.121.022C1.107.726.871.772.63.8.462.823.41.883.422.98c-.07.044-.041.1-.046.15a.513.513 0 0 0-.043.294.474.474 0 0 0 0 .256.183.183 0 0 0 .038.181.193.193 0 0 0 0 .177c-.105.1.054.234-.114.32l.016.009-.017-.009c-.073.011-.141.024-.162.077-.063.044-.041.1-.05.15v.073c-.091.192 0 .386.007.579.019.013.037 0 .056 0H.048l.057.252c.019.06.036.121.053.183 0 .046.034.082.094.11v.1c-.084.073-.161.146.078.15L.323 4h.009c-.007.011-.016.02 0 .033.1.046.295-.071.342.075.037 0 .046-.013.061-.029a.128.128 0 0 1 .05-.009l-.01.011c-.013 0-.024-.009-.04 0l-.065.026-.113.007a1.464 1.464 0 0 0-.418.022c-.064 0-.118.02-.123.055s.064.035.105.038c.175.011.352.018.529.027v.068H.238c.1.128.295-.015.368.095l.02.007c-.007.007-.007.013-.017.018a.016.016 0 0 1 0-.024l-.272.02c-.077 0-.168-.026-.212.033-.02.02.043.027.075.027.157-.027.251.079.4.077a1.3 1.3 0 0 0 .078.83l.006.038v.113l-.016.062.019.066-.006.007c.03-.027.019-.049-.02-.071a.22.22 0 0 0-.038.225C.477 6 .583 6.2.439 6.355c-.019.035-.067.071-.013.11l-.034.113c0 .046-.007.093-.01.139s-.014.086.061.108a.094.094 0 0 1 .05.007c-.037.022-.074.042-.113.068-.01.073 0 .126.157.119.252-.009.506-.009.76-.013a2.287 2.287 0 0 0 .627-.026h.016l.014-.007a2.078 2.078 0 0 0 .539.064 5.683 5.683 0 0 0 .972.068A10.815 10.815 0 0 0 4.6 7.15h.057a1.89 1.89 0 0 0 .513.033h.339l-.056-.029h.006a.128.128 0 0 0 .05.031h.175l.677.013a3.16 3.16 0 0 0 .63.018c.04.013.053 0 .06-.022.1-.011.209.024.279-.049l.063.009c.172.082.346.15.522 0l.057-.033a.173.173 0 0 0 .047-.007l.108.038c.014.044.043.064.124.073a2.28 2.28 0 0 0 .564-.033c.013-.013 0-.026 0-.04h.005v.04c.056.073.154.007.225.026h.413c.058 0 .13.026.167-.026a1.643 1.643 0 0 0 .673 0 .584.584 0 0 0 .285-.035c.083.062.162.13.3.044.026-.022.017-.038-.011-.055l.011.055c.074-.046.158.071.229-.007h.047c.191-.04.38.106.571 0h.11a.621.621 0 0 0 .285-.007l.225.013c.077-.024.333.024.117-.119h.174a1.7 1.7 0 0 0 .573.073c.077.031.154 0 .231 0h.1c.046.031.09.044.134 0 .066-.029.15-.053.051-.113v-.028c.076 0 .151-.009.227-.015a1.029 1.029 0 0 0 .467-.053c.051 0 .1-.009.152-.011a1.131 1.131 0 0 0 .12.038c.044.011.1.053.138.011s-.061-.046-.074-.079l-.015-.004.512.011v.02l-.131.024a.206.206 0 0 0 .133.088c-.063.115.038.124.175.11l.115-.033c.061 0 .128.009.167-.038.142-.011.294.066.429-.015-.057-.068-.2-.031-.265-.091.148.007.228-.077.351-.1h.11c0 .071.043.106.16.106s.127-.051.13-.1l.168-.013c.01-.011 0-.018-.009-.027h.01v.027l.056.013c.023.031-.085.086.037.1s.142-.04.14-.1a.059.059 0 0 1 .051 0l.061.106v.026c-.066.024-.174-.018-.222.073a.512.512 0 0 1 .366.035.242.242 0 0 0 .207-.022c.133-.007.266.051.395-.007.057 0 .12.009.157-.031.085-.02.066-.068.074-.108.038 0 .077-.007.117-.009a.168.168 0 0 0 .144-.026l.04-.015c-.014 0-.031 0-.04.015.107.055.229 0 .345 0 .04 0 .084 0 .118.031.087.064-.118.026-.064.086.12-.009.269.013.249-.119.15.009.274.139.446.038.083.011.162.068.249 0 .051 0 .1-.007.154-.011h.058c.144 0 .309.049.4-.071v-.085h.01c-.024.022-.037.046-.01.071.125.035.256.1.342-.031.013-.015 0-.026-.01-.038h.01v.038a.38.38 0 0 0 .295 0l.274-.007a.479.479 0 0 0 .234-.038h.168c.094-.035.19-.071.284-.108.114-.024.227.082.342 0a1.85 1.85 0 0 1-.058-.073v-.031c.064-.027.157-.031.191-.086-.074-.046-.128 0-.191.013h-.056v-.066a1.119 1.119 0 0 1 .118-.04c.125-.04.279.033.4-.04.1-.055.278 0 .333-.106a.557.557 0 0 0 .341-.038h-.345a.152.152 0 0 1 .113-.038c.06-.015.121-.033.227-.064-.118-.007-.181-.013-.224.029a.433.433 0 0 1-.054 0c0-.055.135-.113 0-.17l.221-.009c.046.026.007.106.07.091.1-.022.007-.077 0-.119a5.334 5.334 0 0 0 .777-.13c-.232-.04-.412.1-.611.018a3 3 0 0 0 .453-.106c.13-.024.306.015.355-.113.03-.007.068-.007.058-.038h.209c.134.073.237-.007.356-.031-.131.013-.234-.049-.359-.042a.313.313 0 0 0-.227.035h-.221l-.06-.035c.044 0 .093 0 .11-.038a3.519 3.519 0 0 0 .745-.146l.113-.007a.255.255 0 0 0 .133-.124c-.081-.031-.128.013-.187.026h-.066a.415.415 0 0 0-.217.033h-.279a.308.308 0 0 0-.172-.044l.064-.066c.128-.075.319.009.445-.073l.439-.009c.124.024.229-.035.348-.035.054-.029.16.013.2-.051a.192.192 0 0 0-.2.022zM1.828 6.761l-.02-.009h.019v.009M.159 3.1v-.007h.006M19.54 6.684v-.009.009M.939 6.463h.014-.015M1.926 6.5H1.92h.007m-.586-2.715h.011-.01M19.221.545a.621.621 0 0 0-.091 0c.028 0 .057-.007.087 0m4.757 2.694h-.006.009a.084.084 0 0 0 .057 0h-.057m-21.714 2.1H2.23h.032M23.1 2a.111.111 0 0 1-.027 0c.009-.011.021-.011.031-.02 0 .009-.006.011 0 .02M20.74 6.49h.009a.08.08 0 0 0 .037.011c-.013-.007-.024-.018-.046-.011M7.679 6.463zM1.564 5.07h.03l-.041.007.011-.011M12.852.5a.772.772 0 0 1-.161 0h.063a.726.726 0 0 1 .1 0M17.2.629zm5.473 2.429c0 .007.01.011.011.02-.007-.007 0-.013-.013-.018zM15.2 5.885v-.007.007m-11.8.362.019-.009-.007.009H3.4m14.357-.521a.137.137 0 0 1 .073 0 .389.389 0 0 0-.071-.007M3 6.105zm.192-1.44a.444.444 0 0 0 .054 0 .444.444 0 0 1-.054 0m-1.22-1.278h-.019.023-.006m5.98 2.776-.014-.022a.127.127 0 0 0 .028 0c-.01.009-.006.02-.014.026M4.09 1.389h-.057l.017-.009c.013.007.027 0 .04.009m5.243-.44zm8.8-.157a.163.163 0 0 0-.033 0 .163.163 0 0 1 .033 0M10.472.867v.014h-.006V.867m-6.9.808h.006zm12.868-.369a.4.4 0 0 0-.051 0H16.434m3.9.108a.448.448 0 0 0-.1-.018.353.353 0 0 1 .1.018M10.251 1.17h.016zm2.87.055.007.009h-.016l.009-.009M3.306 2.3h.007l-.013.009-.008-.009h.014m16.1.625a.149.149 0 0 0-.031 0h.03M9.772 5.233h-.009.024-.016M18.68 2.95h.006-.006M9.641 5.207h.037a.1.1 0 0 1-.037 0M6.083 2.294h-.016.016M11.618 2.367a.119.119 0 0 0 .066.022c-.021-.007-.044-.013-.066-.022m-5.9.011h.03-.026m7.091 2.237zM8.7 2.837h.007H8.7m2.474-.037h-.02.017m1.465-.364h.007m1.648-.036zm-.9.4h-.011.012M14 2.44h-.026H14m.572 1.089h.016-.014m-1.5.689a.069.069 0 0 1 .021 0h-.02m.525-1.924h.011-.011m-6.207.435c.038-.015.031-.033.038-.051 0 .013-.009.029-.028.042l-.009.007H7.4l-.007.015v-.009h-.006.009m1.385.132h.027-.051.024m4.091.877h.041-.041m1.139-1.519v-.015l.007.011h-.006M5.838 2.4h.019-.018m4.083 2.175h.006-.016.014m5.686-.212h-.006.013-.007m.051-1.923h.011-.012M14 2.195v-.007a.045.045 0 0 0 .017 0L14 2.195M8.423 3.237h-.007m4.334 1.594c-.021-.024-.054-.007-.083-.009a.343.343 0 0 1 .083.009m3.762-2.208a.162.162 0 0 1 .033 0c-.01 0-.023 0-.033.007v-.007m1.826-.323zm-3.112 0-.026-.006h.016l.007.009m-8.741-.044h-.009.009zm-1.767.181zm3.474.724zm1.143 2.1h-.017.014m7.195-2.537h-.013v-.078l.007.007h-.007c-.027.026-.011.051.013.073m3.348-.529-.006.024h-.011a.037.037 0 0 0 .015-.024m-4.67-.019h.01-.01M14.8 2zm-9.345.15v-.006.006zM3.575 2.586l-.017.014v-.015h.017M11.923 5.052l-.009.009c0-.007-.014 0-.017-.011h.026m6.576-2.519h.014l.009.007h-.023m1.328-.378h-.007l.021-.009-.014.013m-2.341.013v.009h-.009v-.011M12.125 1.6zm-7.239.51H4.87l-.01-.007.026.007M5.4 3.129h.007-.006m4.161.581h-.015.013m.57 1.522h.01-.006m.663-.013.021.013H10.8l-.006-.013m4.615-.42c.011 0 .01.007.027.007h-.026V4.8m-.034-.073a4.253 4.253 0 0 0 .731 0 2.033 2.033 0 0 0-.731 0m4.493-1.747c.006-.007.014 0 .02-.009l.007.007h-.027m-1.073-.25zm-3.124-1.09h.007-.007m-4.631.6v.02h-.006v-.019m-.276.02c.013 0 .02-.011.033-.013-.007.006-.022.006-.028.015zm-6.905.687zm1.412.183h.016v.015h-.009l-.006-.013m2.465.325v.02-.02zm2.337.216c-.02 0-.026.015-.043.018.011-.007.03-.011.037-.02h.006m-.633.066h-.011l.007-.007m9.637-1.047c.014-.009.038 0 .053-.011v.011h-.057M5.061 1.753h-.006.009M3.346 2.941h.014l-.013.009h-.011.011zm0 .073h-.007c.006-.011.014-.02 0-.031h-.005l.013-.018v.047m0 .075h-.006.006m1.995.163v-.013h.007v.015m2.045 1.29H7.4m5.158.905v-.015c.011 0 .017.013.033.015a.149.149 0 0 1-.031 0m7.271-2.753a.421.421 0 0 0 .053 0 .333.333 0 0 1-.048.009v-.007m.788-.334-.01-.029a.039.039 0 0 0 .012.029zm-7.18-1.084.009.011-.017-.009h.009m-2.7.76h.01-.027l.017-.007m-5.453-.271-.007-.011H5.3v.011m-.013-.084zm-2.1 1.345zm3.079.722v-.013.013m-.335.93s0-.011.007-.009.047 0 .071 0c-.027 0-.053 0-.078.009m.219.013a.232.232 0 0 0-.078 0zM5.405 5.451h-.006zm2.447.139.009.007h-.03l.01-.007m2.489.013H10.357h-.009c.009 0 0-.011 0-.018h.006v.018l.027.007h-.046a.1.1 0 0 1-.026 0h.017M13.271 1.139h-.006.006m-3.223.625h-.063.061c-.019-.022.04 0 0 0M5.5 1.5v-.007l.013.007zM2.542 2.879zm3.134 1.365.009.009h-.01v-.009m-.144.084c-.014.007-.036 0-.044.015-.02-.013-.044 0-.066-.013h.11m.608.384v.011h-.007l.009-.011m2.336 1.06.006.024-.024-.024h.019m12.084-1.303zm.227-1.7h.011-.007M7 1.353zm-1.2.285zM5.154 3.751v-.009h.013l-.016.007m-.133.488L5 4.246l-.02-.009h.037M9.5 5.812zm6.726-.545h.054a.157.157 0 0 0-.056 0zm3.7-1.086h.021c.009 0 .02 0 .03.007a.41.41 0 0 0-.051 0m.912-1.343c.007 0 0-.007 0-.011zm.516-1.374h.006m-4.338-.075zM12.3.953c-.021-.007-.024.009-.036.013l-.025-.013h.061m-2.85.254-.024.015.024-.015m.4.364h-.006.006m-2.571.071h-.034a.181.181 0 0 0 .034 0v.009m-.622-.371h-.028zm-1.483.144zm-.866.11h.006-.007m-2.385.146h-.028l.021-.009h.007m.8 1.557h-.029.024m3.06 2.555c.006.011.019.015.021.029h-.016c0-.013-.006-.018-.006-.029m.99.137-.006.011V5.92zm2.85 0zm3.672.181h.031a.05.05 0 0 0-.031 0m3.126-.565.013.022H16.4l.016-.022m3.4-.59.028.007h-.01c-.006-.007-.013 0-.019-.011m2.063-1.985.007-.013h.046c-.014.013-.036.009-.053.013M21.752 1.6h-.017c-.013 0-.023 0-.017-.013zM16.537 1.254h.087a.07.07 0 0 0-.024.018.265.265 0 0 1-.063-.02M9.674.883h-.015.014m.969.433h-.007a.212.212 0 0 1-.037 0zm-5.529.11c.013-.031-.009-.053-.051-.066l.053.066M6.694 6.136c.01 0 .01-.013.016-.02v.02h-.016m14.487-2.323-.006-.013v-.011.011c.031-.013 0 .026 0 .015m-2.331-2.539h.006-.006m-1.927-.141v.007-.007zM7.9 1.1h-.094a.668.668 0 0 0 .094 0m-5.06.4c.037 0 .057-.018.085-.026a.255.255 0 0 0-.085.026m-.346.148v-.012l.007.009zm0-.033a.052.052 0 0 1 .019 0h-.019m-1.14 1.116v.009l-.006-.009zm-.227.254zm.056.144zm2.492 2.422h.014-.016m13.15.1-.013.011a.226.226 0 0 1-.037-.009h.05m5.292-2.767-.015-.011h.02v.011m.158-1.031.013.007h-.017v-.007m-.574-.466.006-.011.007.011H21.7m-1.482-.181zm-.057 0h-.019a.052.052 0 0 1 .019 0m-1.368-.144zM13.208.881l-.016-.014c.01 0 .01.011.02.013m-9.574.144zM2.434 5.7h-.007l.007-.015V5.7M9.48 6.3a.118.118 0 0 1-.02.029.055.055 0 0 1 .02-.029m12.449-2.447.013-.009v.009h-.013M18.794.808h.006-.007M15.063.6h-.024a.542.542 0 0 0 .06 0c-.011 0-.017.009-.036.007M12.6.594h-.016.016m-.129-.073A.853.853 0 0 0 12.6.51a.6.6 0 0 0-.125.011M9.9.706h.009H9.9M6.81.929h.013-.013m-2.338.28h.016-.016M1.627 3.493h.01-.007m.566.4h.013-.01m-.329.219h.006c-.007.009 0 .018 0 .026v-.029m1.767.106-.023.018v-.018h.019m-.4.183h-.014.009zM2.152 5.836l.006.011h.057c-.013 0-.023 0-.036.007s-.009-.011-.021-.007h-.011l.006-.009m.214.433h.019a.108.108 0 0 0-.041.013.1.1 0 0 1 .023-.015m10.791.194-.023.029c.007-.009.026-.015.023-.029m9.411-3.518h-.014.01m-20.3-1.594v-.004M.668 2.658zM2.14 3.6h.011-.014M1.4 4.9a.123.123 0 0 0-.043-.009.276.276 0 0 0 .043.009m.675.791a.224.224 0 0 0-.1.007.5.5 0 0 1 .1 0m3.054.74h.009-.017.006m11.957-.274h-.033.033m3.7.015h.007-.009m.98-5.334zM5.057.945V.923v.022m-3.577.192v.007l-.017-.007h.017M.737 3.61c.019.011.031.022.028.029l-.03-.029m.98 2.345h.035a.084.084 0 0 0-.033 0m.033.4zm5.644.327zM13.716 6.784l.006.007H13.7l.019-.007m.731-.247h.016-.016m1.21.073v.013-.013m0-.146h.011c.01.007.023.007.033.013-.014 0-.031 0-.044-.009m1.872.25h.007m.121-.007h-.036.036m3.535-.57h-.006m1.139-2.248a.11.11 0 0 0 .026-.007.107.107 0 0 1-.027 0m.637-.828h-.009.007M15.124.165h-.01.037a.116.116 0 0 1-.027 0M7.981.58 8 .567V.58h-.014M2.6.828a.281.281 0 0 1-.043 0H2.6M1.7 4.4l.108.035h-.016A.088.088 0 0 0 1.7 4.4m5.941 2.317h-.02.017zm10.854.032zm2.13-.117h-.006.006m.165 0-.007-.009v-.009V6.643l-.014-.011h.011m1.92-.984a.065.065 0 0 0-.024-.04c.014.015.026.029.024.04m.768-2.048h.013-.013M23.761 2.913l-.009.007v-.008zm-.58-1.268h-.006M22.9.737h.006M3.973.554h.006-.006M3.86.565a.044.044 0 0 0 0 .064V.565M1.394 5.627h.014-.007l-.007-.007m.412 1.091h.019c-.013.011-.03.02-.019.035v-.029m1.6-.183H3.4h.007m4.211.4h-.006.006m9.127-.289h.006m.62.141zM19.2 6.7l-.014-.009h.014V6.7m2.155-.053h.01-.01zm2.163-1.089h-.007.014-.007m.576-.579zm.225-.839v.007-.007m-.855-1.261zm-.2-1.327-.006-.007h.017-.011m-.415-.954V.6l-.01-.009h.009M19.481.543V.534h.021-.019m-.191-.382zm-2.9 0 .024-.009v.009h-.023m-7.632 0zM1.143.887a.1.1 0 0 1-.066-.035c.011.022.041.024.066.035M.576 3.352c-.022-.011-.053-.02-.053-.022S.509 3.312.507 3.3a.7.7 0 0 0 .068.051m.547 3.401c.006-.007.016 0 .023-.009a.131.131 0 0 0 .108.033 2.944 2.944 0 0 0-.128-.029m7.984.289h.017-.016M10.921 7.016l-.02-.011c.01 0 .013.009.02.011m5.3-.265h.011v.055c.027-.02.009-.038-.007-.055m1.726.126-.009-.018h.009v-.011h.011l-.007.013v.018m2.043-.128H20v.007h-.011v-.005m.306.024zm.037-.1h.006v.029a.025.025 0 0 0-.006-.029m3.435-1.226h.006-.009m.4-.373h.007zm-.017-.786h.006l-.016.011.01-.011M14.8.106v.011-.011M6.867.214a.366.366 0 0 1 .07 0h-.074M4.917.3c-.01-.02.011 0 0 .013h-.011C4.916.306 4.92.3 4.917.3M1.136.8h-.012.011M.442.989.422.98l.02.009m0 .4H.436h.006m0 .38v.015l-.013-.011H.44m.4 4.079v.009l-.009-.014zm5.813 1.333zm1.013-.033c.007-.009.013-.015.009-.026v.026z" transform="translate(0 .001)" style="fill:#f7931d"/>
                <path data-name="Path 59529" d="M15.671 3.006a.262.262 0 0 0 .073.029c.017 0 .034-.015.053-.024a.155.155 0 0 0-.056-.029c-.016 0-.038.013-.07.024" transform="translate(6.66 3.604)" style="fill:#f7931d"/>
                <path data-name="Path 59530" d="M11.529 3.206c-.011.029.028.038.08.044.019-.011.067-.024.068-.038 0-.029-.05-.026-.083-.026s-.063.011-.066.02" transform="translate(4.898 3.85)" style="fill:#f7931d"/>
                <path data-name="Path 59531" d="M16.166 2.981c.118-.031.164-.044.211-.055-.058-.024-.113-.026-.211.055" transform="translate(6.87 3.518)" style="fill:#f7931d"/>
                <path data-name="Path 59532" d="M16.387 3.1c.011.026.07.031.15.013a.724.724 0 0 0-.08-.035c-.033-.007-.094-.033-.07.022" transform="translate(6.961 3.701)" style="fill:#f7931d"/>
                <path data-name="Path 59533" d="m18.058 2.194.051.042.057-.031c-.017-.011-.031-.029-.05-.031s-.038.013-.058.02" transform="translate(7.674 2.627)" style="fill:#f7931d"/>
                <path data-name="Path 59534" d="M2.509.76" transform="translate(1.066 .919)" style="fill:#f7931d"/>
            </g>
        </g>
        <g data-name="Group 18479">
            <g data-name="Group 18477" transform="translate(0 11.005)" style="clip-path:url(#hh678vlqab)">
                <path data-name="Path 59522" d="M9.883 3.285c.013.06.091.018.141.011.053-.029.169.057.172-.042 0-.064-.1-.049-.159-.051-.079-.007-.165.024-.154.082" transform="translate(2.784 3.87)" style="fill:#009244"/>
                <path data-name="Path 59523" d="m18.256 1.292-.224.031a.19.19 0 0 0 .224-.031" transform="translate(5.081 1.562)" style="fill:#009244"/>
                <path data-name="Path 59524" d="M17.52 1.876c.044.042.1 0 .173-.04a.812.812 0 0 0-.1-.009c-.037 0-.133-.011-.072.049" transform="translate(4.931 2.208)" style="fill:#009244"/>
                <path data-name="Path 59525" d="m17.608 2.27.308-.071c-.132-.011-.22-.035-.308.071" transform="translate(4.961 2.646)" style="fill:#009244"/>
                <path data-name="Path 59526" d="M10.2 3.237c-.01.024.017.026.05.038.019-.007.063-.009.073-.022s-.009-.042-.047-.044-.064 0-.076.029" transform="translate(2.873 3.877)" style="fill:#009244"/>
                <path data-name="Path 59527" d="M10.5 3.227c-.015.018.013.026.038.029.041 0 .082-.009.088-.044 0-.007-.038-.022-.053-.02a.143.143 0 0 0-.074.035" transform="translate(2.957 3.857)" style="fill:#009244"/>
                <path data-name="Path 59528" d="M23.005 4.981h-.267a1.411 1.411 0 0 0-.5.033.457.457 0 0 0-.25.029c-.017-.027-.035-.051-.051-.077a1.427 1.427 0 0 0 .5-.068 1.573 1.573 0 0 0-.55.042h-.005l-.152-.04.046-.071a1.571 1.571 0 0 1 .346-.115.221.221 0 0 0 .181-.051c-.068-.033-.115 0-.167.018 0-.022-.094-.046.012-.066.146-.029.047-.051-.01-.071-.1-.038-.2-.073-.306-.108-.047-.013-.109.007-.145-.033.2-.049.332-.132.313-.3.142-.013.1-.19.294-.161a3.092 3.092 0 0 0-.154-.049c.047-.015.1-.031.145-.049.082 0 .169.011.224-.055a.668.668 0 0 0-.378-.007c-.041-.011-.1.009-.124-.038a1.346 1.346 0 0 0 .356-.106c.027 0 .054-.007.081-.011.114-.051.31 0 .351-.141v-.03l.069-.071.045-.038c.159-.024.083-.088.049-.146-.108-.137-.3-.084-.463-.108-.014.007 0 .015 0 .024v-.024l-.058-.073a.073.073 0 0 0-.033-.086c.067-.062.044-.093-.063-.1v-.062c.026-.009.11-.011.038-.042a.261.261 0 0 0-.211.029l.029.007c-.01 0-.015-.013-.029-.007-.031 0-.062.007-.091.011l-.1-.011.1-.066a.771.771 0 0 0 .287-.066c.035-.011.091 0 .1-.044.006-.068.019-.066.082-.1s.186-.029.226-.091c-.012-.084-.194.022-.169-.091.058-.024.1-.06.1-.11.055-.022.055-.049.013-.077.006-.071.018-.139.019-.208s.012-.148-.138-.15a.058.058 0 0 0-.044-.007c-.191-.124-.385-.046-.577 0-.073-.071-.074-.073.028-.1s.208-.013.235-.106c.133-.042.3-.029.41-.11l.354-.093a1.26 1.26 0 0 0-.345-.168c-.005-.046-.024-.086-.11-.075-.123-.033-.178-.075-.145-.185.046-.148-.147-.311-.374-.356a.543.543 0 0 0-.26.035 1.386 1.386 0 0 0-.406.04h-.094c-.01-.1-.17-.038-.241-.1A6.184 6.184 0 0 0 22.105.3h-.493c-.2 0-.413.075-.606-.029H20.7a.086.086 0 0 0-.041 0 1.879 1.879 0 0 0-.524-.068 2.117 2.117 0 0 0-.615-.082A5.6 5.6 0 0 0 18.2.044a1.206 1.206 0 0 0-.388 0h-.122a.475.475 0 0 0-.244-.033h-1.461q-.706-.023-1.409.007a2.2 2.2 0 0 0-.637.031l-.046.031a.952.952 0 0 0-.632-.038l.018.013h-.009l.046.031a.081.081 0 0 0-.046-.031l-.009-.014-.1.009A1.108 1.108 0 0 0 12.7.044h-.242c-.08 0-.168-.018-.251-.018-.742 0-1.483-.009-2.225-.007a5.33 5.33 0 0 0-.84.024c-.422 0-.842.015-1.263.046A1.92 1.92 0 0 0 7.4.117h.469a1.519 1.519 0 0 0-.469 0l-.29.008a1.2 1.2 0 0 0-.378.026l-.285.01a1.9 1.9 0 0 0-.476.026c-.081 0-.162 0-.242.009a2.069 2.069 0 0 0-.523.029l-.092.006a1.419 1.419 0 0 0-.422.031.056.056 0 0 0-.042 0A1.616 1.616 0 0 0 4.177.3h-.141a.418.418 0 0 1-.053 0 .729.729 0 0 0-.26.024H3.71a1.271 1.271 0 0 0-.458.04 2.5 2.5 0 0 0-.668.068L2.447.45l-.272.064.018.013.007.016-.035.006c0-.013.014-.02.01-.035a5.5 5.5 0 0 0-.813.148.059.059 0 0 0-.044 0 .124.124 0 0 0-.108.027C1 .726.783.772.566.8.415.823.369.883.379.98c-.063.044-.037.1-.041.15a.565.565 0 0 0-.038.294.525.525 0 0 0 0 .256.2.2 0 0 0 .035.181.213.213 0 0 0 0 .177c-.095.1.049.234-.1.32l.014.009-.018-.009c-.065.011-.127.024-.146.077-.056.044-.037.1-.045.15v.073a1.243 1.243 0 0 0 .006.579c.017.013.033 0 .05 0H.043l.051.252c.017.06.032.121.047.183 0 .046.031.082.085.11v.1c-.076.073-.145.146.07.15L.291 4H.3c-.006.011-.014.02 0 .033.092.046.265-.071.308.075.033 0 .041-.013.055-.029A.1.1 0 0 1 .7 4.072l-.009.011c-.012 0-.022-.009-.036 0L.6 4.107l-.1.007a1.187 1.187 0 0 0-.376.022c-.058 0-.106.02-.11.055s.058.035.095.038c.158.011.317.018.476.027v.068H.214c.09.128.265-.015.331.095l.018.007c-.006.007-.006.013-.015.018a.018.018 0 0 1 0-.024L.3 4.438c-.069 0-.151-.026-.191.033-.014.022.042.024.072.031.141-.027.226.079.356.077a1.431 1.431 0 0 0 .07.83l.005.038v.113l-.014.062.017.066-.005.007c.033-.029.019-.051-.012-.073a.24.24 0 0 0-.035.225C.429 6 .524 6.2.395 6.355c-.017.035-.06.071-.012.11l-.031.113c0 .046-.006.093-.009.139S.331 6.8.4 6.825a.077.077 0 0 1 .045.007l-.1.064c-.009.073 0 .126.141.119.224-.009.452-.009.68-.015a1.854 1.854 0 0 0 .564-.026h.014l.013-.007a1.691 1.691 0 0 0 .485.064 4.608 4.608 0 0 0 .874.068 8.756 8.756 0 0 0 1.023.044h.051c.145.066.309.013.461.033h.305l-.05-.029h.005a.115.115 0 0 0 .045.031h.158l.609.013c.186.066.379-.007.567.018.036.013.047 0 .054-.022.086-.011.188.024.251-.049l.056.009c.155.082.311.15.469 0l.051-.033a.141.141 0 0 0 .042-.007c.032.013.065.026.1.038.013.044.038.064.112.073a1.849 1.849 0 0 0 .508-.033c.012-.013 0-.026 0-.04h.008v.04c.05.073.138.007.2.026h.372c.053 0 .117.026.15-.026a1.333 1.333 0 0 0 .6 0 .477.477 0 0 0 .256-.035c.074.062.146.13.268.044.023-.022.015-.038-.01-.055l.01.055c.067-.046.142.071.206-.007h.042c.172-.04.342.106.514 0h.1a.5.5 0 0 0 .256-.007l.2.013c.069-.024.3.024.105-.119h.156a1.381 1.381 0 0 0 .515.073c.069.031.138 0 .208 0h.087c.041.031.081.044.12 0 .059-.029.135-.053.046-.113v-.021c.068 0 .136-.009.2-.015a.839.839 0 0 0 .42-.053c.046 0 .092-.009.137-.011a.945.945 0 0 0 .108.038c.04.011.088.053.124.011s-.055-.046-.067-.079V6.9l.46.011v.02l-.118.024a.186.186 0 0 0 .119.088c-.056.115.035.124.158.11l.1-.033c.055 0 .115.009.15-.038.128-.011.264.066.386-.015-.051-.068-.181-.031-.238-.091.133.007.205-.077.315-.1h.1c0 .071.038.106.144.106s.114-.051.117-.1l.151-.013c.009-.011 0-.018-.008-.027h.006v.027l.05.013c.021.031-.077.086.033.1s.128-.04.126-.1a.049.049 0 0 1 .046 0l.055.106v.026c-.059.024-.156-.018-.2.073a.419.419 0 0 1 .329.035.2.2 0 0 0 .186-.022c.119-.007.24.051.355-.007.051 0 .108.009.141-.031.077-.02.059-.068.067-.108.035 0 .069-.007.105-.009a.139.139 0 0 0 .129-.026l.036-.015c-.013 0-.028 0-.036.015.1.055.206 0 .31 0 .036 0 .076 0 .106.031.078.064-.106.026-.058.086.108-.009.242.013.224-.119.135.009.246.139.4.038.074.011.146.068.224 0 .046 0 .092-.007.138-.011h.053c.129 0 .278.049.361-.071v-.085h.014c-.022.022-.033.046-.009.071.113.035.231.1.308-.031.012-.015 0-.026-.009-.038h.01v.038a.31.31 0 0 0 .265 0l.246-.007a.393.393 0 0 0 .21-.038h.151l.255-.108c.1-.024.2.082.308 0a3.352 3.352 0 0 1-.053-.073v-.031c.058-.027.141-.031.172-.086-.067-.046-.115 0-.172.013h-.05v-.066a.938.938 0 0 1 .106-.04c.113-.04.251.033.358-.04.086-.055.25 0 .3-.106A.455.455 0 0 0 21 6.209h-.3a.129.129 0 0 1 .1-.038c.054-.015.109-.033.2-.064-.106-.007-.163-.013-.2.029a.35.35 0 0 1-.049 0c0-.055.122-.113 0-.17l.2-.009c.041.026.006.106.063.091.087-.022.006-.077 0-.119a4.359 4.359 0 0 0 .7-.13c-.209-.04-.37.1-.55.018a2.472 2.472 0 0 0 .408-.106c.117-.024.276.015.319-.113.027-.007.062-.007.053-.038h.188c.12.073.213-.007.32-.031-.118.013-.21-.049-.323-.042a.258.258 0 0 0-.2.035h-.2l-.054-.035c.04 0 .083 0 .1-.038a2.886 2.886 0 0 0 .67-.146l.1-.007a.242.242 0 0 0 .119-.124c-.073-.031-.115.013-.168.026a.538.538 0 0 0-.059 0 .34.34 0 0 0-.195.033h-.251c-.049-.02-.088-.055-.155-.044l.058-.066c.115-.075.287.009.4-.073l.395-.009c.112.024.206-.035.313-.035.049-.029.144.013.183-.051-.078-.024-.136-.024-.179.022zM1.644 6.761l-.018-.009h.017v.009M.143 3.1v-.007h.005M17.574 6.689V6.68v.009M.845 6.463h.012H.844M1.733 6.5h-.005.006m-.528-2.715h.01-.009M17.29.545a.5.5 0 0 0-.082 0c.026 0 .051-.007.078 0m4.279 2.694h-.005.008a.069.069 0 0 0 .051 0h-.051m-19.533 2.1h-.029H2.035M20.775 2a.09.09 0 0 1-.024 0c.008-.011.019-.011.028-.02 0 .009-.005.011 0 .02m-2.123 4.49h.008a.067.067 0 0 0 .036.01c-.012-.007-.022-.018-.041-.011M6.907 6.463zm-5.5-1.393h.027l-.034.011.01-.011M11.56.5a.625.625 0 0 1-.145 0h.056a.587.587 0 0 1 .088 0m3.911.129zm4.923 2.429c0 .007.009.011.01.02-.006-.007 0-.013-.012-.018zm-6.72 2.827v-.007.007m-10.61.362.017-.009-.006.009h-.01m12.914-.521a.111.111 0 0 1 .065 0 .316.316 0 0 0-.064-.007M2.7 6.105zm.173-1.44a.36.36 0 0 0 .049 0 .36.36 0 0 1-.049 0m-1.1-1.279h-.017.021-.005m5.379 2.777-.013-.022a.1.1 0 0 0 .026 0c-.009.009-.005.02-.013.026M3.679 1.389h-.052l.015-.009c.012.007.024 0 .036.009M8.4.949zm7.912-.157a.132.132 0 0 0-.029 0 .132.132 0 0 1 .029 0M9.42.867v.014h-.002V.867m-6.205.808h.005zm11.574-.369h-.046.046m3.512.108a.367.367 0 0 0-.086-.018.289.289 0 0 1 .086.018M9.221 1.17h.014zm2.581.055.006.009h-.014l.008-.009M2.974 2.3h.006l-.013.013-.006-.013h.013m14.481.625a.12.12 0 0 0-.028 0h.027M8.79 5.233h-.008.018-.014M16.8 2.95h.005-.005M8.672 5.207h.033a.08.08 0 0 1-.033 0m-3.2-2.913h-.014H5.472M10.446 2.367a.1.1 0 0 0 .059.022c-.019-.007-.04-.013-.059-.022m-5.3.011h.027-.023m6.378 2.237zM7.83 2.837h.006-.006m2.222-.037h-.018.015m1.318-.364h.006m1.482-.036zm-.81.4h-.01.01m.555-.36h-.023.009l.014.007m.51 1.089h.014-.013m-1.352.689a.056.056 0 0 1 .019 0h-.018m.473-1.923h.01-.006m-5.587.427c.035-.015.028-.033.035-.051 0 .013-.008.029-.026.042l-.008.007h.006l-.006.015v-.009h-.005.004m1.25.128h.024-.046.022m3.68.877h.037-.037m1.02-1.519v-.011l.006.011H12.6M5.251 2.4h.017-.016m3.673 2.175h.005-.014.013m5.114-.212h-.005.012-.006m.046-1.923h.01-.01m-1.49-.245v-.007h.015l-.014.007M7.576 3.237H7.57m3.893 1.594c-.019-.024-.049-.007-.074-.009a.279.279 0 0 1 .074.009m3.384-2.208a.131.131 0 0 1 .029 0c-.009 0-.021 0-.029.007v-.007m1.648-.323zm-2.8 0-.021-.007h.014l.012.007m-7.869-.041h-.008.008zm-1.59.181zm3.125.724zm1.028 2.1h-.015.013m6.472-2.537h-.012v-.078l.006.007h-.006c-.024.026-.01.051.012.073m3.01-.526-.005.024h-.01a.038.038 0 0 0 .013-.026m-4.2-.022h.009-.006M13.316 2zm-8.41.146v-.002.006zM3.216 2.586 3.2 2.6v-.015h.015m7.509 2.467-.008.009c0-.007-.013 0-.015-.011h.023m5.916-2.519h.013l.008.007h-.021m1.195-.378h-.006l.019-.009-.013.013m-2.106.013v.009h-.008v-.011M10.906 1.6zM4.4 2.115h-.014l-.009-.007.023.007m.461 1.014h.006-.005m3.738.58h-.012.012m.513 1.522h.009-.005m.6-.013.019.013h-.023l-.005-.013M13.86 4.8c.01 0 .009.007.024.007h-.023V4.8m-.031-.073a3.443 3.443 0 0 0 .658 0 1.648 1.648 0 0 0-.658 0m4.04-1.748c.005-.007.013 0 .018-.009l.006.007h-.024m-.965-.25zM14.1 1.638h.006-.006m-4.166.6v.02H9.93v-.019m-.249.02c.012 0 .018-.011.029-.013-.01.006-.023.006-.028.015zm-6.211.687zm1.27.183h.014v.015h-.008l-.005-.013m2.217.325v.02-.02zm2.1.216c-.018 0-.023.015-.038.018.01-.007.027-.011.033-.02h.005m-.569.066h-.01l.006-.007m8.675-1.038c.013-.009.035 0 .047-.011v.011h-.047M4.553 1.753h-.005.008M3.009 2.941h.013l-.012.009H3h.01zm0 .073h-.006c.005-.011.013-.02 0-.031H3l.012-.018v.047m0 .075h-.005.005m1.794.163v-.013h.006v.015m1.839 1.29h.005m4.64.905v-.015c.01 0 .015.013.029.015a.12.12 0 0 1-.028 0M17.838 2.694a.341.341 0 0 0 .047 0 .273.273 0 0 1-.044.009v-.007m.724-.331-.009-.029a.042.042 0 0 0-.003.026zm-6.46-1.084.008.011-.015-.009h.008m-2.425.76h.009-.024l.015-.007M4.76 1.762l-.006-.011h.01v.011m-.012-.084zM2.857 3.023zm2.77.722v-.013.013m-.3.93s0-.011.006-.009a.62.62 0 0 1 .064 0c-.024 0-.047 0-.07.009m.2.013c-.022-.011-.047 0-.07 0zM4.856 5.451h-.005zm2.2.139.008.007h-.02l.009-.007m2.24.01h.024-.008c.008 0 0-.011 0-.018h.005V5.6l.024.007h-.041a.081.081 0 0 1-.023 0h.015M11.937 1.139h-.005.005m-2.9.625h-.056.055c-.017-.022.036 0 0 0m-4.081-.267V1.49l.005.01zM2.287 2.879zm2.818 1.365.008.009H5.1v-.009m-.129.084c-.013.007-.032 0-.04.015-.018-.013-.04 0-.059-.013h.1m.547.384v.011h-.004l.008-.011m2.1 1.062.007.024-.022-.024h.017m10.869-1.303zm.2-1.7h.008-.006M6.293 1.353zm-1.078.285zM4.636 3.751v-.009h.012l-.014.007m-.119.488-.015.009-.018-.009h.033m4.033 1.575zm6.05-.545h.049a.127.127 0 0 0-.05 0zm3.333-1.087h.019c.008 0 .018 0 .027.007a.332.332 0 0 0-.046 0m.82-1.343c.006 0 0-.007 0-.011zm.464-1.374h.005m-3.9-.075zM11.06.953c-.019-.007-.022.009-.032.013l-.019-.013h.051m-2.56.254-.022.015.022-.015m.363.364h-.005.005m-2.312.071H6.52a.148.148 0 0 0 .031 0v.009m-.563-.371h-.025zm-1.334.144zm-.779.11h.005-.006m-2.145.146h-.026l.019-.009h.006m.718 1.557h-.024.022M5.2 5.783c.005.011.017.015.019.029H5.2c0-.013-.005-.018-.005-.029m.891.137-.005.011V5.92zm2.564 0zm3.3.181h.028a.041.041 0 0 0-.028 0m2.812-.565.012.022h-.026l.014-.022m3.057-.59.026.007h-.009c-.005-.007-.012 0-.017-.011m1.856-1.985.006-.013h.041c-.013.013-.032.009-.047.013M19.566 1.6h-.015c-.012 0-.021 0-.015-.013zm-4.691-.346h.078a.064.064 0 0 0-.022.018.221.221 0 0 1-.056-.02M8.7.883H8.687 8.7m.872.433h-.006a.172.172 0 0 1-.033 0zm-4.972.11c.012-.031-.008-.053-.046-.066l.047.066M6.022 6.136c.009 0 .009-.013.014-.02v.02h-.014m13.03-2.323-.005-.013v-.011.011c.028-.013 0 .026 0 .015m-2.1-2.537h.005-.002m-1.733-.141v.007-.009zM7.106 1.1h-.085a.541.541 0 0 0 .085 0M2.554 1.5c.033 0 .051-.018.077-.026a.213.213 0 0 0-.077.026m-.311.148v-.012l.006.009zm0-.033a.042.042 0 0 1 .017 0h-.017M1.218 2.731v.009l-.005-.009zm-.2.254zm.05.144zm2.238 2.422h.013H3.3m11.828.1-.012.011c-.012 0-.022 0-.033-.009h.045m4.76-2.767-.015-.011h.027v.011m.142-1.031.012.007h-.015v-.007m-.517-.466.005-.011.006.011h-.013m-1.333-.181zm-.051 0h-.017a.042.042 0 0 1 .017 0m-1.23-.144zM11.881.881l-.015-.014c.009 0 .009.011.018.013m-8.612.144zM2.189 5.7h-.006l.006-.015V5.7M8.527 6.3a.12.12 0 0 1-.018.029.055.055 0 0 1 .018-.029m11.2-2.451.012-.009v.009h-.012M16.905.808h.005-.006M13.549.6h-.022a.439.439 0 0 0 .054 0c-.01 0-.015.009-.032.007M11.331.594h-.014.013m-.112-.073a.692.692 0 0 0 .113-.011.489.489 0 0 0-.113.011m-2.31.185h.008-.005M6.125.929h.012-.012m-2.1.28h.014-.014M1.464 3.493h.009-.006m.509.4h.012-.009m-.3.219h.005c-.006.009 0 .018 0 .026v-.029m1.589.106-.021.018v-.018h.017m-.361.185H2.9h.008zM1.93 5.838l.005.011h.051c-.012 0-.021 0-.032.007s-.008-.011-.019-.007h-.01l.005-.009m.192.433h.017c-.013 0-.023 0-.037.013a.087.087 0 0 1 .021-.015m9.707.194-.021.029c.006-.009.023-.015.021-.029m8.47-3.52h-.013.009M2.038 1.351v-.004M.6 2.658zm1.325.942h.01-.013m-.665 1.3a.1.1 0 0 0-.038-.009.227.227 0 0 0 .037.009m.608.791a.182.182 0 0 0-.091.007.408.408 0 0 1 .09 0m2.747.74h.008-.011.005m10.755-.274h-.029.029m3.333.015h.006-.008m.877-5.334zM4.549.945V.923v.022m-3.217.192v.007l-.015-.007h.013M.663 3.61c.017.011.028.022.026.029L.661 3.61m.882 2.345h.029a.068.068 0 0 0-.029 0m.029.4zm5.077.327zM12.335 6.784l.005.007h-.02l.017-.007m.658-.247h.014-.014m1.085.073v.013-.013m0-.146h.01c.009.007.021.007.029.013-.013 0-.028 0-.04-.009m1.684.25h.006m.109-.007h-.032.032m3.18-.57h-.005m1.024-2.248a.091.091 0 0 0 .023-.007h-.024m.573-.828h-.008.006M13.6.165h-.009.033-.024M7.179.58l.015-.013V.58h-.013M2.337.828a.228.228 0 0 1-.038 0h.038M1.528 4.4l.1.035h-.014a.077.077 0 0 0-.083-.04m5.342 2.322h-.018.015zm9.764.032zm1.916-.117h-.005.005m.149 0-.006-.009v-.009V6.643l-.013-.011h.01m1.721-.983a.067.067 0 0 0-.022-.04c.013.015.023.029.022.04M21.109 3.6h.012-.012m.263-.687-.008.007v-.008zm-.522-1.268h-.005M20.6.737h.005M3.573.554h.005-.005m-.1.011a.047.047 0 0 0 0 .064V.565M1.255 5.627h.013-.006l-.006-.007m.37 1.091h.017c-.012.011-.027.02-.017.035v-.029m1.443-.183h-.005.006m3.788.4h-.005.005m8.21-.289h.005m.558.141zm1.643-.086-.013-.009h.013V6.7m1.938-.053h.009-.009zm1.946-1.089h-.006.013-.006m.518-.579zm.2-.839v.007-.007m-.769-1.261zm-.181-1.327-.005-.007h.015-.01m-.374-.954V.6l-.008-.009h.008m-3.03-.048V.534h.019-.017m-.171-.382zm-2.607 0 .022-.009v.009h-.021m-6.865 0zM1.028.887A.086.086 0 0 1 .969.852c.01.022.037.024.059.035m-.51 2.465C.5 3.341.47 3.332.47 3.33S.458 3.312.456 3.3a.637.637 0 0 0 .062.051m.492 3.402c.005-.007.014 0 .021-.009a.11.11 0 0 0 .1.033c-.038-.011-.077-.02-.115-.029m7.182.289h.015H8.199M9.824 7.017 9.8 7.011c.009 0 .012.009.018.011m4.768-.265h.01v.055c.024-.02.008-.038-.006-.055m1.552.126-.008-.018h.008v-.011h.01l-.006.013v.018m1.838-.128h.013v.007h-.01v-.011m.276.024zm.033-.1h.005v.029a.027.027 0 0 0-.005-.029M21.378 5.454h.005-.008m.359-.373h.006zm-.015-.786h.005l-.014.011.009-.011M13.315.106v.011-.011M6.177.214a.3.3 0 0 1 .063 0h-.067M4.423.3c-.009-.02.01 0 0 .013h-.01c.009 0 .013-.007.01-.013M1.021.8h-.01.01M.4.989.379.98.4.989m0 .4H.395.4m0 .38v.015l-.01-.011H.4m.355 4.074v.009l-.008-.009zm5.23 1.338zm.915-.033c.006-.009.012-.015.008-.026v.026z" transform="translate(0 .001)" style="fill:#009244"/>
                <path data-name="Path 59529" d="M15.671 3.006c.029.013.047.029.065.029s.031-.015.047-.024a.135.135 0 0 0-.05-.029c-.014 0-.035.013-.063.024" transform="translate(4.416 3.604)" style="fill:#009244"/>
                <path data-name="Path 59530" d="M11.528 3.206c-.01.029.026.038.072.044.017-.011.06-.024.062-.038 0-.029-.045-.026-.074-.026s-.056.011-.059.02" transform="translate(3.248 3.85)" style="fill:#009244"/>
                <path data-name="Path 59531" d="M16.166 2.981c.106-.031.147-.044.19-.055-.053-.024-.1-.026-.19.055" transform="translate(4.555 3.518)" style="fill:#009244"/>
                <path data-name="Path 59532" d="M16.386 3.1c.01.026.063.031.135.013a.619.619 0 0 0-.072-.035c-.029-.007-.085-.033-.063.022" transform="translate(4.616 3.701)" style="fill:#009244"/>
                <path data-name="Path 59533" d="m18.058 2.194.046.042.051-.031c-.015-.011-.028-.029-.045-.031s-.035.013-.053.02" transform="translate(5.088 2.627)" style="fill:#009244"/>
                <path data-name="Path 59534" d="M2.509.76" transform="translate(.707 .919)" style="fill:#009244"/>
            </g>
        </g>
    </g>
</svg>
