<svg xmlns="http://www.w3.org/2000/svg" width="39.357" height="27.678" viewBox="0 0 39.357 27.678">
    <defs>
        <clipPath id="dfl7vquiya">
            <path data-name="Rectangle 19741" style="fill:#fff" d="M0 0h37.164v10.985H0z"/>
        </clipPath>
        <clipPath id="kgtsp2d59b">
            <path data-name="Rectangle 19741" style="fill:none" d="M0 0h39.357v10.985H0z"/>
        </clipPath>
        <clipPath id="7f7mzjv51c">
            <path data-name="Rectangle 19741" style="fill:none" d="M0 0h35.402v10.985H0z"/>
        </clipPath>
    </defs>
    <g data-name="Group 18254">
        <g data-name="Group 18480">
            <g data-name="Group 18477" transform="translate(0 8.694)" style="clip-path:url(#dfl7vquiya)">
                <path data-name="Path 59522" d="M9.884 3.328c.02.09.145.027.225.017.084-.044.269.087.274-.064 0-.1-.161-.074-.253-.077-.127-.01-.263.037-.245.124" transform="translate(10.289 7.527)" style="fill:#fff"/>
                <path data-name="Path 59523" d="M18.389 1.292c-.118.017-.239.03-.357.047a.314.314 0 0 0 .357-.047" transform="translate(18.775 3.037)" style="fill:#fff"/>
                <path data-name="Path 59524" d="M17.532 1.9c.069.064.165 0 .276-.06a1.356 1.356 0 0 0-.161-.013c-.059.007-.212-.017-.114.074" transform="translate(18.221 4.294)" style="fill:#fff"/>
                <path data-name="Path 59525" d="m17.608 2.312.49-.107c-.21-.017-.351-.054-.49.107" transform="translate(18.333 5.146)" style="fill:#fff"/>
                <path data-name="Path 59526" d="M10.2 3.252c-.016.037.027.04.08.057.031-.01.1-.013.116-.033s-.014-.064-.076-.067-.1 0-.12.044" transform="translate(10.616 7.539)" style="fill:#fff"/>
                <path data-name="Path 59527" d="M10.5 3.246c-.024.027.02.04.061.044.065 0 .131-.013.141-.067 0-.01-.061-.034-.084-.03a.233.233 0 0 0-.118.054" transform="translate(10.928 7.502)" style="fill:#fff"/>
                <path data-name="Path 59528" d="M36.635 7.557h-.425a2.355 2.355 0 0 0-.8.05.761.761 0 0 0-.4.044l-.082-.117a2.377 2.377 0 0 0 .792-.1 2.626 2.626 0 0 0-.876.064h-.008l-.233-.06.073-.107a2.589 2.589 0 0 1 .551-.174.364.364 0 0 0 .288-.077c-.108-.05-.184.007-.265.027.006-.033-.149-.07.018-.1.233-.044.076-.077-.016-.107a23.301 23.301 0 0 0-.488-.164c-.076-.02-.174.01-.231-.05.32-.074.529-.2.5-.452.227-.02.165-.288.467-.245-.082-.027-.163-.05-.245-.074a6.13 6.13 0 0 0 .231-.074c.131 0 .269.017.357-.084a1.114 1.114 0 0 0-.6-.01c-.065-.017-.163.013-.2-.057a2.224 2.224 0 0 0 .567-.161c.043 0 .086-.01.129-.017.182-.077.494 0 .559-.214v-.054l.11-.107.071-.057c.253-.037.133-.134.078-.221-.171-.208-.482-.127-.737-.164-.022.01-.006.023 0 .037v-.04l-.092-.111a.108.108 0 0 0-.053-.131c.106-.094.069-.141-.1-.147l.006-.094c.041-.013.176-.017.061-.064a.434.434 0 0 0-.337.044l.047.01c-.016 0-.024-.02-.047-.01-.049 0-.1.01-.145.017s-.1-.01-.157-.017l.163-.1a1.278 1.278 0 0 0 .457-.1c.055-.017.145 0 .153-.067.01-.1.031-.1.131-.157s.3-.044.359-.137c-.018-.127-.308.033-.269-.137.092-.037.155-.09.159-.167.088-.033.088-.074.02-.117.01-.107.029-.211.031-.315s.018-.224-.22-.228a.1.1 0 0 0-.069-.01 1.152 1.152 0 0 0-.919 0c-.116-.107-.118-.111.045-.151.143-.037.331-.02.374-.161a2.29 2.29 0 0 0 .653-.167l.563-.141a2.05 2.05 0 0 0-.549-.255c-.008-.07-.039-.131-.176-.114-.2-.05-.284-.114-.231-.281.073-.224-.235-.472-.6-.539a.9.9 0 0 0-.414.054 2.313 2.313 0 0 0-.647.06h-.149C33.857.793 33.6.89 33.49.8A10.276 10.276 0 0 0 35.2.451c-.341 0-.563.007-.786 0-.323-.007-.657.114-.965-.044h-.084C33.232.4 33.1.4 32.965.4A.143.143 0 0 0 32.9.394a3.132 3.132 0 0 0-.835-.1 3.532 3.532 0 0 0-.98-.107 9.352 9.352 0 0 0-2.1-.117 2.015 2.015 0 0 0-.618 0h-.2a.79.79 0 0 0-.388-.05h-2.324q-1.124-.035-2.243.01A3.668 3.668 0 0 0 22.2.073l-.076.047a1.587 1.587 0 0 0-1.006-.057l.029.02h-.014l.073.047a.13.13 0 0 0-.073-.047l-.014-.02c-.053 0-.106.01-.159.013a1.85 1.85 0 0 0-.731-.01h-.386c-.129 0-.267-.027-.4-.027C18.26.029 17.08.022 15.9.026a8.909 8.909 0 0 0-1.337.037 28.7 28.7 0 0 0-2.011.07 3.207 3.207 0 0 0-.761.044c.249 0 .5 0 .747.007a2.538 2.538 0 0 0-.748-.007c-.155 0-.312.01-.467.013a2.007 2.007 0 0 0-.6.04c-.149 0-.3.01-.451.013a3.178 3.178 0 0 0-.757.04c-.129 0-.257.007-.386.013a3.455 3.455 0 0 0-.833.044l-.147.01a2.37 2.37 0 0 0-.676.05.093.093 0 0 0-.067 0 2.7 2.7 0 0 0-.753.05l-.225.01a.7.7 0 0 1-.084 0 1.216 1.216 0 0 0-.415.04h-.02a2.121 2.121 0 0 0-.729.06 4.163 4.163 0 0 0-1.063.1c-.073 0-.147.01-.22.013l-.433.1.028.027.008.023-.057.01c.01-.02.027-.033.021-.053A9.154 9.154 0 0 0 2.169 1a.1.1 0 0 0-.069.007.205.205 0 0 0-.174.033c-.341.057-.68.127-1.025.174-.241.03-.314.121-.3.268-.1.067-.059.151-.065.228a.82.82 0 0 0-.061.446.76.76 0 0 0 0 .389.29.29 0 0 0 .055.275.309.309 0 0 0 0 .268c-.151.147.078.355-.163.486l.023.016-.023-.013c-.1.017-.2.037-.233.117-.09.067-.059.151-.071.228v.111c-.131.291 0 .586.01.878.027.02.053 0 .08 0H.069l.082.382c.027.09.051.184.076.278 0 .07.049.124.135.167v.151c-.12.111-.231.221.112.228l-.006-.05h.007c-.01.017-.022.03-.006.05.147.07.423-.107.49.114.053.007.065-.02.088-.044a.174.174 0 0 1 .071-.013l-.018.019c-.018 0-.035-.013-.057 0l-.088.04L.8 6.24a1.983 1.983 0 0 0-.6.033c-.092 0-.169.03-.176.084s.092.054.151.057c.251.017.5.027.757.04l.006.1h-.6c.143.194.423-.023.527.144l.029.01c-.01.01-.01.02-.024.027a.026.026 0 0 1 0-.037l-.39.03c-.11 0-.241-.04-.3.05-.022.033.067.037.114.047.225-.04.359.121.567.117a2.075 2.075 0 0 0 .112 1.26l.008.057-.006.171-.022.094.027.1-.008.01C1.018 8.6 1 8.562.947 8.528a.35.35 0 0 0-.055.342c-.208.238-.057.533-.263.77-.027.054-.1.107-.018.167l-.049.171c-.006.07-.01.141-.014.211s-.02.131.088.164a.128.128 0 0 1 .071.01c-.053.033-.106.064-.161.1-.014.111 0 .191.225.181.361-.013.725-.013 1.088-.02a3.1 3.1 0 0 0 .9-.04l.022.007.02-.01a2.819 2.819 0 0 0 .772.1 7.7 7.7 0 0 0 1.392.1 14.634 14.634 0 0 0 1.629.067h.082a2.559 2.559 0 0 0 .735.05h.486l-.08-.044h.008a.183.183 0 0 0 .071.047h.251l.97.02a4.276 4.276 0 0 0 .9.027c.057.02.076 0 .086-.033.137-.017.3.037.4-.074l.09.013c.247.124.5.228.747 0l.082-.05a.234.234 0 0 0 .067-.01c.051.02.1.04.155.057.02.067.061.1.178.111a3.088 3.088 0 0 0 .808-.05c.018-.02 0-.04-.006-.06h.012l-.006.06c.08.111.22.01.323.04h.592c.084 0 .186.04.239-.04a2.225 2.225 0 0 0 .963 0 .794.794 0 0 0 .408-.054c.118.094.233.2.427.067.037-.033.024-.057-.016-.084l.016.084c.106-.07.227.107.329-.01h.067c.274-.06.545.161.819 0 .053 0 .1 0 .157.007a.841.841 0 0 0 .408-.01l.323.02c.11-.037.478.037.167-.181h.248a2.3 2.3 0 0 0 .821.111c.11.047.22 0 .331 0h.139c.065.047.129.067.192 0 .094-.044.214-.08.073-.171v-.04c.108-.007.216-.013.325-.023a1.4 1.4 0 0 0 .67-.08c.073-.007.147-.013.218-.017a1.555 1.555 0 0 0 .171.057c.063.017.141.08.2.017s-.088-.07-.106-.121l-.01-.01c.245.007.488.01.733.017v.03l-.188.037a.3.3 0 0 0 .19.134c-.09.174.055.188.251.167l.165-.05c.088 0 .184.013.239-.057.2-.017.42.1.614-.023-.082-.1-.288-.047-.38-.137.212.01.327-.117.5-.157h.157c0 .107.061.161.229.161s.182-.077.186-.157l.241-.02c.014-.017 0-.027-.012-.04h.01v.04l.08.02c.033.047-.122.131.053.151s.2-.06.2-.154a.081.081 0 0 1 .073 0c.029.054.057.107.088.161l-.006.04c-.094.037-.249-.027-.318.111a.7.7 0 0 1 .525.054.33.33 0 0 0 .3-.033c.19-.01.382.077.565-.01.082 0 .171.013.225-.047.122-.03.094-.1.106-.164.055-.007.11-.01.167-.013a.23.23 0 0 0 .206-.04l.057-.023c-.02.007-.045.007-.057.023.153.084.329-.007.494-.007.057.007.12 0 .169.047.125.1-.169.04-.092.131.171-.013.386.02.357-.181.214.013.392.211.639.057.118.017.233.1.357.007.073 0 .147-.01.22-.017h.084c.206 0 .443.074.576-.107V10.3h.014c-.035.033-.053.07-.014.107.18.054.367.151.49-.047.018-.023 0-.04-.014-.057h.014v.057a.516.516 0 0 0 .423.007l.392-.01a.652.652 0 0 0 .335-.057h.241c.135-.054.271-.107.406-.164.163-.037.325.124.49 0a4.05 4.05 0 0 1-.084-.111v-.057c.092-.04.225-.047.274-.131-.106-.07-.184.007-.274.02h-.08v-.1a1.542 1.542 0 0 1 .169-.06c.18-.06.4.05.569-.06.137-.084.4 0 .478-.161a.757.757 0 0 0 .488-.057h-.484a.211.211 0 0 1 .161-.057c.086-.023.174-.05.325-.1-.169-.01-.259-.02-.32.044a.585.585 0 0 1-.078 0c0-.084.194-.171.006-.258.106 0 .21-.01.316-.013.065.04.01.161.1.137.139-.034.01-.117 0-.181a7.252 7.252 0 0 0 1.112-.2c-.333-.06-.59.157-.876.027a4.1 4.1 0 0 0 .649-.161c.186-.037.439.023.508-.171.043-.01.1-.01.084-.057.1 0 .2 0 .3.007.192.111.339-.01.51-.047-.188.02-.335-.074-.514-.064a.428.428 0 0 0-.325.054h-.316l-.086-.054c.063-.007.133-.007.157-.057a4.794 4.794 0 0 0 1.068-.221l.161-.01a.376.376 0 0 0 .19-.188c-.116-.047-.184.02-.267.04a.9.9 0 0 0-.094 0 .564.564 0 0 0-.31.05c-.135 0-.267 0-.4.007a.423.423 0 0 0-.247-.067l.092-.1c.184-.114.457.013.637-.111.21 0 .418-.01.629-.013.178.037.329-.054.5-.054.078-.044.229.02.292-.077-.125-.037-.216-.037-.286.033zm-34.017 2.7-.029-.013h.027v.013M.228 4.7v-.01l.004.01M28.3 10.34v.007-.007m-.323-.194v-.013.013M1.345 9.8h.02-.02M21.941.237v-.02.02M2.759 9.865h-.008.01v.007M1.92 5.741v-.007h.016l-.014.007M27.533.826a.841.841 0 0 0-.133.007h.006c.041 0 .082-.01.125-.007m6.814 4.087h-.008.012a.114.114 0 0 0 .082 0h-.082M3.241 8.1h-.047l.016-.007c.008 0 .02 0 .031.007m29.842-5.059a.15.15 0 0 1-.039 0c.012-.017.031-.017.045-.03 0 .013-.008.017-.006.03m-3.374 6.8h.012a.11.11 0 0 0 .053.017c-.018-.01-.035-.027-.065-.017M11 9.8zM2.241 7.691l.043.007-.059.01.016-.017M18.409.759a1.045 1.045 0 0 1-.231 0l.09-.007a.982.982 0 0 1 .141 0m6.226.194zm7.84 3.685c0 .01.014.017.016.03-.01-.01-.006-.02-.018-.027zm-10.7 4.288v-.01.01m-16.9.549.025-.005-.01.013h-.014m20.565-.791a.186.186 0 0 1 .1.007.527.527 0 0 0-.1-.01M4.3 9.262v-.007zm.276-2.184a.6.6 0 0 0 .078 0 .6.6 0 0 1-.078 0m-1.751-1.94h-.027.033l-.008.007m8.563 4.211-.02-.033a.173.173 0 0 0 .041-.007c-.014.013-.008.03-.02.04m-5.529-7.25h-.082l.024-.013c.018.01.039 0 .057.013m7.513-.666zm12.606-.24a.22.22 0 0 0-.047 0 .22.22 0 0 1 .047 0M15 1.316v.02-.02M5.119 2.542l.008.007h-.012zM23.551 1.983a.538.538 0 0 0-.073 0H23.551m5.593.164a.61.61 0 0 0-.137-.027.481.481 0 0 1 .137.027m-14.46-.372h.022zm4.111.084.01.013h-.022l.012-.013M4.735 3.483h.01l-.02.02-.01-.017h.02m23.065.945a.2.2 0 0 0-.045 0h.043M14 7.938h-.012.035-.022m12.76-3.464h.008-.008M13.81 7.9h.053a.134.134 0 0 1-.053 0M8.714 3.48h-.023l.009-.007.014.007M16.636 3.591a.164.164 0 0 0 .094.033c-.031-.01-.063-.02-.094-.033m-8.444.017h.043-.006c-.012 0-.029 0-.037-.007M18.348 7zm-5.879-2.7h.01-.014m3.537-.054h-.029.024m2.1-.553h.01-.006m2.366-.054zm-1.29.606h-.016.016m.88-.549-.037-.007h.014l.022.01M20.875 5.35h.025-.02M18.726 6.4a.094.094 0 0 1 .031 0v.007l-.029.007v-.007m.753-2.918-.006-.007.016.007h-.01m-8.889.389h.008-.01m0 .271c.055-.023.045-.05.055-.077 0 .02-.012.044-.041.064l-.012.01v.007h.01l-.01.023v-.03l-.008-.007h.012m1.984.2.039.007h-.073l.035-.007m5.86 1.33c.01-.007.024 0 .035-.007h.024-.059m1.631-2.3v-.017l.01.017h-.008m-11.7.281h.027H8.375m5.85 3.293.008.007h-.039.02m8.144-.322h-.008.018l-.01.007M22.43 3.7h.016l-.008.007h-.008m-2.372-.372v-.01a.06.06 0 0 0 .024 0l-.022.01M12.065 4.91h.006-.01m6.2 2.419c-.031-.037-.078-.01-.118-.013a.465.465 0 0 1 .118.013m5.389-3.35a.22.22 0 0 1 .047 0c-.014.007-.033 0-.047.01v-.01m2.615-.5zm-4.455.011-.033-.01h.022l.01.013M9.285 3.426h-.012.012zM6.754 3.7zm2.2.66h.006m2.77.44zm1.637 3.189h-.024.02m10.31-3.849h-.018v-.121l.01.01h-.01c-.039.04-.016.077.018.111m4.793-.8-.008.037h-.016a.057.057 0 0 0 .02-.04m-6.691-.033h.014-.01m-.569-.268zm-13.393.226v-.01.007zM6.176 3.7h.006m-1.055.221-.027.018v-.017h.024m11.958 3.742-.012.013c-.006-.01-.02 0-.024-.017h.037m6.662-1.152v-.007h.006v.007m2.758-2.665.02-.007.012.01h-.033m1.9-.573-.01-.007.031-.013-.02.02m-3.354.02V3.3h-.012l.006-.017h.006m-7.679-.854zM7 3.208h-.022L6.962 3.2 7 3.208m.735 1.538h.01l-.008.007v-.007m5.96.881v.007h-.018l.018-.007m.816 2.308h.014l-.006.007-.008-.007m.949-.02.031.02h-.022l-.008-.02m6.611-.636c.016 0 .014.01.039.01h-.037v-.01m-.049-.111a5.754 5.754 0 0 0 1.047 0 2.753 2.753 0 0 0-1.047 0m6.436-2.65c.008-.01.02-.007.029-.013l.01.01h-.039m-1.542-.375zm-4.472-1.655.01.007h-.016.006m-6.634.908.006.03h-.008v-.033m-.4.03c.018 0 .029-.017.047-.02-.01.009-.033.009-.041.022zM5.527 4.471zm2.023.278h.022v.023H7.56l-.008-.02m3.531.492v.03-.03zm3.348.328c-.029 0-.037.023-.061.027.016-.01.043-.017.053-.03h.008m-.906.1.006.007h-.016l.01-.01m13.8-1.588c.02-.013.055-.007.076-.017l.006.017h-.082M7.25 2.659h-.008.012m-2.458 1.8h.02l-.018.013v.007l-.016-.007h.016zm0 .111h-.01c.008-.017.02-.03.006-.047h-.016l.018-.023v.071m0 .114-.008.007v-.006H4.8m2.858.248h-.006V4.91h.01v.023m2.925 1.957h.008m7.389 1.373V8.24c.016.007.024.02.047.023a.2.2 0 0 1-.045 0m11.221-3.738v.007-.007m-.814-.439a.57.57 0 0 0 .076 0 .454.454 0 0 1-.069.014l-.006-.01m1.548-.49v-.01m-.4-.013-.014-.044a.062.062 0 0 0 .018.05zM19.258 1.939l.012.017-.024-.013h.012M15.4 3.091h.014l-.039.007.024-.01m-7.818-.416-.01-.017h.016l-.006.017m-.018-.127zM4.55 4.585zm4.411 1.1V5.66v.02m-.48 1.41c0-.007-.006-.017.01-.013h.1c-.039.007-.076 0-.112.013m.314.02v.007c-.035-.017-.076 0-.112-.007zM7.726 8.258h.006-.008zm3.5.211.012.01h-.027l.014-.01m3.566.02h.038-.012c.012-.007 0-.017 0-.027h.008v.027l.039.01c-.02 0-.047-.007-.065 0a.135.135 0 0 1-.037 0h.024m12.3-2.43h.006m-8.083-4.341L19 1.721h.008v.007m-4.617.948h-.09.088c-.027-.033.057 0 0 .007M7.882 2.278v-.01l.018.01zm-4.244 2.1zm4.492 2.06.012.013h-.014v-.013m-.206.127c-.02.01-.051.007-.063.023-.029-.02-.063-.007-.094-.02h.157m.872.583v.017h-.01l.016-.02m3.348 1.611.008.037-.035-.037h.027m17.304-1.976zm.325-2.583h.012v.007l-.01-.007M10.02 2.052h-.006zm-1.72.433v.007zM7.382 5.691v-.013H7.4l-.022.01m-.19.74-.024.01-.024-.01h.053m6.42 2.385zm9.634-.827h.078a.212.212 0 0 0-.08 0zm5.307-1.648.031-.007c.012.007.029 0 .043.01a.555.555 0 0 0-.073 0M29.86 4.3c.01 0 0-.01 0-.017zm.74-2.08h-.006.008m-6.213-.114zm-6.773-.66c-.031-.01-.035.013-.051.02l-.031-.02h.082m-4.082.385-.035.023.035-.023m.578.553h-.008.008v.007m-3.682.107-.049-.007a.246.246 0 0 0 .049-.007v.013m-.89-.549-.024.007-.016-.013zm-2.129.212zm-1.241.167h.008-.01m-3.417.221-.041.007.031-.013.01.007M3.9 4.91h-.042v-.007c.012 0 .024 0 .035.007m4.382 3.863c.008.017.027.023.031.044h-.023c0-.02-.008-.027-.008-.044m1.419.208L9.685 9v-.017zm4.082 0zm5.26.275h.045v.007a.068.068 0 0 0-.045 0m4.478-.863.018.033h-.041l.022-.033m4.87-.9.041.01-.014.007c-.008-.01-.018 0-.027-.017m2.956-3.012.01-.02h.065c-.02.02-.051.013-.076.02m-.18-2.057-.024-.007c-.018 0-.033 0-.024-.02zM23.694 1.9c.049.007.082 0 .125 0a.1.1 0 0 0-.035.027.364.364 0 0 1-.09-.03m-9.837-.563h-.012l-.008-.007h.02M15.245 2h-.01a.288.288 0 0 1-.053 0zm-7.92.167c.018-.047-.012-.08-.073-.1l.076.1M5.039 5.185l-.006.007v-.007h.006m4.55 4.124c.014-.007.014-.02.022-.03v.03h-.022M30.34 5.784l-.008-.017.006-.017v.01c.045-.02 0 .04 0 .023m-3.346-3.848H27h-.008m-2.76-.214-.006.01v-.01zm-12.916-.057h-.135a.9.9 0 0 0 .135 0m-7.251.606c.053 0 .082-.027.122-.04a.351.351 0 0 0-.122.04m-.5.224v-.013l.01.013zm0-.05v-.006a.071.071 0 0 1 .027 0l-.027.007m-1.631 1.7v.013l-.008-.013zm-.325.385zm.08.218zm3.57 3.675.02.007h-.017v-.007m18.838.152-.018.017a.308.308 0 0 1-.053-.013h.071m7.581-4.2-.024-.017h.029v.017m.227-1.564.018.01H31.9l.006-.01m-.823-.707.008-.017.01.017h-.018m-2.123-.275zm-.082 0h-.027a.071.071 0 0 1 .027 0m-1.96-.218zm-8-.278-.022-.02c.014 0 .014.017.029.02h-.005M5.2 1.553zm-1.719 7.1h-.01l.01-.023v.023m.731.714v-.01m9.363.2a.18.18 0 0 1-.029.044.083.083 0 0 1 .033-.044m17.833-3.712.018-.013v.013h-.018m-4.491-4.62h.008-.01M21.577.914l-.035-.007a.734.734 0 0 0 .086 0c-.016 0-.024.013-.051.01M18.044.9h-.022.02m-.178-.11h-.006a1.155 1.155 0 0 0 .186-.013.816.816 0 0 0-.18.017m-3.678.281v-.007h.012l-.008.007m-4.431.338h.018-.022M6.4 1.835h.022H6.4M2.331 5.3h.014-.01m.81.6h.018-.014m-.472.332h.008c-.01.013 0 .027 0 .04v-.04m2.515.162-.033.027.006-.027H5.2m-.569.278h-.012.012zM3.078 8.853l.008.017h.082c-.018.007-.033 0-.051.01s-.012-.017-.031-.01H3.07l.008-.013m.306.657h.027a.148.148 0 0 0-.059.02.138.138 0 0 1 .028-.024m15.458.29-.033.044c.01-.013.037-.023.033-.044M32.33 4.468h-.02.02M3.245 2.049v-.01l.006.007M.957 4.032zm2.109 1.43h.016-.02M2 7.436a.168.168 0 0 0-.061-.013.376.376 0 0 0 .061.013m.968 1.2a.3.3 0 0 0-.145.01.681.681 0 0 1 .143-.007m4.378 1.118h.012-.02.008m17.128-.415-.047.007.047-.007m5.307.023.01-.007h-.012m1.394-8.083zM7.245 1.433V1.4h.005l-.006.033m-5.124.291v.01l-.02-.01h.02M1.055 5.476c.027.017.045.033.041.044l-.043-.044m1.4 3.558H2.5a.114.114 0 0 0-.047 0m.047.606zm8.085.5zm5.474.238h.006m3.58-.084.008.01h-.033l.027-.01m1.047-.375h.022-.022m.772.288h.006m.961-.178h.006v.02-.02m0-.221.016-.007c.014.01.033.01.047.02-.02-.007-.045-.007-.063-.013m2.682.379h.01-.006m.174-.01c-.018 0-.035.007-.051 0h.051m5.064-.864h.006-.019M31.981 5.9a.15.15 0 0 0 .037-.01v.007c-.012 0-.024.007-.039 0m.912-1.256-.012-.007h.01v.007M21.665.25l-.014-.006h.049c-.012.007-.027 0-.039.007m-2.245.371v.007l-.007-.007h.006M11.432.88l.024-.02v.02h-.02m-7.712.375a.38.38 0 0 1-.061-.007h.061v.01M2.433 6.672l.155.054-.022.007a.124.124 0 0 0-.133-.06m8.512 3.517h-.029.024zm14.347-.01-.006.007v-.007m1.2.064zm3.052-.178h-.008.008m.237-.007-.01-.013v-.013l.006.027v.017l-.02-.017h.016m2.741-1.491a.1.1 0 0 0-.035-.06c.02.023.037.044.035.06M33.602 5.46h.018-.018m.737-.382.006-.007v.007m-.316-.66-.012.01v-.01zm-.831-1.923h.006-.008M32.8 1.118h-.006.008M20.873.307V.3h.006v.007M5.691.84 5.7.833V.84h-.009m-.162.017a.069.069 0 0 0 0 .1v-.1M2 8.535l.02.007h-.01L2 8.535m.59 1.655h.027c-.018.017-.043.03-.027.054v-.054m2.3-.278h-.008.01m6.032.61-.008.007v-.01h.008m13.074-.439v.007-.007h.008m.888.214v.006-.007zm2.629-.141-.02-.013h.02v.013m3.086-.08h.014-.023zm3.1-1.652-.01-.007h.02l-.01.007m.825-.878zm.323-1.273v.01h-.006v-.01m-1.235-1.909zm-.288-2.013-.008-.01h.024l-.016.007M32.73.9v.013L32.718.9h.012M27.9.823V.81l.031.007-.031.006M27.635.23zm-4.152 0 .035-.013V.23h-.033M12.551.237zM1.637 1.346a.138.138 0 0 1-.094-.054c.016.033.059.037.094.054M.824 5.084c-.031-.017-.076-.03-.076-.033 0-.02-.02-.027-.022-.044a1 1 0 0 0 .1.077M1.61 10.247c.008-.01.022-.007.033-.013a.181.181 0 0 0 .155.05v.007c-.061-.017-.122-.03-.184-.044m11.437.439h.024-.022m2.584-.031-.029-.017c.014 0 .018.013.029.017m7.593-.4h.016l-.006.084c.039-.03.012-.057-.01-.084m2.472.191-.012-.027h.01l-.006-.017h.016l-.01.02v.027m2.927-.194h.02v.01l-.016.007v-.017m.439.037zm.053-.147h.008v.044a.04.04 0 0 0-.008-.044M34.042 8.286h.008v.007h-.012m.572-.566h-.01.01zm-.024-1.193h.008l-.022.017.014-.017M21.2.16v.017V.16M9.836.324a.5.5 0 0 1 .1 0c-.035-.007-.071 0-.106 0h.006M7.044.448c-.014-.03.016 0 0 .02h-.016c.014 0 .02-.01.016-.02m-5.417.77v.007H1.61l.016-.007M.632 1.5.6 1.486l.032.014m-.006.606H.618h.008m0 .576v.023l-.012-.016.016-.007M1.2 8.87v.013l-.01-.013zm8.33 2.03zm1.451-.05c.01-.013.018-.023.012-.04H11v.04z" transform="translate(0 .002)" style="fill:#fff"/>
                <path data-name="Path 59529" d="M15.671 3.019c.047.02.076.044.1.044s.049-.023.076-.037a.218.218 0 0 0-.08-.044c-.022 0-.055.02-.1.037" transform="translate(16.317 7.008)" style="fill:#fff"/>
                <path data-name="Path 59530" d="M11.529 3.216c-.016.044.041.057.114.067.027-.017.1-.037.1-.057 0-.044-.071-.04-.118-.04s-.09.017-.094.03" transform="translate(12.001 7.488)" style="fill:#fff"/>
                <path data-name="Path 59531" d="M16.166 3.017c.169-.047.235-.067.3-.084-.084-.037-.161-.04-.3.084" transform="translate(16.832 6.842)" style="fill:#fff"/>
                <path data-name="Path 59532" d="M16.389 3.114c.016.04.1.047.214.02a1.007 1.007 0 0 0-.114-.054c-.047-.01-.135-.05-.1.033" transform="translate(17.056 7.198)" style="fill:#fff"/>
                <path data-name="Path 59533" d="m18.058 2.2.073.064.082-.047c-.024-.017-.045-.044-.071-.047s-.055.02-.084.03" transform="translate(18.802 5.11)" style="fill:#fff"/>
                <path data-name="Path 59534" d="M2.51.76" transform="translate(2.611 1.787)" style="fill:#fff"/>
            </g>
        </g>
        <g data-name="Group 18478">
            <g data-name="Group 18477" style="clip-path:url(#kgtsp2d59b)">
                <path data-name="Path 59522" d="M9.884 3.328c.022.09.153.027.238.017.089-.044.285.087.29-.064 0-.1-.171-.074-.268-.077-.134-.01-.279.037-.259.124" transform="translate(11.48 7.527)" style="fill:#f7931d"/>
                <path data-name="Path 59523" d="M18.41 1.292c-.125.017-.253.03-.378.047a.348.348 0 0 0 .378-.047" transform="translate(20.947 3.037)" style="fill:#f7931d"/>
                <path data-name="Path 59524" d="M17.534 1.9c.073.064.175 0 .292-.06a1.519 1.519 0 0 0-.171-.013c-.063.007-.225-.017-.121.074" transform="translate(20.329 4.294)" style="fill:#f7931d"/>
                <path data-name="Path 59525" d="m17.608 2.312.519-.107c-.223-.017-.372-.054-.519.107" transform="translate(20.454 5.146)" style="fill:#f7931d"/>
                <path data-name="Path 59526" d="M10.2 3.252c-.017.037.028.04.084.057.032-.01.106-.013.123-.033s-.015-.064-.08-.067-.108 0-.128.044" transform="translate(11.844 7.539)" style="fill:#f7931d"/>
                <path data-name="Path 59527" d="M10.5 3.246c-.026.027.022.04.065.044.069 0 .138-.013.149-.067 0-.01-.065-.034-.089-.03a.253.253 0 0 0-.125.054" transform="translate(12.192 7.502)" style="fill:#f7931d"/>
                <path data-name="Path 59528" d="M38.8 7.557h-.45a2.637 2.637 0 0 0-.845.05.85.85 0 0 0-.422.044c-.028-.04-.058-.077-.086-.117a2.657 2.657 0 0 0 .839-.1 2.94 2.94 0 0 0-.927.064H36.9l-.246-.06.078-.107a2.86 2.86 0 0 1 .584-.174.4.4 0 0 0 .3-.077c-.115-.05-.195.007-.281.027.006-.033-.158-.07.019-.1.246-.044.08-.077-.017-.107a25.72 25.72 0 0 0-.517-.164c-.08-.02-.184.01-.244-.05.339-.074.56-.2.527-.452.24-.02.175-.288.5-.245-.086-.027-.173-.05-.259-.074.08-.023.162-.047.244-.074.138 0 .285.017.378-.084a1.247 1.247 0 0 0-.638-.01c-.069-.017-.173.013-.21-.057a2.463 2.463 0 0 0 .6-.161c.045 0 .091-.01.136-.017.192-.077.523 0 .592-.214v-.054l.117-.107.076-.057c.268-.037.141-.134.082-.221-.182-.208-.51-.127-.78-.164-.024.01-.006.023 0 .037v-.04l-.1-.111a.106.106 0 0 0-.056-.131c.112-.094.073-.141-.106-.147l.006-.094c.043-.013.186-.017.065-.064a.484.484 0 0 0-.357.044l.05.01c-.017 0-.026-.02-.05-.01-.052 0-.1.01-.153.017s-.11-.01-.166-.017l.173-.1a1.422 1.422 0 0 0 .484-.1c.058-.017.153 0 .162-.067.011-.1.032-.1.138-.157s.313-.044.38-.137c-.019-.127-.326.033-.285-.137.1-.037.164-.09.169-.167.093-.033.093-.074.022-.117.011-.107.03-.211.032-.315s.019-.224-.233-.228a.108.108 0 0 0-.073-.01 1.287 1.287 0 0 0-.973 0c-.123-.107-.125-.111.048-.151.151-.037.35-.02.4-.161a2.541 2.541 0 0 0 .682-.172l.6-.141a2.233 2.233 0 0 0-.581-.255c-.009-.07-.041-.131-.186-.114-.208-.05-.3-.114-.244-.281.078-.224-.249-.472-.631-.539a1.01 1.01 0 0 0-.439.054 2.588 2.588 0 0 0-.685.06h-.158c-.021-.161-.291-.064-.41-.154a11.45 11.45 0 0 0 1.813-.349c-.361 0-.6.007-.832 0a2.336 2.336 0 0 1-1.022-.043h-.089C35.193.4 35.053.4 34.91.4a.16.16 0 0 0-.069-.007 3.5 3.5 0 0 0-.884-.1 3.951 3.951 0 0 0-1.038-.11 10.48 10.48 0 0 0-2.224-.117 2.259 2.259 0 0 0-.655 0h-.208a.883.883 0 0 0-.411-.05h-2.464q-1.19-.035-2.376.01a4.11 4.11 0 0 0-1.074.047L23.43.12a1.774 1.774 0 0 0-1.066-.057l.03.02h-.015l.078.047a.138.138 0 0 0-.078-.047l-.015-.02c-.056 0-.112.01-.169.013a2.073 2.073 0 0 0-.774-.01h-.409c-.137 0-.282-.03-.423-.03-1.252-.007-2.5-.013-3.753-.01a9.988 9.988 0 0 0-1.416.037c-.711 0-1.42.023-2.129.07a3.593 3.593 0 0 0-.806.044c.264 0 .527 0 .791.007a2.845 2.845 0 0 0-.791-.007c-.164 0-.331.01-.5.013a2.247 2.247 0 0 0-.638.04c-.158 0-.318.01-.478.013a3.561 3.561 0 0 0-.8.04C9.935.287 9.8.29 9.662.3a3.872 3.872 0 0 0-.882.041l-.156.01A2.654 2.654 0 0 0 7.913.4a.1.1 0 0 0-.071 0 3.023 3.023 0 0 0-.8.05l-.238.01a.784.784 0 0 1-.089 0 1.36 1.36 0 0 0-.436.04h-.021a2.374 2.374 0 0 0-.772.06 4.659 4.659 0 0 0-1.126.1c-.078 0-.156.01-.233.013l-.458.1L3.7.8l.013.023-.061.01c.006-.02.024-.03.017-.054A10.216 10.216 0 0 0 2.3 1a.109.109 0 0 0-.073.007.228.228 0 0 0-.184.033c-.361.057-.72.127-1.085.174-.255.03-.333.121-.316.268-.106.067-.063.151-.069.228a.779.779 0 0 0-.065.446.719.719 0 0 0 0 .389.278.278 0 0 0 .058.275.293.293 0 0 0 0 .268c-.16.147.082.355-.173.486l.024.013-.028-.01c-.11.017-.214.037-.246.117-.1.067-.063.151-.076.228v.111c-.138.291 0 .586.011.878.028.02.056 0 .084 0H.073l.086.382c.028.09.054.184.08.278 0 .07.052.124.143.167v.151C.25 6 .134 6.109.5 6.116l-.01-.05H.5c-.007.017-.02.034 0 .05.156.07.447-.107.519.114.056.007.069-.02.093-.044a.193.193 0 0 1 .076-.013l-.015.017c-.019 0-.037-.013-.061 0l-.093.04-.171.01a2.221 2.221 0 0 0-.633.033c-.1 0-.179.03-.186.084s.1.054.16.057c.266.017.534.027.8.04l.006.1H.361c.151.194.447-.023.558.144l.03.01c-.011.01-.011.02-.026.027a.025.025 0 0 1 0-.037l-.413.03c-.117 0-.255-.04-.322.05-.028.038.067.042.112.052.238-.04.38.121.6.117a1.967 1.967 0 0 0 .119 1.26l.009.057-.006.171L1 8.528l.028.1-.009.01c.056-.044.032-.077-.019-.111a.334.334 0 0 0-.058.342c-.22.238-.061.533-.279.77-.028.054-.1.107-.019.167l-.052.171c-.006.07-.011.141-.015.211s-.022.131.093.164a.143.143 0 0 1 .076.01c-.056.033-.112.064-.171.1-.015.111 0 .191.238.181.383-.013.767-.013 1.152-.02a3.47 3.47 0 0 0 .951-.04l.024.007.022-.01a3.152 3.152 0 0 0 .817.1 8.621 8.621 0 0 0 1.474.1 16.406 16.406 0 0 0 1.725.067h.086a2.867 2.867 0 0 0 .778.05h.514l-.084-.044h.009a.2.2 0 0 0 .076.047h.266l1.027.02a4.794 4.794 0 0 0 .955.027c.061.02.08 0 .091-.033.145-.017.318.037.424-.074l.1.013c.262.124.525.228.791 0l.086-.05a.262.262 0 0 0 .071-.01c.054.02.11.04.164.057.022.067.065.1.188.111a3.459 3.459 0 0 0 .856-.05c.019-.02 0-.04-.006-.06h.013l-.006.06c.084.111.233.01.342.04h.627c.089 0 .2.04.253-.04a2.493 2.493 0 0 0 1.02 0 .886.886 0 0 0 .432-.054c.125.094.246.2.452.067.039-.033.026-.057-.017-.084l.017.084c.112-.07.24.107.348-.01h.071c.29-.06.577.161.867 0 .056 0 .11 0 .166.007a.942.942 0 0 0 .432-.01l.342.02c.117-.037.506.037.177-.181h.264a2.571 2.571 0 0 0 .869.111c.117.047.233 0 .35 0h.147c.069.047.136.067.2 0 .1-.044.227-.08.078-.171v-.04c.115-.007.229-.013.344-.023a1.561 1.561 0 0 0 .709-.08c.078-.007.156-.013.231-.017a1.716 1.716 0 0 0 .182.057c.067.017.149.08.21.017s-.093-.07-.112-.121l-.011-.01c.259.007.517.01.776.017v.03l-.2.037a.313.313 0 0 0 .2.134c-.1.174.058.188.266.167l.175-.05c.093 0 .195.013.253-.057.216-.017.445.1.651-.023-.086-.1-.3-.047-.4-.137.225.01.346-.117.532-.157h.166c0 .107.065.161.242.161s.192-.077.2-.157l.255-.02c.015-.017 0-.027-.013-.04h.011v.04l.084.02c.035.047-.13.131.056.151s.216-.06.212-.154a.09.09 0 0 1 .078 0c.03.054.061.107.093.161l-.006.04c-.1.037-.264-.027-.337.111a.777.777 0 0 1 .556.054.367.367 0 0 0 .313-.033c.2-.01.4.077.6-.01.086 0 .182.013.238-.047.13-.03.1-.1.112-.164a2.54 2.54 0 0 1 .177-.013.255.255 0 0 0 .218-.04l.061-.023c-.022.007-.048.007-.061.023.162.084.348-.007.523-.007.061.007.128 0 .179.047.132.1-.179.04-.1.131.182-.013.409.02.378-.181.227.013.415.211.677.057.125.017.246.1.378.007.078 0 .156-.01.233-.017h.089c.218 0 .469.074.61-.107V10.3h.015c-.037.033-.056.07-.015.107.19.054.389.151.519-.047.019-.023 0-.04-.015-.057h.015v.057a.576.576 0 0 0 .447.007l.415-.01a.727.727 0 0 0 .355-.057h.255c.143-.054.287-.107.43-.164.173-.037.344.124.519 0-.03-.037-.061-.074-.089-.111v-.057c.1-.04.238-.047.29-.131-.112-.07-.195.007-.29.02h-.084v-.1a1.7 1.7 0 0 1 .179-.06c.19-.06.424.05.6-.06.145-.084.422 0 .506-.161a.845.845 0 0 0 .517-.057h-.512a.231.231 0 0 1 .171-.057c.091-.023.184-.05.344-.1-.179-.01-.275-.02-.339.044a.656.656 0 0 1-.082 0c0-.084.205-.171.006-.258.112 0 .223-.01.335-.013.069.04.011.161.106.137.147-.034.011-.117 0-.181a8.091 8.091 0 0 0 1.178-.2c-.352-.06-.625.157-.927.027a4.55 4.55 0 0 0 .687-.161c.2-.037.465.023.538-.171.045-.01.1-.01.089-.057.106 0 .212 0 .318.007.2.111.359-.01.54-.047-.2.02-.355-.074-.545-.064a.475.475 0 0 0-.344.054h-.335l-.091-.054c.067-.007.141-.007.166-.057a5.338 5.338 0 0 0 1.131-.221l.171-.01a.387.387 0 0 0 .2-.188c-.123-.047-.195.02-.283.04h-.1a.629.629 0 0 0-.329.05c-.143 0-.283 0-.424.007a.468.468 0 0 0-.262-.067l.1-.1c.195-.114.484.013.674-.111.223 0 .443-.01.666-.013.188.037.348-.054.527-.054.082-.044.242.02.309-.077a.292.292 0 0 0-.3.033zm-36.024 2.7-.03-.013h.028v.013M.242 4.7v-.01l.004.01m29.729 5.64v.007h-.006v-.007m-.342-.194v-.013.013M1.424 9.8h.022-.022M23.235.237v-.02.02M2.922 9.865h-.009.011v.007m-.89-4.131v-.007h.017l-.015.007M29.158.826a.942.942 0 0 0-.138.007h.006c.043 0 .086-.01.132-.007m7.216 4.087h-.009.013a.128.128 0 0 0 .086 0h-.086M3.432 8.1h-.05l.018-.007c.009 0 .022 0 .032.007m31.6-5.058a.168.168 0 0 1-.041 0c.013-.017.032-.017.048-.03 0 .013-.009.017-.006.03m-3.573 6.8h.013a.121.121 0 0 0 .056.017c-.019-.01-.037-.027-.069-.017M11.649 9.8zM2.373 7.691l.045.007-.063.01.017-.017M19.5.759a1.171 1.171 0 0 1-.244 0l.1-.007a1.1 1.1 0 0 1 .149 0m6.593.194zm8.3 3.685c0 .01.015.017.017.03-.011-.01-.006-.02-.019-.027zm-11.34 4.296v-.01.01m-17.894.549.028-.013-.011.013h-.017m21.779-.791a.208.208 0 0 1 .11.007.59.59 0 0 0-.108-.01m-22.39.576v-.007zm.292-2.184a.674.674 0 0 0 .082 0 .674.674 0 0 1-.082 0M2.991 5.138h-.028.035l-.009.007m9.068 4.211-.022-.033a.193.193 0 0 0 .043-.007c-.015.013-.009.03-.022.04M6.2 2.106h-.083l.026-.013c.019.01.041 0 .061.013m7.955-.667zm13.35-.239a.247.247 0 0 0-.05 0 .247.247 0 0 1 .05 0M15.885 1.315v.02h-.009v-.02M5.421 2.542l.009.007H5.417zm19.519-.56a.6.6 0 0 0-.078 0h.078m5.923.164a.68.68 0 0 0-.145-.027.535.535 0 0 1 .145.027M15.55 1.775h.024zm4.354.084.011.013h-.024l.013-.013M5.015 3.483h.011L5 3.5l-.011-.017h.022m24.422.948a.226.226 0 0 0-.048 0h.045M14.824 7.938h-.013.037-.024m13.513-3.463h.009-.009M14.625 7.9h.056a.15.15 0 0 1-.056 0M9.228 3.48H9.2l.009-.007.015.007M17.613 3.591a.18.18 0 0 0 .1.033c-.032-.01-.067-.02-.1-.033m-8.943.017h.045-.006c-.013 0-.03 0-.039-.007M19.431 7zm-6.226-2.7h.011-.015m3.746-.054h-.03.026m2.23-.546h.011-.006m2.505-.054zm-1.366.606H20.3h.018m.932-.549-.039-.007h.015l.024.01M22.117 5.357h.024-.022M19.831 6.4a.105.105 0 0 1 .032 0v.007l-.03.007v-.007m.8-2.918-.006-.007.017.007h-.011m-9.414.389h.006-.011m0 .271c.058-.023.048-.05.058-.077 0 .02-.013.044-.043.064l-.013.01v.007h.011l-.011.023v-.03L11.2 4.14h.013m2.1.2.041.007h-.078l.037-.007m6.206 1.33c.011-.007.026 0 .037-.007h.026-.063m1.727-2.3v-.017l.011.017h-.009m-12.392.284h.028-.028m6.2 3.293.009.007h-.03.022m8.625-.322h-.009.019l-.011.007m.073-2.932h.017l-.009.007h-.009m-2.512-.372v-.01a.068.068 0 0 0 .026 0l-.024.01M12.777 4.91h.006-.011m6.565 2.419c-.032-.037-.082-.01-.125-.013a.52.52 0 0 1 .125.013m5.707-3.35a.246.246 0 0 1 .05 0c-.015.007-.035 0-.05.01v-.01m2.769-.5zM23.1 3.49l-.035-.01h.024l.011.013M9.833 3.426H9.82h.013zm-2.68.274zm2.335.66h.006m2.936.439zm1.734 3.189h-.034.022M25.07 4.14h-.019v-.121l.011.01h-.011c-.041.04-.017.077.019.111m5.076-.8-.009.037h-.017a.056.056 0 0 0 .022-.04m-7.082-.028h.015-.015m-.6-.268zm-14.186.221v-.01.007zM6.541 3.7h.006m-1.118.221-.029.018v-.017h.026M18.084 7.664l-.013.013c-.006-.01-.022 0-.026-.017h.039m7.056-1.152v-.007h.006v.007m2.92-2.665.022-.007.013.01h-.035m2.015-.573-.011-.007.032-.013-.022.02m-3.552.02V3.3h-.013l.006-.017h.006m-8.132-.854zm-10.983.779h-.024L7.373 3.2l.039.01m.778 1.536h.01l-.009.007v-.007m6.312.881v.007h-.019l.019-.007m.865 2.308h.015l-.006.007-.009-.007m1.005-.02.032.02h-.024l-.009-.02m7-.636c.017 0 .015.01.041.01h-.039v-.01m-.052-.111a6.452 6.452 0 0 0 1.109 0 3.084 3.084 0 0 0-1.109 0m6.816-2.65c.009-.01.022-.007.03-.013l.011.01h-.041M28.51 4.14zm-4.737-1.655.011.007h-.017.006m-7.025.908.006.03h-.009v-.033m-.419.03c.019 0 .03-.017.05-.02-.015.009-.039.009-.047.022zM5.853 4.471zM8 4.749h.024v.023L8 4.769v-.02m3.74.492v.03-.03zm3.545.328c-.03 0-.039.023-.065.027.017-.01.045-.017.056-.03h.009m-.96.1.006.007h-.017l.011-.01m14.615-1.58c.022-.013.058-.007.08-.017l.006.017h-.086M7.678 2.659h-.009.013m-2.6 1.8H5.1l-.019.013v.007l-.021-.004h.017zm0 .111h-.011c.009-.017.022-.03.006-.047h-.019l.019-.023v.071m0 .114-.009.007v-.006h.009m3.026.248h-.006V4.91h.011v.023m3.1 1.956h.009m7.825 1.373v-.023c.017.007.026.02.05.023a.225.225 0 0 1-.048 0m11.887-3.737v.007-.007m-.862-.439a.639.639 0 0 0 .08 0 .506.506 0 0 1-.073.013l-.006-.01m1.639-.489v-.01m-.419-.013-.015-.044a.06.06 0 0 0 .014.05zM20.395 1.939l.013.017-.026-.013h.013M16.3 3.091h.015l-.041.007.026-.01m-8.272-.416-.011-.017h.017l-.006.017m-.019-.127zm-3.191 2.04zm4.671 1.1V5.66v.02m-.508 1.41c0-.007-.006-.017.011-.013H9.1c-.041.007-.08 0-.119.013m.333.02v.007a.353.353 0 0 0-.114-.006zM8.188 8.258h.002-.009zm3.712.211.013.01h-.033l.015-.01m3.776.02H15.712 15.7c.013-.007 0-.017 0-.027h.009v.027l.041.01c-.022 0-.05-.007-.069 0a.151.151 0 0 1-.039 0h.026m13.017-2.43h.006m-8.56-4.341-.009-.007h.009v.007m-4.89.948h-.095.093c-.028-.033.061 0 0 .007M8.35 2.27v-.01l.019.01zm-4.494 2.1zm4.753 2.07.013.013h-.015V6.44m-.218.127c-.022.01-.054.007-.067.023-.03-.02-.067-.007-.1-.02h.166m.923.583v.017H9.3l.013-.017m3.545 1.611.009.037-.037-.037h.028M31.19 6.783zm.344-2.583h.013v.007l-.013-.007M10.611 2.052h-.006zm-1.818.432v.007zM7.818 5.691v-.013h.019l-.024.01m-.2.74-.026.01-.03-.013h.056m6.8 2.385zm10.2-.827h.087a.238.238 0 0 0-.084 0zm5.62-1.648.032-.007c.013.007.03 0 .045.01a.622.622 0 0 0-.078 0m1.39-2.038c.011 0 0-.01 0-.017zm.778-2.08h.009m-6.58-.114zm-7.172-.66c-.032-.01-.037.013-.054.02l-.032-.02h.086m-4.323.385-.037.023.037-.023m.612.553h-.009.009v.007m-3.9.107-.052-.007a.275.275 0 0 0 .052-.007v.013m-.946-.555-.026.007-.017-.007zm-2.25.218zm-1.314.167h.009-.011m-3.619.221-.043.007.028-.013.011.007M4.126 4.91h-.041v-.007c.013 0 .026 0 .037.007m4.641 3.863c.009.017.028.023.032.044h-.023c0-.02-.009-.027-.009-.044m1.5.208L10.257 9v-.017zm4.323 0zm5.571.275h.048v.007a.076.076 0 0 0-.048 0M24.9 8.4l.019.033h-.043L24.9 8.4m5.157-.9.043.01-.015.007c-.009-.01-.019 0-.028-.017m3.13-3.012.011-.02h.069c-.022.02-.054.013-.08.02M33 2.434l-.026-.007c-.019 0-.035 0-.026-.02zM25.092 1.9c.052.007.086 0 .132 0a.107.107 0 0 0-.037.027.4.4 0 0 1-.1-.03m-10.412-.558h-.013l-.009-.007h.022m1.47.668h-.011a.322.322 0 0 1-.056 0zm-8.387.167c.019-.047-.013-.08-.078-.1l.08.1M5.337 5.185l-.006.007v-.007h.006m4.818 4.124c.015-.007.015-.02.024-.03v.03h-.024M32.13 5.784l-.009-.017.006-.017v.01c.048-.02 0 .04 0 .023m-3.542-3.848h.009-.009m-2.923-.214-.006.01v-.01zm-13.678-.057h-.143a1.014 1.014 0 0 0 .143 0M4.308 2.27c.056 0 .086-.027.13-.04a.387.387 0 0 0-.13.04m-.525.224v-.013l.011.013zm0-.05v-.006a.079.079 0 0 1 .028 0l-.028.007m-1.727 1.7v.013l-.009-.013zm-.344.385zm.084.218zm3.779 3.673.022.007h-.025v-.007m19.948.154-.019.017a.342.342 0 0 1-.056-.013h.076m8.028-4.2-.026-.017h.03v.017m.24-1.564.019.01h-.026l.006-.01m-.871-.707.009-.017.011.017h-.019m-2.248-.275zm-.086 0h-.028a.079.079 0 0 1 .028 0m-2.078-.219zm-8.474-.278-.024-.02c.015 0 .015.017.03.02h-.006m-14.524.217zm-1.82 7.1h-.011l.011-.023v.023m.774.714v-.01m9.915.2a.179.179 0 0 1-.03.044.084.084 0 0 1 .035-.044m18.879-3.712.019-.013v.013h-.019m-4.755-4.62h.009-.009M22.85.914l-.036-.007A.822.822 0 0 0 22.9.9c-.017 0-.026.013-.054.01M19.109.9h-.024.022m-.189-.11h-.006a1.294 1.294 0 0 0 .2-.013.913.913 0 0 0-.19.017m-3.9.281v-.007h.013l-.009.007m-4.693.338h.019-.022m-3.547.425h.024-.024M2.468 5.3h.015-.011m.858.6h.019-.015m-.5.332h.009c-.011.013 0 .027 0 .04v-.04m2.68.161-.035.027.006-.027h.028m-.6.278h-.031.009zM3.273 8.852l.009.017h.068c-.019.007-.035 0-.054.01s-.013-.017-.032-.01h-.017l.009-.013m.324.657h.028a.163.163 0 0 0-.063.02.147.147 0 0 1 .035-.023m16.37.295-.035.044c.011-.013.039-.023.035-.044m14.288-5.337h-.022H34.237m-30.8-2.419v-.01l.006.007m-2.43 1.986zm2.233 1.43h.017-.022M2.12 7.436a.187.187 0 0 0-.065-.013.419.419 0 0 0 .063.013m1.025 1.2a.339.339 0 0 0-.153.01.764.764 0 0 1 .151-.007m4.636 1.118h.013-.021.009m18.138-.415-.05.007.05-.007m5.62.023.011-.007h-.013m1.476-8.083zM7.671 1.433V1.4h.006l-.006.033m-5.426.291v.01l-.026-.01h.022M1.117 5.476c.028.017.048.033.043.044l-.045-.044M2.6 9.034h.05a.128.128 0 0 0-.05 0m.05.606zm8.562.5zm5.8.238h.006m3.792-.084.009.01h-.037l.028-.01m1.109-.375h.024-.024m.817.288h.006m1.018-.178h.006v.02-.02m0-.221.017-.007c.015.01.035.01.05.02-.022-.007-.048-.007-.067-.013m2.84.379h.011-.006m.184-.01c-.019 0-.037.007-.054 0h.054m5.363-.864h.006-.009M33.868 5.9a.167.167 0 0 0 .039-.01v.007a.162.162 0 0 1-.041 0m.966-1.256-.013-.007h.011v.007M22.943.25l-.015-.006h.056a.175.175 0 0 1-.041.007m-2.382.371v.007l-.006-.007h.006M12.107.88l.026-.02v.02h-.022m-8.171.375a.426.426 0 0 1-.065-.007h.065v.01M2.576 6.672l.164.054-.024.007a.134.134 0 0 0-.141-.06m9.015 3.517h-.03.026zM26.784 10.18l-.006.007v-.007m1.271.064zm3.232-.178h-.009.009m.251-.007-.011-.013v-.013l.006.027v.017l-.022-.017h.017m2.9-1.491a.1.1 0 0 0-.037-.06c.022.023.039.044.037.06m1.159-3.109h.019m.78-.382.006-.007v.007m-.335-.66-.013.01v-.01zm-.88-1.923h.006-.009m-.43-1.377h-.006.009M22.1.307V.3h.006v.007M6.026.84l.009-.007V.84h-.009m-.17.017a.067.067 0 0 0 0 .1v-.1m-3.74 7.679.022.007h-.011l-.011-.01m.625 1.655h.028c-.019.017-.045.03-.028.054v-.052m2.434-.278h-.009.011m6.388.61-.009.007v-.01h.009m13.845-.439v.007-.007h.009m.94.214v.006-.007zm2.784-.141-.022-.013h.022v.013m3.268-.08h.015-.026zm3.281-1.652-.011-.007h.022l-.011.007m.873-.878zm.335-1.269v.01h-.006v-.01M35.6 4.361zm-.3-2.013-.009-.01h.026l-.017.007M34.662.9v.013L34.649.9h.013M29.551.823V.81l.032.007-.028.007M29.266.23zm-4.4 0 .037-.013V.23h-.035M13.292.237zM1.733 1.346a.148.148 0 0 1-.1-.054c.017.033.063.037.1.054m-.86 3.738c-.032-.017-.08-.03-.08-.033 0-.02-.022-.027-.024-.044a1.058 1.058 0 0 0 .1.077m.83 5.163c.009-.01.024-.007.035-.013a.2.2 0 0 0 .164.05v.007c-.065-.017-.13-.03-.195-.044m12.112.439h.026-.024m2.741-.031-.03-.017c.015 0 .019.013.03.017m8.041-.4h.017l-.006.084c.041-.03.013-.057-.011-.084m2.618.191-.013-.027h.013l-.006-.017h.017l-.011.02v.027M30.317 10.255h.022v.01l-.017.007v-.017m.465.037zm.056-.147h.009v.044a.038.038 0 0 0-.009-.044m5.21-1.859h.009v.007h-.013m.605-.566h-.006.011zm-.026-1.193h.009l-.024.017.015-.017M22.455.16v.017V.16M10.417.324a.555.555 0 0 1 .106 0c-.037-.007-.076 0-.112 0h.006M7.459.448c-.015-.03.017 0 0 .02h-.017c.015 0 .022-.01.017-.02m-5.737.77v.007h-.017l.017-.007M.67 1.5l-.03-.014.03.014m-.006.606H.655h.009m0 .576v.023L.65 2.689l.017-.007m.606 6.188v.013L1.26 8.87zm8.819 2.03zm1.537-.05c.011-.013.019-.023.013-.04h.006v.04z" transform="translate(0 .002)" style="fill:#f7931d"/>
                <path data-name="Path 59529" d="M15.671 3.019a.4.4 0 0 0 .11.044c.026 0 .052-.023.08-.037a.235.235 0 0 0-.084-.044c-.024 0-.058.02-.106.037" transform="translate(18.204 7.008)" style="fill:#f7931d"/>
                <path data-name="Path 59530" d="M11.53 3.216c-.017.044.043.057.121.067.028-.017.1-.037.1-.057 0-.044-.076-.04-.125-.04-.035 0-.1.017-.1.03" transform="translate(13.39 7.488)" style="fill:#f7931d"/>
                <path data-name="Path 59531" d="M16.166 3.017c.179-.047.249-.067.32-.084-.089-.037-.171-.04-.32.084" transform="translate(18.779 6.842)" style="fill:#f7931d"/>
                <path data-name="Path 59532" d="M16.39 3.114c.017.04.106.047.227.02a1.1 1.1 0 0 0-.121-.054c-.05-.01-.143-.05-.106.033" transform="translate(19.029 7.198)" style="fill:#f7931d"/>
                <path data-name="Path 59533" d="m18.058 2.2.078.064.086-.047c-.026-.017-.048-.044-.076-.047s-.058.02-.089.03" transform="translate(20.977 5.11)" style="fill:#f7931d"/>
                <path data-name="Path 59534" d="M2.51.76" transform="translate(2.913 1.787)" style="fill:#f7931d"/>
            </g>
        </g>
        <g data-name="Group 18479">
            <g data-name="Group 18477" transform="translate(0 16.694)" style="clip-path:url(#7f7mzjv51c)">
                <path data-name="Path 59522" d="M9.884 3.328c.019.09.138.027.214.017.08-.044.257.087.261-.064 0-.1-.154-.074-.241-.077-.121-.01-.251.037-.233.124" transform="translate(9.333 7.527)" style="fill:#009244"/>
                <path data-name="Path 59523" d="M18.372 1.292c-.113.017-.227.03-.34.047a.288.288 0 0 0 .34-.047" transform="translate(17.03 3.037)" style="fill:#009244"/>
                <path data-name="Path 59524" d="M17.531 1.9c.066.064.157 0 .262-.06a1.232 1.232 0 0 0-.154-.013c-.056.007-.2-.017-.109.074" transform="translate(16.527 4.294)" style="fill:#009244"/>
                <path data-name="Path 59525" d="m17.608 2.312.467-.107c-.2-.017-.334-.054-.467.107" transform="translate(16.629 5.146)" style="fill:#009244"/>
                <path data-name="Path 59526" d="M10.2 3.252c-.016.037.025.04.076.057.029-.01.1-.013.111-.033s-.014-.064-.072-.067-.1 0-.115.044" transform="translate(9.629 7.539)" style="fill:#009244"/>
                <path data-name="Path 59527" d="M10.5 3.246c-.023.027.019.04.058.044.062 0 .124-.013.134-.067 0-.01-.058-.034-.08-.03a.217.217 0 0 0-.113.054" transform="translate(9.912 7.502)" style="fill:#009244"/>
                <path data-name="Path 59528" d="M34.9 7.557h-.4a2.14 2.14 0 0 0-.76.05.693.693 0 0 0-.379.044c-.025-.04-.052-.077-.078-.117a2.164 2.164 0 0 0 .754-.1 2.387 2.387 0 0 0-.837.066h-.008l-.222-.06.07-.107a2.383 2.383 0 0 1 .525-.174.335.335 0 0 0 .274-.077c-.1-.05-.175.007-.253.027.006-.033-.142-.07.017-.1.222-.044.072-.077-.016-.107a21.484 21.484 0 0 0-.465-.164c-.072-.02-.165.01-.22-.05.305-.074.5-.2.474-.452.216-.02.158-.288.445-.245-.078-.027-.156-.05-.233-.074.072-.023.146-.047.22-.074.124 0 .257.017.34-.084a1.013 1.013 0 0 0-.574-.01c-.062-.017-.156.013-.189-.057a2.042 2.042 0 0 0 .541-.161c.041 0 .082-.01.123-.017.173-.077.471 0 .533-.214v-.054l.1-.107.068-.057c.241-.037.126-.134.074-.221-.163-.208-.459-.127-.7-.164-.021.01-.006.023 0 .037v-.042l-.087-.111a.111.111 0 0 0-.051-.131c.1-.094.066-.141-.1-.147l.014-.093c.039-.013.167-.017.058-.064a.4.4 0 0 0-.321.044l.045.01c-.016 0-.023-.02-.045-.01-.047 0-.093.01-.138.017s-.1-.01-.15-.017l.156-.1a1.169 1.169 0 0 0 .436-.1c.053-.017.138 0 .146-.067.01-.1.029-.1.124-.157s.282-.044.342-.137c-.017-.127-.294.033-.257-.137.087-.037.148-.09.152-.167.084-.033.084-.074.019-.117.01-.107.027-.211.029-.315s.018-.224-.21-.228a.089.089 0 0 0-.066-.01c-.29-.188-.583-.07-.875 0-.111-.107-.113-.111.043-.151.136-.037.315-.02.356-.161.2-.064.451-.044.622-.167l.537-.141a1.912 1.912 0 0 0-.523-.255c-.008-.07-.037-.131-.167-.114-.187-.05-.27-.114-.22-.281.07-.224-.224-.472-.568-.539A.824.824 0 0 0 33.03.9a2.1 2.1 0 0 0-.616.06h-.142c-.02-.167-.263-.07-.372-.16a9.381 9.381 0 0 0 1.633-.349c-.325 0-.537.007-.749 0-.307-.007-.626.114-.92-.044h-.08C31.657.4 31.53.4 31.4.4a.13.13 0 0 0-.06-.006 2.85 2.85 0 0 0-.8-.1 3.212 3.212 0 0 0-.933-.107 8.493 8.493 0 0 0-2-.117 1.83 1.83 0 0 0-.589 0h-.187a.72.72 0 0 0-.369-.05h-2.214q-1.07-.035-2.137.01a3.331 3.331 0 0 0-.966.047l-.07.047a1.445 1.445 0 0 0-.959-.057l.027.02h-.013l.07.043a.123.123 0 0 0-.07-.047l-.014-.02c-.051 0-.1.01-.152.013a1.681 1.681 0 0 0-.7-.01h-.367c-.122 0-.25-.03-.377-.03-1.126-.007-2.25-.013-3.375-.01a8.086 8.086 0 0 0-1.274.037c-.64 0-1.277.023-1.915.07a2.912 2.912 0 0 0-.725.044c.237 0 .474 0 .712.007a2.3 2.3 0 0 0-.712-.007c-.148 0-.3.01-.445.013a1.823 1.823 0 0 0-.574.04c-.142 0-.286.01-.43.013a2.886 2.886 0 0 0-.721.04c-.122 0-.245.007-.367.013A3.138 3.138 0 0 0 7.9.341l-.14.01A2.153 2.153 0 0 0 7.118.4a.084.084 0 0 0-.064 0 2.452 2.452 0 0 0-.717.05l-.214.01a.635.635 0 0 1-.08 0 1.105 1.105 0 0 0-.395.04h-.019a1.928 1.928 0 0 0-.694.06 3.784 3.784 0 0 0-1.013.1c-.07 0-.14.01-.21.013L3.3.78l.027.02.012.023-.054.01C3.29.813 3.305.8 3.3.78A8.344 8.344 0 0 0 2.067 1 .089.089 0 0 0 2 1.011a.188.188 0 0 0-.165.033c-.325.057-.647.127-.976.174-.229.03-.3.121-.284.268-.1.067-.056.151-.062.228a.857.857 0 0 0-.058.446.8.8 0 0 0 0 .389.3.3 0 0 0 .052.275.323.323 0 0 0 0 .268c-.144.147.074.355-.156.486l.021.013-.022-.014c-.1.017-.192.037-.222.117-.086.067-.056.151-.068.228v.111a1.886 1.886 0 0 0 .01.878c.025.02.051 0 .076 0h-.08l.078.382c.025.09.049.184.072.278 0 .07.047.124.128.167v.151c-.115.111-.22.221.107.228l-.006-.05h.008c-.01.017-.021.03-.006.05.14.07.4-.107.467.114.051.007.062-.02.084-.044a.159.159 0 0 1 .068-.013l-.014.017c-.017 0-.033-.013-.054 0l-.084.04-.154.009a1.8 1.8 0 0 0-.57.033c-.087 0-.161.03-.167.084s.087.054.144.057c.239.017.48.027.721.04l.006.1h-.57c.136.194.4-.023.5.144l.027.01c-.01.01-.01.02-.023.027a.027.027 0 0 1 0-.037l-.371.03c-.1 0-.229-.04-.29.05-.021.033.064.037.109.047.214-.04.342.121.541.117a2.171 2.171 0 0 0 .107 1.26l.008.057-.006.171-.026.098.025.1-.008.01C.97 8.6.949 8.562.9 8.528a.364.364 0 0 0-.052.342c-.2.238-.054.533-.251.77-.025.054-.091.107-.017.167l-.047.171c-.006.07-.01.141-.014.211s-.019.131.081.165a.117.117 0 0 1 .068.01l-.154.1c-.014.111 0 .191.214.181.344-.013.69-.013 1.036-.02a2.812 2.812 0 0 0 .856-.04l.021.007.019-.01a2.566 2.566 0 0 0 .735.1 6.99 6.99 0 0 0 1.326.1 13.283 13.283 0 0 0 1.552.067h.078c.22.1.469.02.7.05h.463l-.076-.044h.008a.174.174 0 0 0 .068.047h.239l.924.02c.282.1.576-.01.859.027.054.02.072 0 .082-.033.13-.017.286.037.381-.074l.086.013c.235.124.472.228.712 0l.078-.05a.214.214 0 0 0 .064-.01c.049.02.1.04.148.057.019.067.058.1.169.111a2.805 2.805 0 0 0 .77-.05c.017-.02 0-.04-.006-.06h.012l-.006.06c.076.111.21.01.307.04h.564c.08 0 .177.04.227-.04a2.022 2.022 0 0 0 .918 0 .723.723 0 0 0 .389-.054c.113.094.222.2.406.067.035-.033.023-.057-.016-.084l.016.084c.1-.07.216.107.313-.01h.064c.261-.06.519.161.78 0 .051 0 .1 0 .15.007a.765.765 0 0 0 .389-.01l.307.02c.1-.037.455.037.159-.181h.237a2.1 2.1 0 0 0 .782.111c.1.047.21 0 .315 0h.132c.062.047.122.067.183 0 .089-.044.2-.08.07-.171v-.04c.1-.007.206-.013.309-.023a1.272 1.272 0 0 0 .638-.08c.07-.007.14-.013.208-.017a1.433 1.433 0 0 0 .163.057c.06.017.134.08.189.017s-.084-.07-.1-.121l-.01-.01c.233.007.465.01.7.017v.03l-.179.037a.283.283 0 0 0 .181.134c-.086.174.052.188.239.167l.157-.05c.084 0 .175.013.227-.057.194-.017.4.1.585-.023-.078-.1-.274-.047-.362-.137.2.01.311-.117.478-.157h.15c0 .107.058.161.218.161s.173-.077.177-.157l.229-.02c.014-.017 0-.027-.012-.04h.01v.04l.076.02c.031.047-.117.131.051.151s.194-.06.191-.154a.074.074 0 0 1 .07 0c.027.054.054.107.084.161l-.006.04c-.089.037-.237-.027-.3.111a.636.636 0 0 1 .5.054.3.3 0 0 0 .282-.033c.181-.01.364.077.539-.01.078 0 .163.013.214-.047.117-.03.089-.1.1-.164.053-.007.1-.01.159-.013a.211.211 0 0 0 .2-.04l.054-.023c-.019.007-.043.007-.054.023.146.084.313-.007.471-.007.054.007.115 0 .161.047.119.1-.161.04-.087.131.163-.013.367.02.34-.181.2.013.373.211.609.057.113.017.222.1.34.007.07 0 .14-.01.21-.017h.08c.2 0 .422.074.548-.107V10.3h.014c-.033.033-.051.07-.014.107.171.054.35.151.467-.047.017-.023 0-.04-.014-.057h.014v.057a.47.47 0 0 0 .4.007l.373-.01a.6.6 0 0 0 .319-.057h.229c.128-.054.259-.107.387-.164.156-.037.309.124.467 0l-.08-.111v-.057c.087-.04.214-.047.261-.131-.1-.07-.175.007-.261.02h-.076v-.1A1.423 1.423 0 0 1 30.4 9.7c.171-.06.381.05.542-.06.13-.084.379 0 .455-.161a.69.69 0 0 0 .465-.057H31.4a.2.2 0 0 1 .154-.057c.082-.023.165-.05.309-.1-.161-.01-.247-.02-.305.044a.531.531 0 0 1-.074 0c0-.084.185-.171.006-.258.1 0 .2-.01.3-.013.062.04.01.161.1.137.132-.034.01-.117 0-.181a6.612 6.612 0 0 0 1.06-.2c-.317-.06-.562.157-.834.027a3.751 3.751 0 0 0 .618-.161c.177-.037.418.023.484-.171.041-.01.093-.01.08-.057.1 0 .191 0 .286.007.183.111.323-.01.486-.047-.179.02-.319-.074-.49-.064a.391.391 0 0 0-.309.054h-.3l-.082-.054c.06-.007.126-.007.15-.057a4.379 4.379 0 0 0 1.017-.221l.154-.01a.367.367 0 0 0 .181-.188c-.111-.047-.175.02-.255.04a.816.816 0 0 0-.089 0 .515.515 0 0 0-.3.05c-.128 0-.255 0-.381.007-.074-.03-.134-.084-.235-.067l.088-.1c.175-.114.436.013.607-.111.2 0 .4-.01.6-.013.169.037.313-.054.474-.054.074-.044.218.02.278-.077-.119-.037-.206-.037-.272.033zm-32.4 2.7-.027-.013h.025v.013M.217 4.7v-.01l.004.01m26.742 5.64v.007h-.006v-.007m-.307-.194v-.013.013M1.281 9.8H1.3h-.02M20.9.237v-.02.02M2.629 9.865h-.008.01v.007m-.8-4.124v-.007h.016l-.014.007M26.228.826a.763.763 0 0 0-.128.007h.006c.039 0 .078-.01.119-.007m6.49 4.087h-.008.012a.1.1 0 0 0 .078 0h-.078M3.087 8.1h-.044l.016-.007c.008 0 .019 0 .029.007m28.427-5.059a.136.136 0 0 1-.037 0c.012-.017.029-.017.043-.03 0 .013-.008.017-.006.03M28.3 9.845h.012a.1.1 0 0 0 .051.017c-.017-.01-.033-.027-.062-.017M10.478 9.8zM2.135 7.691l.041.007-.056.01.016-.017m15.4-6.932a.948.948 0 0 1-.22 0L17.4.756a.891.891 0 0 1 .134 0m5.93.194zm7.468 3.685c0 .01.014.017.016.03-.01-.01-.006-.02-.017-.027zM20.741 8.927v-.01.01m-16.1.549.025-.013-.01.013h-.011m19.59-.791a.169.169 0 0 1 .1.007.479.479 0 0 0-.1-.01m-20.14.576v-.007zm.262-2.184a.545.545 0 0 0 .074 0 .545.545 0 0 1-.074 0M2.691 5.138h-.025.031l-.008.007m8.157 4.211-.019-.033a.158.158 0 0 0 .039-.007c-.014.013-.008.03-.019.04M5.58 2.106H5.5l.023-.013c.017.01.037 0 .054.013m7.155-.667zM24.744 1.2a.2.2 0 0 0-.045 0 .2.2 0 0 1 .045 0M14.289 1.315v.02h-.008v-.02M4.876 2.542l.008.007h-.012zm17.558-.56c-.023-.007-.047 0-.07 0h.07m5.328.164a.557.557 0 0 0-.13-.027.439.439 0 0 1 .13.027m-13.774-.371h.021zm3.916.084.01.013h-.021l.012-.013M4.516 3.483h.01L4.5 3.5l-.01-.017h.019m21.968.948a.183.183 0 0 0-.043 0h.041M13.334 7.938h-.012.033-.021m12.155-3.463h.011-.008M13.156 7.9h.051a.122.122 0 0 1-.051 0M8.3 3.48h-.021l.008-.007.013.007M15.844 3.591a.152.152 0 0 0 .089.033c-.029-.01-.06-.02-.089-.033M7.8 3.607h.041-.006c-.012 0-.027 0-.035-.007M17.478 7zm-5.6-2.7h.01-.014m3.37-.054h-.027.023m2-.553h.01-.006m2.256-.049zm-1.229.606h-.016.016m.838-.549-.035-.007h.014l.021.01M19.889 5.355h.021-.019M17.838 6.4a.085.085 0 0 1 .029 0v.007L17.84 6.4v-.007m.717-2.918-.006-.007.016.007h-.01m-8.468.389h.011-.01m0 .271c.052-.023.043-.05.052-.077 0 .02-.012.044-.039.064l-.012.01v.007h.01l-.01.023v-.016l-.008-.007h.012m1.89.2.037.007h-.07l.033-.007m5.582 1.33c.01-.007.023 0 .033-.007h.023-.056m1.554-2.3v-.017l.01.017h-.008m-11.157.285h.025H7.965m5.574 3.293.008.007H13.52h.019m7.761-.328h-.008.017l-.01.007m.07-2.918h.016l-.008.007h-.008m-2.259-.372v-.01h.023l-.021.01M11.493 4.91h.006-.01M17.4 7.329c-.029-.037-.074-.01-.113-.013a.423.423 0 0 1 .113.013m5.133-3.35a.2.2 0 0 1 .045 0c-.014.007-.031 0-.045.01v-.01m2.491-.5zm-4.247.007-.031-.01h.021l.01.013M8.845 3.426h-.012.012zM6.434 3.7zm2.1.66h.006m2.641.439zm1.559 3.189h-.03.019m9.822-3.848h-.017v-.121l.01.01h-.01c-.037.04-.016.077.017.111m4.565-.8-.008.037h-.016a.058.058 0 0 0 .019-.04m-6.374-.033h.014-.01m-.541-.263zm-12.757.221v-.01.007zm-1.56.438h.006m-1.005.221-.023.017v-.016h.023m11.39 3.742-.012.013c-.006-.01-.019 0-.023-.017h.035m6.347-1.152v-.007h.006v.007m2.629-2.665.019-.007.012.01h-.031m1.812-.573-.01-.007.029-.013-.019.02m-3.195.02V3.3h-.012l.006-.017h.006m-7.315-.854zm-9.878.774h-.021L6.632 3.2l.035.01m.7 1.538h.01l-.008.007v-.007m5.678.881v.007h-.018l.018-.007m.778 2.308h.014l-.006.007-.008-.007m.9-.02.029.02h-.021l-.008-.02m6.3-.636c.016 0 .014.01.037.01h-.035v-.01m-.047-.111a5.223 5.223 0 0 0 1 0 2.5 2.5 0 0 0-1 0m6.131-2.65c.008-.01.019-.007.027-.013l.01.01h-.037m-1.467-.377zm-4.26-1.655.01.007h-.016.006m-6.319.908.006.03h-.008v-.033m-.377.03c.018 0 .027-.017.045-.02-.014.009-.031.009-.043.022zM5.265 4.471zm1.927.278h.021v.023h-.012l-.008-.02m3.364.492v.03-.03zm3.189.328c-.027 0-.035.023-.058.027.016-.01.041-.017.051-.03h.008m-.863.1.006.007h-.016l.01-.01m13.15-1.588c.019-.013.052-.007.072-.017l.006.017h-.078M6.906 2.659h-.008.012m-2.341 1.8h.019l-.017.013v.007l-.016-.007h.016zm0 .111h-.01c.008-.017.019-.03.006-.047H4.55l.017-.023v.071m0 .114-.008.007v-.006h.008m2.733.248h-.006V4.91H7.3v.023m2.79 1.956h.008m7.039 1.373v-.023c.016.007.023.02.045.023a.182.182 0 0 1-.043 0m10.7-3.739v.007-.007m-.776-.439a.517.517 0 0 0 .072 0 .414.414 0 0 1-.066.013l-.006-.01m1.459-.487v-.01m-.377-.013-.014-.044a.064.064 0 0 0 .014.05zm-9.8-1.645.012.017-.023-.013h.012m-3.68 1.155h.014l-.037.007.023-.01m-7.445-.416-.01-.017h.016l-.006.017M7.2 2.545zm-2.87 2.04zm4.2 1.1V5.66v.02m-.457 1.41c0-.007-.006-.017.01-.013a.941.941 0 0 1 .1 0c-.037.007-.072 0-.107.013m.3.02v.007c-.033-.017-.072 0-.107-.007zM7.362 8.258h.006-.008zm3.339.211.012.01h-.025l.014-.01m3.4.02h.037-.012c.012-.007 0-.017 0-.027h.008v.027l.037.01c-.019 0-.045-.007-.062 0a.123.123 0 0 1-.035 0h.023M25.8 6.069h.006m-7.698-4.341-.008-.007h.008v.007m-4.4.948h-.086.084c-.025-.033.054 0 0 .007m-6.199-.405v-.01l.017.01zm-4.042 2.1zm4.276 2.07.012.013h-.011v-.013m-.2.127c-.019.01-.049.007-.06.023-.027-.02-.06-.007-.089-.02h.15m.83.583v.017h-.01l.012-.017m3.189 1.611.008.037-.033-.037h.025m16.492-1.989zm.309-2.583h.012v.007l-.01-.007M9.545 2.052h-.006zm-1.635.433v.007zM7.033 5.691v-.013h.017l-.021.01m-.181.74-.023.01-.025-.01h.051m6.115 2.385zm9.178-.827h.074a.193.193 0 0 0-.076 0zM27.2 6.341l.029-.007c.012.007.027 0 .041.01a.5.5 0 0 0-.07 0M28.444 4.3c.01 0 0-.01 0-.017zm.7-2.084h-.006.008m-5.916-.11zm-6.452-.66c-.029-.01-.033.013-.049.02l-.029-.02h.078m-3.889.385-.033.023.033-.023m.55.553h-.008.008v.007m-3.508.107-.047-.007a.224.224 0 0 0 .047-.007v.013m-.848-.549-.023.007-.016-.007zM7.06 2.16zm-1.182.167h.008-.01m-3.255.221-.039.007.029-.013.01.007M3.712 4.91h-.037v-.007c.012 0 .023 0 .033.007m4.174 3.863c.008.017.025.023.029.044H7.89c0-.02-.008-.027-.008-.044m1.351.208L9.226 9v-.017zm3.889 0zm5.011.275h.043v.007a.062.062 0 0 0-.043 0M22.4 8.4l.017.033h-.039L22.4 8.4m4.637-.9.039.01-.014.007c-.008-.01-.017 0-.025-.017m2.816-3.012.01-.02h.062c-.019.02-.049.013-.072.02m-.171-2.057-.023-.007c-.017 0-.031 0-.023-.02zM22.57 1.9c.047.007.078 0 .119 0a.1.1 0 0 0-.033.027.335.335 0 0 1-.086-.03m-9.37-.558h-.012l-.008-.007h.019M14.522 2h-.009a.262.262 0 0 1-.051 0zm-7.544.167c.017-.047-.012-.08-.07-.1l.072.1M4.8 5.185l-.006.007v-.007H4.8m4.335 4.124c.014-.007.014-.02.021-.03v.03h-.021M28.9 5.784l-.008-.017.006-.017v.01c.043-.02 0 .04 0 .023m-3.185-3.848h.008-.008m-2.629-.214-.006.01v-.01zm-12.3-.057h-.128a.821.821 0 0 0 .128 0m-6.905.606c.051 0 .078-.027.117-.04a.323.323 0 0 0-.117.04m-.479.225v-.014l.01.013zm0-.05v-.007a.064.064 0 0 1 .025 0l-.025.007m-1.554 1.7v.013l-.008-.013zm-.309.385zm.076.218zm3.4 3.675.019.007h-.02v-.007m17.943.154-.017.017c-.018-.007-.033 0-.051-.013h.068m7.222-4.2-.023-.017h.027v.017m.216-1.564.017.01h-.023l.006-.01m-.784-.707.008-.017.01.017h-.017m-2.022-.275zm-.078 0h-.025a.064.064 0 0 1 .025 0m-1.867-.218zm-7.622-.278L18 1.316c.014 0 .014.017.027.02h-.006m-13.063.217zm-1.637 7.1h-.01l.01-.023v.023m.7.714v-.01m8.919.2a.181.181 0 0 1-.027.044.083.083 0 0 1 .031-.044m16.978-3.712.017-.013v.013h-.017m-4.278-4.62h.008-.01M20.554.914l-.033-.007A.666.666 0 0 0 20.6.9c-.016 0-.023.013-.049.01M17.188.9h-.021.019m-.169-.11h-.006a1.049 1.049 0 0 0 .177-.013.741.741 0 0 0-.171.017m-3.5.281v-.007h.012l-.008.007M9.3 1.413h.018-.026M6.1 1.835h.021H6.1M2.22 5.3h.014-.01m.772.6h.014L3 5.905m-.449.332h.008c-.01.013 0 .027 0 .04v-.04m2.411.161-.031.027.006-.027h.025m-.542.278H4.4h.012zM2.945 8.857l.008.017h.078c-.017.007-.031 0-.049.01s-.012-.017-.029-.01h-.016l.008-.013m.292.657h.025c-.019.007-.035 0-.056.02a.132.132 0 0 1 .014-.028m14.725.29-.031.044c.01-.013.035-.023.031-.044M30.8 4.468h-.019.02M3.091 2.049v-.01l.006.007M.912 4.032zM2.92 5.463h.016-.019m-1.01 1.973a.153.153 0 0 0-.058-.013.344.344 0 0 0 .056.013m.922 1.2a.276.276 0 0 0-.138.01.619.619 0 0 1 .136-.007M7 9.757h.012-.024.008m16.316-.415-.045.007.045-.007m5.055.023.01-.007h-.012m1.328-8.083zM6.9 1.433V1.4h.006l-.006.033m-4.88.291v.01L2 1.724h.02M1 5.476c.025.017.043.033.039.044L1 5.476m1.343 3.558h.045a.1.1 0 0 0-.045 0m.045.606zm7.7.5zm5.215.238H15.3m3.41-.084.008.01h-.033l.025-.01m1-.375h.021-.021m.735.288h.006m.916-.178h.006v.02-.02m0-.221.016-.007c.014.01.031.01.045.02-.019-.007-.043-.007-.06-.013m2.555.379h.01-.006m.165-.01c-.017 0-.033.007-.049 0h.049m4.824-.864h.006-.008M30.465 5.9a.138.138 0 0 0 .035-.01v.007c-.012 0-.023.007-.037 0m.869-1.256-.012-.007h.01v.007M20.638.25l-.014-.006h.051c-.012.007-.025 0-.037.007m-2.143.371v.007l-.006-.007h.006M10.89.88l.023-.02v.02h-.019m-7.346.375a.346.346 0 0 1-.058-.007h.058v.01M2.317 6.672l.148.054-.021.007a.117.117 0 0 0-.126-.06m8.108 3.517H10.4h.023zm13.667-.01-.006.007v-.007m1.143.064zm2.907-.178h-.008.008m.226-.007-.01-.013v-.013l.006.027v.017l-.019-.017h.016m2.624-1.492a.1.1 0 0 0-.033-.06c.019.023.035.044.033.06M32.022 5.459h.018-.018m.7-.382.006-.007v.007m-.3-.66-.012.01v-.01zm-.791-1.923h.006-.008m-.387-1.377h-.006.008M19.883.307V.3h.006v.007M5.421.84l.007-.007V.84h-.007m-.154.017a.072.072 0 0 0 0 .1v-.1M1.9 8.535l.019.007h-.01l-.01-.01m.562 1.655h.025c-.018.017-.041.03-.025.054v-.051m2.189-.278h-.008.01m5.746.61-.008.007v-.01h.008m12.454-.439v.007-.007h.008m.846.214v.006-.007zm2.5-.141-.019-.013h.013v.013m2.94-.08h.014-.014zm2.96-1.649-.01-.007h.019l-.01.007m.786-.878zm.307-1.273v.01h-.006v-.01m-1.164-1.912zm-.274-2.013-.008-.01h.023l-.016.007M31.178.9v.013L31.167.9h.012m-4.6-.074V.813l.029.007-.025.007M26.325.23zm-3.955 0 .03-.013V.23h-.03M11.956.237zM1.559 1.346a.13.13 0 0 1-.089-.054c.016.033.056.037.089.054M.785 5.084c-.029-.017-.072-.03-.072-.033 0-.02-.019-.027-.021-.044a.966.966 0 0 0 .093.077m.747 5.163c.008-.01.021-.007.031-.013a.167.167 0 0 0 .148.05v.007c-.058-.017-.117-.03-.175-.044m10.894.439h.023-.022m2.465-.031-.027-.017c.014 0 .018.013.027.017m7.233-.4h.016l-.006.084c.037-.03.012-.057-.01-.084m2.355.191-.012-.027h.012l-.006-.017h.016l-.01.02v.027m2.788-.194h.019v.01l-.016.007v-.017m.418.037zm.051-.147h.008v.044a.041.041 0 0 0-.008-.044M32.431 8.286h.008v.007h-.012m.544-.566h-.006.01zm-.023-1.193h.008l-.021.017.014-.017M20.2.16v.017V.16M9.37.324a.449.449 0 0 1 .1 0c-.033-.007-.068 0-.1 0M6.71.448c-.014-.03.016 0 0 .02h-.016c.014 0 .019-.01.016-.02m-5.16.77v.007h-.016l.016-.007M.6 1.5l-.025-.014L.6 1.5m0 .606H.592.6m0 .576v.023l-.015-.016.015-.007m.545 6.188v.013l-.012-.013zm7.933 2.03zm1.382-.05c.01-.013.017-.023.012-.04h.006v.04z" transform="translate(0 .002)" style="fill:#009244"/>
                <path data-name="Path 59529" d="M15.671 3.019c.045.02.072.044.1.044s.047-.023.072-.037a.2.2 0 0 0-.076-.044c-.021 0-.052.02-.1.037" transform="translate(14.8 7.008)" style="fill:#009244"/>
                <path data-name="Path 59530" d="M11.529 3.216c-.016.044.039.057.109.067.025-.017.091-.037.093-.057 0-.044-.068-.04-.113-.04s-.086.017-.089.03" transform="translate(10.886 7.488)" style="fill:#009244"/>
                <path data-name="Path 59531" d="M16.166 3.017c.161-.047.224-.067.288-.084-.08-.037-.154-.04-.288.084" transform="translate(15.267 6.842)" style="fill:#009244"/>
                <path data-name="Path 59532" d="M16.389 3.114c.016.04.1.047.2.02a.939.939 0 0 0-.109-.054c-.045-.01-.128-.05-.1.033" transform="translate(15.47 7.198)" style="fill:#009244"/>
                <path data-name="Path 59533" d="m18.058 2.2.07.064.078-.047c-.023-.017-.043-.044-.068-.047s-.053.02-.08.03" transform="translate(17.054 5.11)" style="fill:#009244"/>
                <path data-name="Path 59534" d="M2.51.76" transform="translate(2.368 1.787)" style="fill:#009244"/>
            </g>
        </g>
    </g>
</svg>
