<svg xmlns="http://www.w3.org/2000/svg" width="477" height="394" viewBox="0 0 477 394">
    <defs>
        <filter id="4fdwpsu8ha" x="0" y="0" width="424" height="339" filterUnits="userSpaceOnUse">
            <feOffset dy="3"/>
            <feGaussianBlur stdDeviation="4" result="blur"/>
            <feFlood flood-opacity=".161"/>
            <feComposite operator="in" in2="blur"/>
            <feComposite in="SourceGraphic"/>
        </filter>
        <filter id="wcgna8oc1b" x="211" y="159" width="266" height="235" filterUnits="userSpaceOnUse">
            <feOffset dy="3"/>
            <feGaussianBlur stdDeviation="13" result="blur-2"/>
            <feFlood flood-opacity=".102"/>
            <feComposite operator="in" in2="blur-2"/>
            <feComposite in="SourceGraphic"/>
        </filter>
        <linearGradient id="x8qobria7c" x1=".254" x2=".644" y2="1" gradientUnits="objectBoundingBox">
            <stop offset="0" stop-color="#d6f09a"/>
            <stop offset="1" stop-color="#adebf5"/>
        </linearGradient>
    </defs>
    <g data-name="Group 18868" transform="translate(-441 -2827)">
        <g style="filter:url(#4fdwpsu8ha)">
            <rect data-name="Rectangle 19993" width="400" height="315" rx="20" transform="translate(453 2836)" style="fill:#fff"/>
        </g>
        <path data-name="Rectangle 19994" d="M20 0h360a20 20 0 0 1 20 20v44H0V20A20 20 0 0 1 20 0z" transform="translate(453 2836)" style="fill:#0a243f"/>
        <g data-name="Group 18745">
            <path data-name="Path 56994" d="M-2.042-13.682q.074-.055.231-.185a1.962 1.962 0 0 0 .369-.48 6.828 6.828 0 0 0 .471-1.015 14.8 14.8 0 0 0 .535-1.808q.148-.609.387-1.55t.526-2.01q.286-1.07.581-2.2t.572-2.159l.5-1.854q.223-.83.351-1.292a6.431 6.431 0 0 0-.683.5q-.3.24-.627.544t-.646.637A1.54 1.54 0 0 1 .154-27a1.488 1.488 0 0 1-.129-.24 1.527 1.527 0 0 1-.111-.572q0-.3.461-.609.24-.166.729-.48a8.106 8.106 0 0 1 1.209-.618 10.241 10.241 0 0 1 1.679-.526 9.446 9.446 0 0 1 2.122-.221 3.392 3.392 0 0 1 1.873.461 3.273 3.273 0 0 1 1.089 1.126 4.017 4.017 0 0 1 .489 1.4 5.28 5.28 0 0 1 .055 1.292 6.474 6.474 0 0 1-.664 2.159 7.519 7.519 0 0 1-1.531 2.076 8.759 8.759 0 0 1-2.38 1.615 8.439 8.439 0 0 1-3.211.757q-.148.7-.3 1.439t-.31 1.441q-.166.71-.341 1.329a9.607 9.607 0 0 1-.36 1.061 2.093 2.093 0 0 1-.48.766 1.315 1.315 0 0 1-.941.286 1.21 1.21 0 0 1-.618-.166 1.932 1.932 0 0 1-.526-.458zM2.331-22.1l-.138.766q-.083.466-.193 1.065a7.147 7.147 0 0 0 1.107-.268 6.938 6.938 0 0 0 1.218-.526 7.926 7.926 0 0 0 1.19-.8 6.6 6.6 0 0 0 1.061-1.089 6 6 0 0 0 .8-1.4 6.089 6.089 0 0 0 .417-1.748 3.909 3.909 0 0 0-.1-1.541 2.447 2.447 0 0 0-.563-1 2.074 2.074 0 0 0-.849-.535 3.072 3.072 0 0 0-.959-.157 3.213 3.213 0 0 0-.9.129 6.481 6.481 0 0 0-.886.332.363.363 0 0 1 .129.092.691.691 0 0 1 .166.314q-.443 1.79-.729 2.989t-.452 1.956q-.208.89-.319 1.421zM18.204-20q-.258.369-.664.913t-.84 1.097q-.434.544-.849 1a4.2 4.2 0 0 1-.692.637 1.919 1.919 0 0 1-.424.185 2.214 2.214 0 0 1-.489.092 1.688 1.688 0 0 1-.471-.028 1.093 1.093 0 0 1-.387-.157.972.972 0 0 1-.277-.369 3.206 3.206 0 0 1-.175-.535 3.028 3.028 0 0 1-.065-.83 3.853 3.853 0 0 1-.978 1.135 4.367 4.367 0 0 1-1.015.581 3.973 3.973 0 0 1-1.107.24 1.094 1.094 0 0 1-.554-.175 1.378 1.378 0 0 1-.5-.554 2.573 2.573 0 0 1-.258-.978 4.424 4.424 0 0 1 .148-1.43 6.841 6.841 0 0 1 .821-2.048 8.192 8.192 0 0 1 1.227-1.578 5.461 5.461 0 0 1 1.31-.987 2.073 2.073 0 0 1 1.07-.3 2.24 2.24 0 0 1 .812.3.883.883 0 0 1 .341.544 1.325 1.325 0 0 1-.3.95 4.268 4.268 0 0 1 .434-.074q.175-.018.268-.018a.384.384 0 0 1 .148.018.42.42 0 0 1 .018.157 2.986 2.986 0 0 1-.055.434q-.055.314-.166.849t-.3 1.384q-.037.166-.065.3l-.055.277-.065.323-.092.461a2.282 2.282 0 0 0-.009.36 1.334 1.334 0 0 0 .065.36.583.583 0 0 0 .175.268.514.514 0 0 0 .341.1.876.876 0 0 0 .48-.231 5.381 5.381 0 0 0 .627-.59q.332-.36.692-.793t.673-.84q.314-.406.563-.72t.36-.461a.547.547 0 0 1 .3-.194.2.2 0 0 1 .221.083.439.439 0 0 1 .028.332 1.384 1.384 0 0 1-.274.518zm-5.404.82q.092-.369.221-.867t.221-.959q.092-.461.138-.766t-.028-.286a1.706 1.706 0 0 0-.2.055.99.99 0 0 1-.24.055 2.49 2.49 0 0 0-.3.055 1.7 1.7 0 0 0 .175-.489 1.049 1.049 0 0 0 .009-.3.438.438 0 0 0-.074-.2q-.2-.166-.71.268a6.28 6.28 0 0 0-1.172 1.6A4.907 4.907 0 0 0 10.4-20a6.5 6.5 0 0 0-.231 1.024 3.612 3.612 0 0 0-.028.84.818.818 0 0 0 .148.471.6.6 0 0 0 .461.194 1.237 1.237 0 0 0 .526-.148 3.022 3.022 0 0 0 .535-.36 4.291 4.291 0 0 0 .48-.461 4.546 4.546 0 0 0 .351-.443.988.988 0 0 0 .158-.297zm2.864 2.768a.649.649 0 0 1-.286.268.368.368 0 0 1-.277.018.257.257 0 0 1-.157-.194.551.551 0 0 1 .074-.369l.249-.5q.194-.387.461-.932l.581-1.181q.314-.637.6-1.209t.526-1.024q.24-.452.351-.655-.2-.185-.277-.268a.74.74 0 0 1-.111-.36 1.3 1.3 0 0 1 .111-.627 3.755 3.755 0 0 1 .387-.747 3.1 3.1 0 0 1 .535-.618.885.885 0 0 1 .569-.256.8.8 0 0 1 .729.332 1.564 1.564 0 0 1 .249.683 1.8 1.8 0 0 1-.037.609 1.772 1.772 0 0 1-.277.664 1.411 1.411 0 0 0 .148.083.7.7 0 0 0 .3.046 1.6 1.6 0 0 0 .415-.037 1.4 1.4 0 0 1 .378-.037.82.82 0 0 1 .517.157 1.264 1.264 0 0 1 .332.387 1.951 1.951 0 0 1 .194.5 3.253 3.253 0 0 1 .083.489 1.513 1.513 0 0 1-.24.959q-.3.5-.72 1.089-.258.369-.517.83a1.432 1.432 0 0 0-.221.83 1.024 1.024 0 0 0 .129.387q.092.148.517.148a1.355 1.355 0 0 0 .692-.231 5.183 5.183 0 0 0 .775-.59 10.648 10.648 0 0 0 .784-.793q.387-.434.72-.849t.563-.747q.231-.332.341-.48a.478.478 0 0 1 .24-.2.314.314 0 0 1 .258 0 .278.278 0 0 1 .138.221.707.707 0 0 1-.138.443q-.111.185-.378.59t-.646.9q-.378.5-.84 1.024a9.495 9.495 0 0 1-.969.959 5.98 5.98 0 0 1-1.015.71 2.027 2.027 0 0 1-.969.277 1.546 1.546 0 0 1-.793-.185 1.645 1.645 0 0 1-.507-.452 1.734 1.734 0 0 1-.277-.59 1.9 1.9 0 0 1-.065-.6 1.606 1.606 0 0 1 .12-.471q.1-.249.24-.517t.3-.535q.157-.268.286-.526.314-.535.507-.913a1.467 1.467 0 0 0 .194-.637.584.584 0 0 0-.074-.3.255.255 0 0 0-.24-.129.912.912 0 0 0-.157.009.469.469 0 0 1-.092.009 1.249 1.249 0 0 0-.129.009 2.459 2.459 0 0 1-.249.009 1 1 0 0 1-.406-.074 1.93 1.93 0 0 0-.314-.111q-.074.129-.332.554t-.6 1q-.341.572-.72 1.2t-.71 1.172l-.563.923q-.237.382-.293.455zm14.581-4.576a.312.312 0 0 1 .194-.138.225.225 0 0 1 .194.028.239.239 0 0 1 .083.185.735.735 0 0 1-.1.351 11.967 11.967 0 0 1-.969 1.513 17.107 17.107 0 0 1-1.264 1.522 9.512 9.512 0 0 1-1.292 1.172 1.929 1.929 0 0 1-1.052.461 1.967 1.967 0 0 1-1.015-.24 1.9 1.9 0 0 1-.637-.59 2.282 2.282 0 0 1-.323-.766 2.383 2.383 0 0 1-.055-.766q.018-.3.129-1.061t.3-1.771q.185-1.006.415-2.159t.489-2.223l-.627.074a4.93 4.93 0 0 1-.572.037 4.371 4.371 0 0 1-1.116-.138 4.324 4.324 0 0 1-.784-.268.2.2 0 0 1-.129-.212.656.656 0 0 1 .111-.277.948.948 0 0 1 .231-.24.438.438 0 0 1 .249-.1q.351.037.757.065a8.357 8.357 0 0 0 .886.009q.351-.018.673-.055t.637-.092q.24-.886.471-1.541a3.988 3.988 0 0 1 .415-.913.445.445 0 0 1 .249-.157 2.156 2.156 0 0 1 .415-.092 1.633 1.633 0 0 1 .424 0 .446.446 0 0 1 .3.138 1.725 1.725 0 0 1 .074.757 9.942 9.942 0 0 1-.2 1.55 10.12 10.12 0 0 1 1.375.083q.6.083 1.024.185a5.3 5.3 0 0 1 .683.2q.258.1.387.138a.184.184 0 0 1 .138.185.683.683 0 0 1-.055.3.633.633 0 0 1-.212.268.4.4 0 0 1-.332.074 3.137 3.137 0 0 1-.415-.074 4.694 4.694 0 0 0-.554-.092q-.323-.037-.766-.074t-1.033-.037q-.111 0-.249.009t-.286.009q-.074.3-.138.581a5.345 5.345 0 0 1-.175.6q-.24.738-.554 1.605-.277.757-.664 1.734t-.867 2.085a2.8 2.8 0 0 0 .028 1.209 1.4 1.4 0 0 0 .341.6.965.965 0 0 0 .59.221 1.105 1.105 0 0 0 .673-.194 4.859 4.859 0 0 0 .821-.618q.424-.387.858-.849t.8-.9q.369-.443.646-.8t.372-.511zm3.768 5.129a1.574 1.574 0 0 1-.729-.157 1.346 1.346 0 0 1-.489-.415 1.4 1.4 0 0 1-.24-.6 1.851 1.851 0 0 1 .037-.729q.055-.258.185-.692t.268-.941q.138-.507.258-1.015a6.582 6.582 0 0 0 .157-.923 1.966 1.966 0 0 0-.037-.683.311.311 0 0 0-.314-.268 1.159 1.159 0 0 0-.609.194 3.383 3.383 0 0 0-.637.526 7.665 7.665 0 0 0-.646.766q-.323.434-.637.895-.166.627-.277 1.1t-.194.849q-.083.378-.157.664t-.129.544a.716.716 0 0 1-.332.36 2.909 2.909 0 0 1-.59.286 1.675 1.675 0 0 1-.544.111q-.231 0-.194-.166.018-.111.12-.5l.24-.913q.138-.526.286-1.116t.277-1.126q.092-.424.2-.941.092-.443.231-1.033t.323-1.292a1.177 1.177 0 0 1 .268-.175 1.582 1.582 0 0 1 .286-.1 1.3 1.3 0 0 1 .314-.074 2.378 2.378 0 0 1 .3.018 1.533 1.533 0 0 1 .268.065.762.762 0 0 1 .249.138q-.055.129-.129.36t-.148.489q-.074.3-.185.609a8.438 8.438 0 0 1 .544-.673 4.854 4.854 0 0 1 .664-.618 3.581 3.581 0 0 1 .766-.452 2.075 2.075 0 0 1 .83-.175 1.034 1.034 0 0 1 .627.2 1.345 1.345 0 0 1 .434.563 2.489 2.489 0 0 1 .185.858 3.348 3.348 0 0 1-.138 1.089l-.2.812q-.092.387-.231.913t-.344 1.154a2 2 0 0 0-.083.7q.028.3.36.3a1.494 1.494 0 0 0 .84-.406 8.814 8.814 0 0 0 1.024-.978q.517-.572.978-1.172t.7-.969a.936.936 0 0 1 .314-.314.227.227 0 0 1 .231-.018q.083.055.083.249a1.158 1.158 0 0 1-.148.489q-.129.258-.4.683t-.637.9q-.369.48-.793.969a8.6 8.6 0 0 1-.886.886 5.436 5.436 0 0 1-.913.646 1.785 1.785 0 0 1-.859.249zm11-4.3a14.1 14.1 0 0 1-1.255 1.578 11.426 11.426 0 0 1-1.485 1.365 8.139 8.139 0 0 1-1.605.969 3.881 3.881 0 0 1-1.6.369 2.313 2.313 0 0 1-.876-.194 2.5 2.5 0 0 1-.858-.6 2.922 2.922 0 0 1-.618-1.052 3.6 3.6 0 0 1-.138-1.568 4.86 4.86 0 0 1 .471-1.6 7.27 7.27 0 0 1 .978-1.541 5.563 5.563 0 0 1 1.31-1.162 2.721 2.721 0 0 1 1.467-.461 1.3 1.3 0 0 1 1.015.351 1.125 1.125 0 0 1 .277.867 2.661 2.661 0 0 1-.323 1.052 4.259 4.259 0 0 1-.637.867 6.461 6.461 0 0 1-.784.7q-.415.314-.784.572l-.775.526q-.369.249-.646.452a2.007 2.007 0 0 0 .166.775 1.525 1.525 0 0 0 .369.507 1.32 1.32 0 0 0 .507.277 2.075 2.075 0 0 0 .581.083 2.612 2.612 0 0 0 1.31-.4 8.983 8.983 0 0 0 1.338-.959 14.7 14.7 0 0 0 1.218-1.172q.563-.609.932-1.052a.5.5 0 0 1 .268-.175.262.262 0 0 1 .221.037.264.264 0 0 1 .083.221.694.694 0 0 1-.128.369zM40.289-23a.95.95 0 0 0-.526.221 2.742 2.742 0 0 0-.6.637 5.526 5.526 0 0 0-.554 1.015 5.943 5.943 0 0 0-.387 1.375q.221-.166.48-.341t.517-.378a5.135 5.135 0 0 0 1.107-1.07 1.865 1.865 0 0 0 .351-.793.758.758 0 0 0-.074-.507.361.361 0 0 0-.314-.159zm2.089 6.587a.649.649 0 0 1-.286.268.368.368 0 0 1-.277.018.257.257 0 0 1-.157-.194.551.551 0 0 1 .074-.369l.249-.5q.194-.387.461-.932l.581-1.181q.314-.637.6-1.209t.526-1.024q.24-.452.351-.655-.2-.185-.277-.268a.74.74 0 0 1-.111-.36 1.3 1.3 0 0 1 .111-.627 3.755 3.755 0 0 1 .387-.747 3.1 3.1 0 0 1 .535-.618.885.885 0 0 1 .572-.258.8.8 0 0 1 .729.332 1.564 1.564 0 0 1 .249.683 1.8 1.8 0 0 1-.037.609 1.772 1.772 0 0 1-.277.664 1.412 1.412 0 0 0 .148.083.7.7 0 0 0 .3.046 1.6 1.6 0 0 0 .415-.037 1.4 1.4 0 0 1 .378-.037.82.82 0 0 1 .517.157 1.264 1.264 0 0 1 .332.387 1.951 1.951 0 0 1 .194.5 3.254 3.254 0 0 1 .083.489 1.513 1.513 0 0 1-.24.959q-.3.5-.72 1.089-.258.369-.517.83a1.432 1.432 0 0 0-.221.83 1.024 1.024 0 0 0 .129.387q.092.148.517.148a1.355 1.355 0 0 0 .692-.231 5.183 5.183 0 0 0 .775-.59 10.648 10.648 0 0 0 .784-.793q.387-.434.72-.849t.563-.747q.231-.332.341-.48a.478.478 0 0 1 .24-.2.314.314 0 0 1 .258 0 .278.278 0 0 1 .138.221.707.707 0 0 1-.138.443q-.111.185-.378.59t-.646.9q-.378.5-.84 1.024a9.5 9.5 0 0 1-.969.959 5.98 5.98 0 0 1-1.015.71 2.027 2.027 0 0 1-.969.277 1.546 1.546 0 0 1-.793-.185 1.645 1.645 0 0 1-.507-.452 1.734 1.734 0 0 1-.277-.59 1.9 1.9 0 0 1-.065-.6 1.607 1.607 0 0 1 .12-.471q.1-.249.24-.517t.3-.535q.157-.268.286-.526.314-.535.507-.913a1.467 1.467 0 0 0 .194-.637.584.584 0 0 0-.074-.3.255.255 0 0 0-.24-.129.911.911 0 0 0-.157.009.469.469 0 0 1-.092.009 1.249 1.249 0 0 0-.129.009 2.459 2.459 0 0 1-.249.009 1 1 0 0 1-.416-.065 1.93 1.93 0 0 0-.314-.111q-.074.129-.332.554t-.6 1q-.341.572-.72 1.2t-.71 1.172l-.563.923q-.228.376-.283.449z" transform="translate(529.558 2892.054)" style="fill:#fff"/>
            <path d="M286.021 11.175a7.574 7.574 0 0 0-1.555-2.405 6.774 6.774 0 0 0-2.339-1.57 7.017 7.017 0 0 0-2.844-.571 5.325 5.325 0 0 0-1.01.106 6.285 6.285 0 0 0-1.01.279 4.518 4.518 0 0 0-.9.478 3.381 3.381 0 0 0-.7.664V1.5H272v12.679a7.788 7.788 0 0 0 .572 3.03 7.453 7.453 0 0 0 1.555 2.379 7.064 7.064 0 0 0 2.339 1.555 7.285 7.285 0 0 0 2.844.558 7.474 7.474 0 0 0 2.844-.545 7.658 7.658 0 0 0 2.339-1.528 7.231 7.231 0 0 0 1.555-2.392 8.142 8.142 0 0 0-.027-6.06zm-3.389 4.532a3.518 3.518 0 0 1-.784 1.223 4.028 4.028 0 0 1-1.156.837 3.285 3.285 0 0 1-1.4.292 3.365 3.365 0 0 1-2.552-1.13 4.018 4.018 0 0 1-.784-1.223 4.112 4.112 0 0 1-.279-1.528 3.782 3.782 0 0 1 .279-1.435 3.7 3.7 0 0 1 .784-1.236 4.041 4.041 0 0 1 1.143-.877 3.053 3.053 0 0 1 1.417-.33 3.285 3.285 0 0 1 1.4.292 3.409 3.409 0 0 1 1.156.824 4.083 4.083 0 0 1 .784 1.236 3.867 3.867 0 0 1 .292 1.528 3.822 3.822 0 0 1-.3 1.527z" transform="translate(238.883 2855.5)" style="fill:#fff"/>
            <path d="M162.392 42.173a6.677 6.677 0 0 0-2.339-1.528 7.23 7.23 0 0 0-2.844-.545 7.062 7.062 0 0 0-2.844.571 7.985 7.985 0 0 0-2.339 1.581 7.23 7.23 0 0 0-1.555 2.392 7.7 7.7 0 0 0-.571 3 7.617 7.617 0 0 0 .571 2.977 7.145 7.145 0 0 0 3.894 3.974 7.363 7.363 0 0 0 5.688 0 8.07 8.07 0 0 0 2.339-1.581 7.369 7.369 0 0 0 1.555-2.392 7.664 7.664 0 0 0 .571-2.977 7.917 7.917 0 0 0-.571-3.083 6.9 6.9 0 0 0-1.555-2.389zm-1.834 7.07a3.366 3.366 0 0 1-.8 1.223 3.8 3.8 0 0 1-1.169.8 3.268 3.268 0 0 1-1.4.266 3.2 3.2 0 0 1-1.409-.306 3.394 3.394 0 0 1-1.143-.837 4.251 4.251 0 0 1-.771-1.223 3.856 3.856 0 0 1-.266-1.528 4.04 4.04 0 0 1 .292-1.581 3.338 3.338 0 0 1 .784-1.223 3.467 3.467 0 0 1 1.156-.8 3.368 3.368 0 0 1 1.409-.266 3.285 3.285 0 0 1 1.4.292 3.016 3.016 0 0 1 1.156.8 4.018 4.018 0 0 1 .784 1.223 3.773 3.773 0 0 1 .279 1.581 3.817 3.817 0 0 1-.301 1.579z" transform="translate(344.756 2822.03)" style="fill:#fff"/>
            <path d="M5.548 56.813v-9.05a1.751 1.751 0 0 1 .133-.7 1.793 1.793 0 0 1 .385-.585 1.611 1.611 0 0 1 .571-.385 1.857 1.857 0 0 1 .7-.146 1.757 1.757 0 0 1 .7.146 1.6 1.6 0 0 1 .585.385 1.659 1.659 0 0 1 .385.585 1.857 1.857 0 0 1 .146.7v9.05h3.628v-9.05a1.751 1.751 0 0 1 .133-.7 1.793 1.793 0 0 1 .385-.585 1.611 1.611 0 0 1 .571-.385 1.857 1.857 0 0 1 .7-.146 1.757 1.757 0 0 1 .7.146 1.6 1.6 0 0 1 .585.385 1.659 1.659 0 0 1 .385.585 1.857 1.857 0 0 1 .146.7v9.05h3.668v-8.931a6.068 6.068 0 0 0-2.844-4.931 5.021 5.021 0 0 0-.465-.226 5.134 5.134 0 0 0-2.113-.425 5.061 5.061 0 0 0-1 .093 4.165 4.165 0 0 0-.983.279 4.406 4.406 0 0 0-.9.518 3.6 3.6 0 0 0-.771.784 3.968 3.968 0 0 0-1.675-1.289 5.19 5.19 0 0 0-1.94-.372 5.136 5.136 0 0 0-1.9.359 5.782 5.782 0 0 0-1.4.784A6.259 6.259 0 0 0 2 47.244v9.569z" transform="translate(473 2820.122)" style="fill:#fff"/>
        </g>
        <rect data-name="Rectangle 19995" width="199" height="20" rx="10" transform="translate(475 2963)" style="fill:#f0f0f0"/>
        <rect data-name="Rectangle 19996" width="199" height="20" rx="10" transform="translate(475 2995)" style="fill:#f0f0f0"/>
        <rect data-name="Rectangle 19997" width="356" height="90" rx="16" transform="translate(475 3039)" style="fill:#f0f0f0"/>
        <text data-name="Order #198" transform="translate(475 2945)" style="font-family:Inter-Bold,Inter;font-weight:700;font-size:24px;fill:#0a243f"><tspan x="0" y="0">Order #198</tspan></text>
        <g data-name="Group 18747">
            <text transform="translate(769 2950)" style="font-size:20px;font-family:Inter-Medium,Inter;font-weight:500;fill:#06e39a"><tspan x="0" y="0">PAID</tspan></text>
            <g data-name="Rectangle 19999" transform="translate(752 2923)" style="stroke:#06e39a;stroke-width:2px;fill:none">
                <rect width="79" height="40" rx="8" style="stroke:none"/>
                <rect x="1" y="1" width="77" height="38" rx="7" style="fill:none"/>
            </g>
        </g>
        <g data-name="Group 18749">
            <g style="filter:url(#wcgna8oc1b)">
                <rect data-name="Rectangle 19998" width="188" height="157" rx="16" transform="translate(691 3022)" style="fill:#fff"/>
            </g>
            <text data-name="₹ 75980" transform="translate(737 3083)" style="font-family:Inter-Bold,Inter;font-weight:700;font-size:24px;fill:#0a243f"><tspan x="0" y="0">₹ 75980</tspan></text>
            <text data-name="Paid through" transform="translate(735 3121)" style="font-size:16px;font-family:Inter-Bold,Inter;font-weight:700;fill:#0a243f"><tspan x="0" y="0">Paid through</tspan></text>
            <g data-name="Mob credit logo" transform="translate(-17263 -7786.641)">
                <rect data-name="Rectangle 15111" width="108" height="28" rx="14" transform="translate(17994 10917.641)" style="fill:#1e1e20"/>
                <g data-name="Group 16476">
                    <g style="opacity:.999">
                        <path data-name="b" d="M284.115 58.512a4.333 4.333 0 0 0-.9-1.393 4 4 0 0 0-1.347-.911 4.079 4.079 0 0 0-1.646-.329 3.213 3.213 0 0 0-.589.061 3.948 3.948 0 0 0-.59.161 2.894 2.894 0 0 0-.528.276 1.948 1.948 0 0 0-.406.383V52.9H276v7.357a4.564 4.564 0 0 0 .329 1.761 4.348 4.348 0 0 0 .9 1.378 4.171 4.171 0 0 0 1.348.9 4.234 4.234 0 0 0 1.646.322 4.345 4.345 0 0 0 1.646-.314 4.129 4.129 0 0 0 1.347-.888 4.216 4.216 0 0 0 .9-1.386 4.587 4.587 0 0 0 .329-1.776 4.462 4.462 0 0 0-.33-1.742zm-1.96 2.634a2.132 2.132 0 0 1-.452.712 2.254 2.254 0 0 1-.674.482 1.927 1.927 0 0 1-.812.168 1.987 1.987 0 0 1-.819-.168 2.063 2.063 0 0 1-.666-.482 2.263 2.263 0 0 1-.452-.712 2.409 2.409 0 0 1-.161-.888 2.217 2.217 0 0 1 .161-.834 2.346 2.346 0 0 1 1.12-1.224 1.789 1.789 0 0 1 .819-.191 1.927 1.927 0 0 1 .812.168 1.993 1.993 0 0 1 .674.475 2.3 2.3 0 0 1 .452.72 2.425 2.425 0 0 1 0 1.776z" transform="translate(17751.676 10872.536)" style="fill:#fff"/>
                        <path data-name="o" d="M159.72 93a3.937 3.937 0 0 0-1.347-.888 4.2 4.2 0 0 0-1.646-.314 4.1 4.1 0 0 0-1.646.329 4.3 4.3 0 0 0-1.347.919 4.218 4.218 0 0 0-.9 1.386 4.514 4.514 0 0 0-.329 1.746 4.464 4.464 0 0 0 .329 1.73 4.383 4.383 0 0 0 .9 1.386 4.474 4.474 0 0 0 1.347.919 4.28 4.28 0 0 0 3.292 0 4.474 4.474 0 0 0 1.347-.919 4.3 4.3 0 0 0 .9-1.386 4.464 4.464 0 0 0 .329-1.73 4.639 4.639 0 0 0-.329-1.792 4.14 4.14 0 0 0-.9-1.386zm-1.057 4.1a2.134 2.134 0 0 1-.452.712 2.053 2.053 0 0 1-1.485.62 1.987 1.987 0 0 1-.819-.168 2.064 2.064 0 0 1-.666-.482 2.314 2.314 0 0 1-.6-1.6 2.516 2.516 0 0 1 .161-.919 2.117 2.117 0 0 1 .444-.712 2 2 0 0 1 .666-.459 2.112 2.112 0 0 1 .819-.161 2.047 2.047 0 0 1 .812.161 1.764 1.764 0 0 1 .674.459 2.262 2.262 0 0 1 .452.712 2.59 2.59 0 0 1 0 1.837z" transform="translate(17865.721 10836.614)" style="fill:#fff"/>
                        <path data-name="m" d="M2.7 102.422V97.17a1.009 1.009 0 0 1 .077-.406A1.033 1.033 0 0 1 3 96.427a.928.928 0 0 1 .329-.222 1.07 1.07 0 0 1 .406-.084 1.012 1.012 0 0 1 .406.084.924.924 0 0 1 .337.222.956.956 0 0 1 .222.337 1.07 1.07 0 0 1 .084.406v5.252h2.109V97.17a1.009 1.009 0 0 1 .077-.406 1.033 1.033 0 0 1 .222-.337.928.928 0 0 1 .329-.222 1.07 1.07 0 0 1 .406-.084 1.012 1.012 0 0 1 .406.084.924.924 0 0 1 .337.222.956.956 0 0 1 .222.337 1.07 1.07 0 0 1 .084.406v5.252h2.144v-5.184a3.521 3.521 0 0 0-1.661-2.863 2.893 2.893 0 0 0-.268-.13A2.994 2.994 0 0 0 7.965 94a3.048 3.048 0 0 0-.582.054 2.569 2.569 0 0 0-.574.161 2.539 2.539 0 0 0-.521.3 2.073 2.073 0 0 0-.444.452 2.326 2.326 0 0 0-.972-.75 3.052 3.052 0 0 0-2.228-.008 3.379 3.379 0 0 0-.812.452A3.534 3.534 0 0 0 .6 96.856v5.566z" transform="translate(18005.992 10834.583)" style="fill:#fff"/>
                    </g>
                    <path data-name="Path 56979" d="M4.673-24q0 3.392 2.848 3.392a4.691 4.691 0 0 0 .968-.1 9.8 9.8 0 0 0 1.112-.32 8.624 8.624 0 0 1 .7 2.368q-.464.176-.864.288a6.457 6.457 0 0 1-.768.168q-.368.056-.728.08T7.2-18.1a6.057 6.057 0 0 1-2.392-.44 4.779 4.779 0 0 1-1.728-1.224 5.183 5.183 0 0 1-1.048-1.872A7.654 7.654 0 0 1 1.681-24a7.421 7.421 0 0 1 .368-2.376 5.536 5.536 0 0 1 1.064-1.9 4.787 4.787 0 0 1 1.72-1.248 5.733 5.733 0 0 1 2.32-.448 9.059 9.059 0 0 1 1.456.112 7.505 7.505 0 0 1 1.536.448 4.667 4.667 0 0 1-.24 1.272 9.464 9.464 0 0 1-.432 1.08q-.32-.112-.584-.192t-.5-.128q-.24-.048-.48-.072t-.512-.024a2.446 2.446 0 0 0-2.008.872A4.042 4.042 0 0 0 4.673-24zm7.056-5.744q.784-.08 1.448-.152a13 13 0 0 1 1.4-.072 9.365 9.365 0 0 1 1.76.168 4.709 4.709 0 0 1 1.568.584 3.264 3.264 0 0 1 1.12 1.136 3.5 3.5 0 0 1 .432 1.824 3.842 3.842 0 0 1-.136 1.064 3.648 3.648 0 0 1-.352.84 3.342 3.342 0 0 1-.48.64 4.465 4.465 0 0 1-.52.464l2.5 4.928q-.384.064-.84.1t-.829.02q-.32 0-.744-.032a6.225 6.225 0 0 1-.744-.1l-2.272-5.232.144-.08a1.8 1.8 0 0 0 .424-.32 2.963 2.963 0 0 0 .432-.536 3.367 3.367 0 0 0 .336-.7 2.379 2.379 0 0 0 .136-.8 1.426 1.426 0 0 0-.448-1.168 1.682 1.682 0 0 0-1.1-.368 1.963 1.963 0 0 0-.272.016.585.585 0 0 0-.144.032v9.152a8.648 8.648 0 0 1-1.392.144 8.546 8.546 0 0 1-1.424-.144zm15.92 5.472a6.143 6.143 0 0 1-.144 1.248h-3.089v2.272h4.016a5.855 5.855 0 0 1 .144 1.216 6.046 6.046 0 0 1-.144 1.264h-6.848v-11.5h6.752q.064.352.1.656a5.514 5.514 0 0 1 .032.576 7.542 7.542 0 0 1-.128 1.264h-3.92v1.76h3.08a6.312 6.312 0 0 1 .148 1.241zm5.552-5.7a6.364 6.364 0 0 1 4.592 1.512 5.981 5.981 0 0 1 1.568 4.5 5.658 5.658 0 0 1-1.6 4.456 6.95 6.95 0 0 1-4.736 1.416q-.8 0-1.544-.072t-1.464-.168v-11.419q.24-.032.608-.072t.8-.072q.432-.032.888-.056t.887-.024zm-.353 9.372a1.827 1.827 0 0 0 .256.016h.3a4.413 4.413 0 0 0 1.176-.152 2.191 2.191 0 0 0 .952-.536 2.626 2.626 0 0 0 .632-1.04 5.119 5.119 0 0 0 .232-1.68 5.048 5.048 0 0 0-.24-1.68 2.82 2.82 0 0 0-.632-1.064 2.246 2.246 0 0 0-.92-.56 3.619 3.619 0 0 0-1.1-.168q-.32 0-.464.008t-.192.008zm9.552 2.421a8.546 8.546 0 0 1-1.424-.144v-11.424q.432-.064.784-.1t.624-.032q.288 0 .648.032t.776.1v11.424a8.7 8.7 0 0 1-1.408.144zm5.424-9.1h-2.672a6.206 6.206 0 0 1-.144-1.264 6.253 6.253 0 0 1 .144-1.232h8.176q.064.352.1.656a5.514 5.514 0 0 1 .032.576 7.542 7.542 0 0 1-.128 1.264h-2.676v8.96a8.7 8.7 0 0 1-1.408.144 8.546 8.546 0 0 1-1.424-.144z" transform="translate(18036.395 10955.418)" style="fill:url(#x8qobria7c)"/>
                </g>
            </g>
            <g data-name="Group 18748">
                <g data-name="Group 18742" transform="translate(763 3000)">
                    <rect data-name="Rectangle 243" width="44" height="44" rx="22" style="fill:#06e39a"/>
                    <path data-name="check (2)" d="M21.995 6 9.623 18.371 4 12.748" transform="translate(9.902 9.702)" style="stroke:#fff;stroke-linecap:round;stroke-linejoin:round;stroke-width:4px;fill:none"/>
                </g>
            </g>
        </g>
    </g>
</svg>
