<svg xmlns="http://www.w3.org/2000/svg" width="24" height="24" viewBox="0 0 24 24">
    <g data-name="Group 6490" transform="translate(-1763 -1748)">
        <circle data-name="Ellipse 1105" cx="12" cy="12" r="12" transform="translate(1763 1748)" style="fill:#1e1e20"/>
        <path data-name="Path 2506" d="M417.658 163a1.658 1.658 0 0 1 1.658 1.658 1.658 1.658 0 0 1-1.658 1.658 1.658 1.658 0 0 1-1.658-1.658 1.658 1.658 0 0 1 1.658-1.658z" transform="translate(1353.119 1599.684)" style="fill:#8aefca"/>
        <path data-name="Path 2507" d="M417.658 108a1.658 1.658 0 0 1 1.658 1.658 1.658 1.658 0 0 1-1.658 1.658 1.658 1.658 0 0 1-1.658-1.658 1.658 1.658 0 0 1 1.658-1.658z" transform="translate(1353.119 1650.342)" style="fill:#8aefca"/>
        <path data-name="Path 2508" d="M417.658 53a1.658 1.658 0 0 1 1.658 1.658 1.658 1.658 0 0 1-1.658 1.658A1.658 1.658 0 0 1 416 54.658 1.658 1.658 0 0 1 417.658 53z" transform="translate(1353.119 1701)" style="fill:#8aefca"/>
        <path data-name="Path 2509" d="M472.658 163a1.658 1.658 0 0 1 1.658 1.658 1.658 1.658 0 0 1-1.658 1.658 1.658 1.658 0 0 1-1.658-1.658 1.658 1.658 0 0 1 1.658-1.658z" transform="translate(1302.461 1599.684)" style="fill:#8aefca"/>
        <path data-name="Path 2510" d="M472.658 108a1.658 1.658 0 0 1 1.658 1.658 1.658 1.658 0 0 1-1.658 1.658 1.658 1.658 0 0 1-1.658-1.658 1.658 1.658 0 0 1 1.658-1.658z" transform="translate(1302.461 1650.342)" style="fill:#8aefca"/>
        <path data-name="Path 2511" d="M472.658 53a1.658 1.658 0 0 1 1.658 1.658 1.658 1.658 0 0 1-1.658 1.658A1.658 1.658 0 0 1 471 54.658 1.658 1.658 0 0 1 472.658 53z" transform="translate(1302.461 1701)" style="fill:#8aefca"/>
        <path data-name="Path 2512" d="M527.658 108a1.658 1.658 0 0 1 1.658 1.658 1.658 1.658 0 0 1-1.658 1.658 1.658 1.658 0 0 1-1.658-1.658 1.658 1.658 0 0 1 1.658-1.658z" transform="translate(1251.803 1650.342)" style="fill:#8aefca"/>
    </g>
</svg>
