<svg xmlns="http://www.w3.org/2000/svg" width="64" height="64" viewBox="0 0 64 64">
    <g data-name="Group 18546" transform="translate(-480 -432)">
        <circle data-name="Ellipse 1126" cx="32" cy="32" r="32" transform="translate(480 432)" style="fill:#84ffdb"/>
        <g data-name="mob logo final">
            <path data-name="Path 2506" d="M501.145 470.712a4.144 4.144 0 0 1 4.145 4.145 4.144 4.144 0 0 1-4.145 4.145 4.144 4.144 0 0 1-4.145-4.145 4.144 4.144 0 0 1 4.145-4.145z"/>
            <path data-name="Path 2507" d="M501.145 459.856a4.144 4.144 0 0 1 4.145 4.145 4.144 4.144 0 0 1-4.145 4.145 4.144 4.144 0 0 1-4.145-4.145 4.144 4.144 0 0 1 4.145-4.145z"/>
            <path data-name="Path 2508" d="M501.145 449.001a4.144 4.144 0 0 1 4.145 4.145 4.144 4.144 0 0 1-4.145 4.145 4.144 4.144 0 0 1-4.145-4.145 4.144 4.144 0 0 1 4.145-4.145z"/>
            <path data-name="Path 2509" d="M512 470.712a4.144 4.144 0 0 1 4.145 4.145 4.144 4.144 0 0 1-4.145 4.145 4.144 4.144 0 0 1-4.145-4.145 4.144 4.144 0 0 1 4.145-4.145z"/>
            <path data-name="Path 2510" d="M512 459.856a4.144 4.144 0 0 1 4.145 4.145 4.144 4.144 0 0 1-4.145 4.145 4.144 4.144 0 0 1-4.145-4.145 4.144 4.144 0 0 1 4.145-4.145z"/>
            <path data-name="Path 2511" d="M512 449.001a4.144 4.144 0 0 1 4.145 4.145 4.144 4.144 0 0 1-4.145 4.145 4.144 4.144 0 0 1-4.145-4.145 4.144 4.144 0 0 1 4.145-4.145z"/>
            <path data-name="Path 2512" d="M522.855 459.856a4.144 4.144 0 0 1 4.145 4.145 4.144 4.144 0 0 1-4.145 4.145 4.144 4.144 0 0 1-4.145-4.145 4.144 4.144 0 0 1 4.145-4.145z"/>
        </g>
    </g>
</svg>
