<svg xmlns="http://www.w3.org/2000/svg" width="80" height="11.433" viewBox="0 0 80 11.433">
    <g data-name="Group 18483" style="opacity:.807">
        <g style="opacity:.999">
            <path d="M283.8 58.292a4.164 4.164 0 0 0-.868-1.339 3.839 3.839 0 0 0-1.295-.875 3.919 3.919 0 0 0-1.582-.316 3.087 3.087 0 0 0-.566.059 3.793 3.793 0 0 0-.566.154 2.78 2.78 0 0 0-.508.265 1.872 1.872 0 0 0-.39.368V52.9H276v7.069a4.385 4.385 0 0 0 .316 1.692 4.176 4.176 0 0 0 .868 1.324 4.007 4.007 0 0 0 1.295.868 4.068 4.068 0 0 0 1.582.309 4.175 4.175 0 0 0 1.582-.3 3.967 3.967 0 0 0 1.295-.853 4.05 4.05 0 0 0 .868-1.331 4.407 4.407 0 0 0 .316-1.707 4.288 4.288 0 0 0-.322-1.679zm-1.883 2.531a2.05 2.05 0 0 1-.434.684 2.166 2.166 0 0 1-.647.463 1.851 1.851 0 0 1-.78.162 1.909 1.909 0 0 1-.787-.162 1.983 1.983 0 0 1-.64-.463 2.176 2.176 0 0 1-.434-.684 2.315 2.315 0 0 1-.154-.853 2.131 2.131 0 0 1 .154-.8 2.254 2.254 0 0 1 1.074-1.177 1.719 1.719 0 0 1 .787-.184 1.852 1.852 0 0 1 .78.162 1.915 1.915 0 0 1 .647.456 2.209 2.209 0 0 1 .434.691 2.33 2.33 0 0 1 0 1.707z" transform="translate(-255.741 -52.9)" style="fill:#1e1e20"/>
            <path d="M159.437 92.955a3.783 3.783 0 0 0-1.295-.853 4.038 4.038 0 0 0-1.582-.3 3.944 3.944 0 0 0-1.582.316 4.13 4.13 0 0 0-1.295.883 4.053 4.053 0 0 0-.868 1.332 4.337 4.337 0 0 0-.316 1.677 4.289 4.289 0 0 0 .316 1.663 4.211 4.211 0 0 0 .869 1.327 4.3 4.3 0 0 0 1.295.883 4.112 4.112 0 0 0 3.163 0 4.3 4.3 0 0 0 1.295-.883 4.131 4.131 0 0 0 .868-1.331 4.289 4.289 0 0 0 .316-1.663 4.457 4.457 0 0 0-.316-1.721 3.978 3.978 0 0 0-.868-1.33zm-1.015 3.936a2.05 2.05 0 0 1-.434.684 1.972 1.972 0 0 1-1.427.6 1.909 1.909 0 0 1-.787-.162 1.984 1.984 0 0 1-.64-.463 2.224 2.224 0 0 1-.581-1.537 2.418 2.418 0 0 1 .154-.883 2.035 2.035 0 0 1 .427-.684 1.92 1.92 0 0 1 .64-.441 2.029 2.029 0 0 1 .787-.154 1.967 1.967 0 0 1 .78.154 1.7 1.7 0 0 1 .647.441 2.173 2.173 0 0 1 .434.684 2.488 2.488 0 0 1 0 1.765z" transform="translate(-141.326 -88.938)" style="fill:#1e1e20"/>
            <path d="M2.616 102.092v-5.046a.969.969 0 0 1 .074-.39.992.992 0 0 1 .213-.324.891.891 0 0 1 .316-.213 1.028 1.028 0 0 1 .39-.081.973.973 0 0 1 .39.081.888.888 0 0 1 .324.213.918.918 0 0 1 .213.324 1.028 1.028 0 0 1 .081.39v5.046h2.03v-5.046a.969.969 0 0 1 .074-.39.992.992 0 0 1 .213-.324.891.891 0 0 1 .316-.213 1.028 1.028 0 0 1 .39-.081.973.973 0 0 1 .39.081.888.888 0 0 1 .324.213.918.918 0 0 1 .213.324 1.028 1.028 0 0 1 .081.39v5.046h2.06v-4.98a3.383 3.383 0 0 0-1.6-2.751 2.782 2.782 0 0 0-.257-.125A2.876 2.876 0 0 0 7.677 94a2.928 2.928 0 0 0-.559.052 2.469 2.469 0 0 0-.552.154 2.44 2.44 0 0 0-.5.287 1.992 1.992 0 0 0-.427.434 2.235 2.235 0 0 0-.934-.721 2.933 2.933 0 0 0-2.141-.006 3.247 3.247 0 0 0-.78.434A3.4 3.4 0 0 0 .6 96.744v5.348z" transform="translate(-.6 -90.977)" style="fill:#1e1e20"/>
        </g>
        <path data-name="Path 56979" d="M4.556-24.237q0 3.259 2.736 3.259a4.508 4.508 0 0 0 .93-.092 9.418 9.418 0 0 0 1.068-.307 8.286 8.286 0 0 1 .677 2.277q-.446.169-.83.277a6.2 6.2 0 0 1-.738.161q-.354.054-.7.077t-.715.023a5.82 5.82 0 0 1-2.3-.423 4.592 4.592 0 0 1-1.66-1.176 4.98 4.98 0 0 1-1.007-1.8 7.354 7.354 0 0 1-.338-2.275 7.13 7.13 0 0 1 .354-2.283 5.319 5.319 0 0 1 1.022-1.822 4.6 4.6 0 0 1 1.653-1.2 5.509 5.509 0 0 1 2.229-.43 8.7 8.7 0 0 1 1.4.108 7.211 7.211 0 0 1 1.476.43 4.485 4.485 0 0 1-.231 1.222 9.094 9.094 0 0 1-.415 1.038q-.307-.108-.561-.184t-.484-.123q-.231-.046-.461-.069t-.492-.023a2.35 2.35 0 0 0-1.929.838 3.884 3.884 0 0 0-.684 2.497zm6.78-5.519q.753-.077 1.391-.146a12.491 12.491 0 0 1 1.345-.069 9 9 0 0 1 1.691.161 4.525 4.525 0 0 1 1.507.561 3.137 3.137 0 0 1 1.076 1.092 3.361 3.361 0 0 1 .415 1.753 3.692 3.692 0 0 1-.131 1.022 3.505 3.505 0 0 1-.338.807 3.211 3.211 0 0 1-.461.615 4.291 4.291 0 0 1-.5.446l2.4 4.735q-.369.061-.807.092t-.792.031q-.307 0-.715-.031a5.982 5.982 0 0 1-.715-.092l-2.183-5.027.138-.077a1.728 1.728 0 0 0 .407-.307 2.847 2.847 0 0 0 .415-.515 3.235 3.235 0 0 0 .323-.669 2.285 2.285 0 0 0 .131-.769 1.37 1.37 0 0 0-.43-1.122 1.616 1.616 0 0 0-1.061-.354 1.886 1.886 0 0 0-.261.015.563.563 0 0 0-.138.031v8.794a8.309 8.309 0 0 1-1.337.138 8.211 8.211 0 0 1-1.368-.138zm15.3 5.258a5.9 5.9 0 0 1-.138 1.2h-2.971v2.183h3.859a5.626 5.626 0 0 1 .138 1.168 5.81 5.81 0 0 1-.138 1.214h-6.58v-11.054h6.488q.061.338.092.63a5.3 5.3 0 0 1 .031.553 7.247 7.247 0 0 1-.123 1.215h-3.767v1.689h2.967a6.065 6.065 0 0 1 .138 1.2zm5.335-5.473a6.115 6.115 0 0 1 4.412 1.453 5.747 5.747 0 0 1 1.507 4.328 5.436 5.436 0 0 1-1.537 4.281 6.678 6.678 0 0 1-4.553 1.36q-.769 0-1.484-.069t-1.407-.161v-10.977q.231-.031.584-.069t.769-.069q.415-.031.853-.054t.852-.023zm-.338 9.009a1.756 1.756 0 0 0 .246.015h.292a4.24 4.24 0 0 0 1.13-.146 2.105 2.105 0 0 0 .915-.515 2.524 2.524 0 0 0 .607-1 4.919 4.919 0 0 0 .223-1.614 4.85 4.85 0 0 0-.231-1.614 2.71 2.71 0 0 0-.607-1.022 2.158 2.158 0 0 0-.884-.538 3.477 3.477 0 0 0-1.061-.161q-.307 0-.446.008t-.184.008zm9.178 2.321a8.211 8.211 0 0 1-1.368-.138v-10.977q.415-.061.753-.092t.6-.031q.277 0 .623.031t.746.092v10.977a8.363 8.363 0 0 1-1.359.138zm5.212-8.747H43.45a5.964 5.964 0 0 1-.138-1.215 6.009 6.009 0 0 1 .138-1.184h7.856q.062.338.092.63a5.3 5.3 0 0 1 .031.553 7.247 7.247 0 0 1-.123 1.215h-2.567v8.609a8.364 8.364 0 0 1-1.353.138 8.211 8.211 0 0 1-1.368-.138z" transform="translate(28.571 29.981)" style="fill:#1e1e20"/>
    </g>
</svg>
