<svg xmlns="http://www.w3.org/2000/svg" width="137.7" height="36" viewBox="0 0 137.7 36">
    <defs>
        <linearGradient id="yey4rsw12a" x1=".254" x2=".644" y2="1" gradientUnits="objectBoundingBox">
            <stop offset="0" stop-color="#d6f09a"/>
            <stop offset="1" stop-color="#adebf5"/>
        </linearGradient>
    </defs>
    <g data-name="Mob credit logo" transform="translate(-17994 -10918.108)">
        <rect data-name="Rectangle 15111" width="137.7" height="36" rx="12" transform="translate(17994 10918.108)" style="fill:#1e1e20"/>
        <g data-name="Group 16476">
            <g style="opacity:.999">
                <path d="M286.464 60.136a5.587 5.587 0 0 0-1.165-1.8 5.151 5.151 0 0 0-1.737-1.175 5.259 5.259 0 0 0-2.122-.424 4.143 4.143 0 0 0-.76.079 5.091 5.091 0 0 0-.76.207 3.733 3.733 0 0 0-.681.355 2.511 2.511 0 0 0-.523.494V52.9H276v9.486a5.886 5.886 0 0 0 .424 2.27 5.607 5.607 0 0 0 1.165 1.777 5.377 5.377 0 0 0 1.737 1.165 5.46 5.46 0 0 0 2.122.415 5.6 5.6 0 0 0 2.122-.4 5.323 5.323 0 0 0 1.737-1.145 5.435 5.435 0 0 0 1.165-1.787 5.915 5.915 0 0 0 .425-2.29 5.754 5.754 0 0 0-.433-2.255zm-2.527 3.4a2.75 2.75 0 0 1-.583.918 2.907 2.907 0 0 1-.869.622 2.485 2.485 0 0 1-1.046.217 2.562 2.562 0 0 1-1.056-.217 2.661 2.661 0 0 1-.859-.622 2.917 2.917 0 0 1-.582-.918 3.107 3.107 0 0 1-.207-1.145 2.859 2.859 0 0 1 .207-1.076 3.024 3.024 0 0 1 1.441-1.579 2.307 2.307 0 0 1 1.056-.247 2.485 2.485 0 0 1 1.046.217 2.57 2.57 0 0 1 .869.612 2.963 2.963 0 0 1 .583.928 3.128 3.128 0 0 1 0 2.29z" transform="translate(17761.422 10875.156)" style="fill:#fff"/>
                <path d="M161.809 93.35a5.076 5.076 0 0 0-1.737-1.145 5.419 5.419 0 0 0-2.122-.4 5.293 5.293 0 0 0-2.122.424 5.542 5.542 0 0 0-1.737 1.185 5.438 5.438 0 0 0-1.165 1.787 5.82 5.82 0 0 0-.424 2.251 5.756 5.756 0 0 0 .424 2.231 5.651 5.651 0 0 0 1.165 1.787 5.769 5.769 0 0 0 1.737 1.185 5.518 5.518 0 0 0 4.245 0 5.769 5.769 0 0 0 1.737-1.185 5.543 5.543 0 0 0 1.165-1.787 5.756 5.756 0 0 0 .424-2.231 5.981 5.981 0 0 0-.424-2.31 5.338 5.338 0 0 0-1.166-1.792zm-1.362 5.281a2.751 2.751 0 0 1-.582.918 2.647 2.647 0 0 1-1.915.8 2.562 2.562 0 0 1-1.056-.217 2.661 2.661 0 0 1-.859-.622 2.984 2.984 0 0 1-.78-2.063 3.244 3.244 0 0 1 .207-1.185 2.729 2.729 0 0 1 .573-.918 2.576 2.576 0 0 1 .859-.592 2.723 2.723 0 0 1 1.056-.207 2.639 2.639 0 0 1 1.046.207 2.274 2.274 0 0 1 .869.592 2.916 2.916 0 0 1 .582.918 3.339 3.339 0 0 1 0 2.369z" transform="translate(17872.731 10840.096)" style="fill:#fff"/>
                <path d="M3.3 104.859v-6.772a1.3 1.3 0 0 1 .1-.523 1.332 1.332 0 0 1 .286-.434 1.2 1.2 0 0 1 .424-.286 1.379 1.379 0 0 1 .523-.109 1.3 1.3 0 0 1 .523.109 1.191 1.191 0 0 1 .434.286 1.232 1.232 0 0 1 .286.434 1.379 1.379 0 0 1 .109.523v6.772h2.729v-6.772a1.3 1.3 0 0 1 .1-.523 1.332 1.332 0 0 1 .286-.434 1.2 1.2 0 0 1 .424-.286 1.379 1.379 0 0 1 .523-.109 1.3 1.3 0 0 1 .523.109 1.191 1.191 0 0 1 .434.286 1.233 1.233 0 0 1 .286.434 1.379 1.379 0 0 1 .109.523v6.772h2.764v-6.683a4.539 4.539 0 0 0-2.142-3.692 3.731 3.731 0 0 0-.345-.168A3.86 3.86 0 0 0 10.1 94a3.929 3.929 0 0 0-.75.069 3.313 3.313 0 0 0-.74.207 3.273 3.273 0 0 0-.671.385 2.674 2.674 0 0 0-.573.582 3 3 0 0 0-1.254-.967 3.936 3.936 0 0 0-2.873-.01 4.357 4.357 0 0 0-1.046.582A4.557 4.557 0 0 0 .6 97.682v7.176z" transform="translate(18009.636 10838.113)" style="fill:#fff"/>
            </g>
            <path data-name="Path 56979" d="M5.539-22.276q0 4.373 3.672 4.373a6.049 6.049 0 0 0 1.248-.124 12.637 12.637 0 0 0 1.434-.413 11.12 11.12 0 0 1 .908 3.053q-.6.227-1.114.371a8.325 8.325 0 0 1-.99.217q-.474.072-.939.1t-.959.031a7.81 7.81 0 0 1-3.084-.567 6.162 6.162 0 0 1-2.228-1.578 6.682 6.682 0 0 1-1.351-2.414 9.869 9.869 0 0 1-.454-3.053 9.568 9.568 0 0 1 .474-3.063 7.138 7.138 0 0 1 1.372-2.445 6.172 6.172 0 0 1 2.218-1.609 7.392 7.392 0 0 1 2.991-.578 11.681 11.681 0 0 1 1.877.144 9.677 9.677 0 0 1 1.98.578 6.018 6.018 0 0 1-.309 1.64 12.2 12.2 0 0 1-.557 1.392q-.413-.144-.753-.248t-.65-.165q-.309-.062-.619-.093t-.66-.031a3.154 3.154 0 0 0-2.589 1.124 5.212 5.212 0 0 0-.918 3.358zm9.1-7.406q1.011-.1 1.867-.2a16.758 16.758 0 0 1 1.805-.093 12.076 12.076 0 0 1 2.269.217A6.072 6.072 0 0 1 22.6-29a4.209 4.209 0 0 1 1.444 1.465 4.51 4.51 0 0 1 .557 2.352 4.954 4.954 0 0 1-.175 1.372 4.7 4.7 0 0 1-.454 1.083 4.309 4.309 0 0 1-.619.825 5.758 5.758 0 0 1-.67.6l3.217 6.35q-.5.083-1.083.124t-1.062.041q-.413 0-.959-.041a8.028 8.028 0 0 1-.959-.124l-2.93-6.747.186-.1a2.318 2.318 0 0 0 .547-.413 3.821 3.821 0 0 0 .557-.691 4.342 4.342 0 0 0 .433-.9 3.067 3.067 0 0 0 .175-1.031 1.838 1.838 0 0 0-.578-1.506 2.169 2.169 0 0 0-1.423-.474 2.532 2.532 0 0 0-.351.021.755.755 0 0 0-.186.041v11.8a11.15 11.15 0 0 1-1.795.186 11.018 11.018 0 0 1-1.836-.186zm20.526 7.055a7.921 7.921 0 0 1-.186 1.609H31v2.929h5.178a7.55 7.55 0 0 1 .186 1.568 7.8 7.8 0 0 1-.186 1.63h-8.834v-14.832h8.706q.083.454.124.846a7.109 7.109 0 0 1 .041.743 9.725 9.725 0 0 1-.165 1.63H31v2.269h3.981a8.139 8.139 0 0 1 .182 1.608zm7.158-7.344a8.205 8.205 0 0 1 5.921 1.949q2.022 1.949 2.022 5.807 0 3.92-2.063 5.745t-6.106 1.826q-1.031 0-1.991-.093t-1.888-.217v-14.728q.309-.041.784-.093t1.031-.093q.557-.041 1.145-.072t1.143-.031zm-.454 12.089a2.356 2.356 0 0 0 .33.021h.392a5.689 5.689 0 0 0 1.516-.2 2.825 2.825 0 0 0 1.227-.691 3.387 3.387 0 0 0 .815-1.341 6.6 6.6 0 0 0 .3-2.166 6.508 6.508 0 0 0-.309-2.166 3.636 3.636 0 0 0-.815-1.372 2.9 2.9 0 0 0-1.186-.722 4.666 4.666 0 0 0-1.423-.217q-.413 0-.6.01t-.248.01zm12.316 3.115a11.018 11.018 0 0 1-1.836-.186v-14.729q.557-.083 1.011-.124t.8-.041q.371 0 .836.041t1 .124v14.729a11.223 11.223 0 0 1-1.813.186zm6.993-11.738h-3.447a8 8 0 0 1-.186-1.63 8.062 8.062 0 0 1 .186-1.588h10.542q.083.454.124.846a7.109 7.109 0 0 1 .041.743 9.724 9.724 0 0 1-.165 1.63h-3.445v11.553a11.223 11.223 0 0 1-1.815.186 11.018 11.018 0 0 1-1.836-.186z" transform="translate(18049.15 10958.041)" style="fill:url(#yey4rsw12a)"/>
        </g>
    </g>
</svg>
