<svg xmlns="http://www.w3.org/2000/svg" width="194.118" height="40" viewBox="0 0 194.118 40">
    <g data-name="Group 18241">
        <path data-name="Path 56994" d="M-2.042-.11q.134-.1.419-.335a3.567 3.567 0 0 0 .671-.872A12.414 12.414 0 0 0-.1-3.163 26.908 26.908 0 0 0 .877-6.45q.268-1.107.7-2.818t.956-3.657q.52-1.946 1.057-4.009t1.04-3.925l.906-3.372q.406-1.51.637-2.348a11.692 11.692 0 0 0-1.241.906q-.537.436-1.141.99t-1.17 1.157a2.8 2.8 0 0 1-.671-.805 2.7 2.7 0 0 1-.235-.436 2.776 2.776 0 0 1-.2-1.04q0-.537.839-1.107.436-.3 1.325-.872a14.738 14.738 0 0 1 2.2-1.124 18.619 18.619 0 0 1 3.053-.956 17.174 17.174 0 0 1 3.858-.4 6.167 6.167 0 0 1 3.405.839 5.951 5.951 0 0 1 1.979 2.046 7.3 7.3 0 0 1 .889 2.55 9.6 9.6 0 0 1 .1 2.348 11.771 11.771 0 0 1-1.208 3.925 13.672 13.672 0 0 1-2.784 3.774 15.925 15.925 0 0 1-4.328 2.935A15.344 15.344 0 0 1 5-10.476Q4.735-9.2 4.466-7.859T3.9-5.226q-.3 1.292-.621 2.415a17.466 17.466 0 0 1-.658 1.93A3.806 3.806 0 0 1 1.749.511a2.391 2.391 0 0 1-1.711.52 2.2 2.2 0 0 1-1.124-.3 3.513 3.513 0 0 1-.956-.841zm7.951-15.3q-.1.537-.252 1.392t-.352 1.929a13 13 0 0 0 2.013-.486 12.614 12.614 0 0 0 2.214-.956 14.411 14.411 0 0 0 2.168-1.457 11.994 11.994 0 0 0 1.929-1.979 10.9 10.9 0 0 0 1.459-2.55 11.071 11.071 0 0 0 .755-3.17 7.107 7.107 0 0 0-.185-2.8 4.449 4.449 0 0 0-1.027-1.813 3.771 3.771 0 0 0-1.543-.973 5.586 5.586 0 0 0-1.744-.285 5.841 5.841 0 0 0-1.644.235 11.782 11.782 0 0 0-1.61.6.661.661 0 0 1 .235.168 1.257 1.257 0 0 1 .3.57q-.804 3.257-1.325 5.438t-.822 3.556q-.368 1.61-.569 2.583zm28.859 3.824q-.47.671-1.208 1.661t-1.526 1.982q-.788.99-1.543 1.812a7.635 7.635 0 0 1-1.258 1.157 3.489 3.489 0 0 1-.772.335 4.024 4.024 0 0 1-.889.168 3.069 3.069 0 0 1-.855-.05 1.987 1.987 0 0 1-.7-.285 1.766 1.766 0 0 1-.5-.671 5.83 5.83 0 0 1-.319-.973 5.5 5.5 0 0 1-.117-1.51 7.006 7.006 0 0 1-1.786 2.06 7.941 7.941 0 0 1-1.846 1.06 7.223 7.223 0 0 1-2.013.436 1.99 1.99 0 0 1-1.006-.319 2.505 2.505 0 0 1-.906-1.006 4.678 4.678 0 0 1-.47-1.778 8.044 8.044 0 0 1 .268-2.6 12.438 12.438 0 0 1 1.493-3.724 14.9 14.9 0 0 1 2.232-2.869 9.928 9.928 0 0 1 2.382-1.795 3.77 3.77 0 0 1 1.946-.537 4.073 4.073 0 0 1 1.476.537 1.605 1.605 0 0 1 .621.99 2.409 2.409 0 0 1-.554 1.728 7.763 7.763 0 0 1 .788-.134q.319-.034.486-.034a.7.7 0 0 1 .268.034.764.764 0 0 1 .034.285 5.43 5.43 0 0 1-.1.788q-.1.57-.3 1.543t-.537 2.516q-.067.3-.117.554l-.1.5-.117.587-.168.839a4.15 4.15 0 0 0-.017.654 2.425 2.425 0 0 0 .117.654 1.06 1.06 0 0 0 .319.486.934.934 0 0 0 .621.185 1.593 1.593 0 0 0 .872-.419 9.783 9.783 0 0 0 1.133-1.07q.6-.654 1.258-1.443t1.224-1.526q.57-.738 1.023-1.308t.654-.839a1 1 0 0 1 .537-.352.362.362 0 0 1 .4.151.8.8 0 0 1 .05.6 2.517 2.517 0 0 1-.478.943zm-9.83 1.476q.168-.671.4-1.577t.4-1.744q.168-.839.252-1.392t-.05-.52a3.1 3.1 0 0 0-.369.1 1.8 1.8 0 0 1-.436.1 4.527 4.527 0 0 0-.537.1 3.084 3.084 0 0 0 .319-.889 1.908 1.908 0 0 0 .017-.554.8.8 0 0 0-.134-.369q-.369-.3-1.292.486a11.418 11.418 0 0 0-2.13 2.9 8.922 8.922 0 0 0-.805 1.862 11.811 11.811 0 0 0-.419 1.862 6.568 6.568 0 0 0-.05 1.526 1.488 1.488 0 0 0 .268.855 1.1 1.1 0 0 0 .843.364 2.25 2.25 0 0 0 .956-.268 5.494 5.494 0 0 0 .973-.654 7.8 7.8 0 0 0 .872-.839 8.267 8.267 0 0 0 .637-.805 1.8 1.8 0 0 0 .285-.541zm5.208 5.032a1.18 1.18 0 0 1-.52.486.668.668 0 0 1-.5.034.468.468 0 0 1-.285-.352 1 1 0 0 1 .134-.671l.453-.906q.352-.7.839-1.694l1.057-2.147q.57-1.157 1.09-2.2t.956-1.862q.436-.822.637-1.191-.369-.335-.5-.486a1.345 1.345 0 0 1-.2-.654 2.355 2.355 0 0 1 .2-1.141 6.827 6.827 0 0 1 .7-1.359 5.633 5.633 0 0 1 .973-1.124 1.609 1.609 0 0 1 1.04-.47 1.45 1.45 0 0 1 1.325.6A2.844 2.844 0 0 1 38-18.964a3.277 3.277 0 0 1-.067 1.107 3.222 3.222 0 0 1-.5 1.208 2.565 2.565 0 0 0 .268.151 1.272 1.272 0 0 0 .537.084 2.906 2.906 0 0 0 .755-.067 2.548 2.548 0 0 1 .688-.067 1.491 1.491 0 0 1 .939.285 2.3 2.3 0 0 1 .6.7 3.547 3.547 0 0 1 .352.906 5.916 5.916 0 0 1 .151.889 2.751 2.751 0 0 1-.436 1.744q-.537.906-1.308 1.979-.47.671-.939 1.51a2.6 2.6 0 0 0-.4 1.51 1.862 1.862 0 0 0 .235.7q.168.268.939.268a2.463 2.463 0 0 0 1.258-.419 9.423 9.423 0 0 0 1.409-1.074A19.36 19.36 0 0 0 43.9-8.983q.7-.788 1.308-1.543t1.023-1.359q.419-.6.621-.872a.869.869 0 0 1 .436-.369.571.571 0 0 1 .47 0 .506.506 0 0 1 .252.4 1.285 1.285 0 0 1-.252.805q-.2.335-.688 1.074T45.9-9.2q-.688.906-1.526 1.862a17.264 17.264 0 0 1-1.761 1.744A10.872 10.872 0 0 1 40.764-4.3 3.686 3.686 0 0 1 39-3.8a2.81 2.81 0 0 1-1.443-.335 2.992 2.992 0 0 1-.923-.822 3.152 3.152 0 0 1-.5-1.074 3.461 3.461 0 0 1-.117-1.09 2.921 2.921 0 0 1 .218-.855q.185-.453.436-.939t.537-.973q.285-.486.52-.956.57-.973.923-1.661A2.667 2.667 0 0 0 39-13.663a1.063 1.063 0 0 0-.134-.537.464.464 0 0 0-.436-.235 1.658 1.658 0 0 0-.285.017.854.854 0 0 1-.168.017 2.271 2.271 0 0 0-.235.017 4.473 4.473 0 0 1-.453.017 1.814 1.814 0 0 1-.738-.134 3.51 3.51 0 0 0-.57-.2q-.134.235-.6 1.006t-1.09 1.812q-.621 1.04-1.308 2.181t-1.292 2.13L30.666-5.9q-.419.691-.52.825zm26.511-8.32a.567.567 0 0 1 .352-.252.41.41 0 0 1 .352.05.434.434 0 0 1 .151.335 1.336 1.336 0 0 1-.185.637 21.757 21.757 0 0 1-1.761 2.751 31.1 31.1 0 0 1-2.3 2.768 17.294 17.294 0 0 1-2.348 2.13 3.507 3.507 0 0 1-1.912.839 3.577 3.577 0 0 1-1.845-.436 3.463 3.463 0 0 1-1.157-1.074 4.149 4.149 0 0 1-.587-1.392 4.334 4.334 0 0 1-.1-1.392q.034-.537.235-1.929t.537-3.221q.335-1.828.755-3.925t.889-4.043l-1.141.134a8.964 8.964 0 0 1-1.04.067 7.947 7.947 0 0 1-2.03-.252 7.863 7.863 0 0 1-1.426-.486.359.359 0 0 1-.235-.386 1.192 1.192 0 0 1 .2-.5 1.725 1.725 0 0 1 .419-.436.8.8 0 0 1 .453-.185q.637.067 1.375.117a15.194 15.194 0 0 0 1.61.017q.637-.034 1.224-.1t1.157-.168q.436-1.61.855-2.8a7.251 7.251 0 0 1 .755-1.661.81.81 0 0 1 .453-.285 3.92 3.92 0 0 1 .755-.168 2.968 2.968 0 0 1 .772 0 .812.812 0 0 1 .537.252 3.136 3.136 0 0 1 .134 1.375 18.077 18.077 0 0 1-.369 2.818 18.4 18.4 0 0 1 2.5.151q1.09.151 1.862.335a9.633 9.633 0 0 1 1.241.369q.47.185.7.252a.334.334 0 0 1 .252.335 1.241 1.241 0 0 1-.1.554 1.152 1.152 0 0 1-.386.486.726.726 0 0 1-.6.134 5.7 5.7 0 0 1-.755-.134 8.534 8.534 0 0 0-1.006-.168q-.587-.067-1.392-.134t-1.879-.067q-.2 0-.453.017t-.52.017q-.134.537-.252 1.057a9.717 9.717 0 0 1-.319 1.09q-.436 1.342-1.006 2.919-.5 1.375-1.208 3.154T47.3-10.04a5.1 5.1 0 0 0 .05 2.2 2.545 2.545 0 0 0 .621 1.09 1.755 1.755 0 0 0 1.074.4 2.01 2.01 0 0 0 1.221-.35 8.834 8.834 0 0 0 1.493-1.124q.772-.7 1.56-1.543t1.459-1.644q.671-.805 1.174-1.459t.705-.925zm6.852 9.326a2.861 2.861 0 0 1-1.325-.285 2.448 2.448 0 0 1-.889-.755 2.548 2.548 0 0 1-.436-1.09 3.365 3.365 0 0 1 .067-1.325q.1-.47.335-1.258t.486-1.711q.252-.923.47-1.845a11.966 11.966 0 0 0 .285-1.677 3.575 3.575 0 0 0-.067-1.241.566.566 0 0 0-.57-.486 2.107 2.107 0 0 0-1.107.352 6.15 6.15 0 0 0-1.157.956 13.935 13.935 0 0 0-1.174 1.392q-.587.788-1.157 1.627-.3 1.141-.5 2t-.352 1.543q-.151.688-.285 1.208t-.235.99a1.3 1.3 0 0 1-.6.654 5.29 5.29 0 0 1-1.074.52 3.046 3.046 0 0 1-.99.2q-.419 0-.352-.3.034-.2.218-.906t.436-1.661q.252-.956.52-2.03t.5-2.046q.168-.772.369-1.711.168-.805.419-1.879t.587-2.348a2.139 2.139 0 0 1 .486-.319 2.877 2.877 0 0 1 .52-.185 2.36 2.36 0 0 1 .57-.134 4.324 4.324 0 0 1 .537.034 2.787 2.787 0 0 1 .486.117 1.385 1.385 0 0 1 .453.252q-.1.235-.235.654t-.268.889q-.134.537-.335 1.107a15.345 15.345 0 0 1 .99-1.225 8.826 8.826 0 0 1 1.208-1.124 6.51 6.51 0 0 1 1.392-.822 3.774 3.774 0 0 1 1.51-.319 1.88 1.88 0 0 1 1.141.369 2.446 2.446 0 0 1 .788 1.023 4.525 4.525 0 0 1 .335 1.56 6.088 6.088 0 0 1-.252 1.979l-.369 1.476q-.168.7-.419 1.661t-.621 2.1a3.642 3.642 0 0 0-.151 1.275q.05.537.654.537a2.716 2.716 0 0 0 1.526-.738A16.024 16.024 0 0 0 67.735-8.8q.939-1.04 1.778-2.13t1.275-1.761a1.7 1.7 0 0 1 .57-.57.413.413 0 0 1 .419-.034q.151.1.151.453a2.1 2.1 0 0 1-.268.889q-.235.47-.721 1.241t-1.157 1.645q-.671.872-1.443 1.761a15.633 15.633 0 0 1-1.61 1.61 9.884 9.884 0 0 1-1.661 1.174 3.245 3.245 0 0 1-1.56.453zm20-7.817a25.635 25.635 0 0 1-2.281 2.868 20.773 20.773 0 0 1-2.7 2.483 14.8 14.8 0 0 1-2.918 1.765 7.056 7.056 0 0 1-2.9.671 4.206 4.206 0 0 1-1.594-.352 4.545 4.545 0 0 1-1.56-1.09 5.314 5.314 0 0 1-1.124-1.912 6.553 6.553 0 0 1-.252-2.852 8.836 8.836 0 0 1 .855-2.9 13.218 13.218 0 0 1 1.778-2.8 10.114 10.114 0 0 1 2.382-2.114 4.947 4.947 0 0 1 2.667-.839 2.364 2.364 0 0 1 1.845.637 2.045 2.045 0 0 1 .5 1.577 4.838 4.838 0 0 1-.587 1.912 7.744 7.744 0 0 1-1.157 1.577 11.747 11.747 0 0 1-1.426 1.275q-.755.57-1.426 1.04l-1.409.956q-.671.456-1.174.822a3.649 3.649 0 0 0 .3 1.409 2.773 2.773 0 0 0 .672.92 2.4 2.4 0 0 0 .923.5 3.772 3.772 0 0 0 1.057.151 4.75 4.75 0 0 0 2.385-.715A16.335 16.335 0 0 0 78.8-8.648a26.729 26.729 0 0 0 2.214-2.13q1.023-1.107 1.694-1.912a.9.9 0 0 1 .486-.319.477.477 0 0 1 .4.067.481.481 0 0 1 .151.4 1.262 1.262 0 0 1-.234.657zm-8.588-5.166a1.728 1.728 0 0 0-.956.4 4.985 4.985 0 0 0-1.09 1.157 10.048 10.048 0 0 0-1.006 1.845 10.8 10.8 0 0 0-.7 2.5q.4-.3.872-.621t.939-.688a9.337 9.337 0 0 0 2.01-1.938 3.391 3.391 0 0 0 .637-1.443 1.378 1.378 0 0 0-.134-.923.657.657 0 0 0-.571-.286zm3.8 11.977a1.18 1.18 0 0 1-.52.486.668.668 0 0 1-.5.034.468.468 0 0 1-.285-.352 1 1 0 0 1 .134-.671l.45-.903q.352-.7.839-1.694l1.061-2.147q.57-1.157 1.09-2.2t.956-1.862q.436-.822.637-1.191-.369-.335-.5-.486a1.345 1.345 0 0 1-.2-.654 2.355 2.355 0 0 1 .2-1.141 6.827 6.827 0 0 1 .7-1.359 5.633 5.633 0 0 1 .973-1.124 1.609 1.609 0 0 1 1.04-.47 1.45 1.45 0 0 1 1.325.6 2.844 2.844 0 0 1 .453 1.241 3.277 3.277 0 0 1-.067 1.107 3.222 3.222 0 0 1-.5 1.208 2.567 2.567 0 0 0 .268.151 1.272 1.272 0 0 0 .537.084 2.906 2.906 0 0 0 .755-.067 2.548 2.548 0 0 1 .688-.067 1.491 1.491 0 0 1 .939.285 2.3 2.3 0 0 1 .6.7 3.547 3.547 0 0 1 .352.906 5.918 5.918 0 0 1 .151.889 2.751 2.751 0 0 1-.436 1.744q-.537.906-1.308 1.979-.47.671-.939 1.51a2.6 2.6 0 0 0-.4 1.51 1.862 1.862 0 0 0 .235.7q.168.268.939.268a2.463 2.463 0 0 0 1.258-.419 9.423 9.423 0 0 0 1.404-1.058 19.362 19.362 0 0 0 1.426-1.443q.7-.788 1.308-1.543t1.023-1.359q.419-.6.621-.872a.869.869 0 0 1 .436-.369.571.571 0 0 1 .47 0 .506.506 0 0 1 .252.4 1.285 1.285 0 0 1-.252.805q-.2.335-.688 1.074T94.472-9.2q-.688.906-1.526 1.862a17.264 17.264 0 0 1-1.761 1.744A10.873 10.873 0 0 1 89.339-4.3a3.686 3.686 0 0 1-1.761.5 2.81 2.81 0 0 1-1.443-.335 2.992 2.992 0 0 1-.923-.822 3.152 3.152 0 0 1-.5-1.074 3.46 3.46 0 0 1-.117-1.09 2.921 2.921 0 0 1 .218-.855q.185-.453.436-.939t.537-.973q.285-.486.52-.956.57-.973.923-1.661a2.667 2.667 0 0 0 .352-1.157 1.063 1.063 0 0 0-.134-.537.464.464 0 0 0-.436-.235 1.658 1.658 0 0 0-.285.017.854.854 0 0 1-.168.017 2.271 2.271 0 0 0-.235.017 4.472 4.472 0 0 1-.453.017 1.814 1.814 0 0 1-.738-.134 3.509 3.509 0 0 0-.57-.2q-.134.235-.6 1.006t-1.09 1.812q-.621 1.04-1.308 2.181t-1.292 2.13L79.241-5.9q-.419.691-.52.825z" transform="translate(97.525 38.969)" style="fill:#fff"/>
        <path d="M297.492 19.091a13.774 13.774 0 0 0-2.827-4.374 12.316 12.316 0 0 0-4.253-2.851 12.757 12.757 0 0 0-5.171-1.039 9.681 9.681 0 0 0-1.836.193 11.429 11.429 0 0 0-1.836.507 8.214 8.214 0 0 0-1.643.87 6.148 6.148 0 0 0-1.281 1.208V1.5H272v23.052a14.159 14.159 0 0 0 1.039 5.509 13.553 13.553 0 0 0 2.827 4.325 12.845 12.845 0 0 0 4.253 2.827 13.245 13.245 0 0 0 5.171 1.015 13.591 13.591 0 0 0 5.171-.991 13.926 13.926 0 0 0 4.253-2.779 13.148 13.148 0 0 0 2.827-4.349 14.8 14.8 0 0 0-.048-11.018zm-6.162 8.24a6.4 6.4 0 0 1-1.426 2.223 7.323 7.323 0 0 1-2.1 1.522 5.972 5.972 0 0 1-2.537.532 6.117 6.117 0 0 1-4.639-2.054 7.306 7.306 0 0 1-1.426-2.223 7.477 7.477 0 0 1-.508-2.779 6.876 6.876 0 0 1 .508-2.61 6.735 6.735 0 0 1 1.426-2.247A7.347 7.347 0 0 1 282.7 18.1a5.55 5.55 0 0 1 2.561-.6 5.972 5.972 0 0 1 2.537.532 6.2 6.2 0 0 1 2.1 1.5 7.424 7.424 0 0 1 1.426 2.247 7.032 7.032 0 0 1 .532 2.779 6.95 6.95 0 0 1-.525 2.773z" transform="translate(-206.759 -1.5)" style="fill:#fff"/>
        <path d="M172.614 43.869a12.141 12.141 0 0 0-4.253-2.779 13.145 13.145 0 0 0-5.171-.991 12.84 12.84 0 0 0-5.171 1.039 14.518 14.518 0 0 0-4.253 2.875 13.146 13.146 0 0 0-2.827 4.349 14 14 0 0 0-1.039 5.461 13.849 13.849 0 0 0 1.039 5.413 12.991 12.991 0 0 0 7.08 7.225 13.387 13.387 0 0 0 10.342 0 14.672 14.672 0 0 0 4.253-2.875 13.4 13.4 0 0 0 2.827-4.349 13.934 13.934 0 0 0 1.039-5.413 14.394 14.394 0 0 0-1.039-5.606 12.549 12.549 0 0 0-2.827-4.349zm-3.335 12.855a6.121 6.121 0 0 1-1.45 2.223A6.912 6.912 0 0 1 165.7 60.4a5.942 5.942 0 0 1-2.537.483 5.823 5.823 0 0 1-2.561-.556 6.171 6.171 0 0 1-2.078-1.522 7.73 7.73 0 0 1-1.4-2.223 7.011 7.011 0 0 1-.483-2.779 7.346 7.346 0 0 1 .532-2.875A6.069 6.069 0 0 1 158.6 48.7a6.3 6.3 0 0 1 2.1-1.45 6.124 6.124 0 0 1 2.561-.483 5.972 5.972 0 0 1 2.537.532 5.483 5.483 0 0 1 2.1 1.45 7.306 7.306 0 0 1 1.426 2.223 6.86 6.86 0 0 1 .507 2.875 6.94 6.94 0 0 1-.552 2.877z" transform="translate(-114.162 -30.773)" style="fill:#fff"/>
        <path d="M8.452 68.686V52.231a3.184 3.184 0 0 1 .242-1.281 3.26 3.26 0 0 1 .7-1.063 2.929 2.929 0 0 1 1.039-.7 3.376 3.376 0 0 1 1.281-.266 3.2 3.2 0 0 1 1.281.266 2.917 2.917 0 0 1 1.063.7 3.017 3.017 0 0 1 .7 1.063 3.376 3.376 0 0 1 .266 1.281v16.455h6.6V52.231a3.184 3.184 0 0 1 .242-1.281 3.259 3.259 0 0 1 .7-1.063 2.929 2.929 0 0 1 1.039-.7 3.376 3.376 0 0 1 1.281-.266 3.2 3.2 0 0 1 1.281.266 2.917 2.917 0 0 1 1.063.7 3.017 3.017 0 0 1 .7 1.063 3.376 3.376 0 0 1 .266 1.281v16.455h6.669V52.449a11.032 11.032 0 0 0-5.171-8.965 9.128 9.128 0 0 0-.846-.411A9.335 9.335 0 0 0 25 42.3a9.2 9.2 0 0 0-1.812.169 7.572 7.572 0 0 0-1.788.507 8.01 8.01 0 0 0-1.643.942 6.544 6.544 0 0 0-1.4 1.426A7.215 7.215 0 0 0 15.314 43a9.436 9.436 0 0 0-3.528-.677 9.339 9.339 0 0 0-3.455.652A10.513 10.513 0 0 0 5.794 44.4 11.381 11.381 0 0 0 2 51.289v17.4z" transform="translate(-2 -32.441)" style="fill:#fff"/>
    </g>
</svg>
