<svg xmlns="http://www.w3.org/2000/svg" width="174.706" height="36" viewBox="0 0 174.706 36">
    <g data-name="Group 18161">
        <path data-name="Path 56994" d="M-2.042-3.126q.121-.091.377-.3a3.211 3.211 0 0 0 .6-.785 11.173 11.173 0 0 0 .77-1.661 24.217 24.217 0 0 0 .88-2.96q.242-1 .634-2.536t.861-3.291q.468-1.751.951-3.608t.935-3.533q.453-1.676.815-3.034t.574-2.114a10.523 10.523 0 0 0-1.117.815q-.483.393-1.027.891T2.155-24.2a2.521 2.521 0 0 1-.6-.725 2.434 2.434 0 0 1-.211-.393 2.5 2.5 0 0 1-.181-.936q0-.483.755-1 .393-.272 1.193-.785a13.265 13.265 0 0 1 1.978-1.011 16.757 16.757 0 0 1 2.748-.861 15.456 15.456 0 0 1 3.463-.359 5.55 5.55 0 0 1 3.065.755 5.355 5.355 0 0 1 1.781 1.842 6.573 6.573 0 0 1 .8 2.295 8.639 8.639 0 0 1 .091 2.114 10.594 10.594 0 0 1-1.087 3.533 12.3 12.3 0 0 1-2.506 3.4 14.333 14.333 0 0 1-3.895 2.642A13.81 13.81 0 0 1 4.3-12.456q-.242 1.147-.483 2.355T3.3-7.73q-.27 1.162-.556 2.174a15.72 15.72 0 0 1-.589 1.736 3.426 3.426 0 0 1-.785 1.253A2.152 2.152 0 0 1-.17-2.1a1.98 1.98 0 0 1-1.011-.272 3.162 3.162 0 0 1-.861-.754zm7.156-13.768q-.091.483-.226 1.253T4.57-13.9a11.7 11.7 0 0 0 1.812-.438 11.352 11.352 0 0 0 1.993-.862 12.97 12.97 0 0 0 1.947-1.313 10.8 10.8 0 0 0 1.736-1.787 9.812 9.812 0 0 0 1.313-2.295 9.964 9.964 0 0 0 .679-2.853 6.4 6.4 0 0 0-.166-2.521 4 4 0 0 0-.921-1.63 3.394 3.394 0 0 0-1.389-.876 5.027 5.027 0 0 0-1.57-.257 5.257 5.257 0 0 0-1.479.211 10.605 10.605 0 0 0-1.449.543.6.6 0 0 1 .211.151 1.131 1.131 0 0 1 .272.513q-.725 2.929-1.193 4.891t-.74 3.2q-.331 1.453-.512 2.329zm25.973 3.442q-.423.6-1.087 1.495t-1.374 1.781q-.71.891-1.389 1.63A6.872 6.872 0 0 1 26.105-7.5a3.14 3.14 0 0 1-.694.3 3.622 3.622 0 0 1-.8.151 2.762 2.762 0 0 1-.77-.045 1.788 1.788 0 0 1-.634-.257 1.59 1.59 0 0 1-.453-.6 5.247 5.247 0 0 1-.287-.876 4.955 4.955 0 0 1-.106-1.359 6.3 6.3 0 0 1-1.6 1.857 7.146 7.146 0 0 1-1.661.951 6.5 6.5 0 0 1-1.812.393 1.791 1.791 0 0 1-.906-.287 2.255 2.255 0 0 1-.815-.906 4.21 4.21 0 0 1-.423-1.6 7.24 7.24 0 0 1 .242-2.34 11.194 11.194 0 0 1 1.344-3.351 13.406 13.406 0 0 1 2.008-2.582 8.936 8.936 0 0 1 2.144-1.615 3.393 3.393 0 0 1 1.751-.483 3.666 3.666 0 0 1 1.329.483 1.445 1.445 0 0 1 .559.891 2.168 2.168 0 0 1-.5 1.555 6.986 6.986 0 0 1 .71-.121q.287-.03.438-.03a.628.628 0 0 1 .242.03.687.687 0 0 1 .03.257 4.887 4.887 0 0 1-.091.71q-.091.513-.272 1.389t-.478 2.258q-.06.272-.106.5l-.091.453-.106.528-.151.755a3.735 3.735 0 0 0-.015.589 2.183 2.183 0 0 0 .106.589.954.954 0 0 0 .287.438.841.841 0 0 0 .559.166 1.434 1.434 0 0 0 .785-.377 8.805 8.805 0 0 0 1.027-.966q.543-.589 1.132-1.3t1.1-1.374q.513-.664.921-1.178t.589-.755a.9.9 0 0 1 .483-.317.326.326 0 0 1 .362.136.718.718 0 0 1 .045.543 2.265 2.265 0 0 1-.44.845zm-8.847 1.329q.151-.6.362-1.419t.362-1.57q.151-.755.226-1.253t-.045-.468a2.791 2.791 0 0 0-.332.091 1.619 1.619 0 0 1-.393.091 4.074 4.074 0 0 0-.483.091 2.775 2.775 0 0 0 .287-.8 1.717 1.717 0 0 0 .015-.5.717.717 0 0 0-.121-.332q-.332-.272-1.162.438a10.276 10.276 0 0 0-1.917 2.612 8.03 8.03 0 0 0-.725 1.676 10.63 10.63 0 0 0-.377 1.676 5.911 5.911 0 0 0-.045 1.374 1.339 1.339 0 0 0 .242.77.987.987 0 0 0 .755.317 2.025 2.025 0 0 0 .861-.242 4.945 4.945 0 0 0 .876-.589 7.022 7.022 0 0 0 .785-.755 7.44 7.44 0 0 0 .574-.725 1.616 1.616 0 0 0 .255-.483zm4.687 4.529a1.062 1.062 0 0 1-.468.438.6.6 0 0 1-.453.03.421.421 0 0 1-.257-.317.9.9 0 0 1 .121-.6l.408-.815q.317-.634.755-1.525l.951-1.932q.513-1.042.981-1.978t.861-1.676q.393-.74.574-1.072-.332-.3-.453-.438a1.211 1.211 0 0 1-.181-.589 2.12 2.12 0 0 1 .181-1.027 6.144 6.144 0 0 1 .634-1.223 5.07 5.07 0 0 1 .876-1.011 1.448 1.448 0 0 1 .936-.423 1.3 1.3 0 0 1 1.193.543 2.56 2.56 0 0 1 .408 1.117 2.95 2.95 0 0 1-.06 1 2.9 2.9 0 0 1-.453 1.087 2.309 2.309 0 0 0 .242.136 1.145 1.145 0 0 0 .483.075 2.616 2.616 0 0 0 .679-.06 2.293 2.293 0 0 1 .619-.06 1.342 1.342 0 0 1 .845.257 2.069 2.069 0 0 1 .543.634 3.193 3.193 0 0 1 .317.815 5.324 5.324 0 0 1 .136.8 2.476 2.476 0 0 1-.393 1.57q-.483.815-1.178 1.781-.423.6-.845 1.359a2.344 2.344 0 0 0-.362 1.359 1.676 1.676 0 0 0 .211.634q.151.242.845.242a2.217 2.217 0 0 0 1.132-.377 8.482 8.482 0 0 0 1.268-.966 17.425 17.425 0 0 0 1.283-1.3q.634-.71 1.178-1.389t.921-1.223q.377-.543.559-.785a.782.782 0 0 1 .393-.332.513.513 0 0 1 .423 0 .455.455 0 0 1 .226.362 1.156 1.156 0 0 1-.226.725q-.181.3-.619.966T41.1-11.308q-.619.815-1.374 1.676a15.537 15.537 0 0 1-1.585 1.57A9.785 9.785 0 0 1 36.483-6.9a3.317 3.317 0 0 1-1.585.453 2.529 2.529 0 0 1-1.3-.3 2.692 2.692 0 0 1-.83-.74 2.837 2.837 0 0 1-.453-.966 3.115 3.115 0 0 1-.106-.981 2.629 2.629 0 0 1 .2-.77q.166-.408.393-.845t.483-.876q.257-.438.468-.861.513-.876.83-1.495a2.4 2.4 0 0 0 .317-1.042.956.956 0 0 0-.121-.483.417.417 0 0 0-.393-.211 1.492 1.492 0 0 0-.257.015.768.768 0 0 1-.151.015 2.044 2.044 0 0 0-.211.015 4.024 4.024 0 0 1-.408.015 1.632 1.632 0 0 1-.664-.121 3.159 3.159 0 0 0-.513-.181q-.121.211-.543.906t-.981 1.63q-.559.936-1.178 1.963t-1.164 1.916l-.916 1.51q-.382.619-.473.74zm23.86-7.488a.51.51 0 0 1 .317-.226.369.369 0 0 1 .317.045.39.39 0 0 1 .136.3 1.2 1.2 0 0 1-.166.574 19.582 19.582 0 0 1-1.585 2.476 27.993 27.993 0 0 1-2.068 2.491A15.564 15.564 0 0 1 45.624-7.5a3.156 3.156 0 0 1-1.721.755 3.219 3.219 0 0 1-1.661-.393 3.116 3.116 0 0 1-1.042-.97 3.734 3.734 0 0 1-.528-1.253 3.9 3.9 0 0 1-.091-1.253q.03-.483.211-1.736t.483-2.9q.3-1.646.679-3.533t.8-3.638l-1.027.121a8.068 8.068 0 0 1-.936.06 7.153 7.153 0 0 1-1.827-.226 7.076 7.076 0 0 1-1.283-.438.323.323 0 0 1-.211-.347 1.073 1.073 0 0 1 .181-.453 1.552 1.552 0 0 1 .377-.393.716.716 0 0 1 .408-.166q.574.06 1.238.106a13.674 13.674 0 0 0 1.449.015q.574-.03 1.1-.091t1.042-.151q.393-1.449.77-2.521a6.526 6.526 0 0 1 .679-1.495.729.729 0 0 1 .408-.257 3.528 3.528 0 0 1 .679-.151 2.672 2.672 0 0 1 .694 0 .73.73 0 0 1 .483.226 2.823 2.823 0 0 1 .121 1.238 16.269 16.269 0 0 1-.332 2.536 16.561 16.561 0 0 1 2.249.136q.981.136 1.676.3a8.67 8.67 0 0 1 1.117.332q.423.166.634.226a.3.3 0 0 1 .226.3 1.117 1.117 0 0 1-.091.5 1.037 1.037 0 0 1-.347.438.654.654 0 0 1-.543.121 5.134 5.134 0 0 1-.679-.121 7.681 7.681 0 0 0-.906-.151q-.528-.06-1.253-.121t-1.691-.06q-.181 0-.408.015t-.468.015q-.121.483-.226.951a8.746 8.746 0 0 1-.287.981q-.393 1.208-.906 2.627-.453 1.238-1.087 2.838t-1.419 3.412a4.585 4.585 0 0 0 .045 1.978 2.29 2.29 0 0 0 .559.981 1.579 1.579 0 0 0 .966.362 1.809 1.809 0 0 0 1.1-.317 7.951 7.951 0 0 0 1.344-1.011q.694-.634 1.4-1.389t1.328-1.474q.6-.725 1.057-1.313t.63-.83zm6.166 8.394a2.575 2.575 0 0 1-1.193-.257 2.2 2.2 0 0 1-.8-.679 2.294 2.294 0 0 1-.393-.981 3.029 3.029 0 0 1 .06-1.193q.091-.423.3-1.132t.438-1.54q.226-.83.423-1.661a10.77 10.77 0 0 0 .257-1.51 3.217 3.217 0 0 0-.06-1.117.509.509 0 0 0-.513-.438 1.9 1.9 0 0 0-1 .317 5.535 5.535 0 0 0-1.042.861 12.543 12.543 0 0 0-1.057 1.253q-.528.71-1.042 1.464-.272 1.027-.453 1.8t-.317 1.389q-.136.619-.257 1.087t-.211.891a1.172 1.172 0 0 1-.543.589 4.761 4.761 0 0 1-.966.468 2.741 2.741 0 0 1-.884.177q-.377 0-.317-.272.03-.181.2-.815t.393-1.495q.226-.861.468-1.827t.453-1.842q.151-.694.332-1.54.151-.725.377-1.691t.528-2.114a1.926 1.926 0 0 1 .438-.287 2.589 2.589 0 0 1 .468-.166 2.124 2.124 0 0 1 .513-.121 3.891 3.891 0 0 1 .483.03 2.508 2.508 0 0 1 .438.106 1.247 1.247 0 0 1 .408.226q-.091.211-.211.589t-.242.8q-.121.483-.3 1a13.808 13.808 0 0 1 .891-1.1 7.943 7.943 0 0 1 1.08-1.015 5.859 5.859 0 0 1 1.253-.74 3.4 3.4 0 0 1 1.359-.287 1.692 1.692 0 0 1 1.027.332 2.2 2.2 0 0 1 .71.921 4.072 4.072 0 0 1 .3 1.4 5.479 5.479 0 0 1-.226 1.781l-.332 1.329q-.151.634-.377 1.495t-.559 1.887a3.278 3.278 0 0 0-.136 1.147q.045.483.589.483a2.444 2.444 0 0 0 1.374-.664 14.422 14.422 0 0 0 1.676-1.6q.845-.936 1.6-1.917t1.147-1.585a1.531 1.531 0 0 1 .513-.513.372.372 0 0 1 .377-.03q.136.091.136.408a1.894 1.894 0 0 1-.242.8q-.211.423-.649 1.117t-1.04 1.483Q62-10.4 61.3-9.6a14.07 14.07 0 0 1-1.449 1.449A8.9 8.9 0 0 1 58.357-7.1a2.92 2.92 0 0 1-1.404.411zm18-7.035a23.071 23.071 0 0 1-2.053 2.581 18.7 18.7 0 0 1-2.431 2.234 13.319 13.319 0 0 1-2.627 1.585 6.351 6.351 0 0 1-2.612.6 3.785 3.785 0 0 1-1.43-.313 4.09 4.09 0 0 1-1.4-.981 4.782 4.782 0 0 1-1.011-1.721 5.9 5.9 0 0 1-.226-2.566 7.952 7.952 0 0 1 .77-2.612 11.9 11.9 0 0 1 1.6-2.521 9.1 9.1 0 0 1 2.144-1.9 4.452 4.452 0 0 1 2.4-.755 2.128 2.128 0 0 1 1.661.574 1.841 1.841 0 0 1 .453 1.419 4.354 4.354 0 0 1-.528 1.721 6.969 6.969 0 0 1-1.042 1.419 10.573 10.573 0 0 1-1.283 1.147q-.679.513-1.283.936-.664.453-1.268.861t-1.057.74A3.284 3.284 0 0 0 64-10.01a2.5 2.5 0 0 0 .6.83 2.16 2.16 0 0 0 .83.453 3.4 3.4 0 0 0 .951.136 4.275 4.275 0 0 0 2.144-.649 14.7 14.7 0 0 0 2.189-1.57 24.053 24.053 0 0 0 1.993-1.917q.921-1 1.525-1.721a.81.81 0 0 1 .438-.287.429.429 0 0 1 .362.06.432.432 0 0 1 .136.362 1.136 1.136 0 0 1-.212.589zm-7.729-4.65a1.555 1.555 0 0 0-.861.362 4.486 4.486 0 0 0-.981 1.042 9.043 9.043 0 0 0-.906 1.661 9.724 9.724 0 0 0-.634 2.249q.362-.272.785-.559t.845-.619a8.4 8.4 0 0 0 1.812-1.751 3.052 3.052 0 0 0 .574-1.3 1.24 1.24 0 0 0-.121-.83.591.591 0 0 0-.511-.255zm3.421 10.779a1.062 1.062 0 0 1-.468.438.6.6 0 0 1-.453.03.421.421 0 0 1-.257-.317.9.9 0 0 1 .121-.6l.412-.82q.317-.634.755-1.525l.945-1.932q.513-1.042.981-1.978t.861-1.676q.393-.74.574-1.072-.332-.3-.453-.438a1.211 1.211 0 0 1-.181-.589 2.12 2.12 0 0 1 .181-1.027 6.144 6.144 0 0 1 .634-1.223 5.07 5.07 0 0 1 .876-1.011 1.448 1.448 0 0 1 .936-.423 1.3 1.3 0 0 1 1.193.543 2.56 2.56 0 0 1 .408 1.117 2.95 2.95 0 0 1-.06 1 2.9 2.9 0 0 1-.453 1.087 2.31 2.31 0 0 0 .242.136 1.145 1.145 0 0 0 .483.075 2.616 2.616 0 0 0 .679-.06 2.293 2.293 0 0 1 .619-.06 1.342 1.342 0 0 1 .845.257 2.069 2.069 0 0 1 .543.634 3.193 3.193 0 0 1 .317.815 5.325 5.325 0 0 1 .136.8 2.476 2.476 0 0 1-.393 1.57q-.483.815-1.178 1.781-.423.6-.845 1.359a2.344 2.344 0 0 0-.362 1.359 1.676 1.676 0 0 0 .211.634q.151.242.845.242a2.217 2.217 0 0 0 1.132-.377 8.482 8.482 0 0 0 1.268-.966 17.427 17.427 0 0 0 1.283-1.3q.634-.71 1.178-1.389t.921-1.223q.377-.543.559-.785a.782.782 0 0 1 .393-.332.514.514 0 0 1 .423 0 .455.455 0 0 1 .226.362 1.156 1.156 0 0 1-.226.725q-.181.3-.619.966t-1.057 1.479q-.619.815-1.374 1.676a15.538 15.538 0 0 1-1.585 1.57A9.785 9.785 0 0 1 80.2-6.9a3.317 3.317 0 0 1-1.585.453 2.529 2.529 0 0 1-1.3-.3 2.692 2.692 0 0 1-.83-.74 2.837 2.837 0 0 1-.453-.966 3.114 3.114 0 0 1-.106-.981 2.629 2.629 0 0 1 .2-.77q.166-.408.393-.845t.481-.878q.257-.438.468-.861.513-.876.83-1.495a2.4 2.4 0 0 0 .317-1.042.956.956 0 0 0-.121-.483.417.417 0 0 0-.393-.211 1.492 1.492 0 0 0-.257.015.768.768 0 0 1-.151.015 2.045 2.045 0 0 0-.211.015 4.024 4.024 0 0 1-.408.015 1.632 1.632 0 0 1-.664-.121 3.159 3.159 0 0 0-.513-.181q-.121.211-.543.906t-.981 1.63q-.559.936-1.178 1.963t-1.161 1.918l-.921 1.51q-.377.619-.468.74z" transform="translate(87.977 38.099)" style="fill:#0a243f"/>
        <path d="M294.943 17.332A12.4 12.4 0 0 0 292.4 13.4a11.084 11.084 0 0 0-3.828-2.566 11.482 11.482 0 0 0-4.654-.935 8.713 8.713 0 0 0-1.653.174 10.285 10.285 0 0 0-1.653.457 7.393 7.393 0 0 0-1.479.783 5.531 5.531 0 0 0-1.153 1.087V1.5H272v20.747a12.744 12.744 0 0 0 .935 4.958 12.2 12.2 0 0 0 2.544 3.893 11.56 11.56 0 0 0 3.828 2.544 11.92 11.92 0 0 0 4.654.913 12.231 12.231 0 0 0 4.654-.892 12.532 12.532 0 0 0 3.827-2.5 11.832 11.832 0 0 0 2.544-3.914 13.323 13.323 0 0 0-.043-9.917zm-5.543 7.416a5.757 5.757 0 0 1-1.283 2 6.591 6.591 0 0 1-1.892 1.37 5.374 5.374 0 0 1-2.283.478 5.506 5.506 0 0 1-4.175-1.849 6.575 6.575 0 0 1-1.283-2 6.729 6.729 0 0 1-.457-2.5 6.188 6.188 0 0 1 .457-2.349 6.061 6.061 0 0 1 1.283-2.022 6.613 6.613 0 0 1 1.87-1.435 5 5 0 0 1 2.305-.544 5.374 5.374 0 0 1 2.283.478 5.578 5.578 0 0 1 1.892 1.348 6.682 6.682 0 0 1 1.283 2.022 6.329 6.329 0 0 1 .478 2.5 6.254 6.254 0 0 1-.478 2.503z" transform="translate(-213.283 -1.5)" style="fill:#0a243f"/>
        <path d="M170.342 43.493a10.927 10.927 0 0 0-3.827-2.5 11.831 11.831 0 0 0-4.654-.892 11.556 11.556 0 0 0-4.654.935 13.067 13.067 0 0 0-3.827 2.588 11.831 11.831 0 0 0-2.544 3.914 12.6 12.6 0 0 0-.935 4.915 12.464 12.464 0 0 0 .935 4.871 11.692 11.692 0 0 0 6.372 6.5 12.048 12.048 0 0 0 9.308 0 13.205 13.205 0 0 0 3.827-2.588 12.058 12.058 0 0 0 2.544-3.914 12.541 12.541 0 0 0 .935-4.871 12.955 12.955 0 0 0-.935-5.045 11.3 11.3 0 0 0-2.545-3.913zm-3 11.569a5.509 5.509 0 0 1-1.3 2 6.221 6.221 0 0 1-1.914 1.3 5.348 5.348 0 0 1-2.283.435 5.241 5.241 0 0 1-2.305-.5 5.554 5.554 0 0 1-1.87-1.37 6.956 6.956 0 0 1-1.261-2 6.311 6.311 0 0 1-.435-2.5 6.611 6.611 0 0 1 .478-2.588 5.462 5.462 0 0 1 1.283-2 5.674 5.674 0 0 1 1.892-1.3 5.511 5.511 0 0 1 2.305-.435 5.375 5.375 0 0 1 2.283.478 4.934 4.934 0 0 1 1.892 1.3 6.576 6.576 0 0 1 1.283 2 6.174 6.174 0 0 1 .457 2.588 6.246 6.246 0 0 1-.506 2.592z" transform="translate(-117.736 -31.705)" style="fill:#0a243f"/>
        <path d="M7.806 66.048v-14.81a2.865 2.865 0 0 1 .217-1.153 2.934 2.934 0 0 1 .631-.957 2.636 2.636 0 0 1 .936-.628 3.038 3.038 0 0 1 1.153-.239 2.875 2.875 0 0 1 1.153.239 2.625 2.625 0 0 1 .957.631 2.715 2.715 0 0 1 .631.957 3.038 3.038 0 0 1 .239 1.153v14.81h5.937V51.238a2.865 2.865 0 0 1 .217-1.153 2.934 2.934 0 0 1 .631-.957 2.636 2.636 0 0 1 .935-.631 3.038 3.038 0 0 1 1.153-.239 2.875 2.875 0 0 1 1.153.239 2.625 2.625 0 0 1 .957.631 2.715 2.715 0 0 1 .631.957 3.038 3.038 0 0 1 .239 1.153v14.81h6V51.434a9.929 9.929 0 0 0-4.654-8.068 8.216 8.216 0 0 0-.761-.37 8.4 8.4 0 0 0-3.458-.7 8.282 8.282 0 0 0-1.631.152 6.815 6.815 0 0 0-1.609.457 7.209 7.209 0 0 0-1.479.848 5.89 5.89 0 0 0-1.261 1.283 6.494 6.494 0 0 0-2.74-2.109 8.492 8.492 0 0 0-3.175-.609 8.4 8.4 0 0 0-3.11.587 9.462 9.462 0 0 0-2.283 1.283A10.242 10.242 0 0 0 2 50.39v15.658z" transform="translate(-2 -33.427)" style="fill:#0a243f"/>
    </g>
</svg>
