<svg xmlns="http://www.w3.org/2000/svg" width="404.693" height="248.031" viewBox="0 0 404.693 248.031">
    <g>
        <path data-name="Rectangle 950" transform="translate(47.91 157.28)" style="fill:#0354a3" d="M0 0h302.077v30.189H0z"/>
        <path data-name="Rectangle 952" transform="translate(195.374 191.279)" style="fill:#455a64" d="M0 0h89.167v27.958H0z"/>
        <path data-name="Path 1980" d="M241.67 361.92v36.958h30.448l12.2-17.686h222.315V361.92z" transform="translate(-108.606 -183.287)" style="fill:#263238"/>
        <path data-name="Path 1981" d="M177.7 188.872a2.272 2.272 0 0 0-2.354-2.143c-12.034.5-69.161 3.116-80.909 8.762-8.993 4.326-18.843 20.475-25.788 31.353-4.979 7.8-15.979 25.1-18.2 33.951-1.884 7.483-3.02 23.047-2.891 30.768l3.142 40.855h51.774l5.183-13.5a22.788 22.788 0 0 1 21.271-14.6h51.447v-67.8z" transform="translate(-46.534 -127.269)" style="fill:#fdfaf0"/>
        <path data-name="Path 1982" d="M89.886 206.26c-7.129 6.8-14.285 18.367-19.652 26.829-4.612 7.217-14.38 22.584-17.571 31.849-.061.17-.109.333-.163.5 1.578-.435 4.007-1.327 4.762-2.823 1.136-2.265 2.592-10.027 20.591-39.325 5.469-8.928 10.802-14.153 12.033-17.03z" transform="translate(-48.119 -133.514)" style="fill:#455a64"/>
        <path data-name="Path 1983" d="M159.272 201.805c-13.238.755-41.937 2.721-51.107 5.837-11.945 4.081-25.353 35.706-25.985 37.094l-9.034 23.128a1.007 1.007 0 0 0 .952 1.327h23.353a7.483 7.483 0 0 0 2.593-.463l61.418-22.9a7.1 7.1 0 0 0 4.619-6.653v-30.928a6.449 6.449 0 0 0-6.809-6.442z" transform="translate(-54.703 -132.087)" style="fill:#263238"/>
        <path data-name="Path 1984" d="M77 267.988s8.653-19.407 11.564-25.768c4.394-9.605 14.659-29.251 21.591-31.366 6.374-1.911 24.7-4.238 50.495-5.714h.245a4.19 4.19 0 0 1 4.177 4.184v31.631a3.843 3.843 0 0 1-2.49 3.585l-45.379 5.6a12.632 12.632 0 0 0-9.013 5.605l-7.864 11.993a4.157 4.157 0 0 1-1.442.259z" transform="translate(-55.953 -133.156)" style="fill:#455a64"/>
        <path data-name="Path 1985" d="M126.428 252.714 111 269.9l8.537-57.052 2.136-.735-4.2 42.264a1.245 1.245 0 0 0 1.7 1.272z" transform="translate(-66.824 -135.385)" style="fill:#263238"/>
        <path data-name="Path 1986" d="M46.067 345.671c-.054-.741.2-1.36.578-1.36l8.272-.762c.68-.068 1.313 1.218 1.395 2.721l.374 6.347c.061 1.02-.245 1.884-.68 1.959l-8.435 1.456c-.381.068-.748-.5-.8-1.245z" transform="translate(-46.059 -177.412)" style="fill:#ebebeb"/>
        <path data-name="Rectangle 953" transform="translate(.001 197.911)" style="fill:#263238" d="M0 0h59.603v23.897H0z"/>
        <circle data-name="Ellipse 132" cx="32.611" cy="32.611" r="32.611" transform="rotate(-2.2 4793.495 -1582.971)" style="fill:#263238"/>
        <path data-name="Path 1987" d="M142.428 413.35a.361.361 0 0 1 0 .089 32.611 32.611 0 1 0 65.215.939v-.078z" transform="translate(-76.872 -199.732)" style="fill:#263238"/>
        <path data-name="Path 1988" d="M156.7 403.076a22.9 22.9 0 1 0 23.224-22.557 22.9 22.9 0 0 0-23.224 22.557z" transform="translate(-81.436 -189.233)" style="fill:#fafafa"/>
        <path data-name="Path 1989" d="M179.924 380.519a22.9 22.9 0 0 0-23.224 22.557l45.787.68a22.9 22.9 0 0 0-22.563-23.237z" transform="translate(-81.437 -189.233)" style="fill:#e0e0e0"/>
        <path data-name="Path 1990" d="M169.859 407.41A13.945 13.945 0 1 0 184 393.669a13.945 13.945 0 0 0-14.141 13.741z" transform="translate(-85.644 -193.439)" style="fill:#263238"/>
        <rect data-name="Rectangle 954" width="13.517" height="32.441" rx="6.758" transform="translate(26.816 90.432)" style="fill:#263238"/>
        <path data-name="Path 1991" d="M76.94 290.4h-.68v-34.3a6.177 6.177 0 0 1 6.17-6.17h1.633v.68H82.43a5.5 5.5 0 0 0-5.49 5.49z" transform="translate(-55.716 -147.478)" style="fill:#263238"/>
        <path data-name="Path 1992" d="m83.179 292.4-1.891-32.074a4.081 4.081 0 0 1 4.034-4.279v.68a3.36 3.36 0 0 0-3.354 3.558l1.891 32.08z" transform="translate(-57.322 -149.435)" style="fill:#263238"/>
        <path data-name="Rectangle 955" transform="translate(18.83 139.838)" style="fill:#263238" d="M0 0h9.17v10.619H0z"/>
        <path data-name="Rectangle 956" transform="translate(20.884 119.683)" style="fill:#263238" d="M0 0h3.728v.68H0z"/>
        <path data-name="Path 1993" d="m107.232 200.329.81-.109 2.388-.279 9.251-1.068 34.489-3.925c1.837-.2 3.707-.442 5.646-.612a10.6 10.6 0 0 1 2.959.19 11.482 11.482 0 0 1 2.837 1.075 10.578 10.578 0 0 1 4.292 4.462 9.945 9.945 0 0 1 .986 3.068 11.746 11.746 0 0 1 .143 1.633v96H135.2a38.051 38.051 0 0 0-6.122.293 23.761 23.761 0 0 0-18.8 15.013 18.535 18.535 0 0 0-.741 2.224 19.05 19.05 0 0 0-.524 2.279l-.177 1.156-.082.578-.034.578-.054 1.163v.653c.15-.15-.211.231-.184.19H63.05v-53.504a31.549 31.549 0 0 1 .231-3.218 32.278 32.278 0 0 1 3.85-11.714q2.809-5.286 5.442-10.2l9.646-18.074 7.83-14.673q.857-1.6 1.646-3.1c.272-.49.51-.986.8-1.449a14.379 14.379 0 0 1 .918-1.306 19.306 19.306 0 0 1 4.122-3.83 20.782 20.782 0 0 1 7.054-3.068 18.033 18.033 0 0 1 2.633-.429l-.68.1c-.442.068-1.1.184-1.952.381a20.87 20.87 0 0 0-7.007 3.1 19.157 19.157 0 0 0-4.081 3.83 12.12 12.12 0 0 0-.9 1.293c-.279.449-.517.952-.789 1.449l-1.639 3.1-7.774 14.694c-2.911 5.483-6.122 11.53-9.591 18.088l-5.442 10.2a31.9 31.9 0 0 0-3.8 11.625 31.01 31.01 0 0 0-.225 3.19v53.311l-.17-.163h45.257c.048-.034-.327.327-.17.163v-.66l.061-1.184v-.585l.088-.585.177-1.177a19.3 19.3 0 0 1 .531-2.313 18.714 18.714 0 0 1 .755-2.258 24.135 24.135 0 0 1 19.081-15.238 38.906 38.906 0 0 1 6.122-.292h35.666l-.177.17v-94.182a19.478 19.478 0 0 0-.136-3.231 9.734 9.734 0 0 0-.959-3 10.2 10.2 0 0 0-4.183-4.354 10.885 10.885 0 0 0-2.762-1.054 10.4 10.4 0 0 0-2.891-.2c-1.925.163-3.809.408-5.639.605l-34.482 3.816-9.258 1.014-2.388.252z" transform="translate(-51.492 -129.692)" style="fill:#263238"/>
        <path data-name="Path 1994" d="M197.113 309.98a2.54 2.54 0 0 0 .531-.082 3.742 3.742 0 0 0 1.4-.558 3.544 3.544 0 0 0 1.422-1.85 3.932 3.932 0 0 0 .184-1.469 3.571 3.571 0 0 0-.415-1.578 3.523 3.523 0 0 0-3.061-1.871H182.4a3.49 3.49 0 0 0-3.462 3.1 3.884 3.884 0 0 0 .429 2.347 3.489 3.489 0 0 0 1.7 1.51 5.305 5.305 0 0 0 2.218.272h6.088l5.666.054h1.544a2.723 2.723 0 0 1 .531.041 4.651 4.651 0 0 1-.531.034h-1.544l-5.666.054h-7.238a4.079 4.079 0 0 1-1.19-.272 3.836 3.836 0 0 1-1.864-1.646 4.224 4.224 0 0 1-.476-2.551 3.83 3.83 0 0 1 3.8-3.4h14.775a3.775 3.775 0 0 1 3.7 3.735 4.157 4.157 0 0 1-.225 1.531 3.7 3.7 0 0 1-1.531 1.9 3.531 3.531 0 0 1-1.462.51 2.361 2.361 0 0 1-.549.189z" transform="translate(-88.43 -164.163)" style="fill:#263238"/>
        <path data-name="Path 1995" d="M198.516 301.027a49.825 49.825 0 0 1-5.83.17 49.861 49.861 0 0 1-5.837-.17 48.9 48.9 0 0 1 5.837-.177 48.846 48.846 0 0 1 5.83.177z" transform="translate(-91.077 -163.753)" style="fill:#fff"/>
        <path data-name="Path 1996" d="m135.112 403.129-5.442-.395c1.422-19.489 3.5-31.148 6.367-35.645 5.5-8.639 10.959-10.2 17.006-11.231 5.632-.959 11.313-.735 16.809-.51l1.36.054c11.347.442 35.114.048 35.373.048l.088 5.442c-.238 0-24.156.4-35.652-.048l-1.361-.054c-5.217-.2-10.605-.429-15.68.442-5.408.918-9.007 1.973-13.346 8.789-1.311 2.034-3.774 9.102-5.522 33.108z" transform="translate(-72.794 -181.123)" style="fill:#263238"/>
        <path data-name="Rectangle 957" transform="translate(136.689)" style="fill:#fdfaf0" d="M0 0h268.004v178.442H0z"/>
        <path data-name="Path 1997" d="M513.072 276.048c0-1.15-.054-66.6-.143-170.878l.143.136-261.895.041.177-.177v170.878l-.163-.163 261.9.163-261.895.163H251V105h.2l261.895.034h.143v.143a655321.74 655321.74 0 0 0-.166 170.871z" transform="translate(-111.59 -101.136)" style="fill:#263238"/>
        <path data-name="Path 2019" d="M178.45 223.54a2.7 2.7 0 0 1-.252.211l-.748.537c-.68.469-1.612 1.122-2.8 1.932-2.374 1.605-5.68 3.8-9.367 6.156s-7.054 4.449-9.523 5.939c-1.224.741-2.224 1.361-2.918 1.741l-.8.449a1.361 1.361 0 0 1-.293.143 1.9 1.9 0 0 1 .252-.2l.769-.517 2.864-1.83 9.449-6.027 9.415-6.068 2.864-1.83.789-.49a1.552 1.552 0 0 1 .299-.146z" transform="translate(-79.854 -139.04)" style="fill:#fafafa"/>
        <path data-name="Path 2020" d="M161.36 228.06a2.705 2.705 0 0 1-.252.211l-.748.537c-.68.463-1.612 1.122-2.8 1.925-2.374 1.612-5.68 3.8-9.36 6.122s-7.054 4.456-9.523 5.945c-1.224.741-2.224 1.36-2.918 1.735l-.8.456a1.048 1.048 0 0 1-.293.136 1.433 1.433 0 0 1 .252-.2l.769-.51 2.857-1.837 9.455-6.02 9.415-6.068 2.864-1.837.782-.483a1.245 1.245 0 0 1 .306-.116z" transform="translate(-74.39 -140.485)" style="fill:#fafafa"/>
        <path data-name="Path 2021" d="M89.1 249.963a1.85 1.85 0 0 1-.211-.6 49.107 49.107 0 0 1-.429-1.667 24.272 24.272 0 0 1-.68-5.646 12.245 12.245 0 0 1 1.292-5.537 8.013 8.013 0 0 1 .966-1.442 2.041 2.041 0 0 1 .449-.442 21.933 21.933 0 0 0-1.2 2 13.027 13.027 0 0 0-1.163 5.442 29.076 29.076 0 0 0 .605 5.592 18.685 18.685 0 0 1 .371 2.3z" transform="translate(-59.399 -142.586)" style="fill:#fafafa"/>
        <path data-name="Path 2022" d="M48.991 319.066a3.6 3.6 0 0 1 0-.728c0-.49 0-1.2.041-2.041.054-1.748.184-4.163.395-6.8s.463-5.061.68-6.8c.109-.871.2-1.571.279-2.041a3.558 3.558 0 0 1 .156-.741 2.844 2.844 0 0 1 0 .762l-.177 2.041c-.15 1.823-.354 4.184-.578 6.8s-.361 4.973-.49 6.8c-.061.816-.116 1.5-.156 2.041a2.952 2.952 0 0 1-.15.707z" transform="translate(-46.991 -163.459)" style="fill:#fafafa"/>
        <path data-name="Path 2023" d="M149.921 347.48c0 .075-1.313.258-3.347.918a26.468 26.468 0 0 0-3.476 1.408 26.562 26.562 0 0 0-9.748 8.333c-1.231 1.748-1.809 2.952-1.871 2.918a5.247 5.247 0 0 1 .381-.857 8.839 8.839 0 0 1 .517-.966c.218-.367.456-.8.769-1.238a23.807 23.807 0 0 1 2.354-2.973 27.569 27.569 0 0 1 3.476-3.109 26.367 26.367 0 0 1 3.986-2.388 23.578 23.578 0 0 1 3.537-1.361c.51-.17.993-.265 1.408-.367a10.684 10.684 0 0 1 1.082-.2 4.893 4.893 0 0 1 .932-.118z" transform="translate(-73.373 -178.67)" style="fill:#fafafa"/>
        <path data-name="Path 2024" d="M256.318 233.881a1.66 1.66 0 0 1 0-.293v-.857c0-.775 0-1.884-.048-3.3-.041-2.884-.1-7.027-.17-12.136l-.714-40.033c-.279-15.626-.517-29.795-.612-40.039-.048-5.122-.061-9.272-.054-12.136v-4.447a1.566 1.566 0 0 1 0 .292v.857c0 .769 0 1.877.048 3.3.041 2.884.1 7.02.17 12.129l.714 40.039c.279 15.632.524 29.788.612 40.032.048 5.129.068 9.272.061 12.136v4.163a2.468 2.468 0 0 1-.007.292z" transform="translate(-112.778 -106.137)" style="fill:#fafafa"/>
        <circle data-name="Ellipse 133" cx="32.611" cy="32.611" r="32.611" transform="rotate(-2.29 4727.179 -7542.753)" style="fill:#263238"/>
        <path data-name="Path 2025" d="M496.528 413.35v.089a32.608 32.608 0 1 0 65.208.939v-.078z" transform="translate(-190.097 -199.732)" style="fill:#263238"/>
        <path data-name="Path 2026" d="M510.8 403.076a22.89 22.89 0 1 0 23.224-22.557 22.89 22.89 0 0 0-23.224 22.557z" transform="translate(-194.661 -189.234)" style="fill:#fafafa"/>
        <path data-name="Path 2027" d="M534.024 380.519a22.89 22.89 0 0 0-23.224 22.557l45.781.68a22.89 22.89 0 0 0-22.557-23.237z" transform="translate(-194.662 -189.233)" style="fill:#e0e0e0"/>
        <path data-name="Path 2028" d="M524 407.41a13.945 13.945 0 1 0 14.142-13.741A13.945 13.945 0 0 0 524 407.41z" transform="translate(-198.882 -193.439)" style="fill:#263238"/>
        <path data-name="Path 2029" d="M481.371 405.557s-4.966-46.257 42.965-46.257c44.216 0 43.237 39.781 42.815 45.937h-6.932s3.531-39.209-35.883-39.209-35.985 40.005-35.985 40.005-2.912-.143-6.98-.476z" transform="translate(-185.205 -182.449)" style="fill:#455a64"/>
        <path data-name="Path 2030" d="M508.1 366.339a1.576 1.576 0 0 1-.374.136c-.252.088-.626.177-1.088.34a33.142 33.142 0 0 0-3.9 1.517 31.183 31.183 0 0 0-17.156 20.407 33.345 33.345 0 0 0-.823 4.081c-.075.49-.1.871-.143 1.129a2.406 2.406 0 0 1-.068.394 1.586 1.586 0 0 1 0-.395 6.391 6.391 0 0 1 .082-1.143 27.737 27.737 0 0 1 .721-4.15 30.468 30.468 0 0 1 17.292-20.591 28.641 28.641 0 0 1 3.959-1.429c.476-.136.857-.211 1.109-.272a1.738 1.738 0 0 1 .389-.024z" transform="translate(-186.266 -184.7)" style="fill:#fafafa"/>
        <g data-name="mob logo full grey">
            <path data-name="Path 1" d="M411.063 111.5a5.063 5.063 0 0 1 5.063 5.063 5.063 5.063 0 0 1-5.063 5.063 5.063 5.063 0 0 1-5.063-5.063 5.063 5.063 0 0 1 5.063-5.063z" transform="translate(-100.981 -14.382)" style="fill:#00de9d"/>
            <path data-name="Path 2" d="M411.063 56.5a5.063 5.063 0 0 1 5.063 5.063 5.063 5.063 0 0 1-5.063 5.063A5.063 5.063 0 0 1 406 61.563a5.063 5.063 0 0 1 5.063-5.063z" transform="translate(-100.981 27.356)" style="fill:#00de9d"/>
            <path data-name="Path 3" d="M411.063 1.5a5.063 5.063 0 0 1 5.063 5.063 5.063 5.063 0 0 1-5.063 5.063A5.063 5.063 0 0 1 406 6.563a5.063 5.063 0 0 1 5.063-5.063z" transform="translate(-100.981 69.095)" style="fill:#00de9d"/>
            <path data-name="Path 4" d="M466.063 111.5a5.063 5.063 0 0 1 5.063 5.063 5.063 5.063 0 0 1-5.063 5.063 5.063 5.063 0 0 1-5.063-5.063 5.063 5.063 0 0 1 5.063-5.063z" transform="translate(-142.72 -14.382)" style="fill:#00de9d"/>
            <path data-name="Path 5" d="M466.063 56.5a5.063 5.063 0 0 1 5.063 5.063 5.063 5.063 0 0 1-5.063 5.063A5.063 5.063 0 0 1 461 61.563a5.063 5.063 0 0 1 5.063-5.063z" transform="translate(-142.72 27.356)" style="fill:#00de9d"/>
            <path data-name="Path 6" d="M466.063 1.5a5.063 5.063 0 0 1 5.063 5.063 5.063 5.063 0 0 1-5.063 5.063A5.063 5.063 0 0 1 461 6.563a5.063 5.063 0 0 1 5.063-5.063z" transform="translate(-142.72 69.095)" style="fill:#00de9d"/>
            <path data-name="Path 7" d="M521.063 56.5a5.063 5.063 0 0 1 5.063 5.063 5.063 5.063 0 0 1-5.063 5.063A5.063 5.063 0 0 1 516 61.563a5.063 5.063 0 0 1 5.063-5.063z" transform="translate(-184.458 27.356)" style="fill:#00de9d"/>
            <path d="M297.438 19.053a13.742 13.742 0 0 0-2.821-4.364 12.289 12.289 0 0 0-4.244-2.845 12.731 12.731 0 0 0-5.16-1.037 9.662 9.662 0 0 0-1.833.193 11.408 11.408 0 0 0-1.832.506 8.2 8.2 0 0 0-1.64.868 6.134 6.134 0 0 0-1.278 1.206V1.5H272v23a14.131 14.131 0 0 0 1.037 5.5 13.523 13.523 0 0 0 2.821 4.316 12.817 12.817 0 0 0 4.244 2.821 13.217 13.217 0 0 0 5.16 1.013 13.561 13.561 0 0 0 5.16-.989 13.9 13.9 0 0 0 4.244-2.773 13.119 13.119 0 0 0 2.821-4.34 14.77 14.77 0 0 0-.048-10.995zm-6.148 8.222a6.382 6.382 0 0 1-1.423 2.218 7.307 7.307 0 0 1-2.1 1.519 5.959 5.959 0 0 1-2.532.53 6.1 6.1 0 0 1-4.629-2.049 7.289 7.289 0 0 1-1.423-2.218 7.46 7.46 0 0 1-.506-2.773 6.861 6.861 0 0 1 .506-2.6 6.721 6.721 0 0 1 1.423-2.242 7.331 7.331 0 0 1 2.074-1.591 5.538 5.538 0 0 1 2.556-.6 5.959 5.959 0 0 1 2.532.53 6.184 6.184 0 0 1 2.1 1.495 7.407 7.407 0 0 1 1.423 2.242 7.015 7.015 0 0 1 .53 2.773 6.933 6.933 0 0 1-.532 2.766z" transform="translate(.709 69.095)" style="fill:#0354a3"/>
            <path d="M172.565 43.861a12.115 12.115 0 0 0-4.244-2.773 13.117 13.117 0 0 0-5.16-.989A12.813 12.813 0 0 0 158 41.137a14.489 14.489 0 0 0-4.244 2.869 13.12 13.12 0 0 0-2.821 4.34A13.975 13.975 0 0 0 149.9 53.8a13.82 13.82 0 0 0 1.037 5.4A12.963 12.963 0 0 0 158 66.406a13.358 13.358 0 0 0 10.32 0 14.641 14.641 0 0 0 4.244-2.869 13.371 13.371 0 0 0 2.821-4.34 13.9 13.9 0 0 0 1.037-5.4 14.363 14.363 0 0 0-1.037-5.594 12.523 12.523 0 0 0-2.82-4.342zm-3.327 12.827a6.109 6.109 0 0 1-1.447 2.218 6.9 6.9 0 0 1-2.122 1.447 5.929 5.929 0 0 1-2.532.482 5.811 5.811 0 0 1-2.556-.555 6.158 6.158 0 0 1-2.074-1.519 7.713 7.713 0 0 1-1.4-2.218 7 7 0 0 1-.482-2.773 7.331 7.331 0 0 1 .53-2.869 6.056 6.056 0 0 1 1.423-2.218 6.29 6.29 0 0 1 2.1-1.447 6.111 6.111 0 0 1 2.556-.482 5.96 5.96 0 0 1 2.532.53 5.472 5.472 0 0 1 2.1 1.447 7.29 7.29 0 0 1 1.423 2.218 6.845 6.845 0 0 1 .506 2.869 6.926 6.926 0 0 1-.557 2.871z" transform="translate(93.369 39.802)" style="fill:#0354a3"/>
            <path d="M8.438 68.63V52.21a3.177 3.177 0 0 1 .241-1.278 3.252 3.252 0 0 1 .7-1.061 2.923 2.923 0 0 1 1.037-.7 3.369 3.369 0 0 1 1.278-.265 3.188 3.188 0 0 1 1.278.265 2.91 2.91 0 0 1 1.061.7 3.011 3.011 0 0 1 .7 1.061A3.369 3.369 0 0 1 15 52.21v16.42h6.582V52.21a3.177 3.177 0 0 1 .241-1.278 3.252 3.252 0 0 1 .7-1.061 2.923 2.923 0 0 1 1.037-.7 3.369 3.369 0 0 1 1.278-.265 3.188 3.188 0 0 1 1.278.265 2.91 2.91 0 0 1 1.061.7 3.011 3.011 0 0 1 .7 1.061 3.369 3.369 0 0 1 .265 1.278v16.42h6.655v-16.2a11.009 11.009 0 0 0-5.16-8.945 9.113 9.113 0 0 0-.844-.41 9.315 9.315 0 0 0-3.834-.772 9.182 9.182 0 0 0-1.808.169 7.556 7.556 0 0 0-1.784.506 7.993 7.993 0 0 0-1.64.94 6.53 6.53 0 0 0-1.4 1.423A7.2 7.2 0 0 0 15.286 43a9.416 9.416 0 0 0-3.52-.675 9.319 9.319 0 0 0-3.448.651A10.491 10.491 0 0 0 5.786 44.4 11.356 11.356 0 0 0 2 51.27v17.36z" transform="translate(205.608 38.133)" style="fill:#0354a3"/>
        </g>
    </g>
</svg>
