<svg xmlns="http://www.w3.org/2000/svg" width="24" height="24.25" viewBox="0 0 24 24.25">
    <g data-name="Group 10400">
        <g data-name="Group 10399">
            <path data-name="Path 46356" d="M148.109 75.6a.628.628 0 0 1 1.1-.408l2.223 2.261 2.1-2.581a.628.628 0 0 1 .956-.035l.019.025.009.009 2.095 2.581 2.239-2.277a.624.624 0 0 1 .922 0l2.3 2.346 2.559-2.355a.628.628 0 0 1 1.082.433v7.221h4.368a.629.629 0 0 1 .627.627v11.064a3.131 3.131 0 0 1-3.127 3.127h-16.346a3.135 3.135 0 0 1-3.127-3.127V75.6zm17.615 8.47v10.442a1.871 1.871 0 0 0 3.741 0V84.075zm-1.254-7.044-1.985 1.825a.626.626 0 0 1-.869-.022l-2.3-2.336-2.3 2.336a.626.626 0 0 1-.887.006l-2.107-2.59-2.107 2.59a.622.622 0 0 1-.884-.006l-1.671-1.7v17.383a1.877 1.877 0 0 0 1.872 1.872H165.1a3.086 3.086 0 0 1-.627-1.872z" transform="translate(-147.109 -73.638)" style="stroke:#384853;stroke-width:.5px;fill:#384853"/>
            <path data-name="Path 46357" d="M307.457 213.042a.8.8 0 0 0 0-1.608h-5.228a.8.8 0 0 0 0 1.608h1.488a1.569 1.569 0 0 1 1.207.8h-2.694a.8.8 0 0 0 0 1.608h2.694c-.281.4-.684.4-1.207.4h-1.488a.8.8 0 0 0-.724.563.764.764 0 0 0 .161.885l3.74 3.539a.765.765 0 0 0 .563.2.723.723 0 0 0 .563-.241.764.764 0 0 0 0-1.126l-2.332-2.091a3.58 3.58 0 0 0 2.453-2.131h.8a.8.8 0 0 0 0-1.608h-.8a3.058 3.058 0 0 0-.241-.8z" transform="translate(-294.91 -201.761)" style="stroke:#fff;stroke-width:.2px;fill:#384853"/>
        </g>
    </g>
</svg>
