<svg xmlns="http://www.w3.org/2000/svg" width="15.506" height="18" viewBox="0 0 15.506 18">
    <g data-name="Group 18523">
        <g data-name="user (4)" transform="translate(-3.94 -2)">
            <circle data-name="Ellipse 1132" cx="4.179" cy="4.179" r="4.179" transform="translate(7.514 2)" style="fill:#fcca92"/>
            <path data-name="Path 59601" d="M19.009 23.955a1.919 1.919 0 0 1-1.491.707H5.869a1.929 1.929 0 0 1-1.89-2.308L4 22.239c.489-2.449 1-4.989 2.938-6.724a1.93 1.93 0 0 1 2.237-.193 5.179 5.179 0 0 0 5.027 0 1.93 1.93 0 0 1 2.237.193c1.935 1.736 2.449 4.275 2.938 6.724l.026.116a1.922 1.922 0 0 1-.394 1.6z" transform="translate(0 -4.662)" style="fill:#ff8b00"/>
        </g>
    </g>
</svg>
