<svg xmlns="http://www.w3.org/2000/svg" width="24" height="16.125" viewBox="0 0 24 16.125">
    <path data-name="visible (1)" d="M41.235 105.2a11.839 11.839 0 0 1-20.7 0 .882.882 0 0 1 0-.891 11.839 11.839 0 0 1 20.7 0 .869.869 0 0 1 0 .891zm1.336-1.636a13.367 13.367 0 0 0-23.367 0 2.394 2.394 0 0 0 0 2.379 13.367 13.367 0 0 0 23.367 0 2.394 2.394 0 0 0-.001-2.382zm-11.682 4.328a3.139 3.139 0 1 0-3.141-3.139 3.142 3.142 0 0 0 3.14 3.136zm0-7.807a4.669 4.669 0 1 0 4.668 4.669 4.674 4.674 0 0 0-4.669-4.672z" transform="translate(-18.887 -96.688)" style="fill:#fff;fill-rule:evenodd"/>
</svg>
