<svg xmlns="http://www.w3.org/2000/svg" width="24" height="24" viewBox="0 0 24 24">
    <g data-name="Group 17109">
        <path data-name="Path 58137" d="M12.047 0A12.047 12.047 0 0 0 0 11.953 12.127 12.127 0 0 0 12.047 24a12 12 0 0 0 0-24zm5.917 15.881a1.407 1.407 0 0 1-1.989 1.989l-3.927-3.929-4.023 3.93a1.407 1.407 0 0 1-1.989-1.989l3.928-3.928-3.928-3.929a1.407 1.407 0 1 1 1.989-1.989l4.021 3.929 3.927-3.929a1.407 1.407 0 0 1 1.989 1.989l-3.928 3.928z" style="fill:#d33f0d"/>
    </g>
</svg>
