<svg xmlns="http://www.w3.org/2000/svg" width="200" height="200" viewBox="0 0 200 200">
    <defs>
        <clipPath id="i64u3csima">
            <circle data-name="Ellipse 399" cx="100" cy="100" r="100" style="fill:#0354a3;stroke:#707070"/>
        </clipPath>
    </defs>
    <g data-name="Group 4334">
        <g data-name="Ellipse 396" style="fill:#0354a3;stroke:#707070">
            <circle cx="100" cy="100" r="100" style="stroke:none"/>
            <circle cx="100" cy="100" r="99.5" style="fill:none"/>
        </g>
        <g transform="translate(35.62 99.546)" data-name="Mask Group 87" style="clip-path:url(#i64u3csima)">
            <path data-name="Path 36037" d="M336.146 406.9c-1.573-2.713-5.6-3.346-8.979-1.393s-4.856 5.76-3.237 8.473 5.588 3.346 8.97 1.383 4.811-5.739 3.246-8.463z" transform="translate(-205.299 -297.987)" style="fill:#263238"/>
            <path data-name="Path 36038" d="M243.166 405.509c-3.382 1.962-4.856 5.751-3.282 8.473s5.588 3.346 8.97 1.383 4.856-5.742 3.291-8.464-5.598-3.345-8.979-1.392z" transform="translate(-197.252 -297.987)" style="fill:#263238"/>
            <path data-name="Path 36039" d="M318.465 403.259h-73.7a2.261 2.261 0 0 1 0-4.521h73.7a1.374 1.374 0 0 0 1.374-1.374v-5.868a1.383 1.383 0 0 0-1.085-1.338l-60.945-13.184a11.981 11.981 0 0 1-9.431-11.647v-11.466a2.261 2.261 0 1 1 4.521 0v11.466a7.433 7.433 0 0 0 5.823 7.234l60.955 13.184a5.932 5.932 0 0 1 4.648 5.76v5.868a5.9 5.9 0 0 1-5.86 5.886z" transform="translate(-197.563 -292.933)" style="fill:#ffc100"/>
            <g data-name="Group 4332" style="opacity:.3;isolation:isolate">
                <path data-name="Path 36040" d="M120.902 110.326h-73.7a2.261 2.261 0 0 1 0-4.521h73.7a1.374 1.374 0 0 0 1.374-1.374v-5.868a1.383 1.383 0 0 0-1.085-1.338L60.246 84.041a11.981 11.981 0 0 1-9.431-11.647V60.928a2.261 2.261 0 1 1 4.521 0v11.466a7.433 7.433 0 0 0 5.823 7.234l60.955 13.184a5.932 5.932 0 0 1 4.648 5.76v5.868a5.9 5.9 0 0 1-5.86 5.886z"/>
            </g>
            <path data-name="Path 36041" d="M317.652 319.13v-.154l2.64-14.594L323 289.4a2.269 2.269 0 0 0-2.224-2.658h-28.71a2.261 2.261 0 1 0 0 4.521h8.234l-1.447 10.417h-61.922a2.261 2.261 0 1 0 0 4.521h61.334l-1.42 10.173h-56.162a2.261 2.261 0 0 0 0 4.521h55.484l-1.465 10.5H244.3a2.261 2.261 0 1 0 0 4.521h49.733l-1.32 9.495h-5.85a2.261 2.261 0 0 0 0 4.521H310.2a2.27 2.27 0 0 0 2.224-1.863l2.523-13.952zm-4.1-2.776h-3.147l1.808-10.173h3.228zm-.814 4.521-1.9 10.5h-3.074l1.808-10.5zm3.472-19.215h-3.228l1.808-10.417h3.282zm-11.348-10.417h5.362l-1.808 10.417h-4.982zm-2.08 14.938h4.819l-1.801 10.173h-4.449zm-2.053 14.694h4.286l-1.808 10.5H299.3zm-2.1 15.019h3.753l-1.664 9.494h-3.364zm6.673 9.494 1.673-9.494h3.038l-1.718 9.494z" transform="translate(-196.814 -286.722)" style="fill:#ffc100"/>
            <g data-name="Group 4333" style="opacity:.3;isolation:isolate">
                <path data-name="Path 36042" d="M120.838 32.408v-.154l2.64-14.594 2.708-14.982A2.269 2.269 0 0 0 123.962.02h-28.71a2.261 2.261 0 1 0 0 4.521h8.234l-1.447 10.417H40.117a2.261 2.261 0 1 0 0 4.521h61.334l-1.42 10.173H43.869a2.261 2.261 0 0 0 0 4.521h55.484l-1.465 10.5H47.486a2.261 2.261 0 1 0 0 4.521h49.733l-1.32 9.495h-5.85a2.261 2.261 0 0 0 0 4.521h23.337a2.27 2.27 0 0 0 2.224-1.863l2.523-13.952zm-4.1-2.776h-3.147l1.808-10.173h3.228zm-.814 4.521-1.9 10.5h-3.074l1.808-10.5zm3.472-19.215h-3.228l1.808-10.417h3.282zM108.048 4.521h5.362l-1.808 10.417h-4.982zm-2.08 14.938h4.819l-1.801 10.173h-4.449zm-2.053 14.694h4.286l-1.808 10.5h-3.907zm-2.1 15.019h3.753l-1.664 9.494h-3.364zm6.673 9.494 1.673-9.494h3.038l-1.718 9.494z"/>
            </g>
            <path data-name="Path 36043" d="M289.836 287.452a2.243 2.243 0 0 0-1.664-.732h-92.005a2.288 2.288 0 0 0-1.808.85 2.261 2.261 0 0 0-.434 1.908l3.391 14.893 9.947 43.765a2.261 2.261 0 0 0 2.206 1.808h73.478a2.27 2.27 0 0 0 2.252-2.062l5.172-58.667a2.252 2.252 0 0 0-.535-1.763zm-7.686 43.919h-10.489l.461-10.489h10.959zm-58.215 14.016-1.23-9.494H234l.687 9.494zm13.184-29.026-.741-10.182h14.893v10.182zm14.151 4.521v10.489H238.2l-.76-10.489zm4.521-14.7h12.451l-.443 10.182h-12.007zm0-4.521v-10.42H268.9l-.461 10.417zm-4.521 0h-15.218l-.75-10.417h15.969zm-19.748 0h-13.238l-1.347-10.417h13.826zm.326 4.521.732 10.182h-12.37l-1.32-10.182zm-16.222 10.182h-10.914l-2.312-10.185h11.909zm-9.883 4.521H216.2l1.356 10.489h-9.426zm15.028 0h12.144l.76 10.489h-11.548zm17.759 15.01h12.741v9.494H239.2zm17.262 0h11.14l-.416 9.494h-10.724zm0-4.521v-10.492H267.6l-.461 10.489zm16.529-15.01.452-10.182h11.637l-.9 10.182zm12.451-14.7h-11.755l.461-10.417h12.262zm-72.392-10.423 1.347 10.417h-12.361L199 291.241zm-3.228 44.651h9l1.23 9.494h-8.066zm61.895 9.494.416-9.494h10.29l-.832 9.494z" transform="translate(-192.906 -286.72)" style="fill:#ffc100"/>
            <path data-name="Path 36044" d="M278.465 403.259h-73.7a2.261 2.261 0 0 1 0-4.521h73.7a1.374 1.374 0 0 0 1.374-1.374v-5.868a1.383 1.383 0 0 0-1.085-1.338l-60.945-13.184a11.981 11.981 0 0 1-9.431-11.647v-11.466a2.261 2.261 0 1 1 4.521 0v11.466a7.433 7.433 0 0 0 5.823 7.234l60.954 13.184a5.932 5.932 0 0 1 4.648 5.76v5.868a5.9 5.9 0 0 1-5.859 5.886z" transform="translate(-193.733 -292.933)" style="fill:#ffc100"/>
            <ellipse data-name="Ellipse 397" cx="7.08" cy="5.688" rx="7.08" ry="5.688" transform="rotate(-30 245.232 -86.196)" style="fill:#263238"/>
            <path data-name="Path 36045" d="M287.93 408.808c.778 1.338.054 3.192-1.609 4.15s-3.617.66-4.4-.678-.054-3.192 1.61-4.159 3.63-.652 4.399.687z" transform="translate(-201.308 -298.292)" style="fill:#ffc100"/>
            <ellipse data-name="Ellipse 398" cx="7.08" cy="5.688" rx="7.08" ry="5.688" transform="rotate(-30 207.256 55.534)" style="fill:#263238"/>
            <path data-name="Path 36046" d="M203.93 408.808c.778 1.338.054 3.192-1.61 4.15s-3.617.66-4.4-.678-.054-3.192 1.61-4.159 3.631-.652 4.4.687z" transform="translate(-193.263 -298.292)" style="fill:#ffc100"/>
        </g>
    </g>
</svg>
