<svg xmlns="http://www.w3.org/2000/svg" width="24.025" height="24" viewBox="0 0 24.025 24">
    <path data-name="Path 46948" d="M13.1 1A10.927 10.927 0 0 0 2.566 9.223l-.732-1.107a1 1 0 1 0-1.668 1.1l2.2 3.334a1.084 1.084 0 0 0 .634.425 1.024 1.024 0 0 0 .756-.145l3.3-2.223a1 1 0 1 0-1.115-1.659L4.44 9.96a8.966 8.966 0 1 1 1.379 7.218 1 1 0 1 0-1.64 1.143A10.881 10.881 0 0 0 24 12 10.963 10.963 0 0 0 13.1 1z" style="fill:#0a243f" transform="translate(.024)"/>
    <path data-name="Path 46949" d="M13 5.95a1 1 0 0 0-1 1V12a1.04 1.04 0 0 0 .293.707l3 3.027a1.013 1.013 0 0 0 1.414.007 1 1 0 0 0 .006-1.414L14 11.589V6.95a1 1 0 0 0-1-1z" style="fill:#0a243f" transform="translate(.024)"/>
</svg>
