<svg xmlns="http://www.w3.org/2000/svg" width="16" height="16" viewBox="0 0 16 16">
    <g data-name="contact us">
        <path data-name="Path 35808" d="M1848.474 2934.584a3.267 3.267 0 0 0 .541.086 5.672 5.672 0 0 1 3.175 1.69 6.251 6.251 0 0 1 1.382 2.171.516.516 0 0 1 .017.075.1.1 0 0 1-.11-.04 1.529 1.529 0 0 0-1.063-.45.283.283 0 0 1-.106-.022.421.421 0 0 1-.126-.155 5 5 0 0 0-2.017-1.867 4.5 4.5 0 0 0-1.789-.483c-.119-.007-.236-.033-.355-.035a.107.107 0 0 1-.11-.071 5.831 5.831 0 0 1-.013-.786.169.169 0 0 1 .044-.113h.156a.316.316 0 0 0 .218 0z" transform="translate(-1839.959 -2934.581)" style="fill:#010043"/>
        <path data-name="Path 35809" d="M1720.02 2934.584v.93c-.041.054-.1.043-.157.045a4.978 4.978 0 0 0-4.073 2.364.488.488 0 0 1-.133.17.946.946 0 0 1-.259.044 1.442 1.442 0 0 0-.851.37c-.068.061-.071.057-.142.039a5.92 5.92 0 0 1 1.257-2.054 5.727 5.727 0 0 1 3.393-1.838 1.321 1.321 0 0 0 .4-.072h.094a.04.04 0 0 0 .062 0h.156a.239.239 0 0 0 .187 0z" transform="translate(-1712.035 -2934.581)" style="fill:#013772"/>
        <path data-name="Path 35810" d="M1853.089 2934.584a.179.179 0 0 1-.218 0z" transform="translate(-1844.731 -2934.581)" style="fill:#09104f"/>
        <path data-name="Path 35811" d="M1843.33 2934.584a.141.141 0 0 1-.187 0z" transform="translate(-1835.408 -2934.581)" style="fill:#225184"/>
        <path data-name="Path 35812" d="M1837.968 2934.584c-.021.036-.042.043-.062 0z" transform="translate(-1830.388 -2934.581)" style="fill:#869fbb"/>
        <path data-name="Path 35813" d="M1848.228 3166.281c.3.047.607.055.907.114a6.169 6.169 0 0 1 4.274 3.084 5.976 5.976 0 0 1 .664 1.683 1.094 1.094 0 0 1-1.07 1.38q-2.486.005-4.972 0c-.026 0-.052 0-.078-.005a.263.263 0 0 1-.051-.205v-5.824a.33.33 0 0 1 .047-.209.1.1 0 0 1 0-.02l.019-.02a.238.238 0 0 1 .26.022z" transform="translate(-1839.968 -3156.578)" style="fill:#00a7fe"/>
        <path data-name="Path 35814" d="M1707.75 3167.828V3174.066c-.2 0-.4.005-.607.005h-4.377a1.1 1.1 0 0 1-1.123-1.428 6.307 6.307 0 0 1 5.157-4.75 5.476 5.476 0 0 1 .95-.065z" transform="translate(-1699.769 -3158.106)" style="fill:#00dbfe"/>
        <path data-name="Path 35815" d="M1762.188 2994.957a3.592 3.592 0 0 1-2.167-.682 3.257 3.257 0 0 1-.542-.482 1.142 1.142 0 0 0-.106-.09 1.333 1.333 0 0 1-.414-.516 3.655 3.655 0 0 1-.551-2 3.767 3.767 0 0 1 .949-2.459 4.089 4.089 0 0 1 1-.8 3.683 3.683 0 0 1 1.662-.461c.074 0 .161-.015.2.081a.892.892 0 0 1 .017.248v6.878a.435.435 0 0 1-.046.286z" transform="translate(-1754.204 -2985.255)" style="fill:#fedbd6"/>
        <path data-name="Path 35816" d="M1849.136 2994.773v-7.452a.758.758 0 0 1 .469-.025 3.847 3.847 0 0 1 2.39 1.266 3.782 3.782 0 0 1 .822 3.379.23.23 0 0 1-.113.177.734.734 0 0 1-.247.02h-2.15a1.8 1.8 0 0 0-.2.005.426.426 0 0 0-.382.389.434.434 0 0 0 .308.421.873.873 0 0 0 .263.025h1.745a.914.914 0 0 1 .232.014c.075.025.057.076.028.122a1.469 1.469 0 0 1-.327.406 6.708 6.708 0 0 1-.708.605 3.66 3.66 0 0 1-1.53.614c-.107.017-.216.024-.324.036z" transform="translate(-1841.148 -2985.073)" style="fill:#feb8bb"/>
        <path data-name="Path 35817" d="M1708.963 3017.229a4.487 4.487 0 0 0-.585.93 3.7 3.7 0 0 0 .513 3.915l.073.1h-1.667a1.448 1.448 0 0 1-1.479-1.416c-.021-.7-.006-1.4 0-2.1a1.411 1.411 0 0 1 .246-.775c.039-.06.07-.125.1-.187.094.008.122-.081.177-.126a1.674 1.674 0 0 1 1.071-.345.372.372 0 0 1 .222-.051h1.114c.075-.001.157-.015.215.055z" transform="translate(-1703.794 -3013.727)" style="fill:#016ea0"/>
        <path data-name="Path 35818" d="M1917.951 3020.737a3.211 3.211 0 0 0 .139-1.422 3.673 3.673 0 0 0-.866-2.035.18.18 0 0 1-.021-.056c.054-.066.13-.057.2-.057h1.12a.363.363 0 0 1 .208.051 1.657 1.657 0 0 1 1.277.53 1.881 1.881 0 0 1 .339 1.231c-.015.545 0 1.091 0 1.636a1.479 1.479 0 0 1-1.554 1.556h-1.59l.339-.493c.059-.06.136-.04.206-.043a1.156 1.156 0 0 0 .324-.029.409.409 0 0 0 .3-.4.42.42 0 0 0-.285-.4c-.044-.025-.101-.023-.136-.069z" transform="translate(-1906.38 -3013.722)" style="fill:#013772"/>
        <path data-name="Path 35820" d="M1865.029 3102.852a.452.452 0 0 1 .468.452.461.461 0 0 1-.46.483c-.139.008-.279 0-.419 0l-2.042-.005h-.156a.48.48 0 0 1-.443-.478.465.465 0 0 1 .479-.453c.858-.001 1.715.001 2.573.001z" transform="translate(-1853.458 -3095.837)" style="fill:#010043"/>
    </g>
</svg>
