<svg xmlns="http://www.w3.org/2000/svg" width="18" height="14.4" viewBox="0 0 18 14.4">
    <path d="M.9 11.7a.9.9 0 0 1-.1-1.794L.9 9.9h9.9a2.7 2.7 0 0 1 2.7-2.7h1.8A2.7 2.7 0 0 1 18 9.9v1.8a2.7 2.7 0 0 1-2.7 2.7h-1.8a2.7 2.7 0 0 1-2.7-2.7zM15.3 9h-1.8a.9.9 0 0 0-.894.8l-.006.1v1.8a.9.9 0 0 0 .8.894l.1.006h1.8a.9.9 0 0 0 .894-.8l.006-.1V9.9a.9.9 0 0 0-.8-.894zM4.5 0a2.7 2.7 0 0 1 2.7 2.7h9.9a.9.9 0 0 1 .1 1.794l-.1.006H7.2a2.7 2.7 0 0 1-2.7 2.7H2.7A2.7 2.7 0 0 1 0 4.5V2.7A2.7 2.7 0 0 1 2.7 0zm0 1.8H2.7a.9.9 0 0 0-.894.8l-.006.1v1.8a.9.9 0 0 0 .8.894l.1.006h1.8a.9.9 0 0 0 .894-.8l.006-.1V2.7a.9.9 0 0 0-.8-.894z" style="fill:#0a243f"/>
</svg>
