<svg xmlns="http://www.w3.org/2000/svg" width="16" height="16" viewBox="0 0 16 16">
    <g data-name="Group 19430">
        <path data-name="Path 59554" d="M22.528 17.45H19.5a2.048 2.048 0 0 0-2.05 2.05v3.031a2.049 2.049 0 0 0 2.05 2.044h3.031a2.049 2.049 0 0 0 2.047-2.047V19.5a2.049 2.049 0 0 0-2.05-2.05zm.839 5.078a.845.845 0 0 1-.839.839H19.5a.845.845 0 0 1-.839-.839V19.5a.841.841 0 0 1 .839-.839h3.031a.841.841 0 0 1 .839.839z" transform="translate(-8.575 -8.575)" style="fill:#0a243f"/>
        <path data-name="Path 59555" d="M22.528 2.75H19.5a2.048 2.048 0 0 0-2.05 2.05v3.028a2.048 2.048 0 0 0 2.05 2.047h3.031a2.049 2.049 0 0 0 2.047-2.047V4.8a2.049 2.049 0 0 0-2.05-2.05zm.839 5.078a.841.841 0 0 1-.839.839H19.5a.841.841 0 0 1-.839-.839V4.8a.845.845 0 0 1 .839-.839h3.031a.845.845 0 0 1 .839.839z" transform="translate(-8.575 -2.75)" style="fill:#0a243f"/>
        <path data-name="Path 59556" d="M7.828 17.45H4.8a2.049 2.049 0 0 0-2.05 2.05v3.031a2.049 2.049 0 0 0 2.05 2.044h3.028a2.048 2.048 0 0 0 2.047-2.047V19.5a2.049 2.049 0 0 0-2.047-2.05zm.839 5.078a.841.841 0 0 1-.839.839H4.8a.845.845 0 0 1-.839-.839V19.5a.841.841 0 0 1 .839-.839h3.028a.837.837 0 0 1 .839.839z" transform="translate(-2.75 -8.575)" style="fill:#0a243f"/>
        <path data-name="Path 59557" d="M7.828 2.75H4.8A2.049 2.049 0 0 0 2.75 4.8v3.028A2.048 2.048 0 0 0 4.8 9.875h3.028a2.048 2.048 0 0 0 2.047-2.047V4.8a2.049 2.049 0 0 0-2.047-2.05zm.839 5.078a.837.837 0 0 1-.839.839H4.8a.841.841 0 0 1-.839-.839V4.8a.845.845 0 0 1 .839-.842h3.028a.841.841 0 0 1 .839.839z" transform="translate(-2.75 -2.75)" style="fill:#0a243f"/>
    </g>
</svg>
