<svg xmlns="http://www.w3.org/2000/svg" width="48" height="48" viewBox="0 0 48 48">
    <g data-name="Group 18279">
        <path data-name="Path 59553" d="M12.5 169.512a7.489 7.489 0 0 1-7.084-5.1l-.07-.23a7.3 7.3 0 0 1-.346-2.17v-13.637l-4.852 16.2a4.542 4.542 0 0 0 3.184 5.51l30.927 8.282a4.588 4.588 0 0 0 1.152.148 4.459 4.459 0 0 0 4.322-3.27l1.8-5.73zm0 0" transform="translate(0 -132.51)" style="fill:#eceff1"/>
        <path data-name="Path 59554" d="M125.321 4.992v23a4.507 4.507 0 0 1-4.5 4.5h-31a5.251 5.251 0 0 1-.58-.04 4.475 4.475 0 0 1-3.9-4.1 2.161 2.161 0 0 1-.02-.36v-23a4.507 4.507 0 0 1 4.5-4.5h31a4.507 4.507 0 0 1 4.5 4.5zm0 0" transform="translate(-77.321 1.508)" style="fill:#eceff1"/>
        <path data-name="Path 59555" d="M157.32 68.492a4 4 0 1 1-4-4 4 4 0 0 1 4 4zm0 0" transform="translate(-135.321 -56.492)" style="fill:#ffc107"/>
        <path data-name="Path 59556" d="M163.214 122.327v5.62a4.507 4.507 0 0 1-4.5 4.5h-31a5.252 5.252 0 0 1-.58-.04l20.6-20.6a3.525 3.525 0 0 1 4.96 0zm0 0" transform="translate(-115.214 -98.447)" style="fill:#388e3c"/>
        <path data-name="Path 59557" d="M113.636 200.115H90.015a5.252 5.252 0 0 1-.58-.04 4.475 4.475 0 0 1-3.9-4.1l9.5-9.5a3.525 3.525 0 0 1 4.96 0zm0 0" transform="translate(-77.516 -166.113)" style="fill:#4caf50"/>
    </g>
</svg>
