<svg xmlns="http://www.w3.org/2000/svg" width="741.818" height="310" viewBox="0 0 741.818 310">
    <path data-name="Path 46283" d="M7.955 155h31.363v-50.909c0-7.614 3.977-12.273 10.455-12.273s10.682 4.659 10.682 12.273V155h30v-50.909c0-7.614 3.977-12.273 10.455-12.273s10.682 4.659 10.682 12.273V155h31.364V96.136c0-17.9-11.477-29.545-28.182-29.545-12.955 0-23.409 7.045-26.364 17.727h-.91c-1.818-10.682-11.591-17.727-23.864-17.727-12.1 0-21.364 6.818-25 17.727h-.909V67.727H7.955zm174.773 1.364c11.364 0 19.943-3.864 25.227-13.636h.682V155h29.318V95.227c0-16.136-15.284-28.636-40.227-28.636-26.08 0-38.92 13.636-40 29.545h28.864c.739-5.4 4.716-7.955 10.682-7.955 5.455 0 9.318 2.5 9.318 7.045v.227c0 5.057-5.568 6.648-20.227 7.727-18.011 1.307-32.045 8.58-32.045 27.727-.002 17.393 11.703 25.457 28.407 25.457zm10.227-19.773c-5.341 0-9.091-2.614-9.091-7.5 0-4.489 3.182-7.955 10.455-9.091a56.852 56.852 0 0 0 12.5-3.182v7.273c-.001 7.954-6.762 12.5-13.865 12.5zm91.591 19.545c12.273 0 20.682-6.591 24.318-15.455h.682V155h31.136V38.636h-31.364v44.319h-.455c-3.409-8.864-11.591-16.364-24.545-16.364-17.273 0-34.091 13.182-34.091 44.773 0 30.227 15.682 44.772 34.318 44.772zm11.591-24.091c-8.636 0-13.636-7.727-13.636-20.682s5-20.682 13.636-20.682S310 98.409 310 111.364c0 12.727-5.227 20.681-13.864 20.681zM430 156.591c28.409 0 45.227-18.182 45.227-45s-16.818-45-45.227-45-45.227 18.182-45.227 45 16.818 45 45.227 45zm.227-23.182c-8.409 0-13.409-8.352-13.409-22.045s5-22.045 13.409-22.045c7.955 0 12.955 8.352 12.955 22.045s-5 22.045-12.955 22.045zm142.955-65.682h-32.955l-14.091 57.727h-.909l-14.091-57.727h-32.954L507.5 155h36.364zm47.955 88.864c24.2 0 39.773-11.591 42.727-29.773h-28.637c-1.818 4.943-6.989 7.727-13.409 7.727-9.318 0-14.773-6.136-14.773-14.545v-1.364h56.818v-7.273c0-27.784-17.045-44.773-43.409-44.773-27.045 0-44.318 17.955-44.318 45 0 28.24 17.046 45.001 45 45.001zm-14.091-55.227c.17-7.557 6.42-12.727 14.091-12.727 7.784 0 13.693 5.227 13.864 12.727zM676.591 155h31.364v-45.454c0-10 6.875-16.591 16.136-16.591a42.257 42.257 0 0 1 11.591 1.591V67.784a28.361 28.361 0 0 0-7.955-1.193c-9.318 0-16.591 5.455-19.773 17.727h-.909V67.727h-30.454zM7.5 315h31.136v-14.318h.682c3.636 8.864 12.045 15.455 24.318 15.455 18.636 0 34.318-14.545 34.318-44.773 0-31.591-16.818-44.773-34.091-44.773-12.955 0-21.136 7.5-24.545 16.364h-.455v-44.319H7.5zm30.682-43.636c0-12.955 5.227-20.682 13.864-20.682s13.636 7.727 13.636 20.682-5 20.682-13.636 20.682-13.864-7.955-13.864-20.682zm129.545 5.455c.057 8.636-4.943 13.864-12.727 13.864-7.9 0-12.443-5.227-12.5-13.864v-49.092h-31.364v55.682c.057 19.091 12.1 32.727 30.455 32.727 13.011 0 23.011-6.591 26.818-17.727h.909V315h29.773v-87.273h-31.364zM215 315h31.364v-87.273H215zm15.682-96.364c8.523 0 15.455-6.42 15.455-14.318S239.2 190 230.682 190s-15.455 6.42-15.455 14.318 6.932 14.318 15.455 14.318zm62.955-20h-31.364V315h31.364zm47.5 117.5c12.273 0 20.682-6.591 24.318-15.455h.682V315h31.136V198.636h-31.364v44.318h-.455c-3.409-8.864-11.591-16.364-24.545-16.364-17.273 0-34.091 13.182-34.091 44.773 0 30.228 15.682 44.773 34.318 44.773zm11.591-24.091c-8.636 0-13.636-7.727-13.636-20.682s5-20.682 13.636-20.682 13.864 7.727 13.864 20.682c-.001 12.728-5.228 20.682-13.865 20.682zm60 22.955h31.364v-87.273h-31.365zm15.682-96.364c8.523 0 15.455-6.42 15.455-14.318S436.932 190 428.409 190s-15.455 6.42-15.455 14.318 6.932 14.318 15.455 14.318zm62.954 47.273c.057-8.636 4.943-13.864 12.727-13.864 7.9 0 12.557 5.227 12.5 13.864V315h31.364v-55.682c.057-18.977-11.932-32.727-30.455-32.727-12.841 0-23.011 6.7-26.818 17.727h-.909v-16.591H460V315h31.364zm114.091 82.727c27.614 0 45.909-12.614 45.909-33.864v-87.045H620v15.227h-.682c-3.409-8.864-11.591-16.364-24.545-16.364-17.273 0-34.091 13.182-34.091 44.773 0 30.227 15.682 42.5 34.318 42.5 11.818 0 21.136-5 24.545-13.864h.909v14.773c0 9.375-5.966 12.727-14.091 12.727-7.216 0-12.5-2.159-13.409-6.818h-30.227c1.193 15.91 16.473 27.955 42.727 27.955zm1.136-57.045c-8.636 0-13.636-7.273-13.636-20.227s5-20.682 13.636-20.682 13.864 7.727 13.864 20.682c-.001 12.727-5.228 20.227-13.864 20.227zm140.455-35.455c-.8-18.466-16.136-29.545-41.364-29.545-24.943 0-40.341 10.227-40.227 28.409-.114 13.75 8.807 22.557 26.591 25.682l15.455 2.727c6.818 1.25 9.886 3.068 10 6.364-.114 3.636-4.261 5.682-10 5.682-7.1 0-12.1-3.068-12.955-8.636h-31.137c1.7 17.9 17.159 29.773 43.864 29.773 24.148 0 41.932-11.761 42.045-30.455-.114-12.9-8.75-20.4-26.591-23.636L705 259.318c-6.648-1.193-8.523-3.58-8.409-6.136-.114-3.636 4.375-5.682 9.773-5.682 6.193 0 11.364 3.3 11.818 8.636z" transform="translate(-7.5 -38.636)" style="fill:#fff;opacity:.4"/>
</svg>
