<svg xmlns="http://www.w3.org/2000/svg" width="93.571" height="25" viewBox="0 0 93.571 25">
    <defs>
        <linearGradient id="6q7bcv733a" x1=".254" x2=".644" y2="1" gradientUnits="objectBoundingBox">
            <stop offset="0" stop-color="#e8f6c6"/>
            <stop offset="1" stop-color="#d1f4fa"/>
        </linearGradient>
    </defs>
    <g data-name="Mob credit logo" transform="translate(-17993.5 -10917.141)">
        <rect data-name="Rectangle 15111" width="92.571" height="24" rx="12" transform="translate(17994 10917.641)" style="stroke:transparent;stroke-miterlimit:10;fill:url(#6q7bcv733a)"/>
        <g data-name="Group 16476">
            <g style="opacity:.999">
                <path d="M282.956 57.71a3.714 3.714 0 0 0-.774-1.194 3.424 3.424 0 0 0-1.155-.781 3.5 3.5 0 0 0-1.411-.282 2.753 2.753 0 0 0-.505.052 3.383 3.383 0 0 0-.505.138 2.481 2.481 0 0 0-.453.236 1.669 1.669 0 0 0-.348.328V52.9H276v6.306a3.912 3.912 0 0 0 .282 1.509 3.727 3.727 0 0 0 .774 1.181 3.575 3.575 0 0 0 1.155.774 3.629 3.629 0 0 0 1.411.276 3.725 3.725 0 0 0 1.411-.269 3.539 3.539 0 0 0 1.155-.761 3.614 3.614 0 0 0 .774-1.188 3.932 3.932 0 0 0 .282-1.522 3.825 3.825 0 0 0-.288-1.496zm-1.68 2.257a1.828 1.828 0 0 1-.387.61 1.932 1.932 0 0 1-.577.413 1.652 1.652 0 0 1-.7.144 1.7 1.7 0 0 1-.7-.144 1.768 1.768 0 0 1-.571-.413 1.939 1.939 0 0 1-.387-.61 2.065 2.065 0 0 1-.138-.761 1.9 1.9 0 0 1 .138-.715 2.011 2.011 0 0 1 .958-1.05 1.534 1.534 0 0 1 .7-.164 1.652 1.652 0 0 1 .7.144 1.709 1.709 0 0 1 .577.407 1.97 1.97 0 0 1 .387.617 2.079 2.079 0 0 1 0 1.522z" transform="translate(17746.865 10871.422)" style="fill:#0a243f"/>
                <path d="M158.688 92.83a3.375 3.375 0 0 0-1.155-.761 3.6 3.6 0 0 0-1.411-.269 3.519 3.519 0 0 0-1.411.282 3.684 3.684 0 0 0-1.155.787 3.615 3.615 0 0 0-.774 1.188 3.869 3.869 0 0 0-.282 1.5 3.826 3.826 0 0 0 .282 1.483 3.757 3.757 0 0 0 .774 1.188 3.835 3.835 0 0 0 1.155.787 3.668 3.668 0 0 0 2.822 0 3.835 3.835 0 0 0 1.155-.787 3.685 3.685 0 0 0 .774-1.188 3.826 3.826 0 0 0 .282-1.483 3.976 3.976 0 0 0-.282-1.536 3.548 3.548 0 0 0-.774-1.191zm-.906 3.511a1.829 1.829 0 0 1-.387.61 1.759 1.759 0 0 1-1.273.532 1.7 1.7 0 0 1-.7-.144 1.769 1.769 0 0 1-.571-.413 1.984 1.984 0 0 1-.518-1.371 2.157 2.157 0 0 1 .138-.787 1.814 1.814 0 0 1 .381-.61 1.712 1.712 0 0 1 .571-.394 1.81 1.81 0 0 1 .7-.138 1.754 1.754 0 0 1 .7.138 1.512 1.512 0 0 1 .577.394 1.939 1.939 0 0 1 .387.61 2.22 2.22 0 0 1 0 1.575z" transform="translate(17862.261 10835.075)" style="fill:#0a243f"/>
                <path d="M2.4 101.218v-4.5a.865.865 0 0 1 .066-.348.885.885 0 0 1 .19-.289.8.8 0 0 1 .282-.19.917.917 0 0 1 .348-.072.868.868 0 0 1 .348.072.792.792 0 0 1 .289.19.819.819 0 0 1 .19.289.917.917 0 0 1 .072.348v4.5h1.809v-4.5a.865.865 0 0 1 .066-.348.885.885 0 0 1 .19-.289.8.8 0 0 1 .282-.19.917.917 0 0 1 .348-.072.868.868 0 0 1 .348.072.792.792 0 0 1 .289.19.819.819 0 0 1 .19.289.917.917 0 0 1 .072.348v4.5h1.837v-4.442a3.018 3.018 0 0 0-1.424-2.454 2.479 2.479 0 0 0-.23-.112A2.566 2.566 0 0 0 6.913 94a2.612 2.612 0 0 0-.5.046 2.2 2.2 0 0 0-.492.138 2.176 2.176 0 0 0-.446.256 1.777 1.777 0 0 0-.381.387 1.994 1.994 0 0 0-.833-.643 2.616 2.616 0 0 0-1.91-.007 2.9 2.9 0 0 0-.7.387A3.03 3.03 0 0 0 .6 96.448v4.771z" transform="translate(18004.193 10833.019)" style="fill:#0a243f"/>
            </g>
            <path data-name="Path 56979" d="M4.245-24.856q0 2.907 2.441 2.907a4.021 4.021 0 0 0 .83-.082 8.4 8.4 0 0 0 .953-.274 7.392 7.392 0 0 1 .6 2.03q-.4.151-.741.247a5.535 5.535 0 0 1-.658.144q-.315.048-.624.069t-.638.021a5.192 5.192 0 0 1-2.05-.377 4.1 4.1 0 0 1-1.481-1.049 4.442 4.442 0 0 1-.9-1.6 6.56 6.56 0 0 1-.3-2.03A6.36 6.36 0 0 1 2-26.892a4.745 4.745 0 0 1 .912-1.625 4.1 4.1 0 0 1 1.474-1.07 4.914 4.914 0 0 1 1.989-.384 7.765 7.765 0 0 1 1.248.1 6.433 6.433 0 0 1 1.317.384 4 4 0 0 1-.21 1.087 8.112 8.112 0 0 1-.37.926q-.274-.1-.5-.165t-.432-.11q-.206-.041-.411-.062t-.439-.021a2.1 2.1 0 0 0-1.721.747 3.465 3.465 0 0 0-.612 2.229zm6.048-4.923q.672-.069 1.241-.13a11.141 11.141 0 0 1 1.2-.062 8.028 8.028 0 0 1 1.509.144 4.036 4.036 0 0 1 1.344.5 2.8 2.8 0 0 1 .96.974 3 3 0 0 1 .37 1.563 3.293 3.293 0 0 1-.117.912 3.127 3.127 0 0 1-.3.72 2.865 2.865 0 0 1-.411.549 3.828 3.828 0 0 1-.446.4l2.139 4.224q-.329.055-.72.082t-.706.027q-.274 0-.638-.027a5.336 5.336 0 0 1-.638-.082l-1.947-4.484.123-.069a1.541 1.541 0 0 0 .363-.274 2.54 2.54 0 0 0 .37-.459 2.886 2.886 0 0 0 .288-.6 2.039 2.039 0 0 0 .117-.686 1.222 1.222 0 0 0-.384-1 1.442 1.442 0 0 0-.946-.315 1.682 1.682 0 0 0-.233.014.5.5 0 0 0-.123.027v7.844a7.413 7.413 0 0 1-1.193.123 7.325 7.325 0 0 1-1.221-.123zm13.645 4.69a5.265 5.265 0 0 1-.123 1.07h-2.647v1.947h3.442a5.019 5.019 0 0 1 .123 1.042 5.183 5.183 0 0 1-.123 1.083h-5.87v-9.86h5.787q.055.3.082.562a4.727 4.727 0 0 1 .027.494 6.465 6.465 0 0 1-.11 1.083h-3.36v1.509h2.647a5.411 5.411 0 0 1 .126 1.07zm4.762-4.882a5.455 5.455 0 0 1 3.936 1.3 5.126 5.126 0 0 1 1.344 3.86A4.849 4.849 0 0 1 32.606-21a5.958 5.958 0 0 1-4.059 1.214q-.686 0-1.323-.062t-1.255-.144v-9.792q.206-.027.521-.062t.686-.062q.37-.027.761-.048t.763-.015zm-.3 8.036a1.566 1.566 0 0 0 .219.014h.261a3.782 3.782 0 0 0 1.008-.13 1.878 1.878 0 0 0 .816-.459 2.251 2.251 0 0 0 .542-.891 4.388 4.388 0 0 0 .2-1.44 4.327 4.327 0 0 0-.206-1.44 2.417 2.417 0 0 0-.542-.912 1.925 1.925 0 0 0-.789-.48 3.1 3.1 0 0 0-.946-.144q-.274 0-.4.007t-.163.01zm8.187 2.071a7.325 7.325 0 0 1-1.221-.123v-9.792q.37-.055.672-.082t.535-.027q.247 0 .555.027t.665.082v9.792a7.461 7.461 0 0 1-1.21.123zm4.649-7.8h-2.29a5.32 5.32 0 0 1-.123-1.083 5.36 5.36 0 0 1 .123-1.056h7.008q.055.3.082.562a4.726 4.726 0 0 1 .027.494 6.465 6.465 0 0 1-.11 1.083h-2.29v7.68a7.461 7.461 0 0 1-1.207.123 7.325 7.325 0 0 1-1.221-.123z" transform="translate(18030.098 10954.302)" style="fill:#0a243f"/>
        </g>
    </g>
</svg>
