<svg data-name="Group 16476" xmlns="http://www.w3.org/2000/svg" width="125.954" height="18" viewBox="0 0 125.954 18">
    <g style="opacity:.999">
        <path d="M288.277 61.39a6.556 6.556 0 0 0-1.367-2.108 6.043 6.043 0 0 0-2.038-1.378 6.17 6.17 0 0 0-2.49-.5 4.859 4.859 0 0 0-.892.093 5.973 5.973 0 0 0-.892.243 4.378 4.378 0 0 0-.8.417 2.945 2.945 0 0 0-.614.579V52.9H276v11.13a6.9 6.9 0 0 0 .5 2.664 6.577 6.577 0 0 0 1.367 2.085 6.31 6.31 0 0 0 2.039 1.367 6.406 6.406 0 0 0 2.49.486 6.574 6.574 0 0 0 2.49-.475 6.246 6.246 0 0 0 2.038-1.344 6.378 6.378 0 0 0 1.367-2.1 6.94 6.94 0 0 0 .5-2.687 6.751 6.751 0 0 0-.514-2.636zm-2.965 3.984a3.227 3.227 0 0 1-.683 1.077 3.41 3.41 0 0 1-1.019.73 2.915 2.915 0 0 1-1.228.255 3.006 3.006 0 0 1-1.239-.255 3.121 3.121 0 0 1-1.008-.73 3.423 3.423 0 0 1-.683-1.077 3.645 3.645 0 0 1-.243-1.344 3.355 3.355 0 0 1 .243-1.262 3.549 3.549 0 0 1 1.691-1.853 2.707 2.707 0 0 1 1.239-.29 2.915 2.915 0 0 1 1.228.255 3.015 3.015 0 0 1 1.019.718 3.476 3.476 0 0 1 .683 1.089 3.669 3.669 0 0 1 0 2.687z" transform="translate(-244.103 -52.9)" style="fill:#848484"/>
        <path d="M163.422 93.618a5.956 5.956 0 0 0-2.038-1.344 6.358 6.358 0 0 0-2.49-.475 6.21 6.21 0 0 0-2.49.5 6.5 6.5 0 0 0-2.038 1.39 6.381 6.381 0 0 0-1.367 2.1 6.828 6.828 0 0 0-.5 2.641 6.753 6.753 0 0 0 .5 2.617 6.631 6.631 0 0 0 1.367 2.1 6.769 6.769 0 0 0 2.038 1.39 6.475 6.475 0 0 0 4.98 0 6.768 6.768 0 0 0 2.038-1.39 6.5 6.5 0 0 0 1.367-2.1 6.754 6.754 0 0 0 .5-2.617 7.018 7.018 0 0 0-.5-2.71 6.262 6.262 0 0 0-1.367-2.102zm-1.6 6.2a3.229 3.229 0 0 1-.683 1.077 3.105 3.105 0 0 1-2.247.938 3.006 3.006 0 0 1-1.239-.255 3.123 3.123 0 0 1-1.008-.73 3.5 3.5 0 0 1-.915-2.421 3.806 3.806 0 0 1 .243-1.39 3.2 3.2 0 0 1 .672-1.077 3.022 3.022 0 0 1 1.008-.695 3.2 3.2 0 0 1 1.239-.243 3.1 3.1 0 0 1 1.228.243 2.668 2.668 0 0 1 1.019.695 3.423 3.423 0 0 1 .683 1.077 3.918 3.918 0 0 1 0 2.78z" transform="translate(-134.907 -87.295)" style="fill:#848484"/>
        <path d="M3.773 106.74v-7.945a1.526 1.526 0 0 1 .116-.614 1.562 1.562 0 0 1 .336-.51 1.4 1.4 0 0 1 .5-.336 1.618 1.618 0 0 1 .614-.127 1.531 1.531 0 0 1 .614.127 1.4 1.4 0 0 1 .51.336 1.446 1.446 0 0 1 .336.51 1.618 1.618 0 0 1 .127.614v7.945h3.2v-7.945a1.526 1.526 0 0 1 .116-.614 1.562 1.562 0 0 1 .336-.51 1.4 1.4 0 0 1 .5-.336 1.618 1.618 0 0 1 .614-.127 1.531 1.531 0 0 1 .614.127 1.4 1.4 0 0 1 .51.336 1.446 1.446 0 0 1 .336.51 1.618 1.618 0 0 1 .127.614v7.945h3.243V98.9A5.326 5.326 0 0 0 14 94.568a4.376 4.376 0 0 0-.405-.2A4.529 4.529 0 0 0 11.742 94a4.611 4.611 0 0 0-.88.081 3.887 3.887 0 0 0-.869.243 3.841 3.841 0 0 0-.788.452 3.137 3.137 0 0 0-.672.683 3.52 3.52 0 0 0-1.471-1.135 4.618 4.618 0 0 0-3.37-.012A5.111 5.111 0 0 0 2.465 95 5.347 5.347 0 0 0 .6 98.32v8.42z" transform="translate(-.6 -89.24)" style="fill:#848484"/>
    </g>
    <path data-name="Path 56979" d="M6.207-20.943q0 5.131 4.308 5.131a7.1 7.1 0 0 0 1.464-.145 14.827 14.827 0 0 0 1.682-.484 13.046 13.046 0 0 1 1.065 3.582q-.7.266-1.307.436a9.768 9.768 0 0 1-1.162.254q-.557.085-1.1.121t-1.125.036a9.163 9.163 0 0 1-3.619-.666A7.229 7.229 0 0 1 3.8-14.529a7.84 7.84 0 0 1-1.585-2.832 11.579 11.579 0 0 1-.532-3.582 11.226 11.226 0 0 1 .557-3.594 8.375 8.375 0 0 1 1.61-2.868 7.242 7.242 0 0 1 2.6-1.888 8.673 8.673 0 0 1 3.51-.678 13.7 13.7 0 0 1 2.2.169 11.354 11.354 0 0 1 2.324.678 7.061 7.061 0 0 1-.363 1.924 14.317 14.317 0 0 1-.654 1.634q-.484-.169-.883-.29t-.762-.194q-.363-.073-.726-.109t-.775-.036a3.7 3.7 0 0 0-3.038 1.319 6.115 6.115 0 0 0-1.076 3.933zm10.674-8.689q1.186-.121 2.19-.23a19.663 19.663 0 0 1 2.118-.109 14.168 14.168 0 0 1 2.662.254 7.124 7.124 0 0 1 2.372.883 4.938 4.938 0 0 1 1.694 1.718 5.292 5.292 0 0 1 .654 2.759 5.813 5.813 0 0 1-.206 1.61 5.519 5.519 0 0 1-.532 1.271 5.056 5.056 0 0 1-.726.968 6.755 6.755 0 0 1-.787.7l3.78 7.458q-.581.1-1.271.145t-1.247.048q-.484 0-1.125-.048a9.417 9.417 0 0 1-1.125-.145l-3.437-7.915.218-.121a2.72 2.72 0 0 0 .641-.484 4.483 4.483 0 0 0 .654-.811 5.094 5.094 0 0 0 .508-1.053 3.6 3.6 0 0 0 .206-1.21 2.157 2.157 0 0 0-.678-1.767 2.545 2.545 0 0 0-1.67-.557 2.969 2.969 0 0 0-.411.024.886.886 0 0 0-.218.048v13.846a13.083 13.083 0 0 1-2.106.218 12.928 12.928 0 0 1-2.154-.218zm24.083 8.278a9.293 9.293 0 0 1-.218 1.888h-4.671v3.437h6.075a8.858 8.858 0 0 1 .218 1.84 9.147 9.147 0 0 1-.218 1.912H31.791v-17.4h10.214q.1.532.145.992a8.341 8.341 0 0 1 .048.871 11.41 11.41 0 0 1-.194 1.912h-5.93v2.662h4.671a9.549 9.549 0 0 1 .219 1.886zm8.4-8.617q4.575 0 6.947 2.287t2.372 6.813q0 4.6-2.42 6.741T49.1-11.987q-1.21 0-2.336-.109t-2.215-.254v-17.282q.363-.048.92-.109t1.21-.109q.654-.048 1.343-.085t1.341-.036zm-.533 14.184a2.764 2.764 0 0 0 .387.024h.46a6.675 6.675 0 0 0 1.779-.23A3.314 3.314 0 0 0 52.9-16.8a3.973 3.973 0 0 0 .956-1.573 7.745 7.745 0 0 0 .351-2.541 7.636 7.636 0 0 0-.363-2.541 4.266 4.266 0 0 0-.956-1.61 3.4 3.4 0 0 0-1.392-.847 5.475 5.475 0 0 0-1.67-.254q-.484 0-.7.012t-.29.012zm14.45 3.655a12.928 12.928 0 0 1-2.154-.218v-17.282q.653-.1 1.186-.145t.944-.048q.436 0 .98.048t1.174.145v17.282a13.168 13.168 0 0 1-2.13.217zM71.486-25.9h-4.042a9.389 9.389 0 0 1-.218-1.912 9.46 9.46 0 0 1 .218-1.864h12.368q.1.532.145.992a8.34 8.34 0 0 1 .048.871 11.409 11.409 0 0 1-.194 1.912H75.77v13.551a13.168 13.168 0 0 1-2.13.218 12.928 12.928 0 0 1-2.154-.218z" transform="translate(45.948 29.987)" style="fill:#848484"/>
</svg>
