<svg xmlns="http://www.w3.org/2000/svg" width="108" height="28" viewBox="0 0 108 28">
    <defs>
        <linearGradient id="0sr1twfk3a" x1=".254" x2=".644" y2="1" gradientUnits="objectBoundingBox">
            <stop offset="0" stop-color="#d6f09a"/>
            <stop offset="1" stop-color="#adebf5"/>
        </linearGradient>
    </defs>
    <g data-name="Mob credit logo" transform="translate(-17994 -10917.641)">
        <rect data-name="Rectangle 15111" width="108" height="28" rx="14" transform="translate(17994 10917.641)" style="fill:#1e1e20"/>
        <g data-name="Group 16476">
            <g style="opacity:.999">
                <path d="M284.115 58.512a4.333 4.333 0 0 0-.9-1.393 4 4 0 0 0-1.347-.911 4.079 4.079 0 0 0-1.646-.329 3.213 3.213 0 0 0-.589.061 3.948 3.948 0 0 0-.59.161 2.894 2.894 0 0 0-.528.276 1.948 1.948 0 0 0-.406.383V52.9H276v7.357a4.564 4.564 0 0 0 .329 1.761 4.348 4.348 0 0 0 .9 1.378 4.171 4.171 0 0 0 1.348.9 4.234 4.234 0 0 0 1.646.322 4.345 4.345 0 0 0 1.646-.314 4.129 4.129 0 0 0 1.347-.888 4.216 4.216 0 0 0 .9-1.386 4.587 4.587 0 0 0 .329-1.776 4.462 4.462 0 0 0-.33-1.742zm-1.96 2.634a2.132 2.132 0 0 1-.452.712 2.254 2.254 0 0 1-.674.482 1.927 1.927 0 0 1-.812.168 1.987 1.987 0 0 1-.819-.168 2.063 2.063 0 0 1-.666-.482 2.263 2.263 0 0 1-.452-.712 2.409 2.409 0 0 1-.161-.888 2.217 2.217 0 0 1 .161-.834 2.346 2.346 0 0 1 1.12-1.224 1.789 1.789 0 0 1 .819-.191 1.927 1.927 0 0 1 .812.168 1.993 1.993 0 0 1 .674.475 2.3 2.3 0 0 1 .452.72 2.425 2.425 0 0 1 0 1.776z" transform="translate(17751.676 10872.536)" style="fill:#fff"/>
                <path d="M159.72 93a3.937 3.937 0 0 0-1.347-.888 4.2 4.2 0 0 0-1.646-.314 4.1 4.1 0 0 0-1.646.329 4.3 4.3 0 0 0-1.347.919 4.218 4.218 0 0 0-.9 1.386 4.514 4.514 0 0 0-.329 1.746 4.464 4.464 0 0 0 .329 1.73 4.383 4.383 0 0 0 .9 1.386 4.474 4.474 0 0 0 1.347.919 4.28 4.28 0 0 0 3.292 0 4.474 4.474 0 0 0 1.347-.919 4.3 4.3 0 0 0 .9-1.386 4.464 4.464 0 0 0 .329-1.73 4.639 4.639 0 0 0-.329-1.792 4.14 4.14 0 0 0-.9-1.386zm-1.057 4.1a2.134 2.134 0 0 1-.452.712 2.053 2.053 0 0 1-1.485.62 1.987 1.987 0 0 1-.819-.168 2.064 2.064 0 0 1-.666-.482 2.314 2.314 0 0 1-.6-1.6 2.516 2.516 0 0 1 .161-.919 2.117 2.117 0 0 1 .444-.712 2 2 0 0 1 .666-.459 2.112 2.112 0 0 1 .819-.161 2.047 2.047 0 0 1 .812.161 1.764 1.764 0 0 1 .674.459 2.262 2.262 0 0 1 .452.712 2.59 2.59 0 0 1 0 1.837z" transform="translate(17865.721 10836.614)" style="fill:#fff"/>
                <path d="M2.7 102.422V97.17a1.009 1.009 0 0 1 .077-.406A1.033 1.033 0 0 1 3 96.427a.928.928 0 0 1 .329-.222 1.07 1.07 0 0 1 .406-.084 1.012 1.012 0 0 1 .406.084.924.924 0 0 1 .337.222.956.956 0 0 1 .222.337 1.07 1.07 0 0 1 .084.406v5.252h2.109V97.17a1.009 1.009 0 0 1 .077-.406 1.033 1.033 0 0 1 .222-.337.928.928 0 0 1 .329-.222 1.07 1.07 0 0 1 .406-.084 1.012 1.012 0 0 1 .406.084.924.924 0 0 1 .337.222.956.956 0 0 1 .222.337 1.07 1.07 0 0 1 .084.406v5.252h2.144v-5.184a3.521 3.521 0 0 0-1.661-2.863 2.893 2.893 0 0 0-.268-.13A2.994 2.994 0 0 0 7.965 94a3.048 3.048 0 0 0-.582.054 2.569 2.569 0 0 0-.574.161 2.539 2.539 0 0 0-.521.3 2.073 2.073 0 0 0-.444.452 2.326 2.326 0 0 0-.972-.75 3.052 3.052 0 0 0-2.228-.008 3.379 3.379 0 0 0-.812.452A3.534 3.534 0 0 0 .6 96.856v5.566z" transform="translate(18005.992 10834.583)" style="fill:#fff"/>
            </g>
            <path data-name="Path 56979" d="M4.673-24q0 3.392 2.848 3.392a4.691 4.691 0 0 0 .968-.1 9.8 9.8 0 0 0 1.112-.32 8.624 8.624 0 0 1 .7 2.368q-.464.176-.864.288a6.457 6.457 0 0 1-.768.168q-.368.056-.728.08T7.2-18.1a6.057 6.057 0 0 1-2.392-.44 4.779 4.779 0 0 1-1.728-1.224 5.183 5.183 0 0 1-1.048-1.872A7.654 7.654 0 0 1 1.681-24a7.421 7.421 0 0 1 .368-2.376 5.536 5.536 0 0 1 1.064-1.9 4.787 4.787 0 0 1 1.72-1.248 5.733 5.733 0 0 1 2.32-.448 9.059 9.059 0 0 1 1.456.112 7.505 7.505 0 0 1 1.536.448 4.667 4.667 0 0 1-.24 1.272 9.464 9.464 0 0 1-.432 1.08q-.32-.112-.584-.192t-.5-.128q-.24-.048-.48-.072t-.512-.024a2.446 2.446 0 0 0-2.008.872A4.042 4.042 0 0 0 4.673-24zm7.056-5.744q.784-.08 1.448-.152a13 13 0 0 1 1.4-.072 9.365 9.365 0 0 1 1.76.168 4.709 4.709 0 0 1 1.568.584 3.264 3.264 0 0 1 1.12 1.136 3.5 3.5 0 0 1 .432 1.824 3.842 3.842 0 0 1-.136 1.064 3.648 3.648 0 0 1-.352.84 3.342 3.342 0 0 1-.48.64 4.465 4.465 0 0 1-.52.464l2.5 4.928q-.384.064-.84.1t-.829.02q-.32 0-.744-.032a6.225 6.225 0 0 1-.744-.1l-2.272-5.232.144-.08a1.8 1.8 0 0 0 .424-.32 2.963 2.963 0 0 0 .432-.536 3.367 3.367 0 0 0 .336-.7 2.379 2.379 0 0 0 .136-.8 1.426 1.426 0 0 0-.448-1.168 1.682 1.682 0 0 0-1.1-.368 1.963 1.963 0 0 0-.272.016.585.585 0 0 0-.144.032v9.152a8.648 8.648 0 0 1-1.392.144 8.546 8.546 0 0 1-1.424-.144zm15.92 5.472a6.143 6.143 0 0 1-.144 1.248h-3.089v2.272h4.016a5.855 5.855 0 0 1 .144 1.216 6.046 6.046 0 0 1-.144 1.264h-6.848v-11.5h6.752q.064.352.1.656a5.514 5.514 0 0 1 .032.576 7.542 7.542 0 0 1-.128 1.264h-3.92v1.76h3.08a6.312 6.312 0 0 1 .148 1.241zm5.552-5.7a6.364 6.364 0 0 1 4.592 1.512 5.981 5.981 0 0 1 1.568 4.5 5.658 5.658 0 0 1-1.6 4.456 6.95 6.95 0 0 1-4.736 1.416q-.8 0-1.544-.072t-1.464-.168v-11.419q.24-.032.608-.072t.8-.072q.432-.032.888-.056t.887-.024zm-.353 9.372a1.827 1.827 0 0 0 .256.016h.3a4.413 4.413 0 0 0 1.176-.152 2.191 2.191 0 0 0 .952-.536 2.626 2.626 0 0 0 .632-1.04 5.119 5.119 0 0 0 .232-1.68 5.048 5.048 0 0 0-.24-1.68 2.82 2.82 0 0 0-.632-1.064 2.246 2.246 0 0 0-.92-.56 3.619 3.619 0 0 0-1.1-.168q-.32 0-.464.008t-.192.008zm9.552 2.421a8.546 8.546 0 0 1-1.424-.144v-11.424q.432-.064.784-.1t.624-.032q.288 0 .648.032t.776.1v11.424a8.7 8.7 0 0 1-1.408.144zm5.424-9.1h-2.672a6.206 6.206 0 0 1-.144-1.264 6.253 6.253 0 0 1 .144-1.232h8.176q.064.352.1.656a5.514 5.514 0 0 1 .032.576 7.542 7.542 0 0 1-.128 1.264h-2.676v8.96a8.7 8.7 0 0 1-1.408.144 8.546 8.546 0 0 1-1.424-.144z" transform="translate(18036.395 10955.418)" style="fill:url(#0sr1twfk3a)"/>
        </g>
    </g>
</svg>
