<svg data-name="Group 16476" xmlns="http://www.w3.org/2000/svg" width="84.182" height="12.03" viewBox="0 0 84.182 12.03">
    <defs>
        <linearGradient id="fbyt88re5a" x1=".254" x2=".644" y2="1" gradientUnits="objectBoundingBox">
            <stop offset="0" stop-color="#d6f09a"/>
            <stop offset="1" stop-color="#adebf5"/>
        </linearGradient>
    </defs>
    <g style="opacity:.999">
        <path d="M284.205 58.574a4.382 4.382 0 0 0-.913-1.409 4.039 4.039 0 0 0-1.362-.921 4.124 4.124 0 0 0-1.664-.333 3.248 3.248 0 0 0-.6.062 3.991 3.991 0 0 0-.6.163 2.924 2.924 0 0 0-.534.279 1.969 1.969 0 0 0-.41.387V52.9H276v7.439a4.614 4.614 0 0 0 .333 1.78 4.4 4.4 0 0 0 .913 1.393 4.216 4.216 0 0 0 1.362.913 4.281 4.281 0 0 0 1.664.325 4.394 4.394 0 0 0 1.664-.317 4.174 4.174 0 0 0 1.362-.9 4.262 4.262 0 0 0 .913-1.4 4.638 4.638 0 0 0 .333-1.8 4.512 4.512 0 0 0-.339-1.759zm-1.982 2.663a2.157 2.157 0 0 1-.457.72 2.279 2.279 0 0 1-.681.488 1.948 1.948 0 0 1-.821.17 2.008 2.008 0 0 1-.828-.17 2.086 2.086 0 0 1-.673-.488 2.289 2.289 0 0 1-.457-.72 2.436 2.436 0 0 1-.163-.9 2.242 2.242 0 0 1 .163-.844 2.372 2.372 0 0 1 1.13-1.239 1.809 1.809 0 0 1 .828-.194 1.948 1.948 0 0 1 .821.17 2.015 2.015 0 0 1 .681.48 2.324 2.324 0 0 1 .457.728 2.452 2.452 0 0 1 0 1.8z" transform="translate(-254.682 -52.9)" style="fill:#fff"/>
        <path d="M159.8 93.015a3.981 3.981 0 0 0-1.362-.9 4.249 4.249 0 0 0-1.664-.317 4.15 4.15 0 0 0-1.664.333 4.345 4.345 0 0 0-1.362.929 4.264 4.264 0 0 0-.913 1.4 4.564 4.564 0 0 0-.333 1.765 4.513 4.513 0 0 0 .333 1.749 4.431 4.431 0 0 0 .913 1.4 4.523 4.523 0 0 0 1.362.929 4.327 4.327 0 0 0 3.329 0 4.524 4.524 0 0 0 1.362-.929 4.347 4.347 0 0 0 .913-1.4 4.514 4.514 0 0 0 .333-1.749 4.69 4.69 0 0 0-.333-1.811 4.186 4.186 0 0 0-.914-1.399zm-1.068 4.141a2.157 2.157 0 0 1-.457.72 2.075 2.075 0 0 1-1.5.627 2.009 2.009 0 0 1-.828-.17 2.087 2.087 0 0 1-.673-.488 2.34 2.34 0 0 1-.611-1.618 2.544 2.544 0 0 1 .163-.929 2.14 2.14 0 0 1 .449-.72 2.02 2.02 0 0 1 .673-.464 2.136 2.136 0 0 1 .828-.163 2.07 2.07 0 0 1 .821.163 1.784 1.784 0 0 1 .681.464 2.286 2.286 0 0 1 .457.72 2.619 2.619 0 0 1 0 1.858z" transform="translate(-140.742 -88.789)" style="fill:#fff"/>
        <path d="M2.721 102.515V97.2a1.02 1.02 0 0 1 .077-.41 1.044 1.044 0 0 1 .224-.341.938.938 0 0 1 .333-.224 1.082 1.082 0 0 1 .41-.085 1.023 1.023 0 0 1 .41.085.934.934 0 0 1 .341.224.966.966 0 0 1 .224.341 1.082 1.082 0 0 1 .085.41v5.31h2.138V97.2a1.02 1.02 0 0 1 .077-.41 1.044 1.044 0 0 1 .224-.341.938.938 0 0 1 .333-.224 1.082 1.082 0 0 1 .41-.085 1.023 1.023 0 0 1 .41.085.934.934 0 0 1 .341.224.966.966 0 0 1 .224.341 1.082 1.082 0 0 1 .085.41v5.31h2.167v-5.236a3.56 3.56 0 0 0-1.68-2.9 2.926 2.926 0 0 0-.271-.132A3.027 3.027 0 0 0 8.047 94a3.081 3.081 0 0 0-.588.054 2.6 2.6 0 0 0-.581.163 2.567 2.567 0 0 0-.526.3 2.1 2.1 0 0 0-.449.457 2.352 2.352 0 0 0-.983-.759 3.086 3.086 0 0 0-2.253-.008 3.417 3.417 0 0 0-.821.457A3.574 3.574 0 0 0 .6 96.887v5.628z" transform="translate(-.6 -90.819)" style="fill:#fff"/>
    </g>
    <path data-name="Path 56979" d="M4.706-23.937q0 3.43 2.879 3.43a4.743 4.743 0 0 0 .979-.1 9.91 9.91 0 0 0 1.124-.324 8.72 8.72 0 0 1 .712 2.394q-.469.178-.874.291a6.528 6.528 0 0 1-.776.17q-.372.057-.736.081t-.752.024a6.124 6.124 0 0 1-2.418-.445A4.832 4.832 0 0 1 3.1-19.65a5.24 5.24 0 0 1-1.06-1.893 7.739 7.739 0 0 1-.356-2.394 7.5 7.5 0 0 1 .372-2.4 5.6 5.6 0 0 1 1.076-1.917 4.84 4.84 0 0 1 1.739-1.262 5.8 5.8 0 0 1 2.346-.453 9.16 9.16 0 0 1 1.472.113 7.588 7.588 0 0 1 1.553.453A4.719 4.719 0 0 1 10-28.119a9.569 9.569 0 0 1-.437 1.092q-.324-.113-.59-.194t-.51-.129q-.243-.049-.485-.073t-.518-.024a2.473 2.473 0 0 0-2.03.882 4.087 4.087 0 0 0-.724 2.628zm7.134-5.808q.793-.081 1.464-.154a13.143 13.143 0 0 1 1.415-.073 9.469 9.469 0 0 1 1.779.17 4.761 4.761 0 0 1 1.585.59 3.3 3.3 0 0 1 1.132 1.149 3.537 3.537 0 0 1 .437 1.844 3.885 3.885 0 0 1-.138 1.076 3.689 3.689 0 0 1-.356.849 3.379 3.379 0 0 1-.485.647 4.515 4.515 0 0 1-.526.469l2.524 4.982q-.388.065-.849.1t-.833.032q-.324 0-.752-.032a6.294 6.294 0 0 1-.752-.1l-2.3-5.29.146-.081a1.818 1.818 0 0 0 .429-.324 3 3 0 0 0 .437-.542 3.4 3.4 0 0 0 .34-.7 2.4 2.4 0 0 0 .138-.809 1.441 1.441 0 0 0-.453-1.181 1.7 1.7 0 0 0-1.116-.372 1.984 1.984 0 0 0-.275.016.592.592 0 0 0-.146.032v9.253a8.744 8.744 0 0 1-1.407.146 8.64 8.64 0 0 1-1.44-.146zm16.1 5.533a6.211 6.211 0 0 1-.146 1.262h-3.126v2.3h4.06a5.92 5.92 0 0 1 .146 1.229 6.113 6.113 0 0 1-.146 1.278h-6.923v-11.634h6.827q.065.356.1.663a5.574 5.574 0 0 1 .032.582 7.626 7.626 0 0 1-.129 1.278h-3.967v1.779h3.122a6.382 6.382 0 0 1 .146 1.263zm5.613-5.759a6.434 6.434 0 0 1 4.643 1.529 6.047 6.047 0 0 1 1.585 4.554 5.72 5.72 0 0 1-1.618 4.505 7.028 7.028 0 0 1-4.788 1.432q-.809 0-1.561-.073t-1.48-.17v-11.55q.243-.032.615-.073t.809-.073q.437-.032.9-.057t.892-.024zm-.356 9.48a1.848 1.848 0 0 0 .259.016h.307a4.461 4.461 0 0 0 1.189-.154 2.215 2.215 0 0 0 .963-.542 2.656 2.656 0 0 0 .639-1.052 5.176 5.176 0 0 0 .235-1.7 5.1 5.1 0 0 0-.243-1.7A2.852 2.852 0 0 0 35.9-26.7a2.271 2.271 0 0 0-.93-.566 3.659 3.659 0 0 0-1.116-.17q-.324 0-.469.008t-.194.008zm9.658 2.443a8.64 8.64 0 0 1-1.44-.146v-11.55q.437-.065.793-.1t.631-.032q.291 0 .655.032t.785.1v11.55a8.8 8.8 0 0 1-1.428.145zm5.484-9.2h-2.7a6.275 6.275 0 0 1-.146-1.278 6.322 6.322 0 0 1 .146-1.246H53.9q.065.356.1.663a5.575 5.575 0 0 1 .032.582 7.626 7.626 0 0 1-.129 1.278H51.2v9.059a8.8 8.8 0 0 1-1.424.146 8.64 8.64 0 0 1-1.44-.146z" transform="translate(30.152 29.982)" style="fill:url(#fbyt88re5a)"/>
</svg>
