<svg xmlns="http://www.w3.org/2000/svg" width="16" height="16" viewBox="0 0 16 16">
    <g data-name="Layer 2">
        <path data-name="Path 47042" d="m9.726 5.42-7.657 7.657a1.771 1.771 0 0 0-.506 1.049l-.305 2.679A1.347 1.347 0 0 0 2.6 18.293h.156l2.679-.305a1.8 1.8 0 0 0 1.049-.5l7.657-7.665z" transform="translate(-1.25 -2.315)" style="fill:#6c7c8b"/>
        <path data-name="Path 47043" d="m19.921 3.705-1.942-1.942a1.749 1.749 0 0 0-2.478 0l-1.8 1.8 4.42 4.42 1.8-1.8a1.749 1.749 0 0 0 0-2.478z" transform="translate(-4.436 -1.248)" style="fill:#6c7c8b"/>
    </g>
</svg>
