<svg xmlns="http://www.w3.org/2000/svg" width="20" height="20" viewBox="0 0 20 20">
    <g data-name="upload icon">
        <path data-name="Path 46950" d="M19.091 10.909a.909.909 0 0 0-.909.909v3.83a2.536 2.536 0 0 1-2.534 2.534H4.352a2.536 2.536 0 0 1-2.534-2.534v-3.83a.909.909 0 1 0-1.818 0v3.83A4.356 4.356 0 0 0 4.352 20h11.3A4.356 4.356 0 0 0 20 15.648v-3.83a.909.909 0 0 0-.909-.909z"/>
        <path data-name="Path 46951" d="m5.188 7.006 3.9-3.9v11.439a.909.909 0 0 0 1.818 0V3.1l3.9 3.9a.91.91 0 1 0 1.286-1.286L10.642.266a.909.909 0 0 0-1.285 0L3.902 5.721a.909.909 0 1 0 1.286 1.285z"/>
    </g>
</svg>
