<svg xmlns="http://www.w3.org/2000/svg" width="23.999" height="24" viewBox="0 0 23.999 24">
    <g data-name="Group 17172" transform="translate(-564 -2275)">
        <path d="M15.954 9.924A8.092 8.092 0 0 0 5.895.264a.562.562 0 0 0-.246.939l3.586 3.586L8.3 8.273l-3.484.934-3.585-3.586a.562.562 0 0 0-.939.246 8.1 8.1 0 0 0 9.66 10.059L17.33 23.3a2.256 2.256 0 0 0 3.187 0l2.817-2.816a2.257 2.257 0 0 0 0-3.187z" transform="translate(564.008 2275.037)" style="fill-rule:evenodd"/>
        <circle data-name="Ellipse 999" cx="2" cy="2" r="2" transform="translate(581 2292)" style="fill:#fff"/>
    </g>
</svg>
