<svg xmlns="http://www.w3.org/2000/svg" width="20" height="20" viewBox="0 0 20 20">
    <g data-name="Group 14450">
        <g data-name="Group 11502">
            <g data-name="Group 11501">
                <path data-name="Path 46890" d="m19.981 37.474-1.131-4.528A1.249 1.249 0 0 0 17.637 32H2.364a1.252 1.252 0 0 0-1.214.946L.019 37.474a.611.611 0 0 0-.019.151 3.053 3.053 0 0 0 2.969 3.125 2.917 2.917 0 0 0 2.344-1.209 2.877 2.877 0 0 0 4.688 0 2.877 2.877 0 0 0 4.688 0 2.915 2.915 0 0 0 2.344 1.209A3.053 3.053 0 0 0 20 37.625a.611.611 0 0 0-.019-.151z" transform="translate(0 -31)" style="fill:#2973f0"/>
            </g>
        </g>
        <g data-name="Group 11504">
            <g data-name="Group 11503">
                <path data-name="Path 46891" d="M47.781 269.919a4.09 4.09 0 0 1-2.344-.735 4.206 4.206 0 0 1-4.687 0 4.206 4.206 0 0 1-4.687 0 4.058 4.058 0 0 1-4.063.346v6.639a1.25 1.25 0 0 0 1.25 1.25h5v-5h5v5h5a1.25 1.25 0 0 0 1.25-1.25v-6.639a4.055 4.055 0 0 1-1.719.389z" transform="translate(-30.75 -258.919)" style="fill:#2973f0"/>
            </g>
        </g>
    </g>
</svg>
