<svg xmlns="http://www.w3.org/2000/svg" width="56" height="56" viewBox="0 0 56 56">
    <g data-name="Group 14436" transform="translate(-424 -1052)">
        <rect data-name="Rectangle 288" width="56" height="56" rx="16" transform="translate(424 1052)" style="fill:#0354a3"/>
        <g data-name="mob logo final">
            <path data-name="Path 2506" d="M417.717 163a1.716 1.716 0 0 1 1.717 1.717 1.716 1.716 0 0 1-1.717 1.717 1.716 1.716 0 0 1-1.717-1.717 1.717 1.717 0 0 1 1.717-1.717z" transform="translate(46.766 919.484)" style="fill:#00de9d"/>
            <path data-name="Path 2507" d="M417.717 108a1.716 1.716 0 0 1 1.717 1.717 1.716 1.716 0 0 1-1.717 1.717 1.717 1.717 0 0 1-1.717-1.717 1.716 1.716 0 0 1 1.717-1.717z" transform="translate(46.766 969.988)" style="fill:#00de9d"/>
            <path data-name="Path 2508" d="M417.717 53a1.716 1.716 0 0 1 1.717 1.717 1.716 1.716 0 0 1-1.717 1.717A1.716 1.716 0 0 1 416 54.717 1.716 1.716 0 0 1 417.717 53z" transform="translate(46.766 1020.492)" style="fill:#00de9d"/>
            <path data-name="Path 2509" d="M472.717 163a1.716 1.716 0 0 1 1.717 1.717 1.716 1.716 0 0 1-1.717 1.717 1.716 1.716 0 0 1-1.717-1.717 1.716 1.716 0 0 1 1.717-1.717z" transform="translate(-3.738 919.484)" style="fill:#00de9d"/>
            <path data-name="Path 2510" d="M472.717 108a1.716 1.716 0 0 1 1.717 1.717 1.716 1.716 0 0 1-1.717 1.717 1.716 1.716 0 0 1-1.717-1.717 1.716 1.716 0 0 1 1.717-1.717z" transform="translate(-3.738 969.988)" style="fill:#00de9d"/>
            <path data-name="Path 2511" d="M472.717 53a1.716 1.716 0 0 1 1.717 1.717 1.716 1.716 0 0 1-1.717 1.717A1.716 1.716 0 0 1 471 54.717 1.716 1.716 0 0 1 472.717 53z" transform="translate(-3.738 1020.492)" style="fill:#00de9d"/>
            <path data-name="Path 2512" d="M527.717 108a1.716 1.716 0 0 1 1.717 1.717 1.717 1.717 0 0 1-1.717 1.717 1.716 1.716 0 0 1-1.717-1.717 1.716 1.716 0 0 1 1.717-1.717z" transform="translate(-54.242 969.988)" style="fill:#00de9d"/>
            <g>
                <path d="M284.665 58.892a4.627 4.627 0 0 0-.965-1.492 4.266 4.266 0 0 0-1.439-.973 4.355 4.355 0 0 0-1.758-.352 3.432 3.432 0 0 0-.629.065 4.218 4.218 0 0 0-.629.172 3.089 3.089 0 0 0-.564.294 2.078 2.078 0 0 0-.433.409V52.9H276v7.856a4.873 4.873 0 0 0 .352 1.88 4.643 4.643 0 0 0 .965 1.471 4.452 4.452 0 0 0 1.439.965 4.522 4.522 0 0 0 1.758.343 4.639 4.639 0 0 0 1.758-.335 4.409 4.409 0 0 0 1.439-.948 4.5 4.5 0 0 0 .965-1.48 4.9 4.9 0 0 0 .352-1.9 4.765 4.765 0 0 0-.363-1.86zm-2.092 2.808a2.279 2.279 0 0 1-.482.76 2.408 2.408 0 0 1-.719.515 2.058 2.058 0 0 1-.867.18 2.122 2.122 0 0 1-.875-.18 2.2 2.2 0 0 1-.711-.515 2.414 2.414 0 0 1-.482-.76 2.572 2.572 0 0 1-.172-.948 2.367 2.367 0 0 1 .172-.891 2.5 2.5 0 0 1 1.193-1.308 1.911 1.911 0 0 1 .875-.2 2.057 2.057 0 0 1 .867.18 2.129 2.129 0 0 1 .719.507 2.455 2.455 0 0 1 .482.768 2.59 2.59 0 0 1 0 1.9z" transform="translate(175.321 1020.584)" style="fill:#fff"/>
                <path d="M160.209 93.083a4.2 4.2 0 0 0-1.439-.948 4.487 4.487 0 0 0-1.758-.335 4.383 4.383 0 0 0-1.758.352 4.589 4.589 0 0 0-1.439.981 4.5 4.5 0 0 0-.965 1.48 4.82 4.82 0 0 0-.352 1.864 4.767 4.767 0 0 0 .352 1.847 4.68 4.68 0 0 0 .965 1.48 4.776 4.776 0 0 0 1.439.981 4.57 4.57 0 0 0 3.515 0 4.776 4.776 0 0 0 1.439-.981 4.59 4.59 0 0 0 .965-1.48 4.767 4.767 0 0 0 .352-1.847 4.953 4.953 0 0 0-.352-1.913 4.42 4.42 0 0 0-.964-1.481zm-1.128 4.373a2.279 2.279 0 0 1-.482.76 2.192 2.192 0 0 1-1.586.662 2.122 2.122 0 0 1-.875-.18 2.2 2.2 0 0 1-.711-.515 2.471 2.471 0 0 1-.646-1.709 2.686 2.686 0 0 1 .172-.981 2.26 2.26 0 0 1 .474-.76 2.133 2.133 0 0 1 .711-.49 2.255 2.255 0 0 1 .875-.172 2.186 2.186 0 0 1 .867.172 1.884 1.884 0 0 1 .719.49 2.415 2.415 0 0 1 .482.76 2.766 2.766 0 0 1 0 1.962z" transform="translate(288.725 984.864)" style="fill:#fff"/>
                <path d="M2.84 102.992v-5.608a1.077 1.077 0 0 1 .082-.433 1.1 1.1 0 0 1 .237-.36.991.991 0 0 1 .352-.237 1.142 1.142 0 0 1 .433-.09 1.081 1.081 0 0 1 .433.09.987.987 0 0 1 .36.237 1.021 1.021 0 0 1 .237.36 1.142 1.142 0 0 1 .09.433v5.608H7.32v-5.608a1.077 1.077 0 0 1 .082-.433 1.1 1.1 0 0 1 .237-.36.991.991 0 0 1 .352-.237 1.142 1.142 0 0 1 .433-.09 1.081 1.081 0 0 1 .433.09.987.987 0 0 1 .36.237 1.02 1.02 0 0 1 .237.36 1.142 1.142 0 0 1 .09.433v5.608h2.289v-5.534a3.759 3.759 0 0 0-1.775-3.058 3.088 3.088 0 0 0-.286-.139A3.2 3.2 0 0 0 8.464 94a3.255 3.255 0 0 0-.621.057 2.742 2.742 0 0 0-.613.172 2.71 2.71 0 0 0-.556.319 2.214 2.214 0 0 0-.474.482 2.484 2.484 0 0 0-1.038-.8 3.259 3.259 0 0 0-2.379-.008 3.607 3.607 0 0 0-.867.482A3.774 3.774 0 0 0 .6 97.049v5.943z" transform="translate(428.208 982.844)" style="fill:#fff"/>
            </g>
        </g>
    </g>
</svg>
