<svg xmlns="http://www.w3.org/2000/svg" width="16" height="16" viewBox="0 0 16 16">
    <g data-name="Group 14464">
        <path data-name="clipboard (2)" d="M12.667.829V2.05a2.052 2.052 0 0 1-2.051 2.051H6.103A2.052 2.052 0 0 1 4.05 2.05V.829A2.258 2.258 0 0 0 2 3.077v10.667A2.255 2.255 0 0 0 4.256 16h8.205a2.255 2.255 0 0 0 2.256-2.256V3.077a2.258 2.258 0 0 0-2.05-2.248zM9.179 12.718H5.897a.616.616 0 1 1 0-1.231h3.282a.616.616 0 0 1 0 1.231zm1.641-2.462H5.897a.616.616 0 1 1 0-1.231h4.923a.616.616 0 0 1 0 1.231zm0-2.462H5.897a.616.616 0 1 1 0-1.231h4.923a.616.616 0 0 1 0 1.231zM5.282 2.05V.821A.821.821 0 0 1 6.103 0h4.513a.821.821 0 0 1 .821.821V2.05a.821.821 0 0 1-.821.821H6.103a.821.821 0 0 1-.821-.821z"/>
    </g>
</svg>
