<svg id="Arrow" xmlns="http://www.w3.org/2000/svg" width="32" height="32" viewBox="0 0 32 32">
  <path id="Path_2506" data-name="Path 2506" d="M420.421,163h0a4.421,4.421,0,0,1,4.421,4.421h0a4.42,4.42,0,0,1-4.421,4.421h0A4.42,4.42,0,0,1,416,167.421h0A4.421,4.421,0,0,1,420.421,163Z" transform="translate(-416 -139.842)" fill="#00de9d"/>
  <path id="Path_2507" data-name="Path 2507" d="M420.421,108h0a4.421,4.421,0,0,1,4.421,4.421h0a4.421,4.421,0,0,1-4.421,4.421h0A4.421,4.421,0,0,1,416,112.421h0A4.421,4.421,0,0,1,420.421,108Z" transform="translate(-416 -96.421)" fill="#00de9d"/>
  <path id="Path_2508" data-name="Path 2508" d="M420.421,53h0a4.421,4.421,0,0,1,4.421,4.421h0a4.421,4.421,0,0,1-4.421,4.421h0A4.421,4.421,0,0,1,416,57.421h0A4.421,4.421,0,0,1,420.421,53Z" transform="translate(-416 -53)" fill="#00de9d"/>
  <path id="Path_2509" data-name="Path 2509" d="M475.421,163h0a4.421,4.421,0,0,1,4.421,4.421h0a4.42,4.42,0,0,1-4.421,4.421h0A4.42,4.42,0,0,1,471,167.421h0A4.421,4.421,0,0,1,475.421,163Z" transform="translate(-459.421 -139.842)" fill="#00de9d"/>
  <path id="Path_2510" data-name="Path 2510" d="M475.421,108h0a4.421,4.421,0,0,1,4.421,4.421h0a4.421,4.421,0,0,1-4.421,4.421h0A4.421,4.421,0,0,1,471,112.421h0A4.421,4.421,0,0,1,475.421,108Z" transform="translate(-459.421 -96.421)" fill="#00de9d"/>
  <path id="Path_2511" data-name="Path 2511" d="M475.421,53h0a4.421,4.421,0,0,1,4.421,4.421h0a4.421,4.421,0,0,1-4.421,4.421h0A4.421,4.421,0,0,1,471,57.421h0A4.421,4.421,0,0,1,475.421,53Z" transform="translate(-459.421 -53)" fill="#00de9d"/>
  <path id="Path_2512" data-name="Path 2512" d="M530.421,108h0a4.421,4.421,0,0,1,4.421,4.421h0a4.421,4.421,0,0,1-4.421,4.421h0A4.42,4.42,0,0,1,526,112.421h0A4.421,4.421,0,0,1,530.421,108Z" transform="translate(-502.842 -96.421)" fill="#00de9d"/>
</svg>
